<svg width="131" height="70" viewBox="0 0 131 70" fill="none" xmlns="http://www.w3.org/2000/svg">
<path d="M65.7768 47C65.8685 47 66.0183 46.9694 66.1376 46.9083C73.4447 43.2669 76.8537 39.9283 81.1432 33.0064C82.7422 30.3587 83.6503 29.0042 87.5423 28.4325C93.6418 27.5611 121.174 25.635 126.61 24.8829C128.933 24.5527 129.569 24.1919 130.655 23.0484C130.835 22.8681 130.835 22.7183 130.505 22.7488C129.811 22.81 102.337 23.984 85.8546 24.5833C81.8097 24.7942 80.6021 24.7025 77.2206 23.5896C72.2065 22.0517 67.6785 21 65.7768 21C63.8751 21 59.3471 22.0517 54.3361 23.5865C50.9546 24.6994 49.7469 24.7912 45.702 24.5802C29.2166 23.9779 1.74295 22.8069 1.04892 22.7458C0.715667 22.7152 0.715667 22.865 0.89911 23.0454C1.98448 24.1889 2.62042 24.5496 4.94403 24.8798C10.377 25.6319 37.9118 27.5581 44.0113 28.4294C47.9064 29.0012 48.8114 30.3556 50.4104 33.0033C54.6968 39.9252 58.1089 43.2639 65.416 46.9052C65.5353 46.9664 65.6881 46.9969 65.7768 46.9969V47Z" fill="black"/>
<path d="M74.5912 43.9304C79.3608 43.1477 82.9532 42.3956 89.7467 40.7721C89.9882 40.711 89.9882 40.6529 89.7161 40.6223C86.726 40.4419 84.1914 40.2615 82.409 40.1117C81.987 40.0812 81.9565 39.9313 82.1369 39.6898C82.6199 39.0875 83.1336 38.9683 84.4024 38.9683C85.5795 38.9683 88.539 38.9988 91.5261 39.0294C97.4421 39.06 103.27 37.5558 110.546 35.1465C110.638 35.116 110.607 35.0548 110.516 35.0548C100.341 35.2964 87.9948 35.4156 86.0014 35.4156C85.6987 35.4156 85.7293 35.2046 85.9402 34.9631C86.3927 34.4219 86.9064 34.1498 88.5971 34.0306C90.9513 33.8502 111.029 32.8871 114.319 32.7679C118.214 32.6181 120.599 32.0158 123.8 29.579C124.735 28.8881 125.974 27.8333 127.09 26.7204C127.27 26.54 127.27 26.4208 126.94 26.4483C120.84 26.9894 89.7773 29.8787 88.3281 30.0591C85.6712 30.3892 84.4635 31.1108 83.4668 32.6762C80.1771 37.7912 78.7279 40.2891 74.4414 43.6889C74.261 43.8387 74.261 43.9885 74.5912 43.9304Z" fill="black"/>
<path d="M65.7767 45.1045C65.7156 45.1045 65.6269 45.1045 65.4741 45.0128C59.5275 41.4631 53.4585 35.9843 52.2203 29.6066C51.7984 27.2004 52.7034 26.7479 54.2137 26.2068C56.9317 25.2131 63.181 23.287 65.7767 23.287C68.3725 23.287 74.6218 25.2131 77.3398 26.2068C78.8501 26.7479 79.7551 27.2004 79.3332 29.6066C78.095 35.9874 72.026 41.4631 66.0794 45.0128C65.9296 45.1045 65.8379 45.1045 65.7767 45.1045Z" fill="white"/>
<path d="M56.9624 43.9304C57.2957 43.9916 57.2957 43.8387 57.1122 43.6889C52.8258 40.2891 51.3766 37.7912 48.0868 32.6762C47.0901 31.1108 45.8824 30.3893 43.2256 30.0591C41.7764 29.8787 10.7103 26.9894 4.61386 26.4483C4.28061 26.4177 4.28061 26.54 4.46405 26.7204C5.58 27.8333 6.81824 28.8881 7.7538 29.5791C10.9549 32.0158 13.3396 32.6181 17.2347 32.7679C20.5245 32.8871 40.6023 33.8502 42.9565 34.0306C44.6473 34.1498 45.1609 34.4219 45.6134 34.9631C45.8243 35.2046 45.8549 35.4156 45.5522 35.4156C43.5588 35.4156 31.2131 35.2964 21.0381 35.0548C20.9464 35.0548 20.9189 35.116 21.0076 35.1465C28.2841 37.5527 34.1115 39.06 40.0275 39.0294C43.0177 38.9989 45.9742 38.9683 47.1512 38.9683C48.4201 38.9683 48.9337 39.0875 49.4168 39.6898C49.5972 39.9314 49.5666 40.0812 49.1447 40.1117C47.3622 40.2616 44.8276 40.4419 41.8375 40.6223C41.5654 40.6529 41.5654 40.714 41.8069 40.7721C48.6005 42.3956 52.1929 43.1508 56.9624 43.9304Z" fill="black"/>
<path d="M75.4535 30.218C75.0316 29.9948 74.5852 29.8725 74.5852 29.4873C74.5852 29.2977 74.7686 29.1418 75.1263 29.1418C75.484 29.1418 75.8448 29.2733 76.1475 29.4047L76.2423 28.8942C75.9549 28.7963 75.588 28.7138 75.1814 28.7138C74.2978 28.7138 73.8086 29.1082 73.8086 29.6493C73.8086 30.1905 74.1908 30.4626 74.7166 30.7102C75.1783 30.9243 75.5666 31.0649 75.5666 31.4012C75.5666 31.655 75.3679 31.8201 74.9765 31.8201C74.6096 31.8201 74.2183 31.6886 73.9156 31.5571L73.8606 32.1472C74.0043 32.187 74.5699 32.2879 75.001 32.2879C75.7103 32.2879 76.3493 31.9424 76.3493 31.3187C76.3493 30.695 75.8999 30.4565 75.4535 30.218ZM61.3528 29.2244L61.2336 28.7902H58.7938L58.7143 28.995L58.8672 29.0684C58.9711 29.1173 58.9956 29.1846 58.9956 29.2977V32.2145H61.3559V31.7712H59.7538V30.6552H61.1419V30.2272H59.7538V29.2244H61.3559H61.3528ZM70.5403 30.218C70.1183 29.9948 69.672 29.8725 69.672 29.4873C69.672 29.2977 69.8554 29.1418 70.2131 29.1418C70.5708 29.1418 70.9316 29.2733 71.2343 29.4047L71.3291 28.8942C71.0417 28.7963 70.6748 28.7138 70.2681 28.7138C69.3846 28.7138 68.926 29.1082 68.926 29.6493C68.926 30.1905 69.2806 30.4626 69.8065 30.7102C70.2682 30.9243 70.6564 31.0649 70.6564 31.4012C70.6564 31.655 70.4577 31.8201 70.0664 31.8201C69.6995 31.8201 69.3081 31.6886 69.0055 31.5571L68.9504 32.1472C69.0941 32.187 69.6597 32.2879 70.0908 32.2879C70.8001 32.2879 71.4391 31.9424 71.4391 31.3187C71.4391 30.695 70.9897 30.4565 70.5433 30.218H70.5403ZM71.9558 28.995L72.1087 29.0684C72.2218 29.1265 72.2432 29.1846 72.2432 29.2977V32.2145H73.0015V28.7902H72.0445L71.9558 28.995ZM68.3909 29.2244L68.2717 28.7902H65.8319L65.7524 28.995L65.9053 29.0684C66.0092 29.1173 66.0337 29.1846 66.0337 29.2977V32.2145H68.394V31.7712H66.7919V30.6552H68.18V30.2272H66.7919V29.2244H68.394H68.3909ZM64.5294 31.1138L62.6889 28.7902H61.9643L61.8756 28.995L62.0285 29.0684C62.1416 29.1265 62.163 29.1846 62.163 29.2916V32.2145H62.7042V29.9979L64.4652 32.2145H65.0706V28.7902H64.5294V31.1138ZM56.9655 30.5879L57.3018 30.7286C57.3966 30.7683 57.4363 30.8203 57.4363 30.9334V31.6978C57.2926 31.7712 57.1 31.8384 56.886 31.8292C56.2317 31.8048 55.7547 31.2789 55.7547 30.5146C55.7547 29.7502 56.1858 29.151 56.9257 29.151C57.1092 29.151 57.5158 29.1907 57.9377 29.5362L58.0906 28.9767C57.5892 28.7627 57.2926 28.7138 56.9104 28.6985C55.8495 28.674 54.9659 29.2641 54.9659 30.5207C54.9659 31.6458 55.7547 32.2879 56.7912 32.2879C57.5555 32.2879 58.0203 32.0341 58.1303 31.9424V30.3892H57.045L56.9655 30.5849V30.5879Z" fill="black"/>
</svg>
