<svg width="148" height="70" viewBox="0 0 148 70" fill="none" xmlns="http://www.w3.org/2000/svg">
<path d="M9.99144 49.2981V40.7922C7.68623 40.4504 5.63212 39.4983 4.0523 38.044C1.70524 35.8888 0.56833 32.8059 0.840351 29.3638C1.07052 26.511 2.42366 23.8501 4.65214 21.8762C7.24681 19.5849 10.3506 18.5143 14.424 18.5143C23.1984 18.5143 30.3338 25.4473 30.3338 33.9707C30.3338 38.0022 28.7435 41.8175 25.8594 44.7155C22.7451 47.8543 18.4311 49.5143 13.3778 49.5143C11.8782 49.5143 10.2669 49.319 9.99144 49.2981ZM13.9183 25.96C18.6752 26.1623 21.643 29.0813 21.5105 33.4266C21.3884 37.3396 18.4555 40.2342 14.0404 40.8061C13.5835 40.8654 13.1267 40.9038 12.6803 40.9247V46.9196C12.9279 46.9266 13.172 46.9336 13.4091 46.9336C17.7057 46.9336 21.3466 45.5525 23.9447 42.9335C26.3546 40.5201 27.6798 37.3361 27.6798 33.9742C27.6798 26.8737 21.7337 21.095 14.4205 21.095C14.3508 21.095 14.281 21.095 14.2078 21.095C7.32353 21.1996 3.83956 25.5624 3.51872 29.566C3.30947 32.206 4.15343 34.5426 5.89368 36.1434C6.99571 37.1547 8.36977 37.8243 9.98795 38.1347V26.0367C11.4318 25.9356 12.614 25.9077 13.9148 25.96M12.6768 28.5407V38.3056C13.0046 38.2882 13.3429 38.2568 13.6777 38.2149C16.098 37.9011 18.7205 36.4572 18.8182 33.3464C18.9054 30.4414 17.0779 28.7011 13.8032 28.5686C13.4126 28.5547 13.0639 28.5442 12.6803 28.5407" fill="#9D8A6A"/>
<path d="M132.74 23.5921C131.903 22.8388 130.825 22.354 129.528 22.5633C128.23 22.776 127.54 23.6548 127.512 24.45C127.481 25.2765 127.756 25.7194 129.179 26.6436C130.598 27.5678 132.75 28.8128 133.346 30.1415C133.943 31.4702 133.803 33.3779 131.906 34.6578C129.786 36.0911 126.741 35.5715 125.099 34.5322V32.7466C125.688 33.6394 126.919 34.3788 128.129 34.5322C130.222 34.7973 131.289 33.5906 131.324 32.5234C131.373 31.1459 130.407 30.4135 129.409 29.7649C128.412 29.1162 126.647 27.9967 125.855 27.0865C125.067 26.1797 125.154 24.7987 125.468 24.0663C125.782 23.3375 126.574 22.2843 128.293 21.8623C130.009 21.4403 131.742 21.7158 132.743 22.1064V23.5886L132.74 23.5921Z" fill="#210000"/>
<path d="M57.5568 21.8379H54.3623V21.9879C55.1853 22.1239 55.0284 22.8737 54.8505 23.2956L50.0867 35.3064H51.2829L53.2149 30.295H58.3484L59.9457 34.4729C60.1236 34.9577 60.4967 35.3099 61.2291 35.3099H62.8577L57.5568 21.8414V21.8379ZM53.5009 29.4998L55.7817 23.5293L58.0555 29.4998H53.5009Z" fill="#210000"/>
<path d="M88.7243 21.8379H85.5298V21.9879C86.3528 22.1239 86.1924 22.8737 86.018 23.2956L81.2542 35.3064H82.4503L84.3859 30.295H89.5159L91.1132 34.4729C91.291 34.9577 91.6642 35.3099 92.3966 35.3099H94.0252L88.7243 21.8414V21.8379ZM84.6684 29.4998L86.9492 23.5293L89.223 29.4998H84.6684Z" fill="#210000"/>
<path d="M119.515 21.8413H116.195V21.9913C116.861 22.1691 117.095 22.6364 117.095 23.2293V35.3099H119.515V21.8413Z" fill="#210000"/>
<path d="M147.352 35.3064V34.445H141.319V28.6419H146.567V27.784H141.319V22.6365H146.794V21.8379H137.999V21.9879C138.665 22.1657 138.898 22.633 138.898 23.2259V35.3064H147.352Z" fill="#210000"/>
<path d="M103.529 35.3099C109.928 35.3099 111.306 30.9331 111.306 28.3629C111.306 24.4639 108.034 21.8413 104.132 21.8413H98.0393V21.9913C98.674 22.1622 98.9147 22.5946 98.9391 23.1456V35.3099H103.532H103.529ZM103.605 34.5391H101.356V22.633H103.316C106.873 22.633 108.941 24.8614 108.941 28.5721C108.941 32.2828 106.329 34.5357 103.602 34.5357" fill="#210000"/>
<path d="M74.1817 28.7151C75.7859 28.2339 77.1007 27.076 77.1007 25.3288C77.1007 23.6793 75.9184 21.8448 73.0134 21.8448H67.0986V21.9913C67.7543 22.1657 67.9914 22.6226 67.9984 23.205V35.3099H70.4187V28.9662H71.6533L74.9733 34.466C75.3046 34.9542 75.7929 35.3064 76.5217 35.3099H78.3422L74.1817 28.7151ZM70.4187 22.6435H71.9846C73.5992 22.6435 74.7815 23.7176 74.7815 25.3079C74.7815 27.1179 73.7039 28.2129 71.8974 28.2129H70.4187V22.6435Z" fill="#210000"/>
<path d="M43.136 21.8413H37.5212V21.9913C38.1873 22.1691 38.421 22.6364 38.421 23.2293V35.3099H40.8413V28.9976H42.599C44.8588 28.9976 47.2268 27.6688 47.2268 25.3218C47.2268 23.6722 46.0411 21.8413 43.136 21.8413ZM42.0235 28.2059H40.8413V22.6364H42.1107C43.7254 22.6364 44.9077 23.7106 44.9077 25.3009C44.9077 27.1109 43.83 28.2059 42.0235 28.2059Z" fill="#210000"/>
<path d="M42.3411 43.5507H39.1501V40.6945H38.4177V46.8986H39.1501V44.2168H42.3411V46.8986H43.07V40.6945H42.3411V43.5507Z" fill="#210000"/>
<path d="M47.663 40.6248C45.8495 40.6248 44.4824 41.9884 44.4824 43.7983C44.4824 45.6083 45.8495 46.9719 47.663 46.9719C49.4765 46.9719 50.854 45.6083 50.854 43.7983C50.854 41.9884 49.4834 40.6248 47.663 40.6248ZM47.663 46.3058C46.261 46.3058 45.2392 45.2526 45.2392 43.7983C45.2392 42.3441 46.2575 41.2909 47.663 41.2909C49.0684 41.2909 50.0972 42.3441 50.0972 43.7983C50.0972 45.2526 49.0719 46.3058 47.663 46.3058Z" fill="#210000"/>
<path d="M51.3772 41.3536H53.2569V46.8986H53.9893V41.3536H55.869V40.6945H51.3772V41.3536Z" fill="#210000"/>
<path d="M57.8287 44.1087H60.5734V43.46H57.8287V41.3536H60.9082V40.6945H57.0999V46.8986H61.0337V46.2395H57.8287V44.1087Z" fill="#210000"/>
<path d="M63.2309 40.6945H62.4985V46.8986H66.1185V46.2395H63.2309V40.6945Z" fill="#210000"/>
<path d="M73.3446 43.5925C73.8642 43.3763 74.1362 42.9299 74.1362 42.2917C74.1362 41.3048 73.4492 40.6945 72.3402 40.6945H70.2756V46.8986H72.5041C73.7387 46.8986 74.4431 46.257 74.4431 45.1375C74.4431 44.3319 74.063 43.7983 73.3446 43.5925ZM72.3786 43.3135H71.008V41.3536H72.2914C73.0238 41.3536 73.4109 41.6954 73.4109 42.337C73.4109 42.7834 73.233 43.3135 72.3821 43.3135M71.0115 43.9622H72.4274C73.2644 43.9622 73.7108 44.3563 73.7108 45.1026C73.7108 45.8489 73.2923 46.243 72.4658 46.243H71.0115V43.9657V43.9622Z" fill="#210000"/>
<path d="M79.5628 44.7225C79.5628 45.7478 79.0293 46.3093 78.0563 46.3093C77.0833 46.3093 76.5497 45.7443 76.5497 44.7225V40.6945H75.8208V44.7678C75.8208 46.1244 76.6787 46.9684 78.0563 46.9684C78.7014 46.9684 79.2525 46.7766 79.6465 46.4139C80.0685 46.0268 80.2917 45.4583 80.2917 44.7678V40.6945H79.5628V44.7225Z" fill="#210000"/>
<path d="M83.9884 43.4008L83.5002 43.1776C82.8445 42.8742 82.5516 42.651 82.5516 42.1174C82.5516 41.5838 82.9143 41.2839 83.4827 41.2839C83.9675 41.2839 84.3023 41.4862 84.5813 41.9291L84.6022 41.9639L85.1916 41.5978L85.1706 41.5629C84.7975 40.9386 84.229 40.6248 83.4792 40.6248C82.5062 40.6248 81.8262 41.2455 81.8262 42.1348C81.8262 43.0241 82.3493 43.4601 83.2002 43.8472L83.685 44.0704C84.4174 44.3982 84.8149 44.6911 84.8149 45.3119C84.8149 45.9327 84.3092 46.3163 83.5873 46.3163C82.6876 46.3163 82.2935 45.8176 82.0494 45.3816L82.0319 45.3468L81.4216 45.6711L81.4391 45.706C81.7285 46.2849 82.3388 46.9719 83.6083 46.9719C84.7696 46.9719 85.5508 46.3023 85.5508 45.3084C85.5508 44.3145 84.9265 43.8158 83.9884 43.4008Z" fill="#210000"/>
<path d="M89.1358 40.6318H88.9719L86.4226 46.8395L86.3982 46.8953H87.1271L87.6746 45.5177H90.4262L90.9842 46.8953H91.7584L89.1428 40.6527L89.1324 40.6283L89.1358 40.6318ZM90.1751 44.8795H87.9396L88.8534 42.5848C88.9301 42.3999 89.0068 42.1558 89.0521 41.9989C89.0975 42.1593 89.1777 42.4139 89.2509 42.5917L90.1751 44.876V44.8795Z" fill="#210000"/>
<path d="M97.1396 40.6945V44.8655C97.1396 45.0329 97.157 45.2631 97.171 45.413C97.0803 45.291 96.9443 45.0991 96.8362 44.9666L93.1814 40.6457L93.1674 40.6317H93V46.8987H93.694V42.7277C93.694 42.5707 93.6696 42.3441 93.6556 42.1976C93.7463 42.3231 93.8858 42.508 93.9904 42.6265L97.6453 46.9475L97.6592 46.9614H97.8266V40.6945H97.1396Z" fill="#210000"/>
</svg>
