<svg width="104" height="70" viewBox="0 0 104 70" fill="none" xmlns="http://www.w3.org/2000/svg">
<path d="M0 45.5375H19.9032L26.5376 38.9031L0 45.5375Z" fill="url(#paint0_linear_101_480)"/>
<path d="M0 19V25.6344L19.9032 19H0Z" fill="url(#paint1_linear_101_480)"/>
<path d="M17.6917 34.4803L26.5376 25.6344L19.9032 19L0 25.6344L17.6917 34.4803Z" fill="url(#paint2_linear_101_480)"/>
<path d="M0 25.6343V45.5375L26.5376 38.9031L0 25.6343Z" fill="url(#paint3_linear_101_480)"/>
<path style="mix-blend-mode:multiply" d="M19.9032 19L0 25.6344L17.6917 34.4803L26.5376 25.6344L19.9032 19Z" fill="url(#paint4_linear_101_480)"/>
<path d="M42.7925 31.7177V24.3003H40.9309V26.5742H34.4437V24.3003H32.582V30.6723L33.626 31.7163H42.7925V31.7177ZM34.4437 28.1929H40.9309V30.1156H34.4437V28.1929Z" fill="#575153"/>
<path d="M30.3885 34.6898H36.7564V38.8212H38.618V34.6898H44.9206V33.0725H30.3885V34.6898Z" fill="#575153"/>
<path d="M57.9631 24.3003H56.1182V35.1452H57.9631V29.7033H60.108V28.086H57.9631V24.3003Z" fill="#575153"/>
<path d="M49.9225 33.8083H48.0623V37.7773L49.1062 38.8213H58.288V37.204H49.9225V33.8083Z" fill="#575153"/>
<path d="M73.6781 24.3003H71.8317V30.6793H66.3385V27.8417H64.4768V30.6793H61.1812V32.2813H71.8317V33.0892H73.6781V29.3618H75.8215V27.7445H73.6781V24.3003Z" fill="#575153"/>
<path d="M78.8438 33.625V35.2423H87.7118V38.8212H89.5735V34.669L88.5295 33.625H78.8438Z" fill="#575153"/>
<path d="M103.997 24.3003H102.152V38.8213H103.997V24.3003Z" fill="#575153"/>
<path d="M68.3597 29.9947H70.2047V25.8814L69.1607 24.8374H62.0959V26.438H68.3597V29.9947Z" fill="#575153"/>
<path d="M68.4875 33.1765C65.0488 33.1696 62.9817 34.2052 62.9775 36.1543C62.9734 38.1062 65.0377 39.1474 68.4764 39.1543C71.915 39.1612 73.9821 38.1256 73.9863 36.1765C73.9905 34.2247 71.9261 33.1835 68.4875 33.1765ZM68.4778 37.5606C66.208 37.5578 64.8461 37.0706 64.8489 36.1599C64.8517 35.2492 66.2163 34.7661 68.4861 34.7689C70.7559 34.7716 72.1177 35.2589 72.1149 36.1696C72.1122 37.0803 70.7475 37.5634 68.4778 37.5606Z" fill="#575153"/>
<path d="M84.3967 30.9375H87.7285V33.1267H89.5735V24.3003H87.7285V26.0064H84.3315C83.6054 25.111 82.4698 24.5627 81.1288 24.5627C78.7868 24.5627 77.0696 26.2313 77.0696 28.5136C77.0696 30.7959 78.7868 32.4645 81.1288 32.4645C82.5115 32.4645 83.6748 31.8829 84.3981 30.9375H84.3967ZM87.7285 27.5752V29.3688H85.1033C85.1589 29.0953 85.188 28.8093 85.188 28.5136C85.188 28.1874 85.1519 27.8736 85.0853 27.5752H87.7299H87.7285ZM78.909 28.5136C78.909 27.1823 79.8475 26.2077 81.1274 26.2077C82.4074 26.2077 83.3458 27.1823 83.3458 28.5136C83.3458 29.8449 82.4074 30.8195 81.1274 30.8195C79.8475 30.8195 78.909 29.8449 78.909 28.5136Z" fill="#575153"/>
<path d="M97.0381 24.6028H95.0849V30.4167L90.9993 35.016L92.4028 36.2626L96.058 32.1493L99.7119 36.2626L101.117 35.016L97.0381 30.4237V24.6028Z" fill="#575153"/>
<path d="M54.3883 32.8489L55.6086 31.4218L51.4869 27.9026V24.6028H49.535V27.9026L45.4133 31.4218L46.6336 32.8489L50.5109 29.538L54.3883 32.8489Z" fill="#575153"/>
<path d="M31.8448 41.8088H34.1799L34.7116 42.3405V43.3831L34.4992 43.6011L34.8768 43.9842V44.9574L34.302 45.5321H31.8448V41.8088ZM33.8078 43.3678L33.9994 43.1763V42.6015L33.8134 42.4155H32.5529V43.3678H33.8078ZM33.9355 44.9268L34.1646 44.6978V44.1758L33.9355 43.9467H32.5529V44.9254H33.9355V44.9268Z" fill="#575153"/>
<path d="M35.4613 44.8934V41.8074H36.1845V44.6422L36.4553 44.9129H37.4978L37.7685 44.6422V41.8074H38.4918V44.8934L37.8532 45.532H36.0971L35.4585 44.8934H35.4613Z" fill="#575153"/>
<path d="M39.1593 44.9574V44.4257H39.8715V44.7394L40.0464 44.9143H41.1473L41.3278 44.7339V44.1175L41.1529 43.9426H39.7438L39.1691 43.3678V42.3836L39.7438 41.8088H41.425L41.9997 42.3836V42.9208H41.2875V42.6015L41.1126 42.4266H40.0589L39.884 42.6015V43.1499L40.0589 43.3248H41.468L42.0427 43.8995V44.9476L41.4569 45.5335H39.7327L39.158 44.9588L39.1593 44.9574Z" fill="#575153"/>
<path d="M43.617 41.8088H44.2764L45.6383 45.5321H44.9039L44.6013 44.7075H43.2921L42.9895 45.5321H42.2551L43.617 41.8088ZM44.4416 44.1119L43.9474 42.6973H43.9363L43.4573 44.1119H44.4416Z" fill="#575153"/>
<path d="M46.0632 41.8088H46.7115L48.3719 44.3354H48.383V41.8088H49.0799V45.5321H48.4316L46.7712 43.0111H46.7601V45.5321H46.0632V41.8088Z" fill="#575153"/>
<path d="M51.3247 41.8088H51.9952L53.1017 44.2133H53.1128L54.2247 41.8088H54.8953V45.5321H54.1984V43.2665H54.1873L53.3307 45.0115H52.8837L52.0327 43.2665H52.0216V45.5321H51.3247V41.8088Z" fill="#575153"/>
<path d="M55.6392 41.8088H58.331V42.4211H56.3624V43.3623H58.1769V43.9634H56.3624V44.9213H58.331V45.5335H55.6392V41.8102V41.8088Z" fill="#575153"/>
<path d="M59.7609 42.4196H58.6489V41.8074H61.5962V42.4196H60.4842V45.532H59.7609V42.4196Z" fill="#575153"/>
<path d="M65.0014 44.298V45.5321H64.2782V44.4632L63.9589 44.1064H62.7997V45.5321H62.0764V41.8088H64.4114L64.9806 42.3836V43.5108L64.6183 43.8773L65.0014 44.298ZM62.7997 43.5108H64.081L64.2671 43.3248V42.6015L64.081 42.4155H62.7997V43.5108Z" fill="#575153"/>
<path d="M65.6665 44.9198V42.4196L66.2787 41.8074H68.1945L68.8067 42.4196V44.9198L68.1945 45.532H66.2787L65.6665 44.9198ZM67.8099 44.9143L68.0807 44.6435V42.6972L67.8099 42.4265H66.6605L66.3898 42.6972V44.6435L66.6605 44.9143H67.8099Z" fill="#575153"/>
<path d="M69.4966 41.8088H71.8316L72.4008 42.3836V43.6871L71.8261 44.2674H70.2199V45.5335H69.4966V41.8102V41.8088ZM71.5026 43.6607L71.6886 43.4747V42.6029L71.5026 42.4169H70.2212V43.6621H71.5026V43.6607Z" fill="#575153"/>
<path d="M72.9326 44.9198V42.4196L73.5448 41.8074H75.4606L76.0728 42.4196V44.9198L75.4606 45.532H73.5448L72.9326 44.9198ZM75.0761 44.9143L75.3468 44.6435V42.6972L75.0761 42.4265H73.9266L73.6559 42.6972V44.6435L73.9266 44.9143H75.0761Z" fill="#575153"/>
<path d="M76.7627 41.8088H77.486V44.9213H79.3476V45.5335H76.7627V41.8102V41.8088Z" fill="#575153"/>
<path d="M79.8267 41.8088H80.5499V45.5321H79.8267V41.8088Z" fill="#575153"/>
<path d="M82.1672 42.4196H81.0552V41.8074H84.0024V42.4196H82.8904V45.532H82.1672V42.4196Z" fill="#575153"/>
<path d="M85.045 41.8088H85.7044L87.0662 45.5321H86.3319L86.0292 44.7075H84.7201L84.4175 45.5321H83.6831L85.045 41.8088ZM85.8696 44.1119L85.3754 42.6973H85.3643L84.8853 44.1119H85.8696Z" fill="#575153"/>
<path d="M87.4924 41.8088H88.1407L89.8011 44.3354H89.8122V41.8088H90.5091V45.5321H89.8608L88.2004 43.0111H88.1893V45.5321H87.4924V41.8088Z" fill="#575153"/>
<path d="M92.6997 44.9198V42.4196L93.3119 41.8074H95.1319L95.733 42.4085V42.9777H95.0097V42.675L94.7599 42.4251H93.6965L93.4258 42.6958V44.6422L93.6965 44.9129H94.7599L95.0097 44.663V44.3603H95.733V44.9295L95.1319 45.5306H93.3119L92.6997 44.9184V44.9198Z" fill="#575153"/>
<path d="M96.3174 41.8088H97.0407V45.5321H96.3174V41.8088Z" fill="#575153"/>
<path d="M98.6581 42.4196H97.5461V41.8074H100.493V42.4196H99.3814V45.532H98.6581V42.4196Z" fill="#575153"/>
<path d="M101.951 44.0106L100.627 41.8088H101.419L102.308 43.3359H102.319L103.207 41.8088H104L102.676 44.0106V45.5321H101.952V44.0106H101.951Z" fill="#575153"/>
<defs>
<linearGradient id="paint0_linear_101_480" x1="0.746873" y1="47.8544" x2="26.9249" y2="41.2645" gradientUnits="userSpaceOnUse">
<stop offset="0.25" stop-color="#0087CC"/>
<stop offset="0.8" stop-color="#662483"/>
</linearGradient>
<linearGradient id="paint1_linear_101_480" x1="-0.956497" y1="22.6316" x2="18.9245" y2="16.0791" gradientUnits="userSpaceOnUse">
<stop offset="0.2" stop-color="#E6007E"/>
<stop offset="0.54" stop-color="#A61180"/>
<stop offset="0.9" stop-color="#662483"/>
</linearGradient>
<linearGradient id="paint2_linear_101_480" x1="0.124942" y1="26.7394" x2="26.5237" y2="26.7394" gradientUnits="userSpaceOnUse">
<stop offset="0.1" stop-color="#ED6EA7"/>
<stop offset="0.21" stop-color="#EB5BA0"/>
<stop offset="0.61" stop-color="#E71987"/>
<stop offset="0.8" stop-color="#E6007E"/>
</linearGradient>
<linearGradient id="paint3_linear_101_480" x1="-2.14205" y1="41.8281" x2="15.5066" y2="30.8804" gradientUnits="userSpaceOnUse">
<stop stop-color="#662483"/>
<stop offset="0.5" stop-color="#E6007E"/>
<stop offset="0.58" stop-color="#E60580"/>
<stop offset="0.69" stop-color="#E71686"/>
<stop offset="0.81" stop-color="#E93290"/>
<stop offset="0.94" stop-color="#EB589F"/>
<stop offset="1" stop-color="#ED6EA7"/>
</linearGradient>
<linearGradient id="paint4_linear_101_480" x1="10.2841" y1="36.0018" x2="12.3123" y2="28.9565" gradientUnits="userSpaceOnUse">
<stop offset="0.15" stop-color="#878787"/>
<stop offset="0.27" stop-color="#878787" stop-opacity="0.92"/>
<stop offset="0.48" stop-color="#878787" stop-opacity="0.71"/>
<stop offset="0.75" stop-color="#878787" stop-opacity="0.36"/>
<stop offset="1" stop-color="#878787" stop-opacity="0"/>
</linearGradient>
</defs>
</svg>
