<svg width="188" height="70" viewBox="0 0 188 70" fill="none" xmlns="http://www.w3.org/2000/svg">
<path d="M185.387 31.3554C185.467 31.3554 185.539 31.3554 185.611 31.3474C185.683 31.3474 185.739 31.3314 185.795 31.3074C185.851 31.2834 185.891 31.2434 185.923 31.1954C185.955 31.1474 185.971 31.0754 185.971 30.9874C185.971 30.9154 185.955 30.8514 185.931 30.8114C185.899 30.7634 185.867 30.7314 185.819 30.7074C185.771 30.6834 185.723 30.6674 185.659 30.6594C185.595 30.6514 185.539 30.6434 185.483 30.6434H185.019V31.3554H185.379H185.387ZM185.539 30.3634C185.803 30.3634 186.003 30.4194 186.131 30.5234C186.259 30.6274 186.323 30.7874 186.323 31.0034C186.323 31.2034 186.267 31.3554 186.155 31.4434C186.043 31.5394 185.907 31.5954 185.739 31.6114L186.379 32.6034H186.003L185.395 31.6434H185.027V32.6034H184.675V30.3634H185.539ZM183.963 32.1234C184.043 32.3234 184.155 32.4994 184.291 32.6434C184.435 32.7874 184.603 32.9074 184.795 32.9874C184.987 33.0674 185.195 33.1154 185.419 33.1154C185.643 33.1154 185.843 33.0754 186.035 32.9874C186.227 32.9074 186.395 32.7874 186.531 32.6434C186.675 32.4994 186.787 32.3234 186.867 32.1234C186.947 31.9234 186.987 31.7074 186.987 31.4754C186.987 31.2434 186.947 31.0354 186.867 30.8354C186.787 30.6354 186.675 30.4674 186.531 30.3234C186.387 30.1794 186.227 30.0674 186.035 29.9794C185.843 29.8994 185.635 29.8514 185.419 29.8514C185.203 29.8514 184.987 29.8914 184.795 29.9794C184.603 30.0594 184.435 30.1794 184.291 30.3234C184.147 30.4674 184.035 30.6354 183.963 30.8354C183.883 31.0354 183.843 31.2434 183.843 31.4754C183.843 31.7074 183.883 31.9234 183.963 32.1234ZM183.651 30.7154C183.755 30.4834 183.891 30.2834 184.067 30.1154C184.243 29.9474 184.443 29.8114 184.683 29.7154C184.915 29.6194 185.163 29.5714 185.427 29.5714C185.691 29.5714 185.939 29.6194 186.171 29.7154C186.403 29.8114 186.603 29.9474 186.779 30.1154C186.955 30.2834 187.091 30.4834 187.195 30.7154C187.299 30.9474 187.347 31.1954 187.347 31.4674C187.347 31.7394 187.291 31.9954 187.195 32.2354C187.091 32.4674 186.955 32.6754 186.779 32.8434C186.603 33.0114 186.403 33.1474 186.171 33.2434C185.939 33.3394 185.691 33.3874 185.427 33.3874C185.163 33.3874 184.915 33.3394 184.683 33.2434C184.451 33.1474 184.243 33.0114 184.067 32.8434C183.891 32.6754 183.755 32.4674 183.651 32.2354C183.547 32.0034 183.499 31.7474 183.499 31.4674C183.499 31.1874 183.547 30.9474 183.651 30.7154Z" fill="#4F6D5A"/>
<path d="M23.2429 42.6034C23.2429 44.8594 21.1229 44.4594 21.1229 45.3394C21.1229 45.7154 21.5709 45.6034 21.8109 45.6034C22.4029 45.6034 23.0029 45.5074 23.7069 45.5074C24.4749 45.5074 25.2269 45.6034 26.3149 45.6034C26.6029 45.6034 27.1549 45.6274 27.1549 45.3154C27.1549 44.2834 24.3229 45.7794 24.3229 41.5474V34.0354C24.3229 33.8354 24.3709 33.6834 24.4989 33.6834C24.6109 33.6834 24.7469 33.7874 24.8989 33.9714L35.5309 45.4434C35.6829 45.6194 35.7949 45.7474 36.1069 45.7474C36.3709 45.7474 36.3709 45.5714 36.3709 45.0834V32.7154C36.3709 30.4034 38.2509 30.9314 38.2509 30.2674C38.2509 30.2034 38.2509 29.9794 37.8349 29.9794C37.6349 29.9794 36.8589 30.0674 35.4669 30.0674C33.9389 30.0674 33.2989 29.9794 32.9469 29.9794C32.6589 29.9794 32.5949 30.1954 32.5949 30.3474C32.5949 31.0754 35.2909 30.6834 35.2909 32.6914V40.0434C35.2909 40.5954 35.2509 40.8594 35.1149 40.8594C34.9789 40.8594 34.7149 40.5954 34.4349 40.2834L25.5389 30.5554C25.1469 30.1394 25.4109 29.9874 24.7069 29.9874C23.5309 29.9874 22.9549 30.0754 22.3869 30.0754C21.9629 30.0754 21.5629 29.9874 21.1469 29.9874C20.8749 29.9874 20.7709 30.1634 20.7709 30.3554C20.7709 31.4194 23.2429 29.9874 23.2429 34.2194V42.6114V42.6034Z" fill="#006225"/>
<path d="M23.2428 42.6035H23.1148C23.1148 43.6835 22.6268 44.0835 22.1148 44.3715C21.8588 44.5155 21.5948 44.6195 21.3788 44.7475C21.1708 44.8755 20.9868 45.0595 20.9868 45.3395C20.9868 45.4915 21.0508 45.6195 21.1628 45.6755L21.4828 45.7395C21.6108 45.7395 21.7308 45.7235 21.8108 45.7235C22.4188 45.7235 23.0188 45.6355 23.7068 45.6355C24.4748 45.6355 25.2268 45.7235 26.3148 45.7235H26.4348C26.5868 45.7235 26.7708 45.7235 26.9388 45.6755C27.0988 45.6435 27.2828 45.5235 27.2828 45.3075C27.2828 45.1475 27.2188 45.0115 27.1228 44.9235C26.9388 44.7715 26.6908 44.7395 26.4108 44.6755C25.9868 44.5875 25.5148 44.4755 25.1308 44.0595C24.7548 43.6435 24.4508 42.9075 24.4508 41.5315V34.0355L24.4748 33.8355L24.4988 33.8115C24.4988 33.8115 24.6588 33.8755 24.8028 34.0515L35.4348 45.5315C35.5788 45.6995 35.7548 45.8835 36.0988 45.8755C36.2588 45.8915 36.4188 45.7875 36.4508 45.6435C36.4908 45.4995 36.4908 45.3315 36.4908 45.0915V32.7155C36.4908 31.5955 36.9228 31.2115 37.3628 30.9875C37.5868 30.8755 37.8108 30.8115 38.0028 30.7235C38.1868 30.6435 38.3708 30.5075 38.3708 30.2755L38.2908 30.0275C38.2108 29.9235 38.0588 29.8595 37.8348 29.8595C37.6188 29.8595 36.8588 29.9475 35.4668 29.9475C33.9468 29.9475 33.3148 29.8595 32.9468 29.8595C32.7708 29.8595 32.6268 29.9315 32.5628 30.0435L32.4668 30.3635C32.4668 30.4995 32.5388 30.6115 32.6268 30.6915C32.9468 30.9475 33.5788 31.0195 34.1468 31.2755C34.7068 31.5235 35.1628 31.8915 35.1628 32.7075V40.0595C35.1628 40.3315 35.1548 40.5315 35.1308 40.6515L35.0908 40.7555L35.1068 40.7875V40.7475H35.0908L35.1068 40.7875V40.7475H35.0988C35.0108 40.7155 34.7628 40.4835 34.5148 40.2195L25.6348 30.4675C25.4508 30.2675 25.4348 30.1635 25.3388 30.0355L25.1068 29.8915C25.0028 29.8675 24.8828 29.8595 24.6988 29.8595C23.5148 29.8595 22.9388 29.9475 22.3788 29.9475C21.9708 29.9475 21.5708 29.8595 21.1388 29.8595C20.9788 29.8595 20.8348 29.9155 20.7548 30.0115C20.6668 30.1075 20.6348 30.2355 20.6348 30.3555C20.6268 30.6835 20.8588 30.8595 21.1068 30.9315C21.4748 31.0595 21.9628 31.1155 22.3708 31.5075C22.7708 31.8995 23.1148 32.6435 23.1148 34.2195V42.6115H23.3708V34.2115C23.3708 32.0755 22.7308 31.2995 22.0588 30.9795C21.7308 30.8195 21.4108 30.7635 21.1948 30.6915C20.9788 30.6035 20.8988 30.5635 20.8908 30.3555L20.9468 30.1795C20.9468 30.1795 21.0348 30.1075 21.1468 30.1075C21.5468 30.1075 21.9468 30.1955 22.3868 30.1955C22.9708 30.1955 23.5308 30.1075 24.7068 30.1075C24.8748 30.1075 24.9868 30.1155 25.0508 30.1315L25.1788 30.2515C25.2268 30.3315 25.2908 30.4755 25.4508 30.6435L34.3468 40.3795C34.4908 40.5315 34.6268 40.6835 34.7548 40.7875C34.8828 40.8915 34.9788 40.9795 35.1228 40.9875L35.3148 40.8835C35.4188 40.7155 35.4268 40.4675 35.4268 40.0515V32.6915C35.4268 31.6195 34.6828 31.1635 33.9948 30.9235C33.6508 30.8035 33.3148 30.7155 33.0668 30.6275C32.9468 30.5795 32.8508 30.5315 32.8028 30.4835L32.7308 30.3475L32.7788 30.1795C32.8108 30.1395 32.8508 30.1075 32.9628 30.1075C33.2988 30.1075 33.9548 30.1955 35.4828 30.1955C36.8748 30.1955 37.6748 30.1075 37.8508 30.1075C38.0428 30.1075 38.0988 30.1555 38.1148 30.1795L38.1388 30.2675C38.1388 30.3635 38.0908 30.4035 37.9228 30.4915C37.6748 30.6035 37.2588 30.6995 36.9068 31.0035C36.5468 31.3075 36.2668 31.8275 36.2668 32.7155V45.0915C36.2668 45.3315 36.2668 45.4995 36.2428 45.5635C36.2108 45.6195 36.2428 45.6115 36.1308 45.6275C35.8588 45.6275 35.8188 45.5395 35.6588 45.3635L25.0268 33.8835C24.8588 33.6995 24.7228 33.5635 24.5308 33.5555C24.4108 33.5555 24.3068 33.6435 24.2748 33.7395C24.2348 33.8275 24.2268 33.9315 24.2268 34.0355V41.5395C24.2188 43.6835 24.9628 44.4515 25.7228 44.7395C26.0988 44.8915 26.4588 44.9315 26.7148 45.0035C26.8348 45.0355 26.9308 45.0755 26.9868 45.1235L27.0588 45.3155C27.0588 45.3715 27.0348 45.4035 26.9068 45.4355C26.7868 45.4675 26.6108 45.4755 26.4668 45.4755H26.3468C25.2668 45.4755 24.5228 45.3875 23.7388 45.3875C23.0188 45.3875 22.4188 45.4755 21.8428 45.4755L21.5148 45.4915L21.3228 45.4595L21.2748 45.3395C21.2748 45.1795 21.3628 45.0835 21.5468 44.9635C21.8268 44.7955 22.2908 44.6435 22.6828 44.3235C23.0828 43.9955 23.4028 43.4755 23.4028 42.6035H23.2748H23.2428Z" fill="#006225"/>
<path d="M70.2509 42.7234C70.2509 45.3474 67.7469 44.2834 67.7469 45.1554C67.7469 45.6354 68.1229 45.6194 68.5229 45.6194C69.4029 45.6194 70.1309 45.5314 71.6189 45.5314C73.1069 45.5314 73.8269 45.6194 74.7149 45.6194C75.3549 45.6194 75.7949 45.6834 75.7949 45.1554C75.7949 44.5314 72.9629 45.1794 72.9629 42.4594V32.4834C72.9629 31.4194 73.1869 31.3154 74.0909 31.3154H75.9709C78.5069 31.2274 77.8109 33.6754 78.6829 33.6754C79.2589 33.6754 79.0189 32.8114 78.9709 32.5474L78.7309 30.5154C78.7069 30.2914 78.7069 29.9874 78.3709 29.9874C76.3149 29.9874 74.8349 30.0754 71.6109 30.0754C68.3869 30.0754 66.8989 29.9874 64.8429 29.9874C64.5149 29.9874 64.5149 30.2994 64.4909 30.5154L64.1389 33.4274C64.0989 33.7154 63.9629 34.1954 64.4269 34.1954C65.4269 34.1954 64.7629 31.3074 67.2589 31.3074H69.1229C70.0269 31.3074 70.2509 31.4194 70.2509 32.4754V42.7154V42.7234Z" fill="#006225"/>
<path d="M70.2509 42.7234H70.1229C70.1069 43.9874 69.5629 44.2994 68.9629 44.4754C68.6669 44.5554 68.3549 44.5874 68.1069 44.6514C67.9789 44.6834 67.8669 44.7314 67.7789 44.8114C67.6829 44.8914 67.6189 45.0114 67.6269 45.1554C67.6269 45.4034 67.7309 45.5954 67.9069 45.6674C68.0749 45.7394 68.2589 45.7394 68.4429 45.7394H68.5309C69.4269 45.7394 70.1469 45.6514 71.6269 45.6514C73.1069 45.6514 73.8269 45.7394 74.7229 45.7394C74.8429 45.7394 74.9629 45.7394 75.0749 45.7394C75.2989 45.7394 75.4989 45.7394 75.6669 45.6514C75.8349 45.5714 75.9389 45.3794 75.9389 45.1474C75.9389 45.0194 75.8509 44.9154 75.7549 44.8594C75.5869 44.7634 75.3469 44.7154 75.0669 44.6434C74.6509 44.5474 74.1549 44.4194 73.7789 44.1074C73.3949 43.7954 73.1149 43.3154 73.1069 42.4514V32.4834C73.1069 31.9554 73.1709 31.6994 73.2909 31.5954C73.4029 31.4754 73.6589 31.4434 74.1069 31.4434H76.1229C77.2669 31.4434 77.6269 31.9794 77.8669 32.5474C77.9869 32.8354 78.0589 33.1234 78.1629 33.3634C78.2589 33.5954 78.4269 33.8114 78.7069 33.8114C78.8909 33.8114 79.0429 33.7314 79.1149 33.6034C79.1949 33.4754 79.2109 33.3314 79.2109 33.1874C79.2109 32.9234 79.1389 32.6514 79.1229 32.5394L78.8829 30.5154C78.8669 30.4114 78.8669 30.2674 78.8109 30.1314C78.7629 29.9954 78.6109 29.8674 78.3949 29.8674C76.3309 29.8674 74.8589 29.9554 71.6349 29.9554C68.4109 29.9554 66.9309 29.8674 64.8669 29.8674C64.6669 29.8674 64.5069 29.9874 64.4589 30.1314C64.4029 30.2674 64.4029 30.4114 64.3869 30.5154L64.0349 33.4194C64.0189 33.5314 63.9789 33.6834 63.9789 33.8434C63.9789 33.9554 63.9949 34.0674 64.0749 34.1714C64.1549 34.2754 64.2829 34.3314 64.4429 34.3234C64.7629 34.3234 64.9549 34.0754 65.0669 33.7954C65.2509 33.3634 65.3629 32.7714 65.6509 32.2914C65.9389 31.8114 66.3709 31.4434 67.2749 31.4354H69.1389C69.5869 31.4354 69.8429 31.4754 69.9549 31.5874C70.0749 31.6914 70.1389 31.9474 70.1389 32.4754V42.7154H70.3869V32.4834C70.3869 31.9474 70.3389 31.6194 70.1229 31.4114C69.8989 31.2114 69.5869 31.1954 69.1389 31.1874H67.2749C65.9709 31.1874 65.4429 31.9794 65.1789 32.7154C65.0429 33.0834 64.9549 33.4514 64.8429 33.6994C64.7229 33.9634 64.6189 34.0754 64.4429 34.0754C64.3309 34.0754 64.2989 34.0434 64.2749 34.0194L64.2349 33.8434C64.2349 33.7234 64.2669 33.5794 64.2829 33.4514L64.6349 30.5394C64.6509 30.4194 64.6589 30.2994 64.6909 30.2194C64.7309 30.1474 64.7469 30.1234 64.8669 30.1154C66.9229 30.1154 68.4029 30.2034 71.6349 30.2034C74.8669 30.2034 76.3469 30.1154 78.3949 30.1154C78.5229 30.1154 78.5309 30.1474 78.5709 30.2194C78.6029 30.2914 78.6109 30.4194 78.6189 30.5314L78.8589 32.5634C78.8829 32.7074 78.9469 32.9634 78.9469 33.1794C78.9469 33.2994 78.9309 33.3954 78.8909 33.4594C78.8509 33.5154 78.8109 33.5474 78.6989 33.5474C78.5549 33.5474 78.4829 33.4674 78.3789 33.2514C78.2429 32.9394 78.1549 32.4274 77.8589 31.9874C77.5629 31.5394 77.0429 31.1794 76.1149 31.1794H75.9789H74.0989C73.6429 31.1794 73.3309 31.1954 73.1069 31.4034C72.8909 31.6194 72.8429 31.9394 72.8429 32.4754V42.4514C72.8429 43.8594 73.6029 44.4434 74.3389 44.6994C74.7069 44.8354 75.0669 44.8914 75.3229 44.9634C75.4509 44.9954 75.5549 45.0354 75.6109 45.0674L75.6669 45.1394C75.6669 45.3234 75.6269 45.3714 75.5389 45.4194C75.4509 45.4674 75.2829 45.4834 75.0669 45.4834C74.9629 45.4834 74.8349 45.4834 74.7149 45.4834C73.8429 45.4834 73.1069 45.3954 71.6189 45.3954C70.1309 45.3954 69.3949 45.4834 68.5229 45.4834H68.4349C68.2509 45.4834 68.0909 45.4754 68.0029 45.4354C67.9229 45.3874 67.8749 45.3474 67.8669 45.1554L67.9309 45.0034C68.0029 44.9314 68.1949 44.8834 68.4429 44.8434C68.8109 44.7714 69.2909 44.7074 69.6829 44.4194C70.0829 44.1314 70.3709 43.6114 70.3629 42.7234H70.2349H70.2509Z" fill="#006225"/>
<path d="M110.539 32.3234C110.539 30.2274 112.195 31.0194 112.195 30.2674C112.195 30.0034 112.083 29.9554 111.419 29.9554C110.155 29.9554 109.363 30.0434 108.563 30.0434C107.763 30.0434 106.923 29.9554 106.067 29.9554C105.867 29.9554 105.315 29.8914 105.315 30.2674C105.315 31.0354 107.811 30.4194 107.811 32.4274V43.0194C107.811 45.1154 106.219 44.5474 106.219 45.3154C106.219 45.4274 106.267 45.5874 106.459 45.5874C107.035 45.5874 107.987 45.4994 108.931 45.4994C110.651 45.4994 111.475 45.5874 112.291 45.5874C112.795 45.5874 112.995 45.4994 112.995 45.2514C112.995 44.5474 110.523 45.5634 110.523 42.8514V32.3234H110.539Z" fill="#006225"/>
<path d="M110.539 32.3234H110.667C110.683 31.3074 111.035 31.0674 111.419 30.9074C111.619 30.8354 111.819 30.7954 111.987 30.7234C112.163 30.6594 112.339 30.5074 112.331 30.2674L112.291 30.0514C112.243 29.9394 112.123 29.8834 111.987 29.8594C111.859 29.8354 111.683 29.8274 111.427 29.8274C110.155 29.8274 109.363 29.9234 108.571 29.9234C107.803 29.9234 106.939 29.8354 106.075 29.8274H105.875C105.747 29.8274 105.595 29.8274 105.459 29.8834C105.323 29.9314 105.187 30.0754 105.195 30.2674C105.195 30.3954 105.259 30.5154 105.347 30.5954C105.659 30.8514 106.243 30.8754 106.763 31.0834C107.275 31.2914 107.691 31.6034 107.699 32.4354V43.0274C107.691 44.0434 107.339 44.3554 106.971 44.5634C106.779 44.6674 106.587 44.7314 106.419 44.8274C106.251 44.9154 106.099 45.0834 106.107 45.3234L106.171 45.5714C106.227 45.6594 106.339 45.7234 106.475 45.7154C107.059 45.7154 108.003 45.6274 108.947 45.6274C110.667 45.6274 111.483 45.7154 112.307 45.7154C112.571 45.7154 112.755 45.6994 112.899 45.6274C113.051 45.5634 113.139 45.4114 113.131 45.2514C113.131 45.1234 113.059 45.0114 112.971 44.9554C112.811 44.8514 112.595 44.8274 112.347 44.7874C111.979 44.7314 111.555 44.6674 111.235 44.4114C110.915 44.1554 110.659 43.7234 110.659 42.8514V32.3234H110.403V42.8434C110.387 44.2434 111.075 44.7474 111.731 44.9234C112.059 45.0114 112.371 45.0354 112.595 45.0834C112.707 45.1074 112.787 45.1314 112.835 45.1634L112.883 45.2514L112.795 45.3954C112.715 45.4354 112.555 45.4594 112.307 45.4594C111.499 45.4594 110.675 45.3714 108.947 45.3714C107.995 45.3714 107.035 45.4594 106.475 45.4594L106.379 45.4274L106.355 45.3234C106.355 45.1794 106.411 45.1234 106.539 45.0434C106.739 44.9234 107.091 44.8354 107.403 44.5714C107.715 44.2994 107.955 43.8434 107.947 43.0354V32.4274C107.947 31.3554 107.243 30.9474 106.611 30.7634C106.291 30.6674 105.979 30.6034 105.755 30.5234C105.643 30.4834 105.563 30.4434 105.515 30.3954L105.451 30.2594L105.555 30.1154C105.635 30.0834 105.763 30.0674 105.875 30.0754H106.075C106.923 30.0754 107.787 30.1714 108.571 30.1714C109.355 30.1714 110.163 30.0754 111.427 30.0754C111.755 30.0754 111.939 30.0914 112.011 30.1234L112.059 30.1554L112.075 30.2594C112.075 30.3954 112.035 30.4194 111.891 30.4834C111.691 30.5714 111.323 30.6034 110.995 30.8354C110.667 31.0674 110.411 31.5074 110.419 32.3074H110.547L110.539 32.3234Z" fill="#006225"/>
<path d="M141.771 32.3395C141.771 30.2435 143.435 31.0355 143.435 30.2915C143.435 30.0195 143.323 29.9795 142.659 29.9795C141.395 29.9795 140.603 30.0675 139.811 30.0675C139.019 30.0675 138.179 29.9795 137.315 29.9795C137.115 29.9795 136.555 29.9075 136.555 30.2915C136.555 31.0595 139.059 30.4435 139.059 32.4435V43.0355C139.059 45.1315 137.467 44.5635 137.467 45.3315C137.467 45.4435 137.507 45.5955 137.707 45.5955C138.283 45.5955 139.235 45.4995 140.187 45.4995C141.907 45.4995 142.723 45.5955 143.547 45.5955C144.059 45.5955 144.259 45.4995 144.259 45.2595C144.259 44.5555 141.779 45.5715 141.779 42.8595V32.3395H141.771Z" fill="#006225"/>
<path d="M141.771 32.3394H141.899C141.915 31.3234 142.267 31.0834 142.651 30.9234C142.843 30.8514 143.051 30.8114 143.219 30.7394C143.395 30.6834 143.571 30.5234 143.563 30.2834L143.523 30.0674C143.467 29.9554 143.347 29.8994 143.219 29.8754C143.083 29.8514 142.915 29.8434 142.659 29.8434C141.395 29.8434 140.595 29.9314 139.811 29.9314C139.027 29.9314 138.179 29.8434 137.315 29.8434H137.099C136.971 29.8434 136.827 29.8434 136.691 29.8994C136.555 29.9474 136.427 30.0914 136.435 30.2834C136.435 30.4114 136.499 30.5314 136.579 30.6114C136.891 30.8674 137.475 30.8914 137.995 31.0994C138.507 31.3074 138.923 31.6194 138.931 32.4434V43.0354C138.931 44.0514 138.571 44.3634 138.203 44.5714C138.019 44.6754 137.819 44.7394 137.651 44.8354C137.491 44.9234 137.339 45.0914 137.339 45.3314L137.411 45.5794C137.467 45.6674 137.579 45.7234 137.715 45.7234C138.299 45.7234 139.251 45.6354 140.195 45.6354C141.915 45.6354 142.723 45.7234 143.555 45.7234C143.819 45.7234 144.003 45.7074 144.155 45.6354C144.307 45.5714 144.403 45.4194 144.395 45.2674C144.395 45.1394 144.323 45.0274 144.227 44.9714C144.067 44.8674 143.851 44.8434 143.603 44.8034C143.235 44.7474 142.811 44.6754 142.491 44.4274C142.163 44.1714 141.915 43.7314 141.915 42.8674V32.3394H141.659V42.8674C141.651 44.2594 142.339 44.7714 142.995 44.9474C143.323 45.0434 143.635 45.0674 143.859 45.1074C143.963 45.1314 144.051 45.1554 144.091 45.1794L144.139 45.2674L144.043 45.4034C143.963 45.4434 143.795 45.4674 143.547 45.4674C142.739 45.4674 141.915 45.3794 140.187 45.3794C139.227 45.3794 138.275 45.4674 137.707 45.4674L137.611 45.4274L137.587 45.3234C137.587 45.1794 137.635 45.1234 137.771 45.0434C137.971 44.9234 138.323 44.8354 138.635 44.5634C138.947 44.2914 139.187 43.8274 139.187 43.0274V32.4514C139.187 31.3874 138.483 30.9714 137.843 30.7874C137.523 30.6914 137.211 30.6274 136.987 30.5474C136.875 30.5154 136.795 30.4674 136.747 30.4274L136.683 30.2914L136.787 30.1474C136.859 30.1154 136.987 30.1074 137.099 30.1074H137.315C138.171 30.1074 139.027 30.1954 139.811 30.1954C140.595 30.1954 141.403 30.1074 142.659 30.1074C142.987 30.1074 143.179 30.1234 143.251 30.1554L143.291 30.1874L143.307 30.2914C143.307 30.4194 143.267 30.4434 143.123 30.5154C142.923 30.6034 142.547 30.6354 142.219 30.8674C141.883 31.0994 141.635 31.5394 141.643 32.3474H141.771V32.3394Z" fill="#006225"/>
<path d="M154.875 42.6914C154.875 45.3154 152.379 44.2594 152.379 45.1154C152.379 45.6034 152.755 45.5794 153.147 45.5794C154.027 45.5794 154.763 45.4914 156.243 45.4914C157.723 45.4914 158.451 45.5794 159.339 45.5794C159.979 45.5794 160.419 45.6434 160.419 45.1154C160.419 44.4994 157.587 45.1394 157.587 42.4274V32.4514C157.587 31.3874 157.811 31.2834 158.715 31.2834H160.595C163.147 31.1954 162.435 33.6434 163.315 33.6434C163.891 33.6434 163.643 32.7794 163.603 32.5154L163.363 30.4834C163.347 30.2594 163.347 29.9554 163.003 29.9554C160.947 29.9554 159.467 30.0434 156.243 30.0434C153.019 30.0434 151.531 29.9554 149.483 29.9554C149.147 29.9554 149.147 30.2674 149.123 30.4834L148.779 33.3954C148.731 33.6834 148.595 34.1634 149.067 34.1634C150.059 34.1634 149.403 31.2754 151.899 31.2754H153.755C154.667 31.2754 154.883 31.3874 154.883 32.4434V42.6754L154.875 42.6914Z" fill="#006225"/>
<path d="M154.875 42.6914H154.747C154.731 43.9634 154.187 44.2674 153.595 44.4514C153.291 44.5314 152.987 44.5634 152.739 44.6274C152.619 44.6674 152.499 44.7074 152.411 44.7794C152.315 44.8594 152.259 44.9794 152.259 45.1234C152.259 45.3714 152.363 45.5634 152.531 45.6354C152.699 45.7154 152.875 45.7154 153.051 45.7154H153.155C154.051 45.7154 154.771 45.6274 156.251 45.6274C157.731 45.6274 158.451 45.7154 159.347 45.7154C159.467 45.7154 159.587 45.7154 159.699 45.7154C159.923 45.7154 160.123 45.7154 160.291 45.6274C160.459 45.5474 160.563 45.3554 160.563 45.1234C160.563 44.9954 160.475 44.8914 160.379 44.8354C160.043 44.6434 159.395 44.6274 158.811 44.3394C158.235 44.0594 157.739 43.5794 157.731 42.4354V32.4514C157.731 31.9234 157.795 31.6674 157.915 31.5554C158.027 31.4434 158.283 31.4034 158.731 31.4034H160.747C161.899 31.4034 162.251 31.9394 162.491 32.5074C162.611 32.7954 162.675 33.0834 162.779 33.3234C162.875 33.5554 163.043 33.7714 163.331 33.7714C163.507 33.7714 163.659 33.6914 163.739 33.5634C163.811 33.4354 163.835 33.2914 163.835 33.1554C163.835 32.8914 163.763 32.6194 163.739 32.4994L163.611 32.5234L163.739 32.5074L163.499 30.4754C163.483 30.3714 163.483 30.2274 163.427 30.0914C163.379 29.9554 163.227 29.8194 163.019 29.8274C160.955 29.8274 159.483 29.9234 156.259 29.9234C153.035 29.9234 151.555 29.8274 149.499 29.8274C149.283 29.8274 149.139 29.9474 149.083 30.0914C149.027 30.2274 149.027 30.3714 149.011 30.4754L148.667 33.3874L148.795 33.4034L148.667 33.3794C148.651 33.4914 148.611 33.6514 148.611 33.8114C148.611 33.9234 148.627 34.0434 148.707 34.1394C148.787 34.2354 148.915 34.2994 149.075 34.2914C149.395 34.2914 149.587 34.0434 149.707 33.7634C149.891 33.3394 149.995 32.7394 150.291 32.2594C150.579 31.7794 151.011 31.4114 151.915 31.4034H153.771C154.227 31.4034 154.475 31.4434 154.587 31.5554C154.707 31.6674 154.771 31.9234 154.771 32.4514V42.6834H155.027V32.4514C155.027 31.9154 154.987 31.5874 154.763 31.3714C154.539 31.1714 154.227 31.1554 153.771 31.1474H151.915C150.611 31.1474 150.083 31.9394 149.811 32.6754C149.675 33.0434 149.587 33.4114 149.475 33.6594C149.363 33.9154 149.259 34.0354 149.083 34.0354C148.971 34.0354 148.939 34.0034 148.915 33.9794L148.875 33.8034C148.875 33.6834 148.907 33.5394 148.931 33.4114L149.283 30.4914C149.291 30.3714 149.299 30.2514 149.331 30.1794C149.371 30.1074 149.387 30.0834 149.515 30.0754C151.563 30.0754 153.043 30.1714 156.275 30.1714C159.507 30.1714 160.987 30.0754 163.035 30.0754C163.163 30.0754 163.179 30.1074 163.211 30.1794C163.243 30.2514 163.251 30.3794 163.267 30.4914L163.507 32.5234C163.531 32.6594 163.595 32.9154 163.595 33.1394C163.595 33.2594 163.579 33.3554 163.539 33.4114C163.499 33.4674 163.467 33.4994 163.347 33.4994C163.203 33.4994 163.123 33.4194 163.027 33.2034C162.891 32.8914 162.795 32.3794 162.507 31.9394C162.211 31.4914 161.683 31.1314 160.763 31.1314H160.627H158.747C158.291 31.1314 157.979 31.1474 157.755 31.3554C157.539 31.5714 157.491 31.8994 157.491 32.4354V42.4114C157.491 43.8194 158.259 44.4034 158.995 44.6594C159.363 44.7954 159.723 44.8514 159.979 44.9234C160.107 44.9554 160.211 44.9954 160.267 45.0274L160.323 45.0994C160.323 45.2914 160.275 45.3314 160.195 45.3794C160.107 45.4274 159.939 45.4434 159.715 45.4434C159.611 45.4434 159.491 45.4434 159.363 45.4434C158.483 45.4434 157.747 45.3554 156.267 45.3554C154.787 45.3554 154.043 45.4434 153.171 45.4434H153.067C152.891 45.4434 152.739 45.4354 152.659 45.3954C152.579 45.3554 152.531 45.3074 152.531 45.1074L152.595 44.9634C152.675 44.8994 152.867 44.8434 153.115 44.8034C153.483 44.7394 153.955 44.6674 154.355 44.3794C154.747 44.0914 155.035 43.5714 155.035 42.6834H154.907L154.875 42.6914Z" fill="#006225"/>
<path d="M59.0669 36.3393V32.5633C59.0669 30.0673 60.6189 30.8673 60.6189 30.2673C60.6189 30.0273 60.4829 29.9793 60.2189 29.9793C59.1149 30.0193 58.4269 30.0673 57.7069 30.0673C57.0829 30.0673 56.4909 30.0193 55.8509 29.9793C55.5629 29.9793 55.1869 29.8673 55.1869 30.2193C55.1869 31.0113 57.9149 30.3313 57.9149 32.8673V36.3313L57.8989 38.2673C58.1149 43.6513 55.2189 44.5553 52.9469 44.4673C48.6589 44.4673 48.0989 41.6433 48.0989 38.2673V33.4833C48.0989 29.8673 49.9549 31.0273 49.9549 30.2833C49.9549 30.1473 49.9149 29.9713 49.7149 29.9713C49.2989 29.9713 47.7229 30.0593 46.6029 30.0593C45.4829 30.0593 43.8349 29.9713 43.5469 29.9713C43.3709 29.9713 43.0829 30.0353 43.0829 30.3233C43.0829 31.1553 45.3869 30.4513 45.3869 32.3553V39.5473C45.3869 43.8273 48.5469 45.7473 52.6829 45.7473C56.7629 45.7233 58.9709 43.7073 59.1149 39.5473V36.3553L59.0909 36.3313L59.0669 36.3393Z" fill="#006225"/>
<path d="M59.0668 36.3394H59.1948V32.5634C59.1948 31.3394 59.5628 30.9874 59.8988 30.8194C60.0748 30.7394 60.2588 30.7074 60.4188 30.6514L60.6428 30.5314L60.7468 30.2754C60.7468 30.1394 60.6988 30.0034 60.5868 29.9394C60.4748 29.8754 60.3548 29.8674 60.2188 29.8674C59.1148 29.9074 58.4268 29.9554 57.7068 29.9554C57.0908 29.9554 56.4988 29.9074 55.8588 29.8674H55.8508C55.7548 29.8674 55.6268 29.8514 55.5068 29.8514L55.2108 29.9234C55.1148 29.9794 55.0508 30.1074 55.0588 30.2434C55.0588 30.3794 55.1228 30.4994 55.2188 30.5794C55.5468 30.8354 56.1788 30.8674 56.7468 31.1314C57.2988 31.3954 57.7788 31.8194 57.7868 32.8914V36.3554L57.7628 38.2914C57.7708 38.4834 57.7788 38.6674 57.7788 38.8434C57.7788 41.1634 57.1468 42.5314 56.2828 43.3314C55.4108 44.1314 54.2748 44.3634 53.2188 44.3634H52.9388C50.8188 44.3634 49.6668 43.6754 49.0188 42.5874C48.3628 41.4994 48.2188 39.9714 48.2188 38.2834V33.4994C48.2188 31.6994 48.6748 31.1554 49.0828 30.9314C49.2908 30.8194 49.5068 30.7794 49.6988 30.7234L49.9548 30.5954C50.0348 30.5234 50.0748 30.4194 50.0748 30.2994L50.0108 30.0274C49.9548 29.9314 49.8428 29.8594 49.6988 29.8594C49.2668 29.8594 47.7068 29.9474 46.5868 29.9474C45.4668 29.9474 43.8268 29.8594 43.5308 29.8594C43.4268 29.8594 43.2988 29.8754 43.1708 29.9394C43.0428 30.0034 42.9388 30.1474 42.9388 30.3394C42.9388 30.6194 43.1548 30.7794 43.3788 30.8594C43.7308 30.9874 44.2028 31.0354 44.5788 31.2274C44.9548 31.4114 45.2348 31.6994 45.2348 32.3714V39.5634C45.2348 41.7314 46.0428 43.3314 47.3788 44.3634C48.7148 45.4034 50.5708 45.8834 52.6508 45.8834C54.7148 45.8754 56.3228 45.3554 57.4348 44.2994C58.5468 43.2434 59.1388 41.6594 59.2108 39.5634V36.3154L59.1548 36.2514L59.0588 36.3394L58.9708 36.4274L58.9948 36.4514L59.0908 36.3634H58.9628V39.5554C58.8908 41.6034 58.3148 43.1154 57.2588 44.1074C56.2108 45.1074 54.6748 45.6114 52.6508 45.6274C50.6028 45.6274 48.8108 45.1474 47.5388 44.1554C46.2668 43.1634 45.4908 41.6594 45.4908 39.5554V32.3634C45.4908 31.8674 45.3388 31.5074 45.0908 31.2674C44.7308 30.9074 44.2188 30.8114 43.8188 30.7154C43.6188 30.6674 43.4428 30.6194 43.3388 30.5554C43.2268 30.4834 43.1948 30.4354 43.1868 30.3314L43.2828 30.1554L43.5148 30.1074C43.7948 30.1074 45.4588 30.1954 46.5708 30.1954C47.6828 30.1954 49.2668 30.1074 49.6828 30.1074L49.7708 30.1474L49.8028 30.2914L49.7628 30.4034C49.7228 30.4514 49.5788 30.4834 49.3868 30.5314C49.1068 30.6034 48.7228 30.7394 48.4348 31.1634C48.1388 31.5874 47.9388 32.2914 47.9388 33.4914V38.2754C47.9388 39.9714 48.0748 41.5394 48.7708 42.7074C49.4668 43.8834 50.7388 44.6114 52.9148 44.6034H53.2028C54.2908 44.6034 55.4988 44.3554 56.4348 43.4994C57.3708 42.6434 58.0108 41.1874 58.0108 38.8274C58.0108 38.6434 58.0108 38.4594 57.9948 38.2674L58.0108 36.3394V32.8674C58.0188 31.5474 57.2668 31.0114 56.5628 30.7714C56.2108 30.6434 55.8668 30.5714 55.6268 30.4914C55.5068 30.4514 55.4108 30.4034 55.3628 30.3634L55.2908 30.2194L55.3308 30.1154L55.4908 30.0914C55.5868 30.0914 55.7148 30.1074 55.8348 30.1074C56.4668 30.1474 57.0668 30.1954 57.6908 30.1954C58.4188 30.1954 59.1148 30.1554 60.2108 30.1074C60.3388 30.1074 60.4188 30.1234 60.4428 30.1394L60.4828 30.2674L60.4588 30.3394C60.3948 30.4274 59.9948 30.4354 59.6268 30.6754C59.2508 30.9234 58.9388 31.4434 58.9388 32.5554V36.3794L58.9708 36.4194L59.0588 36.3314L59.0668 36.3394Z" fill="#006225"/>
<path d="M95.1149 43.7714C96.3869 45.5634 97.8189 46.4114 99.5709 46.4434C100.003 46.4594 101.619 46.3634 101.571 45.9714C101.515 45.5314 101.163 45.6834 100.579 45.5394C98.9069 45.1234 95.2829 39.7154 94.2349 39.0594C97.8029 38.6194 98.5789 35.8034 98.4749 34.0674C98.4349 33.2354 98.0349 29.9474 93.1949 29.9474C91.7149 29.9474 88.2909 30.0274 86.8109 30.0274C85.4189 30.0274 85.2429 29.9474 84.2269 29.9474C83.9629 29.9474 83.7389 30.0594 83.7389 30.2754C83.7389 31.0674 86.1469 30.2514 86.1469 32.7234V42.4274C86.1469 45.2034 84.3549 44.4834 84.3549 45.1874C84.3549 45.6274 84.8189 45.5634 85.0669 45.5634C86.1709 45.5634 87.2749 45.4754 88.4669 45.4754C89.3949 45.4754 89.9869 45.5634 90.3629 45.5634C90.8749 45.5634 91.0509 45.4354 91.0509 45.2354C91.0509 44.4354 88.7869 45.1394 88.8429 42.8514V32.4274C88.8509 31.1074 89.5389 31.1074 90.3549 31.1074C92.5869 31.1074 95.9309 30.9474 96.0829 34.7074C96.1229 35.6994 95.3229 38.1954 92.0829 38.1314C91.6509 38.1234 90.8589 38.2434 90.7709 38.4674C90.6589 38.7554 90.7309 38.9154 91.2909 39.1394C91.8429 39.3634 92.9549 40.6994 95.1149 43.7634" fill="#006225"/>
<path d="M95.115 43.7714L95.011 43.8434C96.291 45.6594 97.779 46.5474 99.563 46.5714H99.635C99.891 46.5714 100.379 46.5474 100.811 46.4754C101.027 46.4434 101.227 46.3954 101.387 46.3234C101.539 46.2594 101.683 46.1714 101.691 45.9874V45.9554C101.675 45.8354 101.635 45.7234 101.563 45.6514C101.443 45.5394 101.299 45.5154 101.147 45.4994C100.995 45.4834 100.819 45.4674 100.611 45.4274C99.859 45.2514 98.507 43.8034 97.267 42.3154C96.643 41.5714 96.043 40.8194 95.523 40.2114C95.003 39.6034 94.587 39.1394 94.291 38.9554L94.227 39.0674L94.243 39.1874C97.683 38.7634 98.611 36.1394 98.603 34.3634V34.0674C98.571 33.6434 98.459 32.5874 97.731 31.6274C96.995 30.6674 95.643 29.8274 93.187 29.8274C91.707 29.8274 88.275 29.9154 86.803 29.9154C85.419 29.9154 85.243 29.8274 84.219 29.8274C84.067 29.8274 83.923 29.8594 83.811 29.9314C83.691 29.9954 83.611 30.1314 83.611 30.2834C83.611 30.4114 83.667 30.5314 83.755 30.6114C84.067 30.8594 84.619 30.8514 85.107 31.0834C85.587 31.3074 86.003 31.6834 86.011 32.7314V42.4354C86.011 43.8034 85.587 44.2434 85.179 44.4834C84.971 44.6034 84.755 44.6594 84.571 44.7394C84.395 44.8114 84.211 44.9474 84.211 45.1954C84.211 45.3954 84.307 45.5554 84.443 45.6194C84.579 45.6914 84.715 45.6994 84.843 45.6994H85.051C86.163 45.6994 87.267 45.6114 88.451 45.6114C89.363 45.6114 89.955 45.6994 90.347 45.6994C90.611 45.6994 90.803 45.6674 90.939 45.5954C91.083 45.5234 91.163 45.3794 91.163 45.2434C91.163 44.9714 90.955 44.8194 90.739 44.7394C90.403 44.6114 89.955 44.5394 89.595 44.3154C89.235 44.0914 88.963 43.7314 88.955 42.9394V42.8594L88.963 32.4354C88.963 31.7954 89.123 31.5234 89.347 31.3874C89.579 31.2514 89.931 31.2354 90.339 31.2434H90.875C91.971 31.2434 93.219 31.2834 94.195 31.7314C95.163 32.1874 95.875 33.0194 95.947 34.7234V34.7874C95.947 35.2674 95.747 36.0834 95.187 36.7634C94.619 37.4434 93.691 38.0114 92.187 38.0114H92.075H92.019C91.795 38.0114 91.491 38.0434 91.227 38.0994C91.099 38.1314 90.979 38.1634 90.875 38.2114C90.771 38.2594 90.691 38.3154 90.635 38.4194L90.579 38.6594C90.579 38.7874 90.643 38.9074 90.747 38.9954C90.851 39.0834 91.003 39.1634 91.219 39.2514C91.443 39.3394 91.867 39.7234 92.483 40.4594C93.099 41.1954 93.915 42.2914 94.987 43.8274L95.195 43.6834C94.115 42.1474 93.299 41.0514 92.675 40.2994C92.051 39.5554 91.643 39.1554 91.323 39.0194C91.123 38.9394 90.987 38.8674 90.923 38.8034L90.843 38.6594L90.883 38.5074L90.987 38.4354C91.219 38.3234 91.707 38.2514 92.019 38.2514H92.067H92.179C93.747 38.2514 94.771 37.6514 95.379 36.9154C95.987 36.1794 96.195 35.3154 96.195 34.7714V34.6914C96.131 32.9234 95.339 31.9634 94.299 31.4834C93.259 31.0034 91.979 30.9714 90.875 30.9714C90.691 30.9714 90.515 30.9714 90.339 30.9714C89.931 30.9714 89.539 30.9714 89.211 31.1554C88.891 31.3474 88.707 31.7394 88.707 32.4194V42.8354L88.699 42.9154C88.683 44.0594 89.307 44.5074 89.891 44.7074C90.171 44.8114 90.459 44.8754 90.643 44.9474C90.843 45.0354 90.907 45.0914 90.907 45.2114L90.827 45.3394C90.747 45.3794 90.595 45.4114 90.347 45.4114C89.987 45.4114 89.379 45.3234 88.451 45.3234C87.251 45.3234 86.147 45.4114 85.051 45.4114H84.843C84.731 45.4114 84.627 45.4034 84.563 45.3714C84.507 45.3314 84.467 45.3074 84.467 45.1714C84.467 45.0594 84.507 45.0274 84.667 44.9474C84.899 44.8434 85.307 44.7554 85.651 44.4114C85.995 44.0594 86.259 43.4754 86.259 42.4114V32.7234C86.267 31.4434 85.595 30.9554 84.963 30.7474C84.651 30.6434 84.347 30.5874 84.139 30.5234L83.907 30.4114L83.843 30.2754L83.923 30.1314C83.979 30.0914 84.083 30.0674 84.203 30.0674C85.203 30.0674 85.387 30.1554 86.787 30.1554C88.267 30.1554 91.691 30.0674 93.171 30.0674C95.563 30.0674 96.819 30.8754 97.515 31.7634C98.203 32.6594 98.307 33.6594 98.331 34.0674V34.3554C98.331 36.0674 97.499 38.5154 94.195 38.9314L93.843 38.9714L94.139 39.1634C94.371 39.3074 94.803 39.7634 95.307 40.3714C96.075 41.2754 97.051 42.5154 97.995 43.5634C98.939 44.6114 99.835 45.4834 100.523 45.6594C100.827 45.7314 101.075 45.7314 101.219 45.7634L101.355 45.8274L101.419 45.9874L101.395 46.0194C101.315 46.1074 100.955 46.2034 100.595 46.2514C100.227 46.2994 99.827 46.3234 99.619 46.3234H99.555C97.851 46.2914 96.459 45.4754 95.203 43.6994L95.099 43.7714H95.115Z" fill="#006225"/>
<path d="M124.451 31.9634C124.451 30.2914 126.027 31.1074 126.027 30.2674C126.027 30.0034 125.907 29.9794 125.443 29.9794C125.091 29.9794 124.827 30.0674 122.947 30.0674C122.107 30.0674 120.827 29.9794 119.939 29.9794C119.475 29.9794 119.235 30.1554 119.235 30.3474C119.235 31.1234 121.731 30.5234 121.731 32.4034V42.8434C121.731 45.5314 120.051 44.3474 120.051 45.3634C120.051 45.4914 120.179 45.6034 120.467 45.6034C121.683 45.6034 122.611 45.5074 123.299 45.5074C124.411 45.5074 126.899 45.4834 130.883 45.6034C132.699 45.6594 134.003 43.7874 134.003 42.0754C134.003 41.6514 133.851 41.5874 133.755 41.5874C132.915 41.5874 133.211 44.0514 127.747 44.4114C124.107 44.6514 124.539 44.1874 124.451 42.3154V31.9634Z" fill="#006225"/>
<path d="M124.451 31.9635H124.579C124.579 31.5635 124.675 31.3315 124.795 31.1955C124.979 30.9795 125.275 30.9235 125.555 30.8595C125.699 30.8275 125.835 30.7875 125.955 30.6995C126.075 30.6115 126.155 30.4595 126.147 30.2755C126.155 30.1395 126.099 29.9795 125.955 29.9155C125.827 29.8595 125.675 29.8595 125.443 29.8595C125.067 29.8595 124.827 29.9475 122.947 29.9475C122.115 29.9475 120.835 29.8595 119.939 29.8595C119.691 29.8595 119.499 29.9075 119.347 29.9875C119.203 30.0675 119.099 30.2035 119.099 30.3555C119.099 30.4915 119.163 30.6035 119.251 30.6835C119.563 30.9395 120.147 30.9715 120.667 31.1635C121.187 31.3635 121.595 31.6435 121.603 32.4115V42.8515C121.595 44.1795 121.211 44.4675 120.843 44.6195C120.651 44.6995 120.443 44.7235 120.259 44.8115C120.067 44.8915 119.915 45.0755 119.923 45.3715C119.923 45.4835 119.987 45.5875 120.083 45.6435C120.179 45.7075 120.307 45.7315 120.467 45.7315C121.691 45.7315 122.627 45.6435 123.299 45.6435C123.611 45.6435 124.027 45.6435 124.555 45.6435C125.923 45.6435 128.011 45.6595 130.883 45.7395H130.963C132.835 45.7395 134.131 43.8275 134.131 42.0835C134.131 41.8595 134.091 41.7155 134.019 41.6115L133.763 41.4755C133.483 41.4755 133.307 41.6835 133.139 41.9155C132.603 42.6195 131.819 44.0115 127.747 44.2995C127.171 44.3395 126.699 44.3635 126.315 44.3635C125.803 44.3635 125.435 44.3235 125.195 44.2515C124.835 44.1315 124.723 43.9875 124.659 43.6835C124.595 43.3795 124.619 42.9235 124.595 42.3235V31.9635H124.339V42.3075C124.379 43.0995 124.307 43.6355 124.531 44.0435C124.643 44.2435 124.843 44.3955 125.131 44.4755C125.419 44.5555 125.795 44.5955 126.323 44.5955C126.715 44.5955 127.187 44.5715 127.771 44.5395C130.523 44.3555 131.851 43.6435 132.587 42.9555C132.955 42.6195 133.179 42.2835 133.355 42.0595C133.531 41.8195 133.643 41.7155 133.779 41.7155L133.835 41.7475C133.835 41.7475 133.899 41.8835 133.899 42.0755C133.899 42.8915 133.595 43.7475 133.067 44.3955C132.547 45.0435 131.827 45.4755 130.979 45.4755H130.907C128.035 45.3875 125.939 45.3795 124.579 45.3795C124.051 45.3795 123.635 45.3795 123.323 45.3795C122.627 45.3795 121.707 45.4675 120.491 45.4675C120.363 45.4675 120.283 45.4355 120.243 45.4115L120.195 45.3475C120.195 45.1235 120.251 45.0835 120.387 45.0195C120.587 44.9235 120.963 44.9075 121.299 44.6355C121.635 44.3635 121.875 43.8515 121.875 42.8275V32.4035C121.875 31.3955 121.171 31.0195 120.531 30.8435C120.211 30.7475 119.899 30.6915 119.675 30.6195C119.563 30.5795 119.483 30.5395 119.435 30.4915L119.371 30.3475L119.483 30.1955C119.579 30.1395 119.731 30.0995 119.947 30.0995C120.827 30.0995 122.107 30.1875 122.955 30.1875C124.843 30.1875 125.123 30.0995 125.451 30.0995C125.683 30.0995 125.827 30.1075 125.859 30.1315C125.891 30.1475 125.891 30.1315 125.899 30.2595C125.899 30.4275 125.843 30.4675 125.731 30.5315C125.547 30.6195 125.203 30.6355 124.899 30.7955C124.579 30.9555 124.323 31.3075 124.331 31.9635H124.459H124.451Z" fill="#006225"/>
<path d="M172.803 32.5155C172.803 30.9955 172.787 30.9715 177.603 30.9715C181.867 30.9715 180.147 33.5555 181.187 33.5555C181.691 33.5555 181.587 32.8275 181.563 32.5395L181.475 30.3555C181.475 30.1555 181.323 29.9395 181.035 29.9395C179.091 29.9395 175.531 30.0275 173.955 30.0275C170.571 30.0275 168.979 29.9395 168.075 29.9395C167.763 29.9395 167.587 30.1155 167.587 30.3075C167.587 31.1955 170.083 30.4915 170.083 32.4755V42.8035C170.083 45.4915 168.403 44.2995 168.403 45.3155C168.403 45.4515 168.531 45.5635 168.819 45.5635C170.035 45.5635 170.963 45.4755 171.651 45.4755C172.755 45.4755 176.347 45.6035 179.715 45.6035C181.523 45.6035 182.875 43.7475 182.875 42.0355C182.875 41.6195 182.723 41.5475 182.635 41.5475C181.795 41.5475 182.107 44.4435 176.619 44.4435C172.899 44.4435 172.811 43.6435 172.811 42.2755V39.4515C172.811 38.1715 172.715 37.9075 173.739 37.9075H177.315C179.611 37.9075 178.995 40.2435 179.699 40.2435C180.227 40.2435 180.099 39.4435 180.075 39.1555L179.915 35.2275C179.891 34.6355 179.651 34.6755 179.499 34.6755C179.051 34.6755 178.987 36.7075 177.091 36.7075H173.755C172.803 36.7075 172.803 36.5555 172.803 35.6035V32.5155Z" fill="#006225"/>
<path d="M172.803 32.5154H172.931V32.4914C172.931 32.1234 172.931 31.8434 173.003 31.6674C173.051 31.5314 173.123 31.4434 173.267 31.3634C173.723 31.1154 174.915 31.0994 177.603 31.0994C179.723 31.1074 180.267 31.7234 180.483 32.3074C180.587 32.6114 180.611 32.9154 180.659 33.1794C180.691 33.3074 180.723 33.4274 180.811 33.5234C180.891 33.6274 181.027 33.6834 181.187 33.6754C181.395 33.6754 181.555 33.5634 181.627 33.4114C181.699 33.2594 181.707 33.0914 181.715 32.9394C181.715 32.7794 181.691 32.6194 181.691 32.5314L181.603 30.3474C181.603 30.0914 181.395 29.8114 181.035 29.8114C179.083 29.8114 175.523 29.8994 173.955 29.8994C170.571 29.8994 168.987 29.8114 168.075 29.8114C167.891 29.8114 167.739 29.8594 167.635 29.9554C167.523 30.0434 167.459 30.1794 167.459 30.3154C167.459 30.6114 167.683 30.7794 167.931 30.8674C168.307 31.0114 168.827 31.0674 169.243 31.2674C169.651 31.4754 169.955 31.7794 169.955 32.4754V42.8034C169.955 44.1314 169.571 44.4194 169.195 44.5714C169.003 44.6514 168.795 44.6754 168.611 44.7634C168.419 44.8354 168.267 45.0274 168.275 45.3154C168.275 45.4194 168.331 45.5314 168.435 45.5954C168.531 45.6594 168.667 45.6914 168.827 45.6914C170.051 45.6914 170.987 45.6034 171.659 45.6034C172.763 45.6034 176.355 45.7314 179.723 45.7314C181.619 45.7314 183.011 43.8114 183.011 42.0354C183.011 41.8114 182.971 41.6594 182.899 41.5634L182.643 41.4194C182.499 41.4194 182.371 41.4834 182.283 41.5794C181.955 41.8994 181.739 42.5634 181.003 43.1634C180.267 43.7634 179.011 44.3074 176.627 44.3074C174.779 44.3074 173.843 44.0994 173.403 43.7634C172.971 43.4354 172.939 42.9634 172.939 42.2674V39.4434C172.939 39.2514 172.939 39.0834 172.939 38.9314C172.939 38.5154 172.963 38.2754 173.051 38.1794C173.123 38.0834 173.315 38.0194 173.747 38.0274H177.323C178.427 38.0354 178.771 38.5554 178.995 39.1154C179.099 39.3954 179.163 39.6834 179.243 39.9154C179.283 40.0274 179.331 40.1314 179.403 40.2194C179.475 40.3074 179.587 40.3714 179.715 40.3634C179.931 40.3634 180.091 40.2434 180.163 40.0914C180.235 39.9394 180.251 39.7634 180.251 39.6034C180.251 39.4194 180.235 39.2434 180.227 39.1474L180.067 35.2274C180.051 34.9554 180.003 34.7874 179.899 34.6754C179.803 34.5634 179.659 34.5554 179.579 34.5554H179.523C179.419 34.5554 179.331 34.6194 179.275 34.6834C178.883 35.1634 178.675 36.5874 177.115 36.5874H173.779C173.307 36.5874 173.107 36.5394 173.051 36.4434C172.971 36.3474 172.955 36.0834 172.955 35.6114V32.5234H172.699V35.6114C172.699 36.0834 172.683 36.3714 172.843 36.5954C173.019 36.8114 173.299 36.8354 173.771 36.8434H177.107C178.107 36.8434 178.651 36.2914 178.963 35.7634C179.123 35.4994 179.235 35.2434 179.331 35.0594L179.459 34.8514L179.515 34.8114H179.571L179.707 34.8514C179.707 34.8514 179.795 34.9954 179.803 35.2434L179.963 39.1714C179.963 39.2834 179.995 39.4434 179.995 39.6114C179.995 39.7554 179.979 39.8994 179.931 39.9874C179.883 40.0754 179.835 40.1154 179.715 40.1154L179.595 40.0594C179.451 39.9074 179.387 39.3314 179.139 38.8034C178.891 38.2674 178.371 37.7714 177.331 37.7794H173.755C173.315 37.7794 173.043 37.8194 172.867 38.0274C172.707 38.2434 172.699 38.5154 172.699 38.9394V42.2754C172.699 42.9554 172.715 43.5554 173.259 43.9714C173.795 44.3714 174.771 44.5634 176.635 44.5634C179.395 44.5634 180.731 43.8354 181.475 43.0754C181.843 42.7074 182.059 42.3314 182.235 42.0594C182.323 41.9234 182.395 41.8194 182.467 41.7554L182.659 41.6674L182.707 41.6994C182.707 41.6994 182.771 41.8354 182.771 42.0274C182.771 42.8514 182.443 43.7234 181.899 44.3714C181.355 45.0274 180.595 45.4674 179.739 45.4674C176.379 45.4674 172.795 45.3314 171.675 45.3314C170.979 45.3314 170.059 45.4194 168.843 45.4194C168.715 45.4194 168.635 45.3954 168.595 45.3634L168.547 45.2994C168.555 45.0834 168.611 45.0434 168.739 44.9714C168.939 44.8754 169.315 44.8594 169.651 44.5954C169.987 44.3234 170.227 43.8114 170.227 42.7874V32.4754C170.227 31.9554 170.059 31.5794 169.795 31.3314C169.403 30.9554 168.859 30.8434 168.419 30.7314C168.203 30.6754 168.011 30.6194 167.891 30.5554C167.771 30.4834 167.723 30.4194 167.723 30.3074C167.723 30.1954 167.819 30.0674 168.083 30.0594C168.979 30.0594 170.579 30.1474 173.963 30.1474C175.539 30.1474 179.091 30.0594 181.043 30.0594C181.259 30.0594 181.355 30.2194 181.355 30.3474L181.443 32.5394C181.443 32.6434 181.467 32.7874 181.467 32.9394C181.467 33.0754 181.451 33.2194 181.403 33.2994C181.355 33.3874 181.315 33.4194 181.187 33.4274L181.003 33.3634C180.931 33.2914 180.899 33.0914 180.859 32.8354C180.803 32.4514 180.715 31.9394 180.259 31.5394C179.803 31.1314 179.019 30.8594 177.595 30.8594C175.203 30.8594 174.003 30.8594 173.363 31.0594C173.043 31.1554 172.843 31.3394 172.755 31.5874C172.667 31.8274 172.675 32.1234 172.675 32.4914V32.5154H172.803Z" fill="#006225"/>
<path d="M15.7549 45.6834H0.0349121L15.7549 29.9954V45.6834Z" fill="#006225"/>
<path d="M0.0349121 45.6834V29.9954H15.7549L0.0349121 45.6834Z" fill="#97CA3E"/>
<path d="M0.0349121 45.6674V29.9954H15.7309L0.0349121 45.6674Z" fill="#8DC642"/>
<path d="M9.25085 36.8674C9.76285 36.9554 11.0188 37.0834 12.0428 36.4674C13.2348 35.7474 13.6828 34.2514 13.7468 33.9954C13.8188 33.9794 13.8668 33.9634 13.7468 33.9954V33.9634C13.7468 33.9634 12.0428 33.5234 10.7308 34.3154C9.93885 34.7954 9.48285 35.6114 9.23485 36.1794C9.13885 36.4194 9.07485 36.6194 9.04285 36.7234C8.35485 37.2914 7.69885 37.8834 7.09085 38.4594C7.14685 38.3154 7.19485 38.1634 7.23485 38.0034C7.58685 37.7074 8.57085 36.7794 8.74685 35.5394C8.96285 34.0274 7.88285 32.6274 7.88285 32.6274C7.88285 32.6274 6.46685 33.6754 6.25085 35.1874C6.09085 36.3474 6.68285 37.4434 6.97085 37.8914C7.02685 37.9714 7.06685 38.0194 7.09885 38.0594C7.01085 38.3874 6.88285 38.6594 6.69085 38.8434L6.63485 38.8914C5.80285 39.6594 5.03485 40.3714 4.29085 40.8994C4.35485 40.7874 4.41085 40.6594 4.45085 40.5234C4.73085 40.2754 5.81085 39.2114 5.92285 37.8354C6.05085 36.2594 4.85085 34.8834 4.85085 34.8834C4.85085 34.8834 3.44285 36.0594 3.31485 37.6274C3.21085 38.9714 4.06685 40.1714 4.32285 40.4914C4.21885 40.8354 4.03485 41.0994 3.72285 41.2514L3.66685 41.2834V41.2994C3.14685 41.5954 2.62685 41.7794 2.11485 41.8194H2.04285L2.05885 41.9554H2.12285C2.81885 41.9154 3.50685 41.6034 4.21085 41.1314C4.40285 41.0434 4.62685 40.9874 4.88285 40.9554C4.91485 40.9954 4.96285 41.0594 5.02685 41.1314C5.37085 41.5554 6.21885 42.4274 7.33885 42.6274C8.84285 42.8994 10.2908 41.8834 10.2908 41.8834C10.2908 41.8834 9.29885 40.4274 7.79485 40.1554C6.81885 39.9794 5.85885 40.3474 5.31485 40.6274C5.18685 40.6914 5.07485 40.7554 4.99485 40.8034C4.85885 40.8194 4.72285 40.8434 4.58685 40.8754C5.25085 40.3874 5.93885 39.7634 6.65885 39.0914L6.70685 39.0594C6.95485 38.8594 7.28285 38.7474 7.67485 38.6914L7.74685 38.7874C8.07485 39.2114 8.89885 40.1474 10.0428 40.3954C11.5388 40.7074 13.0108 39.7394 13.0108 39.7394C13.0108 39.7394 12.0588 38.2514 10.5708 37.9314C9.29885 37.6674 8.05085 38.3234 7.69885 38.5314C7.47485 38.5634 7.28285 38.6114 7.11485 38.6834C7.71485 38.1314 8.40285 37.4914 9.13085 36.8834L9.27485 36.9074L9.25085 36.8674Z" fill="white"/>
<path d="M7.3628 36.3794C7.3708 34.3554 7.8348 32.8274 7.8348 32.8274L7.8108 32.8914C7.3628 34.0594 7.2988 35.2914 7.2428 36.3794C7.2188 36.9154 7.1948 37.4034 7.1228 37.8274C7.1468 37.8114 7.2508 37.6514 7.2748 37.5794C7.3228 37.2114 7.3548 36.7954 7.3628 36.3874" fill="#8DC642"/>
<path d="M8.11495 38.4034L7.86695 38.5234L7.85095 38.5474C9.61095 38.3714 12.179 39.3394 12.691 39.5394C12.219 39.3554 11.067 38.8354 9.85095 38.5874C9.17095 38.4514 8.61895 38.3874 8.11495 38.4034Z" fill="#006225"/>
<path d="M9.93894 41.8354C9.79494 41.7794 7.25094 40.7234 5.33094 40.7394C5.25894 40.7554 5.18694 40.7794 5.12294 40.8034L5.09094 40.8434C7.02694 40.7394 10.0029 41.8594 10.0029 41.8594L9.93894 41.8354Z" fill="#006225"/>
<path d="M13.523 34.0275H13.491C11.939 34.5555 10.619 35.4035 9.40295 36.3635L9.29895 36.5875C9.43495 36.4835 9.57095 36.3715 9.70695 36.2675C11.019 35.2675 12.387 34.4515 13.531 34.0275" fill="#006225"/>
<path d="M4.81892 35.1473L4.80292 35.2113C4.42692 36.3793 4.41891 37.5633 4.41091 38.6113C4.41091 39.0993 4.41092 39.5473 4.36292 39.9473C4.38692 40.0273 4.41092 40.1073 4.41892 40.1793L4.45092 40.1633C4.51492 39.7233 4.55492 39.1713 4.53892 38.6113C4.47492 36.2433 4.81892 35.1473 4.81892 35.1473Z" fill="#8DC642"/>
</svg>
