<svg width="136" height="70" viewBox="0 0 136 70" fill="none" xmlns="http://www.w3.org/2000/svg">
<path d="M62.2544 20.4548V20.2725C58.2005 19.7437 54.3533 22.7887 53.3931 27.511H56.4745C56.4745 23.6152 58.9542 20.9167 62.2544 20.4548Z" fill="#17A0C6"/>
<path d="M68.9703 27.511H69.1465C69.651 23.2566 66.7519 19.2149 62.2605 18.2V21.4272C65.9679 21.4272 68.9703 23.9859 68.9703 27.511Z" fill="#DFA515"/>
<path d="M62.2544 34.5611V34.7434C66.3021 35.2722 70.1493 32.2273 71.1157 27.5049H68.0343C68.0343 31.4007 65.7065 34.3301 62.2605 34.5611H62.2544Z" fill="#17A0C6"/>
<path d="M5.05715 27.748H0.346924V46.0055H5.05715V27.748Z" fill="#17A0C6"/>
<path d="M11.4205 36.0927L20.7923 27.748H14.8422L6.54613 34.9441C6.07815 35.3513 5.85327 35.9469 5.85327 36.5972C5.85327 37.3204 6.18147 37.9161 6.70415 38.3901L15.0975 45.9994H21.4608L11.4265 36.9436C11.1226 36.6762 11.1105 36.3723 11.4265 36.0927H11.4205Z" fill="#17A0C6"/>
<path d="M35.087 38.9128H37.7491C40.4536 38.9128 42.2709 37.1563 42.2709 34.3849V32.2759C42.2709 29.5045 40.4536 27.748 37.7491 27.748H26.1893C24.0013 27.748 22.2327 29.5227 22.2327 31.7046V45.9994H26.9429V32.1909C26.9429 31.498 27.502 30.9388 28.1949 30.9388H36.0412C36.886 30.9388 37.5667 31.6135 37.5667 32.4643V34.3849C37.5667 35.2115 36.8921 35.9104 36.0412 35.9104H30.5956C29.7812 35.9104 29.143 36.0927 28.7844 37.0105C28.4866 37.758 28.8574 38.5907 29.3193 39.0161C29.6596 39.3322 36.9954 46.0055 36.9954 46.0055H43.1217V45.9933L35.087 38.9128Z" fill="#17A0C6"/>
<path d="M57.2343 36.6033L65.3237 27.748H59.8659L54.5054 33.6373L49.1448 27.748H43.6871L51.7765 36.6033L43.1218 45.9933V45.9994H48.6951L54.5054 39.5084L60.3157 45.9994H65.9011L57.2343 36.6033Z" fill="#17A0C6"/>
<path d="M80.0865 30.4829H78.4395V36.8767H80.0865V30.4829Z" fill="#17A0C6"/>
<path d="M82.1894 33.4063L84.7542 30.4829H82.8276L80.6396 33.0052C80.4755 33.1449 80.3965 33.3577 80.3965 33.5825C80.3965 33.8378 80.512 34.0444 80.6943 34.2146L82.9127 36.8827H84.9851L82.1894 33.7102C82.08 33.619 82.08 33.5096 82.1894 33.4124V33.4063Z" fill="#17A0C6"/>
<path d="M98.3136 34.4091C99.0733 34.4091 99.6811 33.7953 99.6811 33.0416V31.8504C99.6811 31.0968 99.0673 30.4829 98.3136 30.4829H94.4847C93.731 30.4829 93.1172 31.0968 93.1172 31.8504V36.8767H94.7643V32.0145C94.7764 31.7835 94.9648 31.6012 95.2018 31.6012H97.5965C97.8335 31.6012 98.0219 31.7835 98.0341 32.0206V32.9322C98.0219 33.1632 97.8335 33.3455 97.5965 33.3455H95.9433C95.6516 33.3637 95.4206 33.6069 95.4206 33.8986C95.4206 34.0262 95.4936 34.2025 95.5908 34.3058L98.107 36.8827H99.8695L97.3594 34.4152H98.3136V34.4091Z" fill="#17A0C6"/>
<path d="M85.5381 31.8504V35.5031C85.5381 36.2567 86.1519 36.8706 86.9116 36.8706H90.5583C91.318 36.8706 91.9318 36.2567 91.9318 35.5031V31.8504C91.9318 31.0968 91.318 30.4829 90.5583 30.4829H86.9116C86.1519 30.4829 85.5381 31.0968 85.5381 31.8504ZM87.1912 32.0145C87.2034 31.7835 87.3918 31.6012 87.6288 31.6012H89.835C90.0721 31.6012 90.2605 31.7835 90.2726 32.0206V35.3451C90.2605 35.576 90.0721 35.7584 89.835 35.7584H87.6288C87.3918 35.7584 87.2034 35.57 87.1912 35.3451V32.0206V32.0145Z" fill="#17A0C6"/>
<path d="M102.829 31.6012H106.676V30.4829H102.106C101.352 30.4829 100.739 31.0968 100.739 31.8504V33.1206V34.2146V35.5031C100.739 36.2567 101.352 36.8706 102.106 36.8706H106.676V35.7523H102.829C102.592 35.7523 102.404 35.5639 102.392 35.339V34.2085H106.5V33.1146H102.392V32.0084C102.404 31.7775 102.598 31.5951 102.829 31.5951V31.6012Z" fill="#17A0C6"/>
<path d="M112.444 31.1272C112.225 30.6349 111.8 30.2885 111.15 30.2885C110.499 30.2885 110.11 30.6106 109.879 31.0846L107.339 36.8828H109.016L109.6 35.412H112.712L113.295 36.8828H114.972L112.45 31.1333L112.444 31.1272ZM110.037 34.2876L111.046 31.7349C111.095 31.6195 111.192 31.5708 111.253 31.7228L112.268 34.2876H110.037Z" fill="#17A0C6"/>
<path d="M80.5302 40.73H84.3774V39.6117H79.8069C79.0533 39.6117 78.4395 40.2255 78.4395 40.9792V44.638C78.4395 45.3916 79.0533 46.0054 79.8069 46.0054H84.3774V44.8871H80.5302C80.2931 44.8871 80.1047 44.7048 80.0926 44.4739V43.3495H84.2011V42.2555H80.0926V41.1494C80.1047 40.9184 80.2992 40.7361 80.5302 40.7361V40.73Z" fill="#17A0C6"/>
<path d="M131.953 40.73H135.801V39.6117H131.23C130.471 39.6117 129.857 40.2255 129.857 40.9792V44.638C129.857 45.3916 130.471 46.0054 131.23 46.0054H135.801V44.8871H131.953C131.716 44.8871 131.528 44.7048 131.516 44.4739V43.3495H135.618V42.2555H131.516V41.1494C131.528 40.9184 131.723 40.7361 131.953 40.7361V40.73Z" fill="#17A0C6"/>
<path d="M94.6486 40.73H98.5019V39.6117H93.9314C93.1778 39.6117 92.564 40.2255 92.564 40.9792V44.638C92.564 45.3916 93.1778 46.0054 93.9314 46.0054H98.5019V44.8871H94.6486C94.4116 44.8871 94.2232 44.7048 94.211 44.4739V41.1494C94.2232 40.9184 94.4177 40.7361 94.6486 40.7361V40.73Z" fill="#17A0C6"/>
<path d="M104.403 39.6117V42.14H100.988V39.6117H99.3406V45.9994H100.988V43.2583H104.403V45.9994H106.056V39.6117H104.403Z" fill="#17A0C6"/>
<path d="M89.4279 42.7113L91.9866 39.6117H90.2301L88.5405 41.672L86.8448 39.6117H85.0944L87.6532 42.7113L84.9121 45.9994H84.9425H86.705L88.5405 43.7263L90.376 45.9994H92.1689L89.4279 42.7113Z" fill="#17A0C6"/>
<path d="M111.672 40.2499C111.448 39.7576 111.028 39.4111 110.378 39.4111C109.764 39.4111 109.339 39.7333 109.108 40.2012L106.567 45.9994H108.239L108.822 44.5286H111.934L112.517 45.9994H114.195L111.672 40.2499ZM109.266 43.4103L110.275 40.8576C110.323 40.7421 110.42 40.6935 110.481 40.8455L111.496 43.4103H109.266Z" fill="#17A0C6"/>
<path d="M119.774 46.1939C121.135 46.1939 121.269 45.1425 121.269 44.79V39.6118H119.671V44.8447C119.671 45.0027 119.519 45.0756 119.421 44.8447L117.738 40.4809C117.738 40.4809 117.72 40.4262 117.707 40.3958L117.689 40.3472C117.549 40.0007 117.258 39.4537 116.079 39.4537C114.723 39.4537 114.583 40.5052 114.583 40.8638V46.0055H116.182V40.8091C116.182 40.651 116.34 40.5781 116.437 40.8212L118.188 45.343C118.333 45.6895 118.643 46.2 119.78 46.2L119.774 46.1939Z" fill="#17A0C6"/>
<path d="M125.918 42.5655V43.6838H127.28V44.4678C127.268 44.6987 127.073 44.8811 126.842 44.8811H124.527C124.29 44.8811 124.101 44.6987 124.089 44.4678V41.1433C124.101 40.9123 124.29 40.73 124.527 40.73H128.38V39.6117H123.809C123.056 39.6117 122.442 40.2255 122.442 40.9792V44.638C122.442 45.3916 123.056 46.0054 123.809 46.0054H127.559C128.319 46.0054 128.927 45.3916 128.927 44.638V42.5715H125.918V42.5655Z" fill="#17A0C6"/>
</svg>
