<svg width="134" height="73" viewBox="0 0 134 73" fill="none" xmlns="http://www.w3.org/2000/svg">
<path d="M45.8362 38.1071C52.2435 31.2511 57.2226 23.1266 59.4921 15.8219C62.1413 7.30473 59.1297 0.720549 58.7759 0C54.7244 12.4823 47.6829 29.8834 37.1292 42.0248C33.8241 45.8261 31.0024 48.1387 29.2204 49.4072C27.8311 50.3953 26.8344 50.926 26.3813 51.1461C32.3658 49.6877 39.4375 44.9502 45.8319 38.1028L45.8362 38.1071Z" fill="#040000"/>
<path d="M55.4799 28.8781C51.3507 35.8419 43.6749 45.3601 30.5454 51.2841C31.7794 51.0037 36.8491 49.7049 42.5747 46.3136C48.6239 42.7281 56.6578 36.0059 60.5841 24.3218C62.2409 19.3901 61.5161 15.7572 61.3521 15.0625C61.1364 15.9729 59.6435 21.8667 55.4842 28.8781H55.4799Z" fill="#040000"/>
<path d="M37.2375 50.6066C38.5363 50.3348 43.1228 49.2432 47.8948 46.5897C53.0292 43.7334 59.4279 38.4306 60.8733 29.3612C60.4807 30.2026 58.8152 33.5766 55.536 37.5073C52.1016 41.6321 46.1516 47.2282 37.2375 50.6023V50.6066Z" fill="#040000"/>
<path d="M12.0827 44.9849C14.8312 44.9849 16.4535 44.3808 16.7555 44.26C13.1183 41.8697 11.3363 39.4664 11.1939 39.2679C10.7797 39.2679 4.81683 39.2205 0.817139 37.3608C1.27449 37.9908 4.01431 41.6194 8.28583 44.6267C9.58454 44.8684 10.8617 44.9892 12.0827 44.9892V44.9849Z" fill="#040000"/>
<path d="M29.5528 47.0213C29.1601 47.155 28.5043 47.3837 26.8518 47.3837C26.7827 47.3837 26.7094 47.3837 26.636 47.3837C26.252 48.2466 24.8153 49.7697 22.7485 50.5981C23.7236 50.46 26.7051 49.8172 29.6736 46.9824C29.6347 46.9954 29.5959 47.0083 29.5528 47.0213Z" fill="#040000"/>
<path d="M24.2501 47.224C21.4542 46.7408 19.9053 45.9469 18.9733 45.4766C18.7446 45.3601 18.5462 45.2608 18.3779 45.1875C17.0964 46.1971 14.4947 46.5552 12.648 46.5552C12.0612 46.5552 11.5348 46.5207 11.1077 46.4517C14.0071 48.1085 17.0964 49.3814 20.052 50.1407C20.0649 50.1407 20.0822 50.1321 20.1124 50.1192C21.0271 49.7999 22.7702 49.006 24.2415 47.2283L24.2501 47.224Z" fill="#040000"/>
<path d="M129.761 38.8449C128.872 38.8449 128.113 38.681 127.496 38.353C126.883 38.0251 126.408 37.5462 126.085 36.9206C125.757 36.282 125.589 35.4924 125.584 34.5691C125.58 33.2013 125.938 32.1399 126.654 31.4237C127.371 30.7031 128.428 30.3364 129.8 30.3278C130.788 30.3278 131.595 30.5047 132.203 30.8498C132.734 31.1519 133.135 31.6006 133.398 32.1788L132.181 32.5541C131.979 32.1615 131.685 31.8552 131.31 31.6351C130.887 31.3892 130.386 31.264 129.826 31.264C128.842 31.264 128.005 31.592 127.534 32.1485C127.051 32.7181 126.81 33.5292 126.814 34.5604C126.818 35.6089 127.077 36.433 127.578 37.0198C128.065 37.585 128.885 37.9086 129.826 37.9086C130.339 37.9086 130.84 37.831 131.306 37.68C131.784 37.5289 132.164 37.3305 132.432 37.0932L132.505 37.0284V35.6391H132.475C132.048 35.6866 131.526 35.6995 130.878 35.6995H130.248C130.248 35.4881 130.248 35.3112 130.248 35.1343C130.248 34.9617 130.248 34.7848 130.248 34.5777H130.762C132.229 34.5777 132.837 34.5087 133.937 34.0513V34.2843C133.942 34.595 133.946 35.0566 133.946 35.2076C133.864 35.2465 133.786 35.281 133.709 35.3155L133.687 35.3241L133.696 37.4599C133.282 37.8569 132.725 38.1934 132.052 38.4393C131.34 38.7025 130.581 38.8363 129.795 38.8406H129.761V38.8449Z" fill="#040000"/>
<path d="M80.3281 38.7199L78.3218 35.225L75.7632 35.2077V38.7199H74.4299V30.4573H78.5591C79.5385 30.4573 80.3022 30.6644 80.8243 31.0786C81.3334 31.4842 81.5793 32.0494 81.5793 32.8217C81.5793 33.3697 81.4197 33.676 81.109 34.073C80.7984 34.4699 80.3712 34.7374 79.8362 34.8626L79.4954 34.9445L81.808 38.7242H80.3238L80.3281 38.7199ZM75.7675 34.2887H78.421C78.9948 34.2887 79.4436 34.1506 79.7542 33.8788C80.0476 33.6242 80.2375 33.4171 80.2375 32.8951C80.2375 32.373 80.0692 32.0149 79.737 31.7517C79.422 31.5057 78.9603 31.3806 78.3692 31.3806H75.7675V34.2887Z" fill="#040000"/>
<path d="M88.5342 30.4573H87.2053V38.7199H88.5342V30.4573Z" fill="#040000"/>
<path d="M97.4488 38.8449C95.4683 38.8449 94.3034 38.2063 93.8892 36.8904L95.1706 36.6789C95.3216 37.0975 95.5719 37.4124 95.9171 37.6195C96.3054 37.8525 96.8361 37.969 97.4962 37.969C98.1909 37.969 98.7086 37.8612 99.0711 37.6411C99.468 37.3995 99.6708 37.0284 99.6708 36.5495C99.6708 36.2389 99.5759 35.9757 99.3904 35.7642C99.2221 35.5744 98.9805 35.4148 98.6741 35.2939C98.5317 35.2378 98.3246 35.1731 98.0571 35.1041C97.7982 35.0394 97.4746 34.966 97.0906 34.8884C96.6678 34.7891 96.3269 34.7028 96.0767 34.6295C95.8394 34.5604 95.6495 34.4957 95.5115 34.431C95.3691 34.3663 95.231 34.2929 95.1016 34.2153C94.8298 34.0513 94.6183 33.8313 94.4673 33.5638C94.3163 33.2919 94.2386 32.9424 94.2386 32.5239C94.2386 31.812 94.4975 31.2856 95.0239 30.9102C95.5719 30.5219 96.396 30.3278 97.4746 30.3278C98.5533 30.3278 99.2868 30.4874 99.7916 30.7981C100.21 31.0613 100.508 31.4841 100.667 32.0579L99.3774 32.2348C99.2566 31.9026 99.0581 31.6394 98.7863 31.4539C98.4627 31.2338 98.0097 31.1217 97.4401 31.1217C96.8404 31.1217 96.3744 31.2209 96.0551 31.4194C95.7013 31.6437 95.5201 31.9803 95.5201 32.4161C95.5201 32.7008 95.5978 32.9424 95.7531 33.1323C95.8955 33.3092 96.1026 33.4559 96.3701 33.5767C96.6031 33.6846 97.082 33.814 97.8328 33.9737C98.2383 34.0599 98.5965 34.1462 98.9028 34.2282C99.1962 34.3059 99.4292 34.3792 99.6018 34.4526C99.77 34.5259 99.9254 34.6036 100.055 34.6813C100.18 34.7546 100.288 34.8409 100.383 34.9272C100.568 35.1041 100.711 35.3198 100.806 35.5658C100.905 35.816 100.957 36.1051 100.957 36.4373C100.957 37.2183 100.68 37.7964 100.107 38.202C99.5155 38.6249 98.6223 38.8363 97.4488 38.8363V38.8449Z" fill="#040000"/>
<path d="M107.709 30.4573H106.375V38.7199H107.709V30.4573Z" fill="#040000"/>
<path d="M118.694 38.7199L114.608 31.7776V38.7199H113.482V30.4573H115.199L119.341 37.4557V30.4573H120.467V38.7199H118.694Z" fill="#040000"/>
<path d="M87.5805 42.1586H86.2473V50.4212H87.5805V42.1586Z" fill="#040000"/>
<path d="M93.354 50.4212V42.1586H94.6829V49.5064H99.3859V50.4212H93.354Z" fill="#040000"/>
<path d="M111.648 50.4212C111.648 49.9121 111.691 43.8629 111.708 43.4616V43.4314L111.523 43.3926L109.046 49.6661H108.097L105.607 43.3926L105.422 43.4358V43.4616C105.448 43.9104 105.491 49.9121 105.495 50.4169H104.369V42.1543H106.392L108.567 48.5918L110.763 42.1543H112.774V50.4169H111.648V50.4212Z" fill="#040000"/>
<path d="M121.688 50.5463C119.708 50.5463 118.543 49.9078 118.129 48.5918L119.41 48.3804C119.561 48.7989 119.811 49.1139 120.157 49.321C120.545 49.5539 121.076 49.6704 121.736 49.6704C122.43 49.6704 122.948 49.5626 123.311 49.3425C123.708 49.1009 123.91 48.7342 123.91 48.2509C123.91 47.9403 123.815 47.6771 123.63 47.4657C123.462 47.2758 123.22 47.1162 122.914 46.9954C122.771 46.9393 122.564 46.8745 122.297 46.8055C122.038 46.7408 121.714 46.6674 121.33 46.5898C120.899 46.4905 120.558 46.3999 120.316 46.3309C120.083 46.2619 119.893 46.1971 119.751 46.1324C119.609 46.0634 119.466 45.9944 119.341 45.9167C119.069 45.7527 118.858 45.5327 118.707 45.2652C118.556 44.9934 118.478 44.6439 118.478 44.2253C118.478 43.5134 118.737 42.987 119.263 42.6117C119.811 42.2233 120.64 42.0292 121.714 42.0292C122.789 42.0292 123.526 42.1888 124.031 42.4995C124.45 42.7627 124.747 43.1855 124.907 43.7594L123.617 43.9363C123.496 43.604 123.298 43.3408 123.021 43.1553C122.698 42.9353 122.249 42.8231 121.675 42.8231C121.101 42.8231 120.61 42.9223 120.29 43.1208C119.936 43.3451 119.755 43.6817 119.755 44.1175C119.755 44.4022 119.833 44.6439 119.988 44.838C120.131 45.0149 120.342 45.1659 120.605 45.2824C120.834 45.386 121.313 45.5154 122.068 45.6794C122.474 45.7657 122.832 45.852 123.138 45.9339C123.431 46.0116 123.664 46.085 123.837 46.1583C124.01 46.2317 124.161 46.3093 124.29 46.387C124.415 46.4603 124.523 46.5466 124.618 46.6329C124.803 46.8098 124.946 47.0256 125.041 47.2672C125.14 47.5174 125.192 47.8108 125.192 48.1387C125.192 48.9197 124.916 49.4935 124.342 49.9034C123.751 50.3263 122.858 50.5377 121.684 50.5377L121.688 50.5463Z" fill="#040000"/>
<path d="M74.5291 50.3951V42.1843H80.5308V43.3407H76.0866V46.1495H80.3927V47.3058H76.0866V50.3951H74.5291Z" fill="#040000"/>
</svg>
