<svg width="107" height="70" viewBox="0 0 107 70" fill="none" xmlns="http://www.w3.org/2000/svg">
<path d="M53.7049 25.2198C47.5828 22.8074 41.399 23.0632 39.8308 25.8895C38.2476 28.7384 40.5517 35.4821 44.9055 41.082C49.2578 46.6774 55.4085 46.4953 58.8022 40.3837C62.1417 34.2886 59.8105 27.6262 53.7049 25.2213" fill="#FF9700"/>
<path d="M22.5703 27.1717C28.0017 30.8814 34.0862 32.0041 36.2428 29.5962C38.4175 27.1717 37.668 20.0864 34.6671 13.6633C31.6678 7.24321 25.6314 6.05731 20.9661 11.2614C16.3594 16.461 17.1525 23.4726 22.5703 27.1717Z" fill="#006ECD"/>
<path d="M42.0385 46.7C41.1686 40.1775 37.936 34.8997 34.7034 34.9042C31.4436 34.9057 26.673 40.2016 23.8993 46.7286C21.1272 53.2525 24.2801 58.5379 31.2706 58.5304C38.2204 58.4837 42.9068 53.2059 42.0385 46.7015" fill="#EF151E"/>
<path d="M17.2429 29.7437C16.1353 29.7437 15.3888 30.4269 15.3888 31.4427V32.4661H18.021C18.021 32.4661 18.1083 41.1497 18.0089 42.0587C17.9096 42.9691 17.6778 44.45 16.051 45.2251C14.6469 45.8948 14.6183 46.5284 14.5295 47.0927C14.4136 47.8241 14.5506 47.9159 15.0818 47.7865C17.1722 47.2733 19.398 46.435 20.5237 44.3672C21.1347 43.2445 21.38 42.0301 21.38 40.185V32.4646C22.4952 32.4526 23.2988 31.7407 23.2988 30.7655V29.7437H17.2429Z" fill="black"/>
<path d="M14.3173 41.4507C14.3173 41.4507 12.2059 44.4787 8.10637 44.4787C4.00689 44.4787 0.688477 41.24 0.688477 36.9449C0.688477 32.6498 3.87596 29.3103 8.10637 29.3103C12.3368 29.3103 14.2631 32.3368 14.2631 32.3368C14.2631 32.3368 13.1359 33.5437 12.0539 33.5437C11.5256 33.5437 11.1313 33.2999 10.6753 33.0185C10.0643 32.6408 9.37203 32.2133 8.10637 32.2133C5.70146 32.2133 3.74503 34.3353 3.74503 36.9449C3.74503 39.5545 5.70146 41.5771 8.10637 41.5771C9.53457 41.5771 10.2043 41.1678 10.7957 40.8066C11.2171 40.5493 11.6144 40.307 12.1893 40.307C13.4083 40.307 14.3173 41.4492 14.3173 41.4492" fill="black"/>
<path d="M106.035 29.7436V42.5899C106.03 43.5274 105.328 44.0256 104.34 44.0256H103.039V35.3225L100.658 43.1151C100.453 43.7411 99.6825 44.0256 98.9044 44.0316H98.301L95.3588 35.3225V42.5748C95.3588 43.5229 94.6635 44.0241 93.6672 44.0241H92.3579V31.1914C92.3579 30.2448 93.0532 29.7406 94.048 29.7406H96.191L99.2852 39.2143L102.075 30.6421C102.295 30.0536 102.876 29.7406 103.666 29.7406H106.035" fill="black"/>
<path d="M73.8817 32.421C74.6326 32.421 75.2662 31.7904 75.2662 31.0364V29.7437H65.5066C64.7602 29.7437 64.1221 30.4013 64.1221 31.1282V44.0331H73.8817C74.6326 44.0331 75.2662 43.216 75.2662 42.462V41.3378H68.5045C67.3848 41.3378 67.1982 41.8856 67.1982 41.8856V38.1533H73.5611C74.3121 38.1533 74.9457 37.5212 74.9457 36.7672V35.461H68.503C67.3833 35.461 67.1967 36.0088 67.1967 36.0088V32.4179H73.8802L73.8817 32.421Z" fill="black"/>
<path d="M87.9469 29.7437C87.2561 29.7437 86.8498 30.4465 86.8498 31.1282V38.5852L80.1467 29.7437H78.8269C78.1361 29.7437 77.5447 30.4013 77.5447 31.1282V44.0331H79.2633C79.9541 44.0331 80.5455 43.3589 80.5455 42.6486V34.4632L87.6685 44.0346H88.5699C89.2607 44.0346 89.8506 43.3755 89.8506 42.6501V29.7452H87.9484L87.9469 29.7437Z" fill="black"/>
</svg>
