<svg width="165" height="70" viewBox="0 0 165 70" fill="none" xmlns="http://www.w3.org/2000/svg">
<path d="M33.52 14.3458C33.52 14.3458 28.552 14.5936 24.0766 16.8489C19.6769 19.0621 11.2061 23.5684 7.98106 25.8195C6.07385 27.155 -0.776106 33.9165 0.512207 39.7121C1.80473 45.5035 8.5789 49.3631 12.7807 50.98C16.9782 52.5885 25.3691 56.7756 30.535 54.8437C35.6966 52.9118 37.8775 45.7471 38.2775 43.895C38.5511 42.6435 39.8984 32.9506 41.1867 29.0911C42.4834 25.2231 44.6264 20.1289 41.393 16.8909C38.6438 14.1527 33.52 14.3458 33.52 14.3458Z" fill="#008DB2"/>
<path d="M37.7553 16.0466C37.7553 16.0466 35.6966 14.7783 32.6737 15.3201C29.6507 15.8618 24.3207 17.6971 19.2348 20.8133C14.1278 23.9463 6.13692 26.2687 3.54346 36.0456C3.54346 36.0456 7.45892 29.7251 10.6839 27.6756C13.6942 25.7605 22.144 21.1157 22.9271 20.6327C23.6176 20.2001 31.0527 16.4498 33.882 16.0844C36.3365 15.7652 37.7511 16.0466 37.7511 16.0466H37.7553Z" fill="white"/>
<path d="M54.5203 28.6038C54.5203 28.6038 53.6698 27.2095 52.4615 26.0084C51.249 24.7989 49.1734 24.7779 48.2471 25.1768C47.6451 25.4414 45.8684 26.8693 45.38 27.5707C44.8243 28.3812 44.058 30.2165 45.4432 32.3457C47.0178 34.7606 50.4069 36.3229 52.1626 36.2095C53.9182 36.0877 56.8864 35.6089 57.3664 32.7027C57.72 30.6071 55.5518 29.8679 54.5203 28.6038Z" fill="#008DB2"/>
<path d="M50.0997 26.0084C50.0997 26.0084 46.34 25.3826 45.5274 29.8133L45.4685 30.5987C45.4685 30.5987 46.0916 27.1507 49.7671 26.3444L51.127 26.1932C51.127 26.1932 50.4281 26.0462 50.0955 26.0126L50.0997 26.0084Z" fill="white"/>
<path d="M54.5414 37.251C54.5414 37.251 52.6679 37.3728 50.146 39.0233C47.8009 40.5562 44.4117 42.404 43.6455 42.9248C42.875 43.4498 40.9005 45.5454 41.0604 47.5571C41.2036 49.3378 41.4646 50.5767 44.8959 52.0256C47.8388 53.2687 51.468 55.0872 53.771 54.9654C56.0697 54.8436 62.5871 53.3611 62.7302 46.1838C62.8944 38.1329 56.836 37.3728 54.5372 37.251H54.5414Z" fill="#008DB2"/>
<path d="M58.9411 39.7876C58.9411 39.7876 57.0592 38.4395 54.6973 38.6999C53.0721 38.8847 50.9081 40.0732 49.6998 40.7955C48.483 41.5221 46.1674 42.635 45.258 43.4078C44.5381 44.0167 42.3783 45.9528 42.4035 47.4899C42.4035 47.4899 43.9866 44.8945 46.6684 43.685C47.881 43.139 51.7417 40.8669 52.2132 40.6402C52.8532 40.3378 54.2341 39.67 55.3625 39.67C56.4908 39.67 58.1117 39.7666 58.8148 40.1068C59.1727 40.2832 59.4169 40.4638 59.4169 40.4638C59.4169 40.4638 59.3916 40.1908 58.9369 39.7834L58.9411 39.7876Z" fill="white"/>
<path d="M71.1506 46.4652C70.8349 46.4652 70.4897 46.4568 70.1697 46.4568V41.0643H72.0937C73.7441 41.0643 74.7461 42.2822 74.7461 43.7689C74.7461 45.2556 73.7441 46.4652 72.0937 46.4652H71.1506ZM70.9822 41.7699V45.7554H71.959C73.1631 45.7554 73.8704 44.8483 73.8704 43.7689C73.8704 42.6896 73.1631 41.7699 71.959 41.7699H70.9822Z" fill="#231F20"/>
<path d="M76.0891 46.4694V41.0728H80.0888V41.7867H76.9017V43.328H79.9414V44.0252H76.9017V45.768H80.1435V46.4736H76.0891V46.4694Z" fill="#231F20"/>
<path d="M81.4529 46.4525V41.0475H83.8906C84.7663 41.0475 85.6083 41.5305 85.6083 42.4334C85.6083 42.9122 85.3641 43.3237 84.9179 43.5547C85.461 43.8193 85.8483 44.2813 85.8483 44.8692C85.8483 45.0918 85.7894 45.3396 85.6715 45.537C85.3262 46.1795 84.56 46.4483 83.8274 46.4483H81.4529V46.4525ZM82.2654 41.7614V43.2817H83.7516C84.2484 43.2817 84.7663 43.0088 84.7663 42.4922C84.7663 41.9756 84.2316 41.7614 83.7643 41.7614H82.2654ZM82.2654 43.9873V45.747H83.8106C84.3874 45.747 84.9894 45.4572 84.9894 44.8482C84.9894 44.2393 84.3958 43.9915 83.8316 43.9915H82.2697L82.2654 43.9873Z" fill="#231F20"/>
<path d="M87.1113 46.4694V41.0728H91.111V41.7867H87.9281V43.328H90.9678V44.0252H87.9281V45.768H91.1657V46.4736H87.1113V46.4694Z" fill="#231F20"/>
<path d="M96.4916 46.4526L95.919 45.1339H93.3382L92.7698 46.4526H91.9236L94.1381 41.0602H95.0938L97.3294 46.4526H96.4874H96.4916ZM94.6349 41.9463L93.6413 44.4158H95.6075L94.6307 41.9463H94.6349Z" fill="#231F20"/>
<path d="M103.156 44.7432C102.883 45.8561 101.885 46.6289 100.672 46.6289C100.298 46.6289 99.9188 46.5407 99.5988 46.3937C98.5084 45.9149 98.0747 44.8482 98.0747 43.7563C98.0747 42.6644 98.5252 41.6312 99.5904 41.1651C99.9061 41.0307 100.315 40.9341 100.672 40.9341C101.792 40.9341 102.874 41.6018 103.156 42.7022H102.264C102.02 42.0554 101.43 41.6186 100.723 41.6186C100.42 41.6186 100.125 41.7152 99.8725 41.858C99.182 42.257 98.9378 43.0297 98.9378 43.7605C98.9378 44.4912 99.203 45.285 99.8598 45.7008C100.108 45.8394 100.407 45.9359 100.693 45.9359C101.464 45.9359 102.074 45.4194 102.276 44.7054H103.123L103.156 44.7516V44.7432Z" fill="#231F20"/>
<path d="M107.952 46.4694V43.9958H105.169V46.4694H104.356V41.0812H105.169V43.2818H107.952V41.0812H108.756V46.4694H107.952Z" fill="#231F20"/>
<path d="M116.574 46.4526V45.81C116.166 46.3266 115.534 46.6415 114.84 46.6415C114.465 46.6415 114.103 46.545 113.779 46.3896C112.722 45.8856 112.259 44.8399 112.259 43.7521C112.259 42.6644 112.705 41.6271 113.77 41.1609C114.09 41.0265 114.49 40.9299 114.848 40.9299C115.972 40.9299 117.071 41.6061 117.34 42.7022H116.44C116.195 42.0555 115.61 41.6145 114.89 41.6145C114.608 41.6145 114.33 41.6943 114.094 41.8203C113.366 42.2066 113.113 43.0172 113.113 43.7521C113.113 44.4871 113.345 45.3312 114.073 45.7218C114.318 45.8478 114.583 45.9192 114.865 45.9192C115.804 45.9192 116.507 45.2262 116.553 44.3527C116.006 44.3527 115.425 44.3485 114.886 44.3485V43.6681H117.391V46.4526H116.574Z" fill="#231F20"/>
<path d="M118.562 43.7858C118.562 42.2907 119.53 40.9678 121.222 40.9678C122.915 40.9678 123.887 42.2781 123.887 43.7858C123.887 45.2935 122.923 46.6206 121.222 46.6206C119.521 46.6206 118.562 45.2851 118.562 43.7858ZM119.441 43.7858C119.441 44.8273 120.006 45.9234 121.227 45.9234C122.448 45.9234 123.003 44.8189 123.003 43.7858C123.003 42.7527 122.443 41.6523 121.227 41.6523C120.01 41.6523 119.441 42.7527 119.441 43.7858Z" fill="#231F20"/>
<path d="M125.083 46.4694V41.0728H125.887V45.768H128.923V46.4736H125.087L125.083 46.4694Z" fill="#231F20"/>
<path d="M130.851 41.7868V43.3995H133.625V44.1302H130.851V46.4737H130.051V41.077H134.013V41.791H130.851V41.7868Z" fill="#231F20"/>
<path d="M142.231 44.7432C141.953 45.8561 140.96 46.6289 139.747 46.6289C139.368 46.6289 138.993 46.5407 138.665 46.3937C137.583 45.9149 137.149 44.8482 137.149 43.7563C137.149 42.6644 137.6 41.6312 138.661 41.1651C138.981 41.0307 139.381 40.9341 139.747 40.9341C140.863 40.9341 141.949 41.6018 142.231 42.7022H141.339C141.099 42.0554 140.505 41.6186 139.798 41.6186C139.494 41.6186 139.2 41.7152 138.951 41.858C138.261 42.257 138.008 43.0297 138.008 43.7605C138.008 44.4912 138.286 45.285 138.93 45.7008C139.179 45.8394 139.482 45.9359 139.764 45.9359C140.539 45.9359 141.145 45.4194 141.347 44.7054H142.193L142.231 44.7516V44.7432Z" fill="#231F20"/>
<path d="M143.443 46.4694V41.0728H144.243V45.768H147.279V46.4736H143.443V46.4694Z" fill="#231F20"/>
<path d="M148.369 44.8188V41.0979H149.186V44.7475C149.186 45.4992 149.818 45.9276 150.571 45.9276C151.325 45.9276 151.961 45.4992 151.961 44.7475V41.0979H152.786V44.8188C152.786 46.0074 151.729 46.6331 150.576 46.6331C149.422 46.6331 148.374 45.9948 148.374 44.8188H148.369Z" fill="#231F20"/>
<path d="M154.209 46.4525V41.0475H156.647C157.518 41.0475 158.364 41.5305 158.364 42.4334C158.364 42.9122 158.116 43.3237 157.674 43.5547C158.213 43.8193 158.6 44.2813 158.6 44.8692C158.6 45.0918 158.541 45.3396 158.423 45.537C158.074 46.1795 157.32 46.4483 156.579 46.4483H154.209V46.4525ZM155.026 41.7614V43.2817H156.504C156.996 43.2817 157.518 43.0088 157.518 42.4922C157.518 41.9756 156.979 41.7614 156.516 41.7614H155.026ZM155.026 43.9873V45.747H156.567C157.139 45.747 157.741 45.4572 157.741 44.8482C157.741 44.2393 157.143 43.9915 156.579 43.9915H155.026V43.9873Z" fill="#231F20"/>
<path d="M63.0796 33.0975H76.1564V34.2986H63.0796V33.0975ZM64.7847 28.6878V25.1726C64.7847 24.6015 64.3426 24.5427 63.8879 24.5427V23.9127H74.5692V25.1264H66.5614V28.8306C66.5614 29.0364 66.7088 29.1372 66.8856 29.1372H74.6449V30.3215H66.4772C65.3026 30.3215 64.7889 29.8805 64.7889 28.6794L64.7847 28.6878Z" fill="#231F20"/>
<path d="M80.4131 31.7535C79.6932 31.7535 79.2679 31.3714 79.2679 30.6532V24.8408C79.2679 24.4166 78.9437 24.3284 78.5901 24.3284V23.6271H80.9857V26.4535H84.1896V24.6812C84.1896 24.257 83.8654 24.1814 83.5286 24.1814V23.4927H85.9074V30.6532C85.9074 31.3714 85.4821 31.7535 84.7622 31.7535H80.4131ZM80.9857 27.6672V30.3046C80.9857 30.5524 81.0741 30.5524 81.2635 30.5524H83.9244C84.1138 30.5524 84.1896 30.4936 84.1896 30.2878V27.6672H80.9857ZM88.4629 24.0638C88.4629 23.4801 88.0209 23.4171 87.5662 23.4171V22.7745H90.1681V35.7223H88.4629V24.0638Z" fill="#231F20"/>
<path d="M97.5693 29.9477C97.5104 29.8175 97.3504 29.8007 97.2915 29.9477C96.8494 31.1068 95.1485 32.3793 94.2054 32.3961L93.2076 31.4722C93.1781 31.4428 93.1781 31.4302 93.2371 31.4134C95.8095 30.9136 96.4999 28.2636 96.4999 26.2436H93.8139V25.0424H96.4999V23.9883C96.4999 23.5935 96.1926 23.5179 95.881 23.5179V22.9174H98.3651V25.0424H101.055V26.2436H98.3651C98.3651 28.2636 99.1271 30.9304 101.611 31.4134C101.653 31.426 101.653 31.4428 101.641 31.4722L100.655 32.3961C99.7292 32.3835 98.0703 31.1068 97.5693 29.9477ZM103.152 24.0597C103.152 23.4759 102.71 23.4129 102.255 23.4129V22.7704H104.857V35.7181H103.152V24.0597Z" fill="#231F20"/>
<path d="M107.585 28.293H112.608V27.0204C112.608 26.5081 112.255 26.4493 111.846 26.4493V25.8193H114.389V28.293H120.662V29.4647H107.585V28.293ZM109.703 34.5883V33.7988C109.703 33.3452 109.366 33.1856 108.954 33.1856V32.5557H117.269V31.6191H109.101V30.4768H118.898C118.987 30.4768 119.016 30.4894 119.016 30.5944V33.4502C119.016 33.5972 118.945 33.6854 118.751 33.6854H111.463V34.4035C111.463 34.5211 111.535 34.5505 111.64 34.5505H119.163V35.7223H110.848C109.998 35.7223 109.703 35.4283 109.703 34.5925V34.5883ZM116.873 27.6756C117.505 26.8399 117.404 25.6975 117.404 24.719C117.404 24.4838 117.328 24.4124 117.067 24.4124H109.088V23.2113H119.05C119.138 23.2113 119.168 23.2407 119.168 23.3121V25.4666C119.168 26.7979 118.974 27.1632 118.549 27.6756H116.873Z" fill="#231F20"/>
<path d="M122.422 33.0975H135.499V34.2987H122.422V33.0975ZM124.022 29.1288H125.757V24.9543H124.022V23.7532H133.912V24.9543H132.16V29.1288H133.912V30.3299H124.022V29.1288ZM127.474 24.9543V29.1288H130.442V24.9543H127.474Z" fill="#231F20"/>
<path d="M137.254 27.9444H146.702C146.891 27.5916 146.98 27.2431 147.009 26.7013H138.783V25.5464H147.039V24.5805C147.039 24.3621 146.967 24.2739 146.702 24.2739H138.635V23.0728H148.685C148.773 23.0728 148.803 23.1022 148.803 23.1735V26.0294C148.803 27.0709 148.702 27.5077 148.407 27.9486H150.331V29.1203H137.254V27.9486V27.9444ZM139.343 34.58V33.7022C139.343 33.2319 139.006 33.0723 138.593 33.0723V32.4423H146.908V31.4764H138.741V30.3341H148.538C148.626 30.3341 148.656 30.3509 148.656 30.4517V33.3369C148.656 33.4838 148.584 33.572 148.39 33.572H141.102V34.4078C141.102 34.5254 141.178 34.5548 141.279 34.5548H148.803V35.7265H140.488C139.637 35.7265 139.343 35.4325 139.343 34.5842V34.58Z" fill="#231F20"/>
<path d="M153.371 28.4274V27.2095C153.371 26.7391 153.034 26.5963 152.622 26.5963V25.937H157.968V24.6183H152.841V23.434H159.598C159.686 23.434 159.716 23.4634 159.716 23.5516V26.8735C159.716 27.0037 159.644 27.1087 159.45 27.1087H155.131V28.3518H160.76V29.5655H154.533C153.666 29.5655 153.371 29.2716 153.371 28.4232V28.4274ZM156.529 35.7223C155.809 35.7223 155.383 35.3402 155.383 34.6094V31.9426C155.383 31.531 155.059 31.4428 154.706 31.4428V30.7415H157.131V32.0896H162.595V31.7956C162.595 31.3714 162.271 31.2832 161.918 31.2832V30.5945H164.343V34.6094C164.343 35.3402 163.917 35.7223 163.198 35.7223H156.529ZM157.131 33.2781V34.3196C157.131 34.5548 157.219 34.5674 157.409 34.5674H162.313C162.52 34.5674 162.591 34.4918 162.591 34.3028V33.2781H157.126H157.131ZM162.625 26.9071H160.394V25.6934H162.625V24.0681C162.625 23.4844 162.183 23.4214 161.728 23.4214V22.7788H164.343V29.9855H162.625V26.9113V26.9071Z" fill="#231F20"/>
</svg>
