<svg width="144" height="70" viewBox="0 0 144 70" fill="none" xmlns="http://www.w3.org/2000/svg">
<path d="M93.3248 42.0896V37.966H90.2606V42.6819C90.2635 43.7356 90.9469 44.6155 92.6812 44.6155H103.113V42.4541H93.7121C93.4957 42.4541 93.3248 42.2918 93.3248 42.0867V42.0896ZM136.005 32.0682C136.005 30.8437 135.444 29.7444 134.484 29.0182H136.21V27.0931H133.049V25.4072H130.104V27.0903H126.917V29.0154H128.689C127.726 29.7416 127.162 30.8408 127.162 32.0654C127.162 34.2582 129.104 36.0209 131.585 36.0266C134.025 36.0209 136.007 34.2582 136.007 32.0654L136.005 32.0682ZM131.582 34.1186C130.346 34.1186 129.523 33.1931 129.517 32.0255C129.523 30.8636 130.346 29.9381 131.582 29.9381C132.818 29.9381 133.647 30.8636 133.652 32.0255C133.647 33.1931 132.821 34.1186 131.582 34.1186ZM112.818 42.0896V38.9029H109.791V42.6819C109.794 43.7356 110.471 44.6155 112.211 44.6155H123.423V42.4541H113.205C112.989 42.4541 112.815 42.2918 112.815 42.0867L112.818 42.0896ZM106.835 37.3964H125.422V35.2349H106.835V37.3964ZM116.13 33.8538C119.271 33.8481 121.843 31.8916 121.845 29.4255C121.843 26.9678 119.271 25 116.13 25C112.989 25 110.417 26.9678 110.412 29.4255C110.414 31.8888 112.989 33.8452 116.13 33.8538ZM116.13 27.1301C117.742 27.133 119.02 28.1696 119.026 29.4255C119.02 30.6842 117.742 31.7265 116.13 31.7265C114.518 31.7265 113.234 30.6842 113.231 29.4255C113.231 28.1696 114.518 27.133 116.13 27.1301ZM141.159 25.4072V29.0723H139.878V25.4072H137.266V35.2207H138.753C139.465 35.2207 139.878 34.7366 139.878 34.1101V31.3961H141.159V35.2207H142.648C143.358 35.2207 143.776 34.7366 143.776 34.1101V25.4072H141.159ZM137.89 36.0494C134.797 36.0494 132.28 38.04 132.277 40.5204C132.277 43.0094 134.797 44.9915 137.89 45C140.98 44.9915 143.497 43.0065 143.503 40.5204C143.497 38.04 140.98 36.0523 137.89 36.0494ZM137.89 42.8442C136.352 42.8442 135.127 41.7962 135.127 40.5204C135.127 39.2446 136.352 38.2023 137.89 38.1995C139.425 38.2023 140.655 39.2503 140.658 40.5204C140.655 41.7934 139.425 42.8442 137.89 42.8442ZM102.671 25.4129H99.795V38.5327H101.507C102.241 38.5327 102.671 38.0343 102.671 37.3822V31.604H105.283V29.1777H102.671V25.4129ZM71.0608 34.036H79.4931C81.2274 34.036 81.9052 33.1618 81.9081 32.1052V25.4072H79.1514V27.3096H71.3912V25.4072H68.6402V32.1052C68.6431 33.1589 69.3208 34.036 71.058 34.036H71.0608ZM71.4168 29.4112H79.1258V31.5471C79.1258 31.7521 78.9549 31.9144 78.7385 31.9144H71.8013C71.5905 31.9144 71.4168 31.7464 71.4168 31.5471V29.4112ZM65.1204 38.1739H73.658V44.3706H75.5319C76.3293 44.3706 76.7906 43.8267 76.7906 43.0436V38.1739H84.7245V35.9811H65.1204V38.1739ZM96.6966 36.0494L96.7707 36.0864L98.0522 34.392L97.9212 34.3066C95.5233 32.7061 93.6637 30.445 93.6666 27.6769V25.8287H90.5539V27.6769C90.5625 30.5703 88.2899 33.2643 86.2538 34.5486L86.1683 34.6027L87.4527 36.2972L87.5296 36.263C89.1272 35.4656 91.2516 33.3241 92.1145 31.7464C92.9347 33.2244 94.9822 35.2207 96.6966 36.0551V36.0494Z" fill="#655C4F"/>
<path d="M56.8532 29.3657H58.4138C58.5163 29.3657 58.596 29.2831 58.596 29.1806V26.2474C58.596 26.142 58.5134 26.0623 58.4138 26.0623H56.2238C53.6921 26.0623 52.348 26.871 51.5848 28.5911L46.8233 40.2556C46.5328 40.9505 46.117 41.2808 45.2969 41.2808V26.2474C45.2969 26.142 45.2143 26.0623 45.1118 26.0623H41.6147C41.5122 26.0623 41.4296 26.142 41.4296 26.2474V44.2682C41.4296 44.4476 41.5748 44.5956 41.7542 44.5956H45.6756C48.2101 44.5956 49.3635 43.784 50.1324 42.064L54.8312 30.5447C55.21 29.7274 55.7511 29.3714 56.856 29.3714L56.8532 29.3657Z" fill="#D71920"/>
<path d="M14.0851 35.326C15.4891 34.7422 16.6539 33.4322 16.6539 31.2565C16.6539 28.0243 13.8773 26.0593 10.5283 26.0593H0.185106C0.0825858 26.0593 0 26.1391 0 26.2444V29.1805C0 29.2802 0.0825858 29.3656 0.185106 29.3656H9.81062C11.3684 29.3656 12.4192 30.3139 12.4192 31.4844C12.4192 32.6548 11.3684 33.6031 9.81062 33.6031H4.09512V31.4217C4.09512 31.3192 4.00968 31.2366 3.90716 31.2366H0.185106C0.0825858 31.2366 0 31.3163 0 31.4217V44.4133C0 44.513 0.0825858 44.5956 0.185106 44.5956H10.3802C14.1905 44.5956 16.9215 42.8157 16.9215 39.1905C16.9215 37.4106 15.8707 35.9354 14.088 35.326H14.0851ZM10.0071 41.3633H4.09512V37.0176H10.01C11.6047 37.0176 12.684 37.9887 12.684 39.1905C12.684 40.3922 11.6047 41.3633 10.01 41.3633H10.0071Z" fill="#D71920"/>
<path d="M60.4755 44.382L54.4781 36.7072C54.461 36.6844 54.4354 36.6873 54.4268 36.7129L52.8121 40.6656C52.8007 40.6884 52.8007 40.7169 52.8178 40.7368L55.4435 44.251C55.6258 44.5016 55.8393 44.5956 56.1526 44.5956H60.3787C60.5012 44.5956 60.5524 44.4788 60.4812 44.3849L60.4755 44.382Z" fill="#D71920"/>
<path d="M23.4885 31.2338H19.9858C19.8832 31.2338 19.8007 31.3135 19.8007 31.4189V44.4105C19.8007 44.5101 19.8832 44.5927 19.9858 44.5927H23.4885C23.5911 44.5927 23.6736 44.513 23.6736 44.4105V31.4189C23.6736 31.3164 23.5911 31.2338 23.4885 31.2338Z" fill="#D71920"/>
<path d="M37.8983 26.0593H34.4013C34.2987 26.0593 34.2162 26.1391 34.2162 26.2444V41.2779C33.396 41.2779 32.9802 40.9475 32.6897 40.2527L27.9282 28.5882C27.1593 26.8652 25.818 26.0593 23.2835 26.0593H19.9858C19.8832 26.0593 19.8007 26.1391 19.8007 26.2444V29.1805C19.8007 29.2802 19.8832 29.3656 19.9858 29.3656H22.6541C23.7562 29.3656 24.303 29.7244 24.6789 30.5389L29.3778 42.0582C30.1438 43.7782 31.3 44.5899 33.8317 44.5899H37.7531C37.9354 44.5899 38.0806 44.4446 38.0806 44.2624V26.2473C38.0806 26.1419 37.998 26.0622 37.8955 26.0622L37.8983 26.0593Z" fill="#D71920"/>
</svg>
