<svg width="223" height="70" viewBox="0 0 223 70" fill="none" xmlns="http://www.w3.org/2000/svg">
<path d="M63.0717 23.0479C63.0717 24.9669 61.5175 26.516 59.5985 26.516C57.6796 26.516 56.1304 24.9619 56.1304 23.0479C56.1304 21.1339 57.6845 19.5747 59.5985 19.5747C61.5125 19.5747 63.0717 21.1289 63.0717 23.0479Z" fill="#F58220"/>
<path d="M28.9746 28.3052C23.7223 28.3052 19.4646 32.5629 19.4646 37.8151C19.4646 43.0674 23.7223 47.3251 28.9746 47.3251C34.2268 47.3251 38.4845 43.0674 38.4845 37.8151C38.4845 32.5629 34.2268 28.3052 28.9746 28.3052ZM28.9746 41.4882C26.9456 41.4882 25.3015 39.8441 25.3015 37.8151C25.3015 35.7862 26.9456 34.1421 28.9746 34.1421C31.0035 34.1421 32.6476 35.7862 32.6476 37.8151C32.6476 39.8441 31.0035 41.4882 28.9746 41.4882Z" fill="#60489D"/>
<path d="M54.1813 28.8098H49.5388V26.486C49.5388 25.8914 49.7237 25.4266 50.0935 25.0968C50.8031 24.4571 51.7926 24.5121 52.6122 24.742L53.6116 19.5697C52.5422 19.1899 51.4228 19 50.2584 19C48.0446 19 46.2555 19.6347 44.8863 20.909C43.517 22.1833 42.8324 23.8874 42.8324 26.0313V28.8148H39.4841V34.022H42.8324V46.8303H49.5388V34.022H54.1813V28.8148V28.8098Z" fill="#60489D"/>
<path d="M6.67147 35.0366V20.5293H0V46.8304H6.67147V38.6647L11.5839 46.8304H19.7745L13.0581 36.6857L20.1443 28.8149L15.2519 28.8049C12.6283 28.8049 11.9787 29.2047 10.4795 30.8438L6.66647 35.0416L6.67147 35.0366Z" fill="#60489D"/>
<path d="M62.9367 31.8582C62.9367 30.1791 61.5624 28.8098 59.8833 28.8098H56.2603V46.8303H62.9317V31.8632L62.9367 31.8582Z" fill="#60489D"/>
<path d="M77.7737 39.4741C77.169 40.6685 75.9297 41.4931 74.5004 41.4931C72.4715 41.4931 70.8274 39.8489 70.8274 37.82C70.8274 35.7911 72.4715 34.147 74.5004 34.147C75.9297 34.147 77.159 34.9615 77.7687 36.1509H83.8605C83.0709 31.6933 79.183 28.3101 74.5004 28.3101C69.2482 28.3101 64.9905 32.5678 64.9905 37.82C64.9905 43.0722 69.2482 47.33 74.5004 47.33C79.188 47.33 83.0809 43.9368 83.8605 39.4741H77.7737Z" fill="#60489D"/>
<path d="M94.1901 46.7702L92.556 44.7713V46.7702H91.6565V42.2776H92.556V44.2915L94.1901 42.2776H95.2746L93.4256 44.5014L95.3295 46.7652H94.1901V46.7702Z" fill="#77787B"/>
<path d="M96.2542 46.6054C95.9843 46.4555 95.7694 46.2356 95.6095 45.9557C95.4546 45.6759 95.3796 45.3561 95.3796 44.9963C95.3796 44.6364 95.4546 44.3066 95.6195 44.0268C95.7744 43.7469 95.9943 43.532 96.2742 43.3821C96.554 43.2322 96.8639 43.1572 97.2087 43.1572C97.5535 43.1572 97.8633 43.2322 98.1432 43.3821C98.423 43.537 98.6429 43.7519 98.8028 44.0268C98.9677 44.3066 99.0477 44.6314 99.0477 44.9963C99.0477 45.3611 98.9677 45.6809 98.7978 45.9557C98.6379 46.2356 98.408 46.4555 98.1282 46.6054C97.8483 46.7553 97.5385 46.8303 97.1887 46.8303C96.8389 46.8303 96.539 46.7553 96.2592 46.6054H96.2542ZM97.6384 45.9308C97.7884 45.8458 97.8983 45.7309 97.9833 45.5709C98.0682 45.411 98.1132 45.2211 98.1132 44.9963C98.1132 44.6564 98.0282 44.3916 97.8483 44.2167C97.6684 44.0318 97.4535 43.9418 97.1937 43.9418C96.9338 43.9418 96.7239 44.0318 96.549 44.2167C96.3741 44.3966 96.2892 44.6564 96.2892 44.9963C96.2892 45.3361 96.3741 45.5909 96.539 45.7758C96.7089 45.9557 96.9188 46.0457 97.1787 46.0457C97.3386 46.0457 97.4935 46.0057 97.6334 45.9308H97.6384Z" fill="#77787B"/>
<path d="M100.991 43.317C101.176 43.2121 101.396 43.1521 101.631 43.1521V44.1016H101.396C101.111 44.1016 100.897 44.1716 100.757 44.3015C100.617 44.4314 100.542 44.6663 100.542 44.9961V46.7702H99.6372V43.2071H100.542V43.7568C100.657 43.5719 100.812 43.422 100.996 43.317H100.991Z" fill="#77787B"/>
<path d="M105.459 45.256H102.856C102.876 45.5158 102.966 45.7157 103.126 45.8607C103.285 46.0056 103.48 46.0756 103.71 46.0756C104.045 46.0756 104.28 45.9306 104.425 45.6458H105.394C105.294 45.9906 105.094 46.2754 104.805 46.4903C104.515 46.7102 104.155 46.8252 103.73 46.8252C103.39 46.8252 103.081 46.7502 102.806 46.6003C102.536 46.4504 102.321 46.2305 102.171 45.9506C102.016 45.6708 101.941 45.3509 101.941 44.9911C101.941 44.6313 102.016 44.3015 102.166 44.0216C102.316 43.7418 102.526 43.5269 102.796 43.377C103.066 43.2271 103.375 43.1521 103.73 43.1521C104.085 43.1521 104.37 43.2221 104.64 43.367C104.91 43.5169 105.114 43.7168 105.264 43.9867C105.414 44.2565 105.489 44.5614 105.489 44.9062C105.489 45.0361 105.484 45.151 105.464 45.256H105.459ZM104.555 44.6513C104.55 44.4214 104.465 44.2365 104.305 44.0966C104.14 43.9517 103.94 43.8867 103.7 43.8867C103.48 43.8867 103.29 43.9517 103.141 44.0866C102.991 44.2215 102.891 44.4114 102.861 44.6463H104.555V44.6513Z" fill="#77787B"/>
<path d="M106.064 44.0216C106.204 43.7418 106.399 43.5269 106.649 43.377C106.888 43.2271 107.168 43.1521 107.473 43.1521C107.733 43.1521 107.973 43.2021 108.168 43.312C108.368 43.422 108.528 43.5569 108.648 43.7168V43.2121H109.557V46.7752H108.648V46.2555C108.533 46.4204 108.373 46.5603 108.168 46.6702C107.963 46.7802 107.733 46.8302 107.463 46.8302C107.163 46.8302 106.888 46.7552 106.644 46.6003C106.394 46.4454 106.199 46.2255 106.059 45.9456C105.914 45.6658 105.844 45.3409 105.844 44.9761C105.844 44.6113 105.914 44.3015 106.059 44.0216H106.064ZM108.518 44.4314C108.433 44.2715 108.318 44.1516 108.173 44.0666C108.028 43.9867 107.868 43.9417 107.708 43.9417C107.548 43.9417 107.388 43.9817 107.243 44.0666C107.103 44.1516 106.988 44.2665 106.898 44.4214C106.808 44.5813 106.769 44.7612 106.769 44.9761C106.769 45.191 106.813 45.3809 106.898 45.5408C106.988 45.7007 107.103 45.8257 107.248 45.9106C107.393 45.9956 107.543 46.0406 107.713 46.0406C107.883 46.0406 108.033 45.9956 108.178 45.9106C108.328 45.8257 108.438 45.7107 108.523 45.5558C108.608 45.3959 108.653 45.211 108.653 44.9961C108.653 44.7812 108.608 44.5913 108.523 44.4364L108.518 44.4314Z" fill="#77787B"/>
<path d="M113.38 43.562C113.64 43.8269 113.775 44.2017 113.775 44.6814V46.7753H112.87V44.8014C112.87 44.5215 112.795 44.3016 112.66 44.1517C112.515 44.0018 112.325 43.9218 112.081 43.9218C111.836 43.9218 111.636 43.9968 111.491 44.1517C111.346 44.3016 111.276 44.5215 111.276 44.8014V46.7753H110.376V43.2122H111.276V43.652C111.396 43.502 111.551 43.3771 111.736 43.2872C111.926 43.2022 112.126 43.1572 112.35 43.1572C112.775 43.1572 113.12 43.2922 113.38 43.562Z" fill="#77787B"/>
<path d="M118.802 42.2826V43.0072H116.928V44.1566H118.362V44.8712H116.928V46.7702H116.034V42.2776H118.802V42.2826Z" fill="#77787B"/>
<path d="M119.437 42.6274C119.332 42.5275 119.277 42.4075 119.277 42.2526C119.277 42.0977 119.332 41.9728 119.437 41.8728C119.542 41.7729 119.672 41.7229 119.832 41.7229C119.991 41.7229 120.121 41.7779 120.226 41.8728C120.336 41.9728 120.386 42.1027 120.386 42.2526C120.386 42.4025 120.336 42.5275 120.226 42.6274C120.121 42.7324 119.991 42.7773 119.832 42.7773C119.672 42.7773 119.542 42.7274 119.437 42.6274ZM120.271 43.2071V46.7702H119.372V43.2071H120.271Z" fill="#77787B"/>
<path d="M122 42.0127V46.7752H121.096V42.0127H122Z" fill="#77787B"/>
<path d="M128.302 43.562C128.572 43.8269 128.707 44.2017 128.707 44.6814V46.7753H127.802V44.8014C127.802 44.5215 127.732 44.3116 127.592 44.1617C127.453 44.0168 127.253 43.9368 127.013 43.9368C126.773 43.9368 126.573 44.0118 126.428 44.1617C126.283 44.3066 126.213 44.5215 126.213 44.8014V46.7753H125.319V44.8014C125.319 44.5215 125.244 44.3116 125.109 44.1617C124.964 44.0168 124.774 43.9368 124.524 43.9368C124.274 43.9368 124.084 44.0118 123.934 44.1617C123.794 44.3066 123.719 44.5215 123.719 44.8014V46.7753H122.825V43.2122H123.719V43.642C123.839 43.492 123.984 43.3721 124.169 43.2872C124.344 43.2022 124.549 43.1572 124.769 43.1572C125.044 43.1572 125.299 43.2172 125.519 43.3321C125.738 43.4521 125.903 43.622 126.023 43.8419C126.143 43.632 126.308 43.4721 126.528 43.3471C126.748 43.2172 126.988 43.1572 127.248 43.1572C127.687 43.1572 128.037 43.2922 128.302 43.562Z" fill="#77787B"/>
<path d="M131.041 43.3321C131.241 42.9823 131.51 42.7124 131.855 42.5175C132.2 42.3226 132.59 42.2227 133.02 42.2227C133.519 42.2227 133.964 42.3526 134.334 42.6075C134.714 42.8673 134.979 43.2221 135.129 43.6769H134.094C133.989 43.462 133.849 43.3021 133.659 43.1971C133.469 43.0872 133.255 43.0372 133.01 43.0372C132.75 43.0372 132.515 43.0972 132.31 43.2171C132.11 43.3421 131.95 43.517 131.83 43.7369C131.72 43.9567 131.66 44.2166 131.66 44.5164C131.66 44.8163 131.715 45.0761 131.83 45.296C131.945 45.5209 132.105 45.6958 132.31 45.8158C132.515 45.9407 132.745 46.0007 133.01 46.0007C133.255 46.0007 133.469 45.9457 133.659 45.8407C133.844 45.7308 133.989 45.5659 134.094 45.356H135.129C134.979 45.8158 134.719 46.1706 134.339 46.4304C133.964 46.6853 133.524 46.8102 133.02 46.8102C132.59 46.8102 132.205 46.7153 131.855 46.5204C131.51 46.3255 131.241 46.0556 131.041 45.7108C130.841 45.361 130.746 44.9662 130.746 44.5264C130.746 44.0867 130.841 43.6919 131.041 43.3371V43.3321Z" fill="#77787B"/>
<path d="M136.493 46.6054C136.223 46.4555 136.003 46.2356 135.848 45.9557C135.688 45.6759 135.613 45.3561 135.613 44.9963C135.613 44.6364 135.693 44.3066 135.848 44.0268C136.008 43.7469 136.233 43.532 136.508 43.3821C136.788 43.2322 137.097 43.1572 137.442 43.1572C137.787 43.1572 138.097 43.2322 138.372 43.3821C138.652 43.537 138.872 43.7519 139.036 44.0268C139.196 44.3066 139.276 44.6314 139.276 44.9963C139.276 45.3611 139.191 45.6809 139.026 45.9557C138.862 46.2356 138.637 46.4555 138.357 46.6054C138.077 46.7553 137.757 46.8303 137.412 46.8303C137.068 46.8303 136.758 46.7553 136.488 46.6054H136.493ZM137.877 45.9308C138.022 45.8458 138.132 45.7309 138.222 45.5709C138.307 45.411 138.352 45.2211 138.352 44.9963C138.352 44.6564 138.267 44.3916 138.087 44.2167C137.907 44.0318 137.692 43.9418 137.437 43.9418C137.182 43.9418 136.963 44.0318 136.788 44.2167C136.613 44.3966 136.528 44.6564 136.528 44.9963C136.528 45.3361 136.613 45.5909 136.783 45.7758C136.948 45.9557 137.162 46.0457 137.417 46.0457C137.582 46.0457 137.737 46.0057 137.877 45.9308Z" fill="#77787B"/>
<path d="M143.239 43.2071V46.7703H142.335V46.3205C142.215 46.4754 142.065 46.5954 141.88 46.6853C141.695 46.7753 141.49 46.8152 141.275 46.8152C141 46.8152 140.751 46.7503 140.536 46.6353C140.321 46.5154 140.156 46.3405 140.031 46.1156C139.911 45.8807 139.851 45.6109 139.851 45.296V43.2021H140.746V45.1611C140.746 45.446 140.821 45.6608 140.955 45.8108C141.1 45.9607 141.29 46.0406 141.535 46.0406C141.78 46.0406 141.975 45.9607 142.12 45.8108C142.255 45.6608 142.33 45.441 142.33 45.1611V43.2021H143.234L143.239 43.2071Z" fill="#77787B"/>
<path d="M147.067 43.562C147.327 43.8269 147.462 44.2017 147.462 44.6814V46.7753H146.562V44.8014C146.562 44.5215 146.497 44.3016 146.348 44.1517C146.208 44.0018 146.018 43.9218 145.773 43.9218C145.528 43.9218 145.323 43.9968 145.183 44.1517C145.043 44.3016 144.968 44.5215 144.968 44.8014V46.7753H144.064V43.2122H144.968V43.652C145.083 43.502 145.238 43.3771 145.428 43.2872C145.613 43.2022 145.818 43.1572 146.038 43.1572C146.462 43.1572 146.807 43.2922 147.067 43.562Z" fill="#77787B"/>
<path d="M148.247 44.0216C148.397 43.7468 148.601 43.5319 148.871 43.377C149.141 43.2271 149.441 43.1521 149.786 43.1521C150.231 43.1521 150.595 43.262 150.88 43.4819C151.17 43.7018 151.36 44.0166 151.465 44.4114H150.49C150.445 44.2615 150.355 44.1366 150.231 44.0466C150.111 43.9567 149.961 43.9167 149.776 43.9167C149.521 43.9167 149.316 44.0116 149.166 44.1965C149.016 44.3864 148.941 44.6513 148.941 44.9961C148.941 45.3409 149.011 45.5958 149.166 45.7857C149.316 45.9706 149.521 46.0656 149.776 46.0656C150.141 46.0656 150.38 45.9006 150.49 45.5708H151.465C151.365 45.9556 151.17 46.2605 150.88 46.4953C150.585 46.7202 150.226 46.8351 149.786 46.8351C149.441 46.8351 149.141 46.7602 148.871 46.6103C148.601 46.4603 148.397 46.2405 148.247 45.9606C148.097 45.6858 148.022 45.3659 148.022 44.9961C148.022 44.6263 148.102 44.3065 148.247 44.0266V44.0216Z" fill="#77787B"/>
<path d="M152.114 42.6274C152.009 42.5275 151.959 42.4075 151.959 42.2526C151.959 42.0977 152.009 41.9728 152.114 41.8728C152.219 41.7729 152.349 41.7229 152.509 41.7229C152.669 41.7229 152.804 41.7779 152.904 41.8728C153.009 41.9728 153.064 42.1027 153.064 42.2526C153.064 42.4025 153.009 42.5275 152.904 42.6274C152.799 42.7324 152.669 42.7773 152.509 42.7773C152.349 42.7773 152.219 42.7274 152.114 42.6274ZM152.959 43.2071V46.7702H152.054V43.2071H152.959Z" fill="#77787B"/>
<path d="M154.678 42.0127V46.7752H153.779V42.0127H154.678Z" fill="#77787B"/>
<path d="M117.168 35.9759H115.889V29.2395H117.168V35.9759ZM135.014 34.6166C134.489 34.8165 133.719 34.8865 133.155 34.8865H128.307V35.9309H130.206V39.644H131.485V35.9309H133.155C133.629 35.9309 134.389 35.876 135.014 35.6861V39.644H136.293V29.2395H135.014V34.6166ZM112.326 32.9375C112.73 33.7321 113.485 34.6166 114.684 35.2213L115.369 34.3168C114.279 33.6921 113.06 32.4178 113.045 30.5888H114.894V29.5393H109.757V30.5888H111.606C111.591 32.4178 110.372 33.6921 109.282 34.3168L109.967 35.2213C111.166 34.6166 111.921 33.7321 112.326 32.9375ZM118.792 34.9215H127.178V35.9659H125.354C125.948 36.4057 126.273 37.0104 126.273 37.66C126.273 38.9193 125.064 40.0288 122.985 40.0288C120.906 40.0288 119.697 38.9193 119.697 37.66C119.697 37.0104 120.021 36.4057 120.616 35.9659H118.792V34.9215ZM124.904 37.5851C124.904 36.8105 124.144 36.1858 122.985 36.1858C121.825 36.1858 121.066 36.8055 121.066 37.5851C121.066 38.3646 121.825 38.9543 122.985 38.9543C124.144 38.9543 124.904 38.3596 124.904 37.5851ZM112.016 35.9609H110.736V38.5795C110.736 39.1342 111.201 39.589 111.766 39.589H117.243V38.5395H112.016V35.9609ZM139.956 36.2608H138.677V38.5795C138.677 39.1342 139.141 39.589 139.706 39.589H145.728V38.5395H139.956V36.2608ZM131.081 29.0396C131.081 29.0396 131.086 29.0396 131.091 29.0396C131.091 29.0396 131.096 29.0396 131.101 29.0396H131.081ZM131.101 33.882C131.101 33.882 131.096 33.882 131.091 33.882C131.091 33.882 131.086 33.882 131.081 33.882H131.101ZM128.467 31.4733C128.467 30.169 129.501 29.0446 131.091 29.0396C132.68 29.0396 133.709 30.169 133.709 31.4733C133.709 32.7776 132.675 33.877 131.091 33.882C129.501 33.882 128.467 32.7726 128.467 31.4733ZM129.741 31.4733C129.741 32.2329 130.271 32.9225 131.086 32.9325C131.9 32.9275 132.43 32.2379 132.43 31.4733C132.43 30.7087 131.9 30.0191 131.086 30.0141C130.271 30.0191 129.741 30.7087 129.741 31.4733ZM138.197 31.3783C138.197 30.129 139.186 29.0446 140.715 29.0396C142.24 29.0396 143.234 30.124 143.234 31.3783C143.234 32.6327 142.245 33.6871 140.715 33.6921C139.191 33.6921 138.197 32.6277 138.197 31.3783ZM139.446 31.3783C139.446 32.093 139.946 32.7426 140.71 32.7526C141.475 32.7476 141.975 32.098 141.975 31.3783C141.975 30.6587 141.475 30.0141 140.71 30.0041C139.946 30.0091 139.446 30.6587 139.446 31.3783ZM140.72 33.6921C140.72 33.6921 140.715 33.6921 140.71 33.6921C140.706 33.6921 140.705 33.6921 140.7 33.6921H140.72ZM140.7 29.0396C140.7 29.0396 140.706 29.0396 140.71 29.0396C140.715 29.0396 140.715 29.0396 140.72 29.0396H140.7ZM154.988 29.2345V39.639H153.709V37.5151C153.134 37.66 152.479 37.705 152.054 37.705H147.392V36.6555H149.481V35.2363C148.266 34.9814 147.502 34.0119 147.502 32.8975C147.502 32.2179 147.787 31.5832 148.286 31.1385H147.442V30.089H149.466V29.0596H150.775V30.089H152.799V31.1385H151.955C152.454 31.5882 152.739 32.2179 152.739 32.8975C152.739 34.0119 151.98 34.9764 150.76 35.2363V36.6555H152.054C152.554 36.6555 153.204 36.6006 153.709 36.4556V29.2345H154.988ZM150.121 34.3618C150.935 34.3568 151.465 33.6671 151.465 32.9075C151.465 32.1479 150.935 31.4583 150.121 31.4533C149.306 31.4583 148.776 32.1479 148.776 32.9075C148.776 33.6671 149.306 34.3568 150.121 34.3618ZM120.821 30.6037H119.382V29.5543H122.32V28.9746H123.63V29.5543H126.568V30.6037H125.129C125.593 31.0185 125.858 31.5632 125.858 32.1529C125.858 33.3723 124.724 34.4117 122.975 34.4167C121.226 34.4167 120.091 33.3773 120.091 32.1529C120.091 31.5632 120.356 31.0185 120.821 30.6037ZM124.459 32.1529C124.459 31.4933 123.874 30.8936 122.98 30.8886C122.085 30.8936 121.501 31.4933 121.501 32.1529C121.501 32.8126 122.085 33.4123 122.98 33.4173C123.874 33.4123 124.459 32.8126 124.459 32.1529ZM122.99 34.4167H122.98C122.98 34.4167 122.975 34.4167 122.97 34.4167H122.995H122.99ZM140.141 36.6605H141.42V35.1114H142.51C142.984 35.1114 143.749 35.0514 144.369 34.8615V35.5611H142.54V36.5856H144.369V37.2552H145.648V29.2345H144.369V33.867C143.844 34.0669 143.074 34.1369 142.51 34.1369H138.017V35.1064H140.141V36.6555V36.6605ZM107.368 32.4178H108.583V33.5222H107.368V39.649H106.084V37.2602C105.509 37.4051 104.854 37.4501 104.43 37.4501H99.7672V36.4007H101.856V35.0714C100.642 34.8165 99.8771 33.847 99.8771 32.7326C99.8771 32.058 100.157 31.4333 100.647 30.9835H99.8171V29.9341H101.841V29.0746H103.15V29.9341H105.174V30.9835H104.345C104.834 31.4333 105.114 32.058 105.114 32.7326C105.114 33.847 104.355 34.8115 103.135 35.0714V36.4007H104.43C104.929 36.4007 105.579 36.3457 106.084 36.1958V29.2395H107.368V32.4178ZM102.496 34.1819C103.31 34.1769 103.84 33.4872 103.84 32.7276C103.84 31.968 103.31 31.2784 102.496 31.2734C101.681 31.2784 101.151 31.968 101.151 32.7276C101.151 33.4872 101.681 34.1769 102.496 34.1819ZM92.2561 34.5816C92.2561 34.5816 92.2511 34.5816 92.2461 34.5816C92.2461 34.5816 92.2412 34.5816 92.2362 34.5816H92.2561ZM92.2461 34.5816C90.597 34.5766 89.5276 33.3773 89.5276 31.958C89.5276 30.5388 90.597 29.3144 92.2461 29.3094C93.1357 29.3094 93.8553 29.6742 94.33 30.2239H96.7188V29.2345H97.9981V34.8965H96.7188V33.4822H94.485C94.0202 34.1369 93.2406 34.5766 92.2461 34.5766V34.5816ZM94.8748 31.2734C94.9297 31.4933 94.9647 31.7232 94.9647 31.958C94.9647 32.1229 94.9497 32.2829 94.9197 32.4378H96.7188V31.2734H94.8748ZM92.2461 33.5472C93.0907 33.5422 93.6404 32.7876 93.6404 31.958C93.6404 31.1285 93.0907 30.3789 92.2461 30.3689C91.4016 30.3739 90.8519 31.1285 90.8519 31.958C90.8519 32.7876 91.4016 33.5372 92.2461 33.5472ZM92.2362 29.3094C92.2362 29.3094 92.2412 29.3094 92.2461 29.3094C92.2461 29.3094 92.2511 29.3094 92.2561 29.3094H92.2362ZM98.0931 37.5751C98.0931 38.8894 96.8787 40.0238 94.8448 40.0238C92.8108 40.0238 91.5965 38.8894 91.5965 37.5751C91.5965 36.2608 92.8108 35.1264 94.8448 35.1264C96.8787 35.1264 98.0931 36.2608 98.0931 37.5751ZM96.7738 37.5751C96.7738 36.7905 95.9942 36.2158 94.8448 36.2158C93.6954 36.2158 92.9158 36.7855 92.9158 37.5751C92.9158 38.3646 93.6954 38.9343 94.8448 38.9343C95.9942 38.9343 96.7738 38.3596 96.7738 37.5751Z" fill="#77787B"/>
<path d="M163.723 46.4804L162.614 45.1211V46.4804H162.004V43.437H162.614V44.8013L163.723 43.437H164.463L163.209 44.9462L164.498 46.4804H163.723Z" fill="#7C7D80"/>
<path d="M165.073 46.3655C164.888 46.2605 164.743 46.1156 164.633 45.9257C164.528 45.7358 164.473 45.5209 164.473 45.2711C164.473 45.0212 164.528 44.8063 164.638 44.6164C164.748 44.4265 164.898 44.2816 165.083 44.1766C165.273 44.0717 165.483 44.0217 165.717 44.0217C165.952 44.0217 166.162 44.0717 166.352 44.1766C166.542 44.2816 166.692 44.4265 166.797 44.6164C166.907 44.8063 166.962 45.0212 166.962 45.2711C166.962 45.5209 166.907 45.7358 166.792 45.9257C166.682 46.1156 166.527 46.2605 166.337 46.3655C166.147 46.4704 165.932 46.5204 165.698 46.5204C165.463 46.5204 165.258 46.4704 165.068 46.3655H165.073ZM166.012 45.9057C166.107 45.8508 166.187 45.7708 166.247 45.6659C166.307 45.5559 166.332 45.426 166.332 45.2711C166.332 45.0412 166.272 44.8663 166.152 44.7413C166.032 44.6164 165.882 44.5564 165.707 44.5564C165.533 44.5564 165.388 44.6164 165.268 44.7413C165.148 44.8663 165.093 45.0412 165.093 45.2711C165.093 45.5009 165.148 45.6759 165.263 45.8008C165.378 45.9257 165.523 45.9857 165.698 45.9857C165.807 45.9857 165.912 45.9607 166.007 45.9057H166.012Z" fill="#7C7D80"/>
<path d="M168.296 44.1366C168.421 44.0616 168.566 44.0266 168.731 44.0266V44.6663H168.571C168.381 44.6663 168.236 44.7112 168.136 44.8012C168.036 44.8912 167.991 45.0461 167.991 45.271V46.4753H167.382V44.0566H167.991V44.4314C168.071 44.3015 168.171 44.2015 168.301 44.1316L168.296 44.1366Z" fill="#7C7D80"/>
<path d="M171.324 45.4559H169.555C169.57 45.6308 169.63 45.7657 169.74 45.8656C169.85 45.9656 169.98 46.0156 170.135 46.0156C170.36 46.0156 170.525 45.9206 170.62 45.7257H171.279C171.209 45.9606 171.075 46.1505 170.88 46.3004C170.68 46.4503 170.44 46.5253 170.15 46.5253C169.915 46.5253 169.71 46.4753 169.525 46.3704C169.34 46.2654 169.196 46.1205 169.096 45.9306C168.991 45.7407 168.941 45.5258 168.941 45.2759C168.941 45.0261 168.991 44.8062 169.096 44.6163C169.196 44.4264 169.34 44.2815 169.525 44.1815C169.71 44.0816 169.92 44.0266 170.16 44.0266C170.4 44.0266 170.595 44.0766 170.78 44.1765C170.96 44.2765 171.105 44.4164 171.204 44.5963C171.304 44.7762 171.354 44.9861 171.354 45.221C171.354 45.3059 171.349 45.3859 171.339 45.4559H171.324ZM170.71 45.0461C170.71 44.8912 170.65 44.7612 170.54 44.6663C170.43 44.5713 170.295 44.5263 170.135 44.5263C169.985 44.5263 169.855 44.5713 169.755 44.6663C169.65 44.7562 169.59 44.8862 169.565 45.0461H170.715H170.71Z" fill="#7C7D80"/>
<path d="M171.769 44.6114C171.864 44.4215 171.999 44.2766 172.164 44.1766C172.329 44.0767 172.519 44.0217 172.724 44.0217C172.904 44.0217 173.064 44.0567 173.198 44.1317C173.333 44.2066 173.443 44.2966 173.523 44.4065V44.0617H174.138V46.4804H173.523V46.1256C173.443 46.2406 173.338 46.3305 173.198 46.4055C173.059 46.4804 172.899 46.5154 172.719 46.5154C172.514 46.5154 172.329 46.4654 172.164 46.3605C171.999 46.2555 171.864 46.1106 171.769 45.9157C171.669 45.7258 171.624 45.5059 171.624 45.2611C171.624 45.0162 171.674 44.8013 171.769 44.6114ZM173.438 44.8863C173.378 44.7813 173.303 44.6964 173.203 44.6414C173.103 44.5864 172.999 44.5564 172.884 44.5564C172.769 44.5564 172.664 44.5864 172.569 44.6414C172.474 44.6964 172.394 44.7763 172.334 44.8813C172.274 44.9862 172.244 45.1112 172.244 45.2611C172.244 45.411 172.274 45.5359 172.334 45.6409C172.394 45.7508 172.474 45.8358 172.569 45.8907C172.664 45.9507 172.769 45.9757 172.879 45.9757C172.989 45.9757 173.098 45.9457 173.198 45.8907C173.298 45.8358 173.373 45.7508 173.433 45.6459C173.493 45.5409 173.518 45.411 173.518 45.2661C173.518 45.1211 173.488 44.9912 173.433 44.8863H173.438Z" fill="#7C7D80"/>
<path d="M176.737 44.3015C176.912 44.4814 177.002 44.7362 177.002 45.0611V46.4803H176.392V45.146C176.392 44.9561 176.342 44.8062 176.247 44.7013C176.152 44.5963 176.022 44.5463 175.852 44.5463C175.682 44.5463 175.552 44.5963 175.452 44.7013C175.352 44.8062 175.307 44.9511 175.307 45.146V46.4803H174.698V44.0616H175.307V44.3614C175.387 44.2565 175.492 44.1765 175.617 44.1166C175.742 44.0566 175.882 44.0266 176.032 44.0266C176.322 44.0266 176.552 44.1166 176.732 44.3015H176.737Z" fill="#7C7D80"/>
<path d="M181.874 43.437V46.4804H181.264V44.5014L180.45 46.4804H179.985L179.165 44.5014V46.4804H178.556V43.437H179.25L180.22 45.7008L181.189 43.437H181.879H181.874Z" fill="#7C7D80"/>
<path d="M182.923 46.3655C182.739 46.2605 182.594 46.1156 182.484 45.9257C182.379 45.7358 182.324 45.5209 182.324 45.2711C182.324 45.0212 182.379 44.8063 182.489 44.6164C182.599 44.4265 182.749 44.2816 182.933 44.1766C183.123 44.0717 183.333 44.0217 183.568 44.0217C183.803 44.0217 184.013 44.0717 184.203 44.1766C184.393 44.2816 184.543 44.4265 184.647 44.6164C184.757 44.8063 184.812 45.0212 184.812 45.2711C184.812 45.5209 184.757 45.7358 184.643 45.9257C184.533 46.1156 184.378 46.2605 184.188 46.3655C183.998 46.4704 183.783 46.5204 183.548 46.5204C183.313 46.5204 183.108 46.4704 182.918 46.3655H182.923ZM183.863 45.9057C183.958 45.8508 184.038 45.7708 184.098 45.6659C184.158 45.5559 184.183 45.426 184.183 45.2711C184.183 45.0412 184.123 44.8663 184.003 44.7413C183.883 44.6164 183.733 44.5564 183.558 44.5564C183.383 44.5564 183.238 44.6164 183.118 44.7413C182.998 44.8663 182.943 45.0412 182.943 45.2711C182.943 45.5009 182.998 45.6759 183.113 45.8008C183.228 45.9257 183.373 45.9857 183.548 45.9857C183.658 45.9857 183.763 45.9607 183.858 45.9057H183.863Z" fill="#7C7D80"/>
<path d="M185.907 44.5662V45.7356C185.907 45.8156 185.927 45.8755 185.967 45.9105C186.007 45.9455 186.072 45.9655 186.167 45.9655H186.451V46.4802H186.067C185.552 46.4802 185.292 46.2303 185.292 45.7306V44.5662H185.002V44.0665H185.292V43.4668H185.907V44.0665H186.446V44.5662H185.907Z" fill="#7C7D80"/>
<path d="M186.906 43.6718C186.836 43.6018 186.801 43.5169 186.801 43.4169C186.801 43.317 186.836 43.232 186.906 43.1621C186.976 43.0921 187.066 43.0571 187.176 43.0571C187.286 43.0571 187.371 43.0921 187.446 43.1621C187.516 43.232 187.551 43.317 187.551 43.4169C187.551 43.5169 187.516 43.6018 187.446 43.6718C187.376 43.7418 187.286 43.7767 187.176 43.7767C187.066 43.7767 186.981 43.7418 186.906 43.6718ZM187.476 44.0616V46.4803H186.866V44.0616H187.476Z" fill="#7C7D80"/>
<path d="M188.485 46.3655C188.301 46.2605 188.156 46.1156 188.046 45.9257C187.941 45.7358 187.886 45.5209 187.886 45.2711C187.886 45.0212 187.941 44.8063 188.051 44.6164C188.161 44.4265 188.311 44.2816 188.495 44.1766C188.685 44.0717 188.895 44.0217 189.13 44.0217C189.365 44.0217 189.575 44.0717 189.765 44.1766C189.955 44.2816 190.105 44.4265 190.21 44.6164C190.319 44.8063 190.374 45.0212 190.374 45.2711C190.374 45.5209 190.319 45.7358 190.205 45.9257C190.095 46.1156 189.94 46.2605 189.75 46.3655C189.56 46.4704 189.345 46.5204 189.11 46.5204C188.875 46.5204 188.67 46.4704 188.48 46.3655H188.485ZM189.425 45.9057C189.52 45.8508 189.6 45.7708 189.66 45.6659C189.72 45.5559 189.745 45.426 189.745 45.2711C189.745 45.0412 189.685 44.8663 189.565 44.7413C189.445 44.6164 189.295 44.5564 189.12 44.5564C188.945 44.5564 188.8 44.6164 188.68 44.7413C188.56 44.8663 188.505 45.0412 188.505 45.2711C188.505 45.5009 188.56 45.6759 188.675 45.8008C188.79 45.9257 188.935 45.9857 189.11 45.9857C189.22 45.9857 189.325 45.9607 189.42 45.9057H189.425Z" fill="#7C7D80"/>
<path d="M192.828 44.3015C193.003 44.4814 193.093 44.7362 193.093 45.0611V46.4803H192.483V45.146C192.483 44.9561 192.433 44.8062 192.338 44.7013C192.243 44.5963 192.113 44.5463 191.943 44.5463C191.774 44.5463 191.644 44.5963 191.544 44.7013C191.444 44.8062 191.399 44.9511 191.399 45.146V46.4803H190.789V44.0616H191.399V44.3614C191.479 44.2565 191.584 44.1765 191.709 44.1166C191.834 44.0566 191.973 44.0266 192.123 44.0266C192.413 44.0266 192.643 44.1166 192.823 44.3015H192.828Z" fill="#7C7D80"/>
<path d="M196.746 44.8363C196.671 44.9812 196.546 45.0961 196.386 45.1811C196.221 45.266 196.016 45.311 195.767 45.311H195.257V46.4804H194.647V43.437H195.767C196.001 43.437 196.201 43.477 196.366 43.5569C196.531 43.6369 196.656 43.7518 196.741 43.8918C196.826 44.0367 196.866 44.1966 196.866 44.3765C196.866 44.5414 196.826 44.6913 196.751 44.8363H196.746ZM196.111 44.7013C196.191 44.6264 196.231 44.5164 196.231 44.3765C196.231 44.0817 196.066 43.9318 195.732 43.9318H195.247V44.8163H195.732C195.902 44.8163 196.026 44.7763 196.106 44.7013H196.111Z" fill="#7C7D80"/>
<path d="M197.246 43.6718C197.176 43.6018 197.141 43.5169 197.141 43.4169C197.141 43.317 197.176 43.232 197.246 43.1621C197.316 43.0921 197.406 43.0571 197.516 43.0571C197.626 43.0571 197.711 43.0921 197.786 43.1621C197.855 43.232 197.89 43.317 197.89 43.4169C197.89 43.5169 197.855 43.6018 197.786 43.6718C197.716 43.7418 197.626 43.7767 197.516 43.7767C197.406 43.7767 197.321 43.7418 197.246 43.6718ZM197.816 44.0616V46.4803H197.206V44.0616H197.816Z" fill="#7C7D80"/>
<path d="M198.375 44.6163C198.475 44.4264 198.62 44.2815 198.8 44.1815C198.98 44.0766 199.185 44.0266 199.42 44.0266C199.72 44.0266 199.969 44.1016 200.164 44.2515C200.359 44.4014 200.494 44.6113 200.559 44.8812H199.899C199.864 44.7762 199.805 44.6963 199.725 44.6363C199.645 44.5763 199.54 44.5463 199.415 44.5463C199.24 44.5463 199.1 44.6113 199 44.7362C198.9 44.8612 198.845 45.0411 198.845 45.2759C198.845 45.5108 198.895 45.6857 199 45.8107C199.1 45.9356 199.24 46.0006 199.415 46.0006C199.66 46.0006 199.824 45.8906 199.899 45.6707H200.559C200.494 45.9306 200.359 46.1405 200.164 46.2954C199.964 46.4503 199.72 46.5253 199.425 46.5253C199.19 46.5253 198.985 46.4753 198.805 46.3704C198.625 46.2654 198.485 46.1205 198.38 45.9356C198.28 45.7457 198.225 45.5308 198.225 45.2809C198.225 45.0311 198.275 44.8112 198.38 44.6263L198.375 44.6163Z" fill="#7C7D80"/>
<path d="M201.673 44.5662V45.7356C201.673 45.8156 201.693 45.8755 201.733 45.9105C201.773 45.9455 201.838 45.9655 201.933 45.9655H202.218V46.4802H201.833C201.319 46.4802 201.059 46.2303 201.059 45.7306V44.5662H200.769V44.0665H201.059V43.4668H201.673V44.0665H202.213V44.5662H201.673Z" fill="#7C7D80"/>
<path d="M204.902 44.0615V46.4802H204.287V46.1754C204.207 46.2803 204.107 46.3603 203.977 46.4203C203.852 46.4802 203.712 46.5102 203.563 46.5102C203.373 46.5102 203.208 46.4702 203.063 46.3903C202.918 46.3103 202.803 46.1904 202.718 46.0355C202.633 45.8806 202.593 45.6957 202.593 45.4808V44.0615H203.203V45.3908C203.203 45.5807 203.253 45.7306 203.348 45.8356C203.443 45.9405 203.573 45.9905 203.742 45.9905C203.912 45.9905 204.042 45.9405 204.137 45.8356C204.232 45.7306 204.282 45.5857 204.282 45.3908V44.0615H204.897H204.902Z" fill="#7C7D80"/>
<path d="M206.381 44.1366C206.506 44.0616 206.651 44.0266 206.816 44.0266V44.6663H206.656C206.466 44.6663 206.321 44.7112 206.221 44.8012C206.121 44.8912 206.076 45.0461 206.076 45.271V46.4753H205.466V44.0566H206.076V44.4314C206.156 44.3015 206.256 44.2015 206.386 44.1316L206.381 44.1366Z" fill="#7C7D80"/>
<path d="M209.404 45.4559H207.635C207.65 45.6308 207.71 45.7657 207.82 45.8656C207.93 45.9656 208.06 46.0156 208.215 46.0156C208.44 46.0156 208.605 45.9206 208.7 45.7257H209.359C209.289 45.9606 209.154 46.1505 208.959 46.3004C208.76 46.4503 208.52 46.5253 208.23 46.5253C207.995 46.5253 207.79 46.4753 207.605 46.3704C207.42 46.2654 207.275 46.1205 207.175 45.9306C207.07 45.7407 207.021 45.5258 207.021 45.2759C207.021 45.0261 207.07 44.8062 207.175 44.6163C207.275 44.4264 207.42 44.2815 207.605 44.1815C207.79 44.0816 208 44.0266 208.24 44.0266C208.48 44.0266 208.675 44.0766 208.86 44.1765C209.039 44.2765 209.184 44.4164 209.284 44.5963C209.384 44.7762 209.434 44.9861 209.434 45.221C209.434 45.3059 209.429 45.3859 209.419 45.4559H209.404ZM208.79 45.0461C208.79 44.8912 208.73 44.7612 208.62 44.6663C208.51 44.5713 208.375 44.5263 208.215 44.5263C208.065 44.5263 207.935 44.5713 207.835 44.6663C207.73 44.7562 207.67 44.8862 207.645 45.0461H208.795H208.79Z" fill="#7C7D80"/>
<path d="M212.718 43.437V43.9318H211.448V44.7113H212.423V45.1961H211.448V46.4854H210.839V43.442H212.718V43.437Z" fill="#7C7D80"/>
<path d="M215.196 44.0615V46.4802H214.582V46.1754C214.502 46.2803 214.402 46.3603 214.272 46.4203C214.147 46.4802 214.007 46.5102 213.857 46.5102C213.667 46.5102 213.502 46.4702 213.357 46.3903C213.212 46.3103 213.097 46.1904 213.012 46.0355C212.927 45.8806 212.887 45.6957 212.887 45.4808V44.0615H213.497V45.3908C213.497 45.5807 213.547 45.7306 213.642 45.8356C213.737 45.9405 213.867 45.9905 214.037 45.9905C214.207 45.9905 214.337 45.9405 214.432 45.8356C214.527 45.7306 214.577 45.5857 214.577 45.3908V44.0615H215.191H215.196Z" fill="#7C7D80"/>
<path d="M217.795 44.3015C217.97 44.4814 218.06 44.7362 218.06 45.0611V46.4803H217.45V45.146C217.45 44.9561 217.4 44.8062 217.305 44.7013C217.21 44.5963 217.08 44.5463 216.91 44.5463C216.74 44.5463 216.61 44.5963 216.51 44.7013C216.411 44.8062 216.366 44.9511 216.366 45.146V46.4803H215.756V44.0616H216.366V44.3614C216.445 44.2565 216.55 44.1765 216.675 44.1166C216.8 44.0566 216.94 44.0266 217.09 44.0266C217.38 44.0266 217.61 44.1166 217.79 44.3015H217.795Z" fill="#7C7D80"/>
<path d="M218.61 44.6112C218.704 44.4213 218.839 44.2764 219.009 44.1765C219.179 44.0765 219.364 44.0215 219.574 44.0215C219.729 44.0215 219.879 44.0565 220.024 44.1265C220.169 44.1965 220.279 44.2864 220.364 44.4013V43.252H220.983V46.4802H220.364V46.1204C220.289 46.2404 220.184 46.3353 220.044 46.4103C219.909 46.4852 219.749 46.5202 219.569 46.5202C219.364 46.5202 219.179 46.4702 219.009 46.3653C218.839 46.2604 218.709 46.1154 218.61 45.9205C218.51 45.7306 218.465 45.5108 218.465 45.2659C218.465 45.021 218.515 44.8061 218.61 44.6162V44.6112ZM220.279 44.8861C220.219 44.7811 220.144 44.6962 220.044 44.6412C219.944 44.5862 219.839 44.5563 219.724 44.5563C219.609 44.5563 219.504 44.5862 219.409 44.6412C219.314 44.6962 219.234 44.7761 219.174 44.8811C219.114 44.986 219.084 45.111 219.084 45.2609C219.084 45.4108 219.114 45.5357 219.174 45.6407C219.234 45.7506 219.314 45.8356 219.409 45.8906C219.504 45.9505 219.609 45.9755 219.719 45.9755C219.829 45.9755 219.939 45.9455 220.039 45.8906C220.139 45.8356 220.214 45.7506 220.274 45.6457C220.334 45.5407 220.359 45.4108 220.359 45.2659C220.359 45.121 220.329 44.991 220.274 44.8861H220.279Z" fill="#7C7D80"/>
<path d="M195.442 36.2008H194.052V39.1942C194.052 39.7989 194.552 40.2886 195.167 40.2886H201.253V39.1492H195.437V36.1958L195.442 36.2008Z" fill="#7C7D80"/>
<path d="M162.719 34.9914H162.709C162.709 34.9914 162.704 34.9914 162.699 34.9914H162.724H162.719ZM162.709 34.9914C160.92 34.9864 159.76 33.6821 159.76 32.1479C159.76 30.6137 160.92 29.2794 162.709 29.2694C163.673 29.2694 164.453 29.6642 164.968 30.2639H167.561V29.1895H168.951V35.3362H167.561V33.802H165.138C164.633 34.5116 163.783 34.9864 162.709 34.9914ZM165.562 31.4033C165.622 31.6432 165.657 31.893 165.657 32.1479C165.657 32.3228 165.642 32.4977 165.612 32.6676H167.561V31.4033H165.562ZM162.709 33.872C163.623 33.867 164.223 33.0474 164.223 32.1479C164.223 31.2484 163.623 30.4338 162.709 30.4238C161.794 30.4288 161.195 31.2484 161.195 32.1479C161.195 33.0474 161.794 33.862 162.709 33.872ZM162.699 29.2744H162.709H162.719H162.694H162.699ZM169.056 38.2447C169.056 39.6739 167.736 40.9033 165.532 40.9033C163.329 40.9033 162.004 39.6689 162.004 38.2447C162.004 36.8204 163.324 35.5861 165.532 35.5861C167.741 35.5861 169.056 36.8154 169.056 38.2447ZM167.626 38.2447C167.626 37.3901 166.777 36.7704 165.532 36.7704C164.288 36.7704 163.439 37.3901 163.439 38.2447C163.439 39.0992 164.288 39.7189 165.532 39.7189C166.777 39.7189 167.626 39.0942 167.626 38.2447Z" fill="#7C7D80"/>
<path d="M179.115 32.6427H180.43V33.8371H179.115V40.4836H177.726V37.8899C177.101 38.0449 176.392 38.0948 175.932 38.0948H170.87V36.9554H173.138V35.5112C171.819 35.2313 170.995 34.1819 170.995 32.9775C170.995 32.2429 171.299 31.5633 171.829 31.0785H170.93V29.9391H173.123V29.0046H174.543V29.9391H176.737V31.0785H175.837C176.367 31.5633 176.672 32.2429 176.672 32.9775C176.672 34.1869 175.847 35.2363 174.528 35.5112V36.9554H175.932C176.472 36.9554 177.176 36.8955 177.726 36.7355V29.1895H179.115V32.6377V32.6427ZM173.828 34.5567C174.713 34.5517 175.287 33.8021 175.287 32.9775C175.287 32.153 174.713 31.4034 173.828 31.3984C172.944 31.4034 172.369 32.153 172.369 32.9775C172.369 33.8021 172.944 34.5517 173.828 34.5567Z" fill="#7C7D80"/>
<path d="M220.668 33.6973C220.963 32.348 220.963 31.2036 220.953 30.329V29.4795H213.792V30.6189H219.574C219.574 31.4285 219.544 32.4779 219.264 33.6973H212.762V34.8367H222.207V33.6973H220.663H220.668Z" fill="#7C7D80"/>
<path d="M220.938 40.2936H220.948V36.0459H213.982V39.2042C213.982 39.8089 214.481 40.2986 215.101 40.2986H220.943M215.391 39.1592V37.1853H219.534V39.1592H215.391Z" fill="#7C7D80"/>
<path d="M201.259 36.6455H199.864V32.6426H198.55V31.4482H199.864V29.1694H201.259V36.6455Z" fill="#7C7D80"/>
<path d="M187.391 29.4343H186.002V30.9535H183.168V29.4443H181.779V33.5921C181.779 34.1968 182.279 34.6865 182.898 34.6865H187.386L187.396 34.6815V29.4343H187.391ZM183.163 32.028H185.997V33.5471H183.163V32.028Z" fill="#7C7D80"/>
<path d="M196.481 30.6387V30.6038H198.67V29.4644H192.913V30.6038H195.057V30.6387C195.062 32.1779 194.127 33.6521 192.408 34.2318L193.008 35.3312C194.167 34.9165 195.197 34.0269 195.766 32.9825C196.336 34.0219 197.366 34.9165 198.525 35.3312L199.125 34.2318C197.411 33.6521 196.471 32.1779 196.476 30.6387H196.481Z" fill="#7C7D80"/>
<path d="M208.34 29.5193H203.212V30.6587H206.915C206.736 33.0524 205.406 35.1963 202.988 36.2457L203.717 37.3052C207.235 35.5161 208.34 32.7576 208.34 30.3339V29.5193Z" fill="#7C7D80"/>
<path d="M211.413 29.1694H210.024V40.2586H211.413V29.1694Z" fill="#7C7D80"/>
<path d="M188.96 35.591H183.328V36.7304H188.965V37.4001H183.348V39.1991C183.348 39.6589 183.508 40.2935 184.517 40.2935H190.449V39.1541H184.742V38.4495H190.359V32.5426H191.674V31.3433H190.359V29.1694H188.97V35.591" fill="#7C7D80"/>
</svg>
