<svg width="107" height="70" viewBox="0 0 107 70" fill="none" xmlns="http://www.w3.org/2000/svg">
<path d="M31.0999 26L23.1777 46.2H29.9117L30.8683 43.526H38.4609L39.4175 46.2H46.1515L38.2293 26H31.0999ZM32.4057 38.6733L34.6628 32.3634L36.9199 38.6733H32.4039H32.4057Z" fill="#03C75A"/>
<path d="M74.1725 38.5255H83.3809V33.6745H74.1725V30.9507H83.4789V26H67.7361V46.2H83.6784V41.2493H74.1725V38.5255Z" fill="#03C75A"/>
<path d="M54.1699 39.2826L49.417 26H42.6848L50.6052 46.2H57.7346L65.6568 26H58.9228L54.1699 39.2826Z" fill="#03C75A"/>
<path d="M14.5644 36.8117L7.03946 26H0.800781V46.2H7.33518V35.3883L14.8619 46.2H21.0988V26H14.5644V36.8117Z" fill="#03C75A"/>
<path d="M100.948 39.2701L101.561 39.0136C103.909 38.0302 105.102 35.9049 105.102 33.206C105.102 30.655 104.172 28.7666 102.336 27.5962C100.629 26.5077 98.4163 26 95.3718 26H86.8457V46.2H93.1824V40.5563H95.4591L99.3213 46.2H106.055L100.948 39.2701ZM96.5493 35.4061H93.0844V31.1484H96.5493C97.7251 31.1484 98.6782 32.1015 98.6782 33.2773C98.6782 34.453 97.7251 35.4061 96.5493 35.4061Z" fill="#03C75A"/>
</svg>
