<svg width="66" height="70" viewBox="0 0 66 70" fill="none" xmlns="http://www.w3.org/2000/svg">
<path d="M61.0427 21.1961L60.1691 18.717C60.0117 18.2703 59.521 18.0334 59.0728 18.1923C58.6246 18.3497 58.3906 18.8404 58.5481 19.2886L59.4685 21.9009L60.5733 22.5278L61.0427 21.1961Z" fill="#DA281C"/>
<path d="M62.6157 21.9024L63.5361 19.29C63.6935 18.8419 63.4581 18.3512 63.0113 18.1938C62.5646 18.0349 62.0725 18.2703 61.9165 18.7185L61.0428 21.1976L61.5109 22.5293L62.6157 21.9024Z" fill="#FF671E"/>
<path d="M65.5741 21.2117C65.3387 20.799 64.8153 20.6544 64.4026 20.8898L62.6171 21.9024L62.1349 23.2738L63.0681 23.6241L65.2522 22.3846C65.6649 22.152 65.8109 21.6259 65.5769 21.2132L65.5741 21.2117Z" fill="#DA281C"/>
<path d="M61.9023 25.0224L63.7744 25.7244C63.8736 25.7627 63.9757 25.7783 64.075 25.7783C64.4239 25.7783 64.7515 25.5656 64.8806 25.2209C65.0465 24.7756 64.821 24.2807 64.3771 24.1147L63.0652 23.624L61.9009 24.2835V25.0224H61.9023Z" fill="#FF671E"/>
<path d="M60.1819 25.0224V26.381C60.1819 26.8547 60.5676 27.2391 61.0427 27.2391C61.5179 27.2391 61.9022 26.8547 61.9022 26.381V25.0224L61.0427 24.7004L60.1819 25.0224Z" fill="#DA281C"/>
<path d="M59.0176 23.624L57.7072 24.1147C57.2619 24.2821 57.0364 24.777 57.2037 25.2209C57.3328 25.5656 57.6604 25.7783 58.0093 25.7783C58.11 25.7783 58.2106 25.7613 58.3099 25.7244L60.182 25.0224V24.2835L59.0176 23.624Z" fill="#DA281C"/>
<path d="M59.4686 21.9024L57.6831 20.8898C57.2704 20.6558 56.7456 20.799 56.5116 21.2117C56.2776 21.6258 56.4237 22.1506 56.8364 22.3832L59.0191 23.6227L59.9523 23.2724L59.4686 21.901V21.9024Z" fill="#FF671E"/>
<path d="M28.547 46.5469C31.5763 46.5469 34.3376 45.2662 36.2919 43.2452C37.6024 41.8979 38.571 40.2031 39.0745 38.3211L42.4569 44.6776C42.9831 45.6661 44.0071 46.2845 45.1246 46.2845C46.2422 46.2845 47.2676 45.6647 47.7937 44.6776L56.0592 29.1481C56.8449 27.6703 56.2847 25.8379 54.8069 25.0536C53.3277 24.2679 51.491 24.8296 50.7068 26.3059L45.3742 36.693L45.1246 37.5468L44.8764 36.693L39.5439 26.3059C38.7596 24.8296 36.923 24.2679 35.4452 25.0536C33.966 25.8393 33.4058 27.6717 34.1929 29.1481L36.1841 32.8922H30.039C28.6463 32.8922 27.5159 34.0565 27.5159 35.4932C27.5159 36.9299 28.6463 38.0928 30.039 38.0928H33.0782C32.2599 39.3522 30.8686 40.5761 28.5413 40.5761C27.1912 40.5733 25.9871 40.0244 25.0723 39.0884C24.1647 38.1481 23.5931 36.8533 23.5917 35.3854C23.5874 32.8397 25.3347 30.779 27.5117 30.3053C29.1214 29.9479 30.1354 28.3553 29.7808 26.7456C29.5695 25.7968 28.9299 25.0536 28.1087 24.6778C26.9189 24.1587 25.4552 24.6778 25.4552 24.6778C20.8744 26.0563 17.6238 30.3592 17.621 35.3854C17.621 36.035 17.6777 36.6717 17.7826 37.2915C16.8282 38.8657 15.0284 40.8428 12.0175 40.8428C9.12437 40.8371 6.74033 38.4658 6.74033 35.4932C6.74033 32.851 8.61948 30.6854 11.0659 30.2302C11.0659 30.2302 11.6828 30.111 12.6742 30.0274C13.6272 29.9465 15.0001 28.8346 15.0001 27.1597C15.0001 25.4848 13.6655 24.1786 12.019 24.1786C5.78728 24.1843 0.786614 29.2629 0.775269 35.4946C0.786614 41.7235 5.78728 46.8036 12.0161 46.8078C15.4071 46.805 18.4308 45.2974 20.4872 42.9219C20.4872 42.9219 23.3747 46.5483 28.5484 46.5483L28.547 46.5469Z" fill="#DA281C"/>
</svg>
