<svg width="134" height="70" viewBox="0 0 134 70" fill="none" xmlns="http://www.w3.org/2000/svg">
<path d="M61.8454 38.0737C66.9658 39.3881 72.3895 41.6369 78.9751 43.2395C82.6216 42.1964 86.3612 40.7913 90.2112 38.9949C95.3353 36.604 100.177 35.4469 104.6 35.0825H39.395C40.6443 35.1448 41.894 35.2099 43.141 35.3034C49.7339 35.797 55.445 36.4312 61.8454 38.0742V38.0737Z" fill="#7FBE26"/>
<path d="M44.3618 42.3009C55.2667 46.1294 66.5808 46.7842 78.975 43.239C72.3895 41.6368 66.9662 39.388 61.8453 38.0732C55.4454 36.4303 49.7343 35.7965 43.141 35.3024C41.894 35.2094 40.6443 35.1439 39.395 35.0815H0.116943V40.1767C2.40561 39.2652 4.76668 38.4669 7.15616 37.867C19.7933 34.6906 32.3319 38.0764 44.3623 42.3004L44.3618 42.3009Z" fill="#E3007F"/>
<path d="M110.998 35.082C121.631 35.9601 128.769 40.9403 129.81 41.5516L134 35.082H110.998Z" fill="#E3007F"/>
<path d="M104.6 35.082C100.177 35.4464 95.3353 36.604 90.2113 38.9944C86.3612 40.7909 82.6217 42.196 78.9751 43.239C82.0997 43.9993 85.4832 44.6152 89.2237 44.9149C96.9682 45.5373 101.624 43.8866 108.317 42.0676C122.074 38.3285 129.81 41.5516 129.81 41.5516C128.769 40.9403 121.631 35.9601 110.998 35.082H104.6Z" fill="#009FE8"/>
<path d="M108.317 42.0676C101.624 43.8865 96.9681 45.5372 89.2236 44.9149C85.4831 44.6152 82.0996 43.9992 78.975 43.2389C66.5807 46.7842 55.2666 46.1293 44.3618 42.3008C32.3319 38.0773 19.7928 34.6915 7.15568 37.8674C4.76619 38.4673 2.40512 39.2656 0.116455 40.1772V40.1804C0.116455 40.1804 32.5528 40.9828 54.8721 46.4561C77.1927 51.9289 85.6531 52.005 98.5052 48.792C111.368 45.5789 119.818 41.5616 129.809 41.5516C129.809 41.5516 122.073 38.3284 108.316 42.0676H108.317Z" fill="#1D2087"/>
<path d="M67.4216 20.7036C67.7094 20.5482 67.8795 20.2769 67.8795 19.9588V19.5088C67.8795 18.7691 67.3272 18.3269 66.401 18.3269L64.0088 18.3283C63.7769 18.3283 63.595 18.4818 63.595 18.6775V23.1742H66.7328C67.5105 23.1742 68.1196 22.6723 68.1196 22.0326V21.534C68.1196 21.1504 67.841 20.8268 67.4212 20.7036H67.4216ZM64.6522 19.1931H66.3098C66.5972 19.1931 66.8231 19.3837 66.8231 19.6266V19.8805C66.8231 20.1133 66.5404 20.3333 66.2411 20.3333H64.6522V19.1931ZM67.0633 21.7782C67.0633 22.0807 66.7938 22.3094 66.4359 22.3094H64.6522V21.1985H66.4931C66.8502 21.1985 67.0633 21.3786 67.0633 21.6806V21.7787V21.7782Z" fill="#717071"/>
<path d="M70.9226 23.1735H73.6352C73.8263 23.174 73.9803 23.0219 73.9803 22.8344V18.7264C73.9803 18.5069 73.7791 18.3281 73.5325 18.3281H73.3721C73.121 18.3281 72.9239 18.5027 72.9239 18.7264V22.3092H70.9799C70.6591 22.3092 70.3983 22.0929 70.3983 21.8271V18.7264C70.3983 18.5069 70.1967 18.3281 69.9497 18.3281H69.7893C69.5377 18.3281 69.3411 18.5027 69.3411 18.7264V21.9142C69.3411 22.6552 69.9909 23.1735 70.9221 23.1735H70.9226Z" fill="#717071"/>
<path d="M79.6464 21.9738V21.318C79.6464 20.6379 79.0822 20.3331 78.5231 20.3331H76.6804C76.3179 20.3331 76.1552 20.1081 76.1552 19.9491V19.587C76.1552 19.34 76.3596 19.1929 76.7028 19.1929H78.7747C79.0304 19.1929 79.2229 19.0302 79.2229 18.8139V18.7067C79.2229 18.4871 79.0295 18.3281 78.7628 18.3281H76.5085C75.6006 18.3281 75.0984 18.9913 75.0984 19.45V20.0563C75.0984 20.7309 75.7349 21.1489 76.3252 21.1489H78.2019C78.552 21.1489 78.5896 21.3697 78.5896 21.4651V21.8564C78.5896 21.9027 78.5786 22.3092 78.2019 22.3092H75.5356C75.2762 22.3092 75.0869 22.4683 75.0869 22.6878V22.7955C75.0869 23.015 75.2757 23.174 75.5356 23.174H78.3627C79.1427 23.174 79.6464 22.7029 79.6464 21.9738Z" fill="#717071"/>
<path d="M82.1289 23.1736H84.8071C85.0532 23.174 85.1861 22.9939 85.1861 22.8248V19.5091C85.1861 18.8799 84.5335 18.3286 83.7883 18.3286H81.4529C81.1976 18.3286 81.0047 18.4913 81.0047 18.7072V18.8144C81.0047 19.0344 81.1981 19.1934 81.4644 19.1934H83.4904C83.7824 19.1934 84.1293 19.2841 84.1293 19.7149V20.0206H82.1284C81.1674 20.0206 80.5469 20.5151 80.5469 21.2795V21.9449C80.5469 22.7025 81.1536 23.174 82.1284 23.174L82.1289 23.1736ZM81.6032 21.3084C81.6032 21.0911 81.8241 20.9138 82.0945 20.9138H84.1297V22.3088H82.0945C81.8241 22.3088 81.6032 22.1319 81.6032 21.9147V21.3079V21.3084Z" fill="#717071"/>
<path d="M86.9242 23.1744H87.0846C87.3312 23.1744 87.5328 22.9957 87.5328 22.7762V19.1928H89.4764C89.7977 19.1928 90.0589 19.4092 90.0589 19.675V22.7757C90.0589 22.9989 90.255 23.1739 90.5066 23.1739H90.6675C90.914 23.1739 91.1148 22.9952 91.1148 22.7757V19.5581C91.1148 18.7992 90.5089 18.3271 89.5337 18.3271L86.8436 18.3285C86.6305 18.3285 86.4751 18.4756 86.4751 18.6777V22.7762C86.4751 22.9993 86.6726 23.1744 86.9238 23.1744H86.9242Z" fill="#717071"/>
<path d="M95.9233 25.6611H93.5879C93.3326 25.6611 93.1397 25.8243 93.1397 26.0397V26.1474C93.1397 26.3669 93.3326 26.5259 93.5994 26.5259H95.6254C95.9174 26.5259 96.2647 26.6162 96.2647 27.047V27.3527H94.2634C93.3024 27.3527 92.6819 27.8476 92.6819 28.612V29.2765C92.6819 30.035 93.2877 30.5061 94.2634 30.5061H96.9412C97.1886 30.5061 97.3211 30.3265 97.3211 30.1573V26.8417C97.3211 26.2129 96.668 25.6611 95.9229 25.6611H95.9233ZM96.2652 29.6422H94.23C93.9587 29.6422 93.7391 29.4653 93.7391 29.2481V28.6413C93.7391 28.4241 93.9587 28.2468 94.23 28.2468H96.2652V29.6418V29.6422Z" fill="#717071"/>
<path d="M114.872 25.6602L112.182 25.6611C111.969 25.6611 111.814 25.8082 111.814 26.0103V30.1087C111.814 30.3319 112.011 30.507 112.262 30.507H112.422C112.669 30.507 112.871 30.3282 112.871 30.1087V26.5259H114.815C115.136 26.5259 115.397 26.7422 115.397 27.008V30.1087C115.397 30.3319 115.594 30.507 115.845 30.507H116.005C116.251 30.507 116.453 30.3282 116.453 30.1087V26.8906C116.453 26.1317 115.847 25.6602 114.871 25.6602H114.872Z" fill="#717071"/>
<path d="M75.8237 25.6602L73.1336 25.6611C72.92 25.6611 72.7651 25.8082 72.7651 26.0103V30.1087C72.7651 30.3319 72.9622 30.507 73.2133 30.507H73.3737C73.6212 30.507 73.8224 30.3282 73.8224 30.1087V26.5259H75.766C76.0872 26.5259 76.3484 26.7422 76.3484 27.008V30.1087C76.3484 30.3319 76.5455 30.507 76.7971 30.507H76.957C77.2045 30.507 77.4052 30.3282 77.4052 30.1087V26.8906C77.4052 26.1317 76.7994 25.6602 75.8246 25.6602H75.8237Z" fill="#717071"/>
<path d="M67.1454 29.6422H65.2564C64.805 29.6422 64.5946 29.4828 64.5946 29.14V27.0571C64.5946 26.6996 64.8077 26.5259 65.2454 26.5259H67.145C67.4043 26.5259 67.5927 26.3669 67.5927 26.1474V26.0397C67.5927 25.8202 67.4043 25.6611 67.145 25.6611H64.9475C64.1698 25.6611 63.5374 26.195 63.5374 26.8513V29.2871C63.5374 29.9598 64.1492 30.507 64.9017 30.507H67.145C67.4043 30.507 67.5932 30.3475 67.5932 30.1285V30.0208C67.5932 29.8017 67.4048 29.6427 67.145 29.6427L67.1454 29.6422Z" fill="#717071"/>
<path d="M71.0106 25.6611H69.0734C68.8182 25.6611 68.6252 25.8243 68.6252 26.0397V26.1474C68.6252 26.3669 68.8182 26.5259 69.0854 26.5259H69.5212V29.6422H69.0734C68.8182 29.6422 68.6252 29.8049 68.6252 30.0203V30.128C68.6252 30.3471 68.8182 30.5066 69.0854 30.5066H71.0221C71.2773 30.5066 71.4703 30.3439 71.4703 30.128V30.0203C71.4703 29.8013 71.2773 29.6422 71.0106 29.6422H70.5785V26.5259H71.0225C71.2778 26.5259 71.4707 26.3632 71.4707 26.1474V26.0397C71.4707 25.8202 71.2778 25.6611 71.0111 25.6611H71.0106Z" fill="#717071"/>
<path d="M81.9126 25.6611H80.1153C79.3316 25.6611 78.6946 26.1909 78.6946 26.8417V29.2871C78.6946 29.9484 79.3133 30.507 80.047 30.507H81.9695C82.2298 30.507 82.4181 30.3475 82.4181 30.1285V30.0208C82.4181 29.8017 82.2298 29.6427 81.9695 29.6427H80.3907C79.9659 29.6427 79.7514 29.4773 79.7514 29.1505V28.4828H82.5652C83.0464 28.4828 83.3338 28.2243 83.3338 27.7912V26.8421C83.3338 26.1914 82.6963 25.6616 81.9131 25.6616L81.9126 25.6611ZM82.277 27.6666H79.7509V26.9498C79.7509 26.7161 79.981 26.5259 80.2642 26.5259H81.7637C82.0465 26.5259 82.277 26.7156 82.277 26.9498V27.6666Z" fill="#717071"/>
<path d="M90.1081 25.6602L84.7283 25.6611C84.5152 25.6611 84.3604 25.8082 84.3604 26.0103V30.1087C84.3604 30.3319 84.5574 30.507 84.8085 30.507H84.9689C85.216 30.507 85.4171 30.3282 85.4171 30.1087V26.5259H87.451V30.1087C87.451 30.3319 87.6476 30.507 87.8997 30.507H88.0601C88.3066 30.507 88.5087 30.3282 88.5087 30.1087V26.5259H89.972C90.2048 26.5259 90.5417 26.7009 90.5417 27.018V30.1092C90.5417 30.3323 90.7387 30.5074 90.9899 30.5074H91.1503C91.3968 30.5074 91.598 30.3287 91.598 30.1092V26.8618C91.598 26.2798 91.076 25.6606 90.1086 25.6606L90.1081 25.6602Z" fill="#717071"/>
<path d="M104.88 29.6422H102.991C102.54 29.6422 102.329 29.4828 102.329 29.14V27.0571C102.329 26.6996 102.542 26.5259 102.98 26.5259H104.879C105.139 26.5259 105.327 26.3669 105.327 26.1474V26.0397C105.327 25.8202 105.139 25.6611 104.879 25.6611H102.682C101.904 25.6611 101.272 26.195 101.272 26.8513V29.2871C101.272 29.9598 101.884 30.507 102.636 30.507H104.879C105.139 30.507 105.327 30.3475 105.327 30.1285V30.0208C105.327 29.8017 105.139 29.6427 104.879 29.6427L104.88 29.6422Z" fill="#717071"/>
<path d="M109.366 25.6611H107.57C106.786 25.6611 106.148 26.1909 106.148 26.8417V29.2871C106.148 29.9484 106.768 30.507 107.501 30.507H109.424C109.683 30.507 109.872 30.3475 109.872 30.1285V30.0208C109.872 29.8017 109.683 29.6427 109.424 29.6427H107.844C107.419 29.6427 107.205 29.4773 107.205 29.1505V28.4828H110.019C110.501 28.4828 110.788 28.2243 110.788 27.7912V26.8421C110.788 26.1914 110.15 25.6616 109.367 25.6616L109.366 25.6611ZM109.731 27.6666H107.205V26.9498C107.205 26.7161 107.435 26.5259 107.719 26.5259H109.218C109.501 26.5259 109.731 26.7156 109.731 26.9498V27.6666Z" fill="#717071"/>
<path d="M121.522 25.6611H117.665C117.409 25.6611 117.217 25.8243 117.217 26.0397V26.1474C117.217 26.3669 117.41 26.5259 117.676 26.5259H119.071V30.1088C119.071 30.332 119.269 30.507 119.52 30.507H119.68C119.927 30.507 120.128 30.3283 120.128 30.1088V26.5259H121.534C121.789 26.5259 121.982 26.3628 121.982 26.1474V26.0397C121.982 25.8202 121.789 25.6611 121.523 25.6611H121.522Z" fill="#717071"/>
<path d="M125.964 25.6611H124.166C123.383 25.6611 122.746 26.1909 122.746 26.8417V29.2871C122.746 29.9484 123.365 30.507 124.098 30.507H126.021C126.281 30.507 126.469 30.3475 126.469 30.1285V30.0208C126.469 29.8017 126.281 29.6427 126.021 29.6427H124.441C124.017 29.6427 123.802 29.4773 123.802 29.1505V28.4828H126.616C127.098 28.4828 127.385 28.2243 127.385 27.7912V26.8421C127.385 26.1914 126.748 25.6616 125.964 25.6616L125.964 25.6611ZM126.328 27.6666H123.802V26.9498C123.802 26.7161 124.032 26.5259 124.316 26.5259H125.815C126.098 26.5259 126.328 26.7156 126.328 26.9498V27.6666Z" fill="#717071"/>
<path d="M132.018 25.6611H130.817C130.351 25.6611 130.076 25.8288 129.876 25.9517C129.756 26.0241 129.662 26.0813 129.569 26.0813C129.504 26.0813 129.493 26.0667 129.465 26.0259L129.46 26.0181C129.46 26.0181 129.459 26.0231 129.458 26.0245C129.446 25.9966 129.413 25.9462 129.347 25.8453C129.284 25.7376 129.144 25.6606 129.007 25.6606H128.836C128.658 25.6606 128.468 25.7972 128.468 26.0002V30.1083C128.468 30.3315 128.665 30.5065 128.916 30.5065H129.077C129.324 30.5065 129.525 30.3278 129.525 30.1083V27.0465C129.525 26.7252 129.765 26.5254 130.152 26.5254H132.018C132.278 26.5254 132.466 26.3664 132.466 26.1469V26.0392C132.466 25.8197 132.278 25.6606 132.018 25.6606L132.018 25.6611Z" fill="#717071"/>
<path d="M6.56768 24.9683C4.56361 24.9683 2.93945 26.2877 2.93945 27.9146C2.93945 29.5415 4.56315 30.8609 6.56768 30.8609C8.57221 30.8609 10.1986 29.5401 10.1986 27.9146C10.1986 26.289 8.57358 24.9683 6.56768 24.9683ZM6.56997 29.6455C5.49438 29.6455 4.62181 28.8696 4.62181 27.9118C4.62181 26.954 5.49438 26.18 6.56997 26.18C7.64556 26.18 8.51767 26.9545 8.51767 27.9118C8.51767 28.8692 7.64693 29.6455 6.56997 29.6455Z" fill="#717071"/>
<path d="M5.88756 23.5929H8.48969V24.9998H10.1684V18.664C10.1684 18.3872 9.93694 18.1641 9.65235 18.1641H8.48969V19.4083H5.83256C5.21938 18.7717 4.33765 18.3689 3.35463 18.3689C1.4995 18.3685 0 19.7841 0 21.5292C0 23.2744 1.4995 24.6891 3.35417 24.6891C4.36652 24.6891 5.27254 24.2633 5.8871 23.5933L5.88756 23.5929ZM8.48969 20.6209V22.3798H6.57819C6.65839 22.109 6.70468 21.8244 6.70468 21.5292C6.70468 21.2135 6.65472 20.9087 6.56261 20.6214H8.49014L8.48969 20.6209ZM1.67731 21.5288C1.67731 20.4546 2.42432 19.5815 3.35234 19.5815C4.28036 19.5815 5.02553 20.4546 5.02553 21.5288C5.02553 22.603 4.27669 23.476 3.35234 23.476C2.42798 23.476 1.67731 22.6053 1.67731 21.5288Z" fill="#717071"/>
<path d="M35.2736 18.1665H34.111V26.3661C32.5996 26.768 30.6771 26.8413 30.3668 26.8266L25.1992 26.8303V28.0383H29.4406C31.7563 28.0383 33.1518 27.7533 34.111 27.427V30.3962H35.7892V18.6655C35.7892 18.3901 35.5564 18.166 35.2736 18.166V18.1665Z" fill="#717071"/>
<path d="M43.9653 22.6354H46.1151V27.759H47.7934V18.6681C47.7934 18.389 47.5624 18.1663 47.2764 18.1663H46.1151V21.4237H43.9653V22.6359V22.6354Z" fill="#717071"/>
<path d="M41.1945 23.1263C42.134 24.63 44.1312 25.7958 44.1312 25.7958L45.1151 24.7876C42.173 22.9462 42.0153 21.4128 42.0359 19.8918V19.8689H44.6005V18.6562H37.7881V19.8689H40.3545V19.8918C40.3747 21.4128 40.2152 22.9462 37.2739 24.7876L38.2579 25.7958C38.2579 25.7958 40.256 24.63 41.1941 23.1263H41.1945Z" fill="#717071"/>
<path d="M41.6481 28.7116L41.6468 28.7129V26.5503H39.969V28.9719C39.969 29.7624 40.6317 30.4022 41.4451 30.4022H47.9037V29.19H42.1183C41.8576 29.1763 41.6481 28.9687 41.6481 28.712V28.7116Z" fill="#717071"/>
<path d="M55.3113 24.9705C53.3072 24.9705 51.6826 26.2903 51.6826 27.9163C51.6826 29.5423 53.3072 30.8617 55.3113 30.8617C57.3154 30.8617 58.9418 29.5427 58.9418 27.9163C58.9418 26.2899 57.3181 24.9705 55.3113 24.9705ZM55.3145 29.6477C54.2394 29.6477 53.3668 28.8714 53.3668 27.9145C53.3668 26.9576 54.2394 26.1822 55.3145 26.1822C56.3896 26.1822 57.2622 26.9557 57.2622 27.9145C57.2622 28.8732 56.3915 29.6477 55.3145 29.6477Z" fill="#717071"/>
<path d="M58.9729 20.9215V18.6681C58.9729 18.3904 58.7401 18.1663 58.4546 18.1663H57.2937V22.7367C55.5151 23.14 53.2883 23.2642 52.9281 23.2734C52.0139 23.2967 51.5922 23.2321 51.5803 22.366V19.8761H55.7241V18.6662H49.9016V22.398C49.8971 23.8971 50.5029 24.5048 52.0638 24.5753C53.144 24.6239 55.7773 24.2069 57.2937 23.8444V25.0034H58.9729V22.1332H60.7556V20.921H58.9729V20.9215Z" fill="#717071"/>
<path d="M22.5272 18.6654C22.5272 18.3891 22.2954 18.1659 22.0103 18.1659H20.849V26.3664C19.339 26.7679 17.4188 26.8407 17.1094 26.8265H17.0989V25.5273C18.487 25.1611 19.5131 23.9132 19.5131 22.4243C19.5131 21.6672 19.2464 20.9729 18.8028 20.4234H20.0369V19.2117H17.0989V18H15.4188V19.2122H12.4794V20.4239H13.7136C13.2699 20.9733 13.0028 21.6676 13.0028 22.4247C13.0028 23.9132 14.0275 25.1602 15.4188 25.5268V26.8302H11.9409V28.041H16.1828C18.4957 28.0405 19.8912 27.755 20.8495 27.4282V30.3947H22.5277V23.4054H24.4392V22.1937H22.5277V18.6654H22.5272ZM14.6814 22.4247C14.6814 21.3193 15.3849 20.4239 16.2575 20.4239C17.1301 20.4239 17.8326 21.3193 17.8326 22.4247C17.8326 23.5301 17.1278 24.4256 16.2575 24.4256C15.3872 24.4256 14.6814 23.5315 14.6814 22.4247Z" fill="#717071"/>
<path d="M29.1033 25.4797C31.0748 25.4797 32.6738 23.8894 32.6738 21.9307C32.6738 19.972 31.0748 18.3813 29.1033 18.3813C27.1318 18.3813 25.5305 19.9716 25.5305 21.9307C25.5305 23.8899 27.1299 25.4797 29.1033 25.4797ZM29.1019 19.5963C30.1436 19.5963 30.991 20.6425 30.991 21.9317C30.991 23.2208 30.1436 24.2652 29.1019 24.2652C28.0602 24.2652 27.212 23.2208 27.212 21.9317C27.212 20.6425 28.057 19.5963 29.1019 19.5963Z" fill="#717071"/>
</svg>
