<svg width="97" height="70" viewBox="0 0 97 70" fill="none" xmlns="http://www.w3.org/2000/svg">
<path d="M5.16028 22.2699V36.9637H4.2867V22.2699H0.342773V21.389H9.10055V22.2699H5.15663H5.16028Z" fill="black"/>
<path d="M22.9682 23.5053C24.529 25.0697 25.3112 26.9521 25.3112 29.1489C25.3112 31.3457 24.5326 33.25 22.9682 34.8071C21.4075 36.3679 19.5251 37.1501 17.3137 37.1501C15.1023 37.1501 13.2309 36.3679 11.6738 34.8071C10.113 33.2463 9.33081 31.3639 9.33081 29.1489C9.33081 26.9339 10.113 25.0697 11.6738 23.5053C13.2309 21.9446 15.1133 21.1697 17.3137 21.1697C19.5141 21.1697 21.4111 21.9446 22.9682 23.5053ZM17.3137 22.0579C15.3618 22.0579 13.6914 22.7487 12.3025 24.1377C10.9135 25.5266 10.2227 27.197 10.2227 29.1489C10.2227 31.1008 10.9135 32.7858 12.3025 34.1711C13.6914 35.5601 15.3618 36.2582 17.3137 36.2582C19.2656 36.2582 20.9469 35.5601 22.3432 34.1711C23.7285 32.7821 24.423 31.1117 24.423 29.1489C24.423 27.1861 23.7285 25.5266 22.3432 24.1377C20.9469 22.7487 19.2729 22.0579 17.3137 22.0579Z" fill="black"/>
<path d="M28.1075 31.5687V36.9637H27.2266V21.389H31.313C32.501 21.5499 33.5134 22.047 34.3468 22.873C35.3301 23.8746 35.8308 25.0698 35.8308 26.4624C35.8308 27.855 35.3301 29.0795 34.3468 30.0737C33.3526 31.0679 32.1537 31.5687 30.7538 31.5687H28.1075ZM28.1075 22.2846V30.6805H30.7538C31.9088 30.6805 32.8884 30.2674 33.7145 29.4487C34.5369 28.6299 34.9463 27.6394 34.9463 26.4661C34.9463 25.2928 34.5369 24.3205 33.7145 23.509C32.8921 22.6903 31.9088 22.2846 30.7538 22.2846H28.1075Z" fill="black"/>
<path d="M41.723 22.2699V36.9637H40.8531V22.2699H36.9128V21.389H45.6706V22.2699H41.723Z" fill="black"/>
<path d="M55.0423 21.389V22.2699H48.1304V28.7323H55.0423V29.6132H48.1304V36.0828H55.0423V36.9637H47.2532V21.389H55.0423Z" fill="black"/>
<path d="M58.588 21.389L68.9431 35.8927V21.389H69.824V36.9637H68.4679L58.3577 22.7963V36.9637H57.4768V21.389H58.588Z" fill="black"/>
<path d="M84.4408 32.4277C83.4758 31.47 82.8764 30.1469 82.8764 28.6848V28.608H79.6123V28.6373C79.6123 33.2793 83.3589 37.0515 88.0265 37.1502V33.9702C86.6266 33.919 85.3655 33.3378 84.4408 32.4277Z" fill="black"/>
<path d="M86.3854 21.1259H83.2566V28.2242H86.3854V21.1259Z" fill="black"/>
<path d="M82.8727 21.1259H79.6086V28.2242H82.8727V21.1259Z" fill="black"/>
<path d="M93.553 28.6848C93.553 30.1469 92.9535 31.47 91.9922 32.4277C91.0638 33.3415 89.8028 33.9226 88.4065 33.9702V37.1502C93.0705 37.0478 96.817 33.2793 96.817 28.6373V28.608H93.553V28.6848Z" fill="black"/>
<path d="M93.1694 21.1259H90.0442V28.2242H93.1694V21.1259Z" fill="black"/>
<path d="M86.3854 28.608H83.2566V28.6848C83.2566 30.0408 83.8085 31.269 84.7077 32.1535C85.563 33.0015 86.729 33.5388 88.0229 33.5864V30.3771C87.1164 30.2857 86.4073 29.5291 86.3854 28.6044V28.608Z" fill="black"/>
<path d="M88.4067 15.7638V18.973C89.3096 19.0644 90.0187 19.821 90.0442 20.7458H93.1694V20.6654C93.1694 19.313 92.6175 18.0885 91.7183 17.1966C90.863 16.3486 89.697 15.8113 88.4031 15.7638H88.4067Z" fill="black"/>
<path d="M88.4065 30.3771V33.5864C89.7004 33.5389 90.8664 33.0015 91.7217 32.1535C92.6209 31.2653 93.1728 30.0409 93.1728 28.6848V28.608H90.0477C90.0221 29.5328 89.313 30.2858 88.4102 30.3808L88.4065 30.3771Z" fill="black"/>
<path d="M96.8173 21.1259H93.5532V28.2242H96.8173V21.1259Z" fill="black"/>
<path d="M83.2566 20.6654V20.7458H86.3854C86.4073 19.821 87.1164 19.0644 88.0229 18.973V15.7638C86.729 15.8113 85.563 16.3486 84.7077 17.1966C83.8085 18.0848 83.2566 19.313 83.2566 20.6654Z" fill="black"/>
<path d="M82.8727 20.6653C82.8727 19.2069 83.4722 17.8837 84.4371 16.9224C85.3582 16.0086 86.6229 15.4275 88.0228 15.3799V12.2C83.3552 12.3023 79.6086 16.0708 79.6086 20.7128V20.7421H82.8727V20.6617V20.6653Z" fill="black"/>
<path d="M91.9922 16.9224C92.9572 17.8801 93.553 19.2033 93.553 20.6653V20.7457H96.817V20.7165C96.817 16.0744 93.0705 12.3023 88.4065 12.2036V15.3836C89.8028 15.4311 91.0638 16.016 91.9922 16.9261V16.9224Z" fill="black"/>
<path d="M79.2029 21.1259H75.895V28.2242H79.2029V21.1259Z" fill="black"/>
<path d="M75.5112 15.7053H69.8567V19.0352H72.2983V20.7458H75.5112V15.7053Z" fill="black"/>
<path d="M79.2029 28.608H75.895V37.1282H79.2029V28.608Z" fill="black"/>
<path d="M75.895 20.7458H79.203V12.2219H72.2983V12.2256H69.8567V15.3252H75.895V20.7458Z" fill="black"/>
<path d="M75.5112 21.1259H72.2983V28.2242H75.5112V21.1259Z" fill="black"/>
<path d="M75.5112 28.608H72.2983V37.1282H75.5112V28.608Z" fill="black"/>
<path d="M35.2716 50.3671C35.2716 51.1786 34.9974 51.8438 34.4528 52.3665C33.9082 52.8892 33.2466 53.1487 32.4644 53.1487C31.6822 53.1487 31.0279 52.8929 30.4943 52.3775C29.9387 51.8475 29.6609 51.1786 29.6609 50.3671C29.6609 49.5557 29.9387 48.8868 30.4943 48.3568C31.0279 47.8341 31.6859 47.5746 32.4644 47.5746C33.243 47.5746 33.9045 47.8378 34.4528 48.3641C34.9974 48.8904 35.2716 49.5593 35.2716 50.3671ZM34.3358 50.3671C34.3285 49.7019 34.1641 49.1317 33.8424 48.6529C33.4842 48.1119 32.9981 47.8414 32.3876 47.8414C31.7772 47.8414 31.3021 48.1119 30.9877 48.6529C30.7209 49.1061 30.5893 49.68 30.5966 50.3671C30.6039 51.0397 30.7684 51.6135 31.0901 52.0814C31.4483 52.6151 31.9344 52.8782 32.5448 52.8782C33.1552 52.8782 33.6304 52.6077 33.9447 52.0668C34.2116 51.6135 34.3432 51.047 34.3358 50.3635V50.3671Z" fill="black"/>
<path d="M41.6754 50.3671C41.6754 51.1786 41.4012 51.8438 40.8566 52.3665C40.312 52.8892 39.6468 53.1487 38.8682 53.1487C38.0897 53.1487 37.4317 52.8929 36.8981 52.3775C36.3425 51.8475 36.061 51.1786 36.061 50.3671C36.061 49.5557 36.3388 48.8868 36.8981 48.3568C37.4317 47.8341 38.0897 47.5746 38.8682 47.5746C39.6468 47.5746 40.3083 47.8378 40.8566 48.3641C41.4012 48.8904 41.6754 49.5593 41.6754 50.3671ZM40.7396 50.3671C40.7323 49.7019 40.5679 49.1317 40.2462 48.6529C39.888 48.1119 39.4019 47.8414 38.7914 47.8414C38.181 47.8414 37.7059 48.1119 37.3915 48.6529C37.1247 49.1061 36.9931 49.68 37.0004 50.3671C37.0077 51.0397 37.1722 51.6135 37.4939 52.0814C37.8521 52.6151 38.3382 52.8782 38.9486 52.8782C39.559 52.8782 40.0342 52.6077 40.3485 52.0668C40.6154 51.6135 40.747 51.047 40.7396 50.3635V50.3671Z" fill="black"/>
<path d="M25.4757 45.7288C24.4815 45.7288 23.7139 46.0797 23.1729 46.7815C22.6612 47.4358 22.4053 48.2947 22.4053 49.3511C22.4053 50.4074 22.6722 51.2481 23.2095 51.8878C23.7651 52.5676 24.5363 52.9039 25.5232 52.9039C25.8412 52.9039 26.1848 52.8381 26.5576 52.7065C27.0035 52.542 27.2631 52.3374 27.3435 52.0815V50.3636C27.3435 50.3636 27.3837 49.691 26.6527 49.691V49.5192H29.0285V49.691C28.2975 49.691 28.3377 50.3636 28.3377 50.3636V52.3227C27.4751 52.9076 26.4516 53.2 25.2637 53.2C24.1489 53.2 23.2204 52.86 22.4675 52.1838C21.6816 51.4674 21.2869 50.5317 21.2869 49.3767C21.2869 48.2216 21.6962 47.2238 22.5113 46.4891C23.2826 45.7873 24.2439 45.4364 25.3953 45.4364H25.4282C25.4282 45.4364 27.0766 45.4693 28.2171 46.2442V47.7172H28.0453C28.0453 47.7172 27.6871 45.7288 25.4318 45.7288H25.4757Z" fill="black"/>
<path d="M47.6186 51.2444V44.8223L46.1054 45.2682V45.4436C46.1054 45.4436 46.3064 45.4436 46.5111 45.5021C46.7158 45.557 46.8401 45.8092 46.8401 46.3063V48.1594C46.3503 47.7683 45.8203 47.5746 45.2537 47.5746C44.435 47.5746 43.7624 47.8524 43.2397 48.4043C42.717 48.9563 42.4539 49.6617 42.4539 50.5207C42.4539 51.2627 42.6768 51.884 43.1264 52.3921C43.576 52.9002 44.1499 53.1524 44.848 53.1524C45.5827 53.1524 46.2406 52.7832 46.8291 52.0412V53.0866H48.1925V52.9148C48.1925 52.9148 47.6186 52.7613 47.6186 51.2444ZM46.2881 52.2532C45.919 52.5895 45.5205 52.754 45.0892 52.754C44.5227 52.754 44.0804 52.4762 43.7588 51.9243C43.4846 51.4564 43.3457 50.9118 43.3457 50.2867C43.3457 49.6325 43.481 49.0878 43.7478 48.6492C44.0621 48.1338 44.5117 47.878 45.1002 47.878C45.59 47.878 45.9957 48.0425 46.3174 48.3678C46.6171 48.6894 46.7889 49.1098 46.8437 49.6288V51.0653C46.8437 51.5185 46.661 51.9096 46.2918 52.2459L46.2881 52.2532Z" fill="black"/>
<path d="M58.7707 47.6917V47.8671C58.7707 47.8671 59.2057 47.889 59.3592 48.2143C59.5127 48.5396 59.3226 48.96 59.3226 48.96H59.3263L58.1347 51.9828L56.6141 48.2655C56.6141 48.2655 56.4387 47.8708 56.8079 47.8708V47.6953H55.5468V47.8708C55.5468 47.8708 55.8392 47.8305 56.0037 48.2363L56.0768 48.4154L54.6659 51.9828L53.2623 48.8467C53.1673 48.6274 53.0686 48.3203 53.2075 48.1157C53.3208 47.9439 53.6059 47.8708 53.6059 47.8708V47.6953H51.5371V47.8708C51.5371 47.8708 52.0123 47.9768 52.2608 48.536L54.3004 53.1415H54.4759L56.0988 49.1574V49.1537V49.1464L57.7655 53.1452H57.9373L59.637 48.9673C60.0683 47.8927 60.5617 47.8744 60.5617 47.8744V47.699H58.7634L58.7707 47.6917Z" fill="black"/>
<path d="M62.9521 52.5273C61.6362 51.8913 61.7349 50.0601 61.7349 50.0601H65.9676C65.9128 49.3875 65.6679 48.821 65.2366 48.3641C64.7395 47.8378 64.1364 47.5746 63.4273 47.5746C62.7182 47.5746 62.1224 47.8378 61.6363 48.3568C61.1318 48.8868 60.876 49.5557 60.876 50.3671C60.876 51.1786 61.1318 51.8475 61.6363 52.3775C62.1224 52.8929 62.7182 53.1487 63.4273 53.1487C64.1364 53.1487 64.7395 52.8892 65.2366 52.3665C65.5253 52.0595 65.73 51.7049 65.8507 51.3029L65.6716 51.2407C65.434 52.0302 64.268 53.1633 62.9521 52.5273ZM63.3615 47.8195C64.9149 47.8195 64.9405 49.8042 64.9405 49.8042H61.7569C61.7569 49.8042 61.808 47.8195 63.3615 47.8195Z" fill="black"/>
<path d="M70.9021 51.2481V49.4607C70.9021 49.4607 71.0446 47.688 69.1622 47.582C67.3931 47.4833 66.8558 48.6237 66.8558 48.6237L67.4809 48.9856C67.4918 48.4812 67.967 47.7757 69.0416 47.9C70.1638 48.0316 70.1345 49.2305 70.1345 49.2305V49.9651C70.1345 49.9651 69.769 50.1333 68.4422 50.3636C67.1153 50.5938 66.4062 51.3541 66.8485 52.3739C67.2762 53.3645 69.6082 53.4997 70.1382 52.0851V53.0903H71.4686V52.9185C71.4686 52.9185 70.9094 52.765 70.9094 51.2481H70.9021ZM68.5262 52.8125C67.448 52.7504 67.0167 50.9301 68.6322 50.5975C69.9371 50.3307 70.1089 50.2649 70.1272 50.2503V51.1421C70.1272 51.906 69.6045 52.8747 68.5262 52.8125Z" fill="black"/>
<path d="M74.1806 48.0901C73.8371 48.5725 73.7639 48.865 73.753 49.0843V47.5601L72.3421 48.1193V48.2911C72.3421 48.2911 72.9817 48.2326 72.9817 48.9198V51.8293C72.9817 51.8293 73.022 52.7358 72.2397 52.9112V53.0867H74.7435V52.9112C74.7435 52.9112 73.753 52.9003 73.753 51.8293V50.2247C73.753 50.0383 73.9979 48.4885 74.7106 48.3825C75.3503 48.2874 75.5586 48.7297 75.5586 48.7297L75.8693 47.8159C75.6062 47.5381 74.6668 47.4029 74.1806 48.0864V48.0901Z" fill="black"/>
</svg>
