<svg width="143" height="70" viewBox="0 0 143 70" fill="none" xmlns="http://www.w3.org/2000/svg">
<path d="M22.1917 31.7183C19.6959 30.0202 16.4983 30.7152 14.8207 33.2658C13.4205 35.3987 11.3013 35.6623 10.483 35.6623C7.81264 35.6623 5.98444 33.7828 5.44351 31.8382C5.44009 31.8176 5.43666 31.8039 5.42982 31.7834C5.42639 31.7628 5.41955 31.7389 5.4127 31.7183C5.20044 30.9069 5.14566 30.5201 5.14566 29.6573C5.14566 25.0081 9.91472 19.8316 16.7859 19.8316C23.657 19.8316 27.8475 25.1861 28.8848 28.1646C28.8677 28.1133 28.8506 28.0585 28.8335 28.0072C26.8307 22.1871 21.3119 18 14.8139 18C6.63492 18 0 24.6315 0 32.8139C0 40.1267 5.27233 46.385 12.5885 46.385C18.4223 46.385 22.3458 43.112 24.1432 38.6032C25.1292 36.1382 24.4307 33.2384 22.1883 31.7149L22.1917 31.7183Z" fill="#003863"/>
<path d="M28.9738 28.4521C28.1077 25.5489 24.0507 19.8315 16.7824 19.8315C9.91128 19.8315 5.14221 25.008 5.14221 29.6573C5.14221 30.52 5.19699 30.9069 5.40925 31.7183C5.32024 31.3622 5.27231 31.0061 5.27231 30.6604C5.27231 25.8194 10.1201 22.4643 15.1049 22.4643C21.8528 22.4643 27.3202 27.9318 27.3202 34.6762C27.3202 39.9657 24.2767 44.5396 19.8568 46.741C25.5571 44.68 29.6277 39.2228 29.6277 32.8104C29.6277 31.2937 29.4223 29.9551 28.9773 28.4521H28.9738Z" fill="#E4032E"/>
<path d="M50.2994 32.8344V34.464H44.4827V36.7578H42.6065V34.464H36.6735V32.8344H50.2994ZM37.769 31.3211V25.6208H49.2038V31.3211H37.769ZM39.6143 35.5082V38.384H49.3853V40.0136H37.769V35.5082H39.6143ZM47.3756 27.1991H39.5801V29.7908H47.3756V27.1991Z" fill="#575756"/>
<path d="M61.5116 38.7811H51.7886V37.1686H55.6949V35.3233C55.5169 35.2788 55.3491 35.224 55.195 35.159C54.7534 34.9809 54.3631 34.7447 54.031 34.4434C53.6989 34.1319 53.4387 33.7758 53.2504 33.3684C53.0621 32.9644 52.9663 32.5365 52.9663 32.0811C52.9663 31.6258 53.0621 31.2013 53.2504 30.8041C53.4387 30.4036 53.6989 30.051 54.031 29.7394C54.3631 29.4279 54.75 29.1882 55.1882 29.017C55.6264 28.8459 56.0955 28.7603 56.5919 28.7603C57.0883 28.7603 57.5573 28.8459 57.9887 29.017C58.4235 29.1882 58.7967 29.4279 59.1219 29.7394C59.454 30.051 59.7176 30.4036 59.9093 30.8041C60.1045 31.2013 60.2003 31.6292 60.2003 32.0811C60.2003 32.5331 60.1045 32.9644 59.9093 33.3684C59.7176 33.7724 59.454 34.1319 59.1219 34.4434C58.8001 34.7413 58.4235 34.9809 57.9887 35.159C57.8141 35.2377 57.6292 35.2993 57.4409 35.3438V37.172H61.5116V38.7845V38.7811ZM55.5614 26.9149V25.3367H57.5573V26.9149H61.1624V28.4932H51.9563V26.9149H55.5614ZM58.4029 32.0675C58.4029 31.5779 58.2249 31.1636 57.8689 30.8144C57.5128 30.4652 57.0814 30.2906 56.5748 30.2906C56.0681 30.2906 55.6333 30.4652 55.2772 30.8144C54.9246 31.1636 54.7466 31.5813 54.7466 32.0675C54.7466 32.5536 54.928 32.9747 55.2772 33.3308C55.6333 33.6868 56.0646 33.8614 56.5748 33.8614C57.0849 33.8614 57.5162 33.6834 57.8689 33.3308C58.2249 32.9747 58.4029 32.557 58.4029 32.0675ZM64.384 40.2601H62.5558V25.436H64.384V31.8689H66.2772V33.6457H64.384V40.2601Z" fill="#575756"/>
<path d="M67.0989 28.4969V26.9186H70.2383V25.3403H72.1829V26.9186H75.1409V28.4969H71.7824L75.3053 37.8193L73.6928 38.3671L71.2175 31.6534L68.7422 38.4835L67.0784 37.9528L70.6184 28.4969H67.0955H67.0989ZM76.37 25.4533H78.0818V40.1782H76.37V33.016H74.4425V31.3385H76.37V25.4533ZM79.4786 25.4362H81.2555V40.2603H79.4786V25.4362Z" fill="#575756"/>
<path d="M95.5969 35.7275V40.298H93.7516V37.3058H83.8129V35.7275H86.1717L86.1888 33.9986H83.0665V32.4032H96.6924V33.9986H93.5496V35.7275H95.5934H95.5969ZM93.5359 28.4832C93.5359 28.9488 93.4366 29.387 93.238 29.7944C93.0394 30.2052 92.7758 30.5716 92.4574 30.8899C92.1253 31.1878 91.7385 31.4309 91.2934 31.6123C90.8484 31.7938 90.3793 31.8862 89.8829 31.8862C89.3865 31.8862 88.9106 31.7972 88.4621 31.6123C88.0136 31.4274 87.6233 31.1878 87.2912 30.8899C86.9728 30.5681 86.7092 30.2052 86.5107 29.7944C86.3121 29.3836 86.2094 28.9453 86.2094 28.4832C86.2094 28.021 86.3121 27.5793 86.5107 27.1685C86.7092 26.7577 86.9694 26.3948 87.2912 26.073C87.6233 25.7614 88.0136 25.5149 88.4621 25.3335C88.9106 25.152 89.3865 25.0596 89.8829 25.0596C90.3793 25.0596 90.8518 25.152 91.2934 25.3335C91.7351 25.5149 92.1219 25.7648 92.4574 26.073C92.7793 26.3948 93.0394 26.7611 93.238 27.1685C93.4366 27.5793 93.5359 28.0176 93.5359 28.4832ZM87.8698 35.7275H91.8583V33.9986H87.8869L87.8698 35.7275ZM91.7282 28.4832C91.7282 27.9833 91.5468 27.5588 91.1873 27.2096C90.8278 26.8604 90.393 26.6858 89.8829 26.6858C89.3728 26.6858 88.9346 26.8604 88.5682 27.2096C88.2019 27.5588 88.017 27.9833 88.017 28.4832C88.017 28.983 88.2019 29.4075 88.5682 29.7636C88.9346 30.1162 89.3694 30.2942 89.8829 30.2942C90.3964 30.2942 90.8278 30.1162 91.1873 29.7636C91.5468 29.411 91.7282 28.983 91.7282 28.4832Z" fill="#575756"/>
<path d="M107.446 32.5366V34.1491H98.5891V32.5366H101.578V29.3115H103.324V32.5366H107.446ZM105.138 31.174V27.3841H99.0068V25.7373H106.932V31.1705H105.138V31.174ZM101.102 35.3268V38.3361H111.356V39.9623H99.2567V35.3268H101.102ZM110.955 34.6626H109.113V25.4395H110.955V29.0616H112.848V30.8213H110.955V34.6626Z" fill="#575756"/>
<path d="M117.1 31.8039V28.911H118.843V31.8039H122.965V33.3479H114.108V31.8039H117.1ZM120.657 30.4756V27.3669H114.522V25.7373H122.448V30.4721H120.654L120.657 30.4756ZM125.146 37.3227C125.146 37.802 125.043 38.2403 124.848 38.6442C124.649 39.0482 124.382 39.4111 124.05 39.7329C123.728 40.0445 123.345 40.291 122.907 40.4724C122.462 40.6573 121.986 40.7463 121.476 40.7463C120.966 40.7463 120.49 40.6539 120.048 40.4724C119.603 40.291 119.216 40.0445 118.884 39.7329C118.552 39.4145 118.288 39.0516 118.097 38.6442C117.902 38.2403 117.806 37.802 117.806 37.3227C117.806 36.8434 117.905 36.4018 118.097 35.9841C118.288 35.5699 118.552 35.2001 118.884 34.8783C119.216 34.577 119.606 34.3374 120.048 34.1559C120.49 33.9745 120.966 33.882 121.476 33.882C121.986 33.882 122.462 33.9745 122.907 34.1559C123.348 34.3374 123.728 34.5804 124.05 34.8783C124.382 35.2001 124.649 35.5664 124.848 35.9841C125.047 36.3984 125.146 36.8469 125.146 37.3227ZM123.335 37.3056C123.335 36.7955 123.153 36.3641 122.787 36.0012C122.421 35.6418 121.982 35.4603 121.476 35.4603C120.969 35.4603 120.524 35.6383 120.154 36.0012C119.784 36.3607 119.6 36.7955 119.6 37.3056C119.6 37.8157 119.784 38.2437 120.154 38.5929C120.524 38.9421 120.966 39.1167 121.476 39.1167C121.986 39.1167 122.421 38.9421 122.787 38.5929C123.153 38.2437 123.335 37.8157 123.335 37.3056ZM126.474 33.6013H124.632V25.4429H126.474V28.4693H128.371V30.1982H126.474V33.6047V33.6013Z" fill="#575756"/>
<path d="M129.374 34.7997H143V36.4293H137.101V40.25H135.256V36.4293H129.374V34.7997ZM132.281 27.5519H140.076V25.6758H141.904V32.8037H130.473V25.6758H132.284V27.5519H132.281ZM140.076 29.1473H132.281V31.1912H140.076V29.1473Z" fill="#575756"/>
</svg>
