<svg width="108" height="20" viewBox="0 0 108 20" fill="none" xmlns="http://www.w3.org/2000/svg">
<path d="M69.9936 15.3172V12.2245H67.6954V15.7614C67.6976 16.5517 68.2102 17.2117 69.5109 17.2117H77.3345V15.5906H70.2841C70.1217 15.5906 69.9936 15.4688 69.9936 15.315V15.3172ZM102.003 7.80115C102.003 6.88274 101.583 6.05831 100.863 5.51367H102.157V4.06984H99.7864V2.80543H97.578V4.06771H95.188V5.51153H96.5164C95.7945 6.05617 95.3716 6.88061 95.3716 7.79902C95.3716 9.44361 96.8283 10.7657 98.6886 10.77C100.519 10.7657 102.006 9.44361 102.006 7.79902L102.003 7.80115ZM98.6865 9.33896C97.7595 9.33896 97.1422 8.64481 97.138 7.76912C97.1422 6.89769 97.7595 6.20355 98.6865 6.20355C99.6134 6.20355 100.235 6.89769 100.239 7.76912C100.235 8.64481 99.6155 9.33896 98.6865 9.33896ZM84.6134 15.3172V12.9272H82.343V15.7614C82.3451 16.5517 82.8535 17.2117 84.1585 17.2117H92.5673V15.5906H84.9039C84.7416 15.5906 84.6113 15.4688 84.6113 15.315L84.6134 15.3172ZM80.126 11.7973H94.0666V10.1762H80.126V11.7973ZM87.0974 9.14032C89.4532 9.13605 91.3819 7.66873 91.384 5.81909C91.3819 3.97586 89.4532 2.5 87.0974 2.5C84.7416 2.5 82.8129 3.97586 82.8086 5.81909C82.8108 7.6666 84.7416 9.13392 87.0974 9.14032ZM87.0974 4.09761C88.3063 4.09974 89.2653 4.87719 89.2695 5.81909C89.2653 6.76314 88.3063 7.54485 87.0974 7.54485C85.8885 7.54485 84.9252 6.76314 84.9231 5.81909C84.9231 4.87719 85.8885 4.09974 87.0974 4.09761ZM105.869 2.80543V5.55425H104.908V2.80543H102.95V10.1655H104.064C104.598 10.1655 104.908 9.80243 104.908 9.33255V7.2971H105.869V10.1655H106.986C107.518 10.1655 107.832 9.80243 107.832 9.33255V2.80543H105.869ZM103.417 10.7871C101.098 10.7871 99.2097 12.28 99.2076 14.1403C99.2076 16.007 101.098 17.4936 103.417 17.5C105.735 17.4936 107.623 16.0049 107.627 14.1403C107.623 12.28 105.735 10.7871 103.417 10.7871ZM103.417 15.8832C102.264 15.8832 101.346 15.0972 101.346 14.1403C101.346 13.1835 102.264 12.4018 103.417 12.3996C104.569 12.4018 105.491 13.1877 105.493 14.1403C105.491 15.095 104.569 15.8832 103.417 15.8832ZM77.0034 2.8097H74.8462V12.6495H76.1299C76.6809 12.6495 77.0034 12.2757 77.0034 11.7866V7.45301H78.962V5.63328H77.0034V2.8097ZM53.2956 9.27702H59.6198C60.9206 9.27702 61.4289 8.62132 61.431 7.82892V2.80543H59.3635V4.23217H53.5434V2.80543H51.4801V7.82892C51.4823 8.62132 51.9906 9.27702 53.2935 9.27702H53.2956ZM53.5626 5.80842H59.3443V7.41029C59.3443 7.56407 59.2161 7.68582 59.0538 7.68582H53.8509C53.6929 7.68582 53.5626 7.5598 53.5626 7.41029V5.80842ZM48.8402 12.3804H55.2435V17.028H56.6489C57.2469 17.028 57.5929 16.62 57.5929 16.0327V12.3804H63.5434V10.7358H48.8402V12.3804ZM72.5224 10.7871L72.578 10.8148L73.5391 9.544L73.4408 9.47992C71.6425 8.27958 70.2478 6.58372 70.2499 4.50769V3.12153H67.9154V4.50769C67.9218 6.6777 66.2174 8.69821 64.6903 9.66147L64.6262 9.70205L65.5895 10.9729L65.6472 10.9472C66.8454 10.3492 68.4387 8.74306 69.0859 7.5598C69.701 8.6683 71.2366 10.1655 72.5224 10.7913V10.7871Z" fill="white"/>
<path d="M42.6399 5.77414H43.8103C43.8872 5.77414 43.947 5.7122 43.947 5.63531V3.43326C43.947 3.35424 43.8851 3.29443 43.8103 3.29443H42.1679C40.2691 3.29443 39.261 3.90101 38.6886 5.19106L35.1175 13.9395C34.8996 14.4606 34.5878 14.7084 33.9727 14.7084V3.43326C33.9727 3.35424 33.9107 3.29443 33.8338 3.29443H31.211C31.1341 3.29443 31.0722 3.35424 31.0722 3.43326V16.9489C31.0722 17.0834 31.1811 17.1945 31.3157 17.1945H34.2567C36.1576 17.1945 37.0226 16.5858 37.5993 15.2957L41.1234 6.65624C41.4075 6.04326 41.8133 5.77628 42.642 5.77628L42.6399 5.77414Z" fill="white"/>
<path d="M10.5639 10.2425C11.6168 9.80465 12.4904 8.82217 12.4904 7.19039C12.4904 4.76621 10.4079 3.29248 7.8962 3.29248H0.13883C0.0619393 3.29248 0 3.35228 0 3.43131V5.63336C0 5.70811 0.0619393 5.77219 0.13883 5.77219H7.35797C8.52627 5.77219 9.3144 6.48342 9.3144 7.36125C9.3144 8.23908 8.52627 8.95032 7.35797 8.95032H3.07134V7.31427C3.07134 7.23738 3.00726 7.17544 2.93037 7.17544H0.13883C0.0619393 7.17544 0 7.23524 0 7.31427V17.058C0 17.1327 0.0619393 17.1947 0.13883 17.1947H7.78513C10.6429 17.1947 12.6912 15.8598 12.6912 13.1408C12.6912 11.8059 11.903 10.6996 10.566 10.2425H10.5639ZM7.50534 14.7705H3.07134V11.5112H7.50748C8.70355 11.5112 9.51303 12.2395 9.51303 13.1408C9.51303 14.0422 8.70355 14.7705 7.50748 14.7705H7.50534Z" fill="white"/>
<path d="M45.3567 17.0365L40.8586 11.2804C40.8458 11.2633 40.8266 11.2654 40.8202 11.2847L39.6091 14.2492C39.6006 14.2663 39.6006 14.2876 39.6134 14.3026L41.5827 16.9382C41.7193 17.1262 41.8795 17.1967 42.1145 17.1967H45.2841C45.3759 17.1967 45.4143 17.1091 45.361 17.0386L45.3567 17.0365Z" fill="white"/>
<path d="M17.6164 7.17529H14.9893C14.9124 7.17529 14.8505 7.2351 14.8505 7.31412V17.0578C14.8505 17.1326 14.9124 17.1945 14.9893 17.1945H17.6164C17.6933 17.1945 17.7552 17.1347 17.7552 17.0578V7.31412C17.7552 7.23723 17.6933 7.17529 17.6164 7.17529Z" fill="white"/>
<path d="M28.4238 3.29443H25.8009C25.7241 3.29443 25.6621 3.35424 25.6621 3.43326V14.7084C25.047 14.7084 24.7352 14.4606 24.5173 13.9395L20.9462 5.19106C20.3695 3.89888 19.3635 3.29443 17.4626 3.29443H14.9893C14.9124 3.29443 14.8505 3.35424 14.8505 3.43326V5.63531C14.8505 5.71007 14.9124 5.77414 14.9893 5.77414H16.9906C17.8172 5.77414 18.2273 6.04326 18.5092 6.65411L22.0333 15.2936C22.6079 16.5836 23.475 17.1923 25.3738 17.1923H28.3148C28.4515 17.1923 28.5604 17.0834 28.5604 16.9467V3.43326C28.5604 3.35424 28.4985 3.29443 28.4216 3.29443H28.4238Z" fill="white"/>
</svg>
