<svg width="101" height="20" viewBox="0 0 101 20" fill="none" xmlns="http://www.w3.org/2000/svg">
<path d="M50.8327 18.542C50.7856 18.542 50.7174 18.542 50.5998 18.4714C46.0255 15.7409 41.3571 11.5264 40.4046 6.62052C40.0801 4.76963 40.7762 4.42155 41.938 4.00528C44.0288 3.24093 48.8359 1.75928 50.8327 1.75928C52.8294 1.75928 57.6365 3.24093 59.7273 4.00528C60.8891 4.42155 61.5852 4.76963 61.2607 6.62052C60.3082 11.5288 55.6398 15.7409 51.0655 18.4714C50.9502 18.542 50.8797 18.542 50.8327 18.542Z" fill="black"/>
<path d="M57.613 17.6388C61.2818 17.0367 64.0453 16.4581 69.271 15.2093C69.4568 15.1623 69.4568 15.1176 69.2475 15.0941C66.9474 14.9553 64.9977 14.8166 63.6266 14.7013C63.3021 14.6778 63.2786 14.5626 63.4173 14.3768C63.7889 13.9135 64.184 13.8217 65.16 13.8217C66.0655 13.8217 68.3421 13.8452 70.6398 13.8688C75.1906 13.8923 79.6732 12.7352 85.2706 10.8819C85.3411 10.8584 85.3176 10.8114 85.247 10.8114C77.4201 10.9972 67.9234 11.0889 66.39 11.0889C66.1572 11.0889 66.1807 10.9266 66.343 10.7408C66.6911 10.3246 67.0862 10.1152 68.3867 10.0235C70.1977 9.88476 85.6422 9.14393 88.1727 9.05221C91.169 8.93697 93.0034 8.47366 95.4658 6.59925C96.1854 6.06773 97.1379 5.25635 97.9963 4.40028C98.1351 4.26152 98.1351 4.1698 97.8811 4.19097C93.1892 4.60724 69.2945 6.82973 68.1798 6.96849C66.136 7.22248 65.2071 7.77752 64.4404 8.98166C61.9098 12.9163 60.795 14.8377 57.4978 17.453C57.359 17.5682 57.359 17.6834 57.613 17.6388ZM50.8327 18.5419C50.7856 18.5419 50.7174 18.5419 50.5998 18.4713C46.0255 15.7408 41.3571 11.5263 40.4046 6.62041C40.0801 4.76952 40.7762 4.42145 41.938 4.00517C44.0288 3.24083 48.8359 1.75917 50.8327 1.75917C52.8294 1.75917 57.6365 3.24083 59.7273 4.00517C60.8891 4.42145 61.5852 4.76952 61.2607 6.62041C60.3082 11.5287 55.6398 15.7408 51.0655 18.4713C50.9502 18.5419 50.8797 18.5419 50.8327 18.5419ZM44.0523 17.6388C44.3087 17.6858 44.3087 17.5682 44.1676 17.453C40.8703 14.8377 39.7555 12.9163 37.2249 8.98166C36.4582 7.77752 35.5293 7.22248 33.4855 6.96849C32.3708 6.82973 8.47376 4.60724 3.78421 4.19097C3.52786 4.16745 3.52786 4.26152 3.66897 4.40028C4.52739 5.25635 5.47988 6.06773 6.19954 6.59925C8.66191 8.47366 10.4963 8.93697 13.4926 9.05221C16.0232 9.14393 31.4676 9.88476 33.2786 10.0235C34.5791 10.1152 34.9742 10.3246 35.3223 10.7408C35.4846 10.9266 35.5081 11.0889 35.2753 11.0889C33.7419 11.0889 24.2452 10.9972 16.4183 10.8114C16.3477 10.8114 16.3265 10.8584 16.3947 10.8819C21.9921 12.7328 26.4747 13.8923 31.0255 13.8688C33.3256 13.8452 35.5998 13.8217 36.5053 13.8217C37.4813 13.8217 37.8764 13.9135 38.248 14.3768C38.3867 14.5626 38.3632 14.6778 38.0387 14.7013C36.6676 14.8166 34.7179 14.9553 32.4178 15.0941C32.2085 15.1176 32.2085 15.1646 32.3943 15.2093C37.62 16.4581 40.3835 17.039 44.0523 17.6388ZM50.8327 20C50.9032 20 51.0184 19.9765 51.1102 19.9294C56.7311 17.1284 59.3533 14.5602 62.653 9.23565C63.883 7.19897 64.5815 6.1571 67.5754 5.71731C72.2673 5.04704 93.4455 3.56538 97.6271 2.98683C99.4145 2.73283 99.9037 2.45532 100.739 1.57573C100.877 1.43697 100.877 1.32173 100.623 1.34525C100.089 1.39229 78.9559 2.29539 66.2771 2.75635C63.1657 2.91863 62.2367 2.84807 59.6356 1.992C55.7786 0.809031 52.2955 0 50.8327 0C49.3698 0 45.8867 0.809031 42.0321 1.98965C39.431 2.84572 38.502 2.91627 35.3905 2.754C22.7094 2.29069 1.57583 1.38993 1.04197 1.3429C0.785618 1.31938 0.785618 1.43462 0.926728 1.57338C1.76163 2.45296 2.25081 2.73048 4.03821 2.98448C8.21741 3.56303 29.398 5.04468 34.0899 5.71496C37.0862 6.15475 37.7823 7.19661 39.0123 9.2333C42.3096 14.5579 44.9343 17.1261 50.5551 19.9271C50.6469 19.9741 50.7644 19.9976 50.8327 19.9976V20Z" fill="white"/>
<path d="M58.2762 7.09057C57.9516 6.91888 57.6083 6.82481 57.6083 6.52848C57.6083 6.38266 57.7494 6.26272 58.0245 6.26272C58.2997 6.26272 58.5772 6.36385 58.81 6.46498L58.883 6.07222C58.6619 5.99696 58.3797 5.93346 58.0669 5.93346C57.3872 5.93346 57.0109 6.23685 57.0109 6.65312C57.0109 7.0694 57.3049 7.27871 57.7094 7.46921C58.0645 7.63384 58.3632 7.74202 58.3632 8.00073C58.3632 8.19593 58.2103 8.32293 57.9093 8.32293C57.6271 8.32293 57.326 8.2218 57.0932 8.12067L57.0509 8.57457C57.1614 8.60515 57.5965 8.68276 57.9281 8.68276C58.4737 8.68276 58.9653 8.417 58.9653 7.93723C58.9653 7.45745 58.6195 7.27401 58.2762 7.09057ZM47.4295 6.32622L47.3378 5.99226H45.461L45.3999 6.14983L45.5175 6.20628C45.5974 6.2439 45.6163 6.29565 45.6163 6.38266V8.62631H47.4319V8.2853H46.1995V7.42688H47.2672V7.09762H46.1995V6.32622H47.4319H47.4295ZM54.4968 7.09057C54.1722 6.91888 53.8289 6.82481 53.8289 6.52848C53.8289 6.38266 53.97 6.26272 54.2451 6.26272C54.5203 6.26272 54.7978 6.36385 55.0306 6.46498L55.1036 6.07222C54.8825 5.99696 54.6003 5.93346 54.2875 5.93346C53.6078 5.93346 53.255 6.23685 53.255 6.65312C53.255 7.0694 53.5278 7.27871 53.9323 7.46921C54.2875 7.63384 54.5862 7.74202 54.5862 8.00073C54.5862 8.19593 54.4333 8.32293 54.1323 8.32293C53.85 8.32293 53.549 8.2218 53.3162 8.12067L53.2738 8.57457C53.3844 8.60515 53.8195 8.68276 54.1511 8.68276C54.6967 8.68276 55.1882 8.417 55.1882 7.93723C55.1882 7.45745 54.8425 7.27401 54.4991 7.09057H54.4968ZM55.5857 6.14983L55.7033 6.20628C55.7903 6.25096 55.8068 6.29565 55.8068 6.38266V8.62631H56.39V5.99226H55.6539L55.5857 6.14983ZM52.8434 6.32622L52.7517 5.99226H50.875L50.8138 6.14983L50.9314 6.20628C51.0114 6.2439 51.0302 6.29565 51.0302 6.38266V8.62631H52.8458V8.2853H51.6134V7.42688H52.6812V7.09762H51.6134V6.32622H52.8458H52.8434ZM49.8731 7.77965L48.4573 5.99226H47.8999L47.8317 6.14983L47.9493 6.20628C48.0363 6.25096 48.0528 6.29565 48.0528 6.37796V8.62631H48.469V6.92123L49.8237 8.62631H50.2894V5.99226H49.8731V7.77965ZM44.0546 7.37514L44.3133 7.48332C44.3862 7.5139 44.4168 7.55388 44.4168 7.6409V8.22885C44.3063 8.2853 44.1581 8.33704 43.9935 8.32998C43.4902 8.31117 43.1233 7.90665 43.1233 7.31869C43.1233 6.73074 43.4549 6.26978 44.0241 6.26978C44.1652 6.26978 44.478 6.30035 44.8025 6.56611L44.9201 6.13572C44.5344 5.97109 44.3063 5.93346 44.0123 5.9217C43.1962 5.90289 42.5165 6.35679 42.5165 7.3234C42.5165 8.18887 43.1233 8.68276 43.9206 8.68276C44.5085 8.68276 44.866 8.48756 44.9507 8.417V7.22227H44.1158L44.0546 7.37279V7.37514Z" fill="white"/>
</svg>
