<svg width="20" height="20" viewBox="0 0 20 20" fill="none" xmlns="http://www.w3.org/2000/svg">
<path fill-rule="evenodd" clip-rule="evenodd" d="M13.0025 14.5094C11.9114 15.1635 10.6345 15.5396 9.26978 15.5396C5.25479 15.5396 2 12.2848 2 8.26978C2 4.25479 5.25479 1 9.26978 1C13.2848 1 16.5396 4.25479 16.5396 8.26978C16.5396 10.1677 15.8122 11.8958 14.6211 13.1905L19.0003 17.5697L17.5316 19.0384L13.0025 14.5094ZM14.4625 8.26978C14.4625 11.1376 12.1376 13.4625 9.26978 13.4625C6.40193 13.4625 4.07708 11.1376 4.07708 8.26978C4.07708 5.40193 6.40193 3.07708 9.26978 3.07708C12.1376 3.07708 14.4625 5.40193 14.4625 8.26978Z" fill="white"/>
</svg>
