<svg width="49" height="48" viewBox="0 0 49 48" fill="none" xmlns="http://www.w3.org/2000/svg">
<path d="M37.4746 36.1501C37.3836 36.3959 37.3745 36.3959 37.4746 36.4687C37.675 36.7054 37.8206 36.6235 37.7933 36.6781C37.9117 36.4596 38.0483 36.2866 38.1667 36.2593L38.367 36.3777C38.3742 36.1672 38.4109 35.9588 38.4763 35.7586C38.5376 35.5835 38.5594 35.397 38.5401 35.2124L38.4035 34.9211C38.3397 34.8119 38.3306 34.7937 38.2396 34.6571C38.0757 34.6571 38.0666 34.8483 38.0119 34.9757C37.9507 35.0897 37.9076 35.2126 37.8844 35.3399C37.9286 35.3902 37.9606 35.4501 37.978 35.5148C37.9954 35.5795 37.9976 35.6474 37.9846 35.7131V35.9771C37.9846 36.0955 37.8207 36.0499 37.7205 36.0772L37.4746 36.1501ZM13.7708 2.59472C14.1805 2.38534 14.6085 2.18507 15.0365 2.003C14.6085 2.18507 14.1897 2.39445 13.7799 2.60383L13.7708 2.59472ZM20.3091 4.1332V3.92384L20.209 3.77818C20.0997 3.62342 20.1179 3.35032 20.0724 3.17735V2.96796C20.0724 2.8132 20.1452 2.67667 20.0724 2.53101C19.9995 2.38536 19.9813 1.95747 19.954 1.79361C19.9513 1.66077 19.9298 1.529 19.8902 1.40217C19.8412 1.23461 19.8016 1.06441 19.7719 0.892374L19.5624 0.673899L19.4804 0.582859C17.9597 0.915865 16.4746 1.39449 15.0456 2.01211L15.1094 2.09404C15.2046 2.21891 15.2813 2.3569 15.3371 2.5037C15.3553 2.65183 15.3553 2.80164 15.3371 2.94976C15.2975 3.25192 15.2975 3.55795 15.3371 3.86011V4.21513C15.4645 4.34258 15.5647 4.57929 15.7104 4.66122L16.0291 4.47003C16.1575 4.41133 16.2978 4.38328 16.4389 4.3881H16.8032C16.9124 4.3881 16.9307 4.47003 17.0581 4.44272C17.1856 4.41541 17.2676 4.33349 17.3951 4.28797C17.5226 4.24246 17.6683 4.20603 17.8049 4.18782C18.1054 4.18782 18.2238 4.00575 18.4605 3.93293C18.6973 3.8601 18.8066 3.79638 18.925 3.76907C18.9927 3.75825 19.0596 3.74305 19.1253 3.72356C19.2266 3.69566 19.3336 3.69566 19.4349 3.72356C19.535 3.74681 19.6305 3.7868 19.7172 3.84189L19.8902 3.93293L20.0086 3.97846C20.1634 3.97846 20.1634 4.16961 20.2818 4.24244L20.3091 4.1332ZM13.8436 4.78865V5.17101C13.8436 5.24384 13.9802 5.25295 14.1077 5.26205L14.2079 5.06177L14.5448 5.00715L14.39 4.56107L14.0622 4.66122C13.9893 4.66122 13.9074 4.6612 13.8618 4.78865H13.8436ZM15.6831 7.71997V7.60162L15.8015 7.5288C16.0565 7.58425 16.3205 7.58425 16.5755 7.5288C16.7941 7.5288 17.0946 7.5288 17.2858 7.43776C17.477 7.34673 17.9141 7.39226 18.1964 7.36495V7.51969C18.3054 7.45251 18.4215 7.39756 18.5425 7.35584C18.761 7.24659 18.8157 7.27392 19.098 7.31033C19.3803 7.34674 19.5169 7.47417 19.6079 7.42865C19.699 7.38313 19.7719 7.31033 19.8902 7.33764L20.0906 7.47418C20.3 7.40136 20.0906 7.18286 20.0268 7.06452V6.90066C20.0268 6.7459 19.9449 6.64575 20.0268 6.491L20.0906 6.20879V6.06313V5.81735C20.0724 5.67836 20.0724 5.53759 20.0906 5.3986C20.0906 5.24384 20.1998 4.8979 20.2181 4.76134H20.1543L20.0268 4.68853C19.8902 4.64301 19.8902 5.05265 19.7901 5.07086C19.651 5.12455 19.5009 5.1433 19.353 5.12548H19.2437L19.0251 5.18009C18.8612 5.18009 18.7246 5.22564 18.5607 5.23474L18.1418 5.29844C17.9291 5.35402 17.7132 5.3966 17.4953 5.42591C17.386 5.42591 17.213 5.42591 17.0581 5.42591C16.9033 5.42591 16.8214 5.31665 16.7212 5.32575C16.1839 5.32575 16.5573 5.44411 16.2204 5.3986C16.102 5.3986 15.9927 5.28026 15.8652 5.31667C15.7119 5.34743 15.5568 5.36869 15.4008 5.38037C15.4008 5.50782 15.3462 5.57155 15.3371 5.67169C15.3279 5.77183 15.3826 5.90838 15.3371 6.01763C15.3105 6.15599 15.2922 6.29582 15.2824 6.43638C15.2972 6.56949 15.2972 6.70382 15.2824 6.83693L15.3917 7.13736C15.4463 7.2375 15.4919 7.18287 15.5556 7.35584V7.53792V7.70177L15.6831 7.71997ZM46.9908 15.6946C47.091 15.9768 47.2093 16.2408 47.3004 16.523C47.2184 16.2681 47.1365 16.0132 47.0454 15.7674L46.9908 15.6946ZM36.9738 3.60521C37.4109 3.87832 37.8389 4.16963 38.2578 4.46094C37.8389 4.16963 37.4109 3.89652 36.9738 3.63252V3.60521ZM0.775994 20.9291C0.848845 20.4011 0.921694 19.8731 1.03097 19.3633C0.912588 19.8731 0.830614 20.4011 0.757763 20.9291H0.775994ZM23.897 10.3327L23.7696 10.5147L23.8697 10.7059L24.2977 10.6513L24.6438 10.7696V10.6331L24.3797 10.4692L23.897 10.3327ZM11.567 18.6168C11.394 18.6168 11.4395 18.6168 11.4577 18.7443C11.476 18.8717 11.6854 18.8535 11.7674 18.8353C11.8493 18.8171 11.9586 18.7443 12.1134 18.7534V18.544C12.1134 18.4165 12.0223 18.544 11.9131 18.4621H11.6763L11.567 18.6168ZM30.1713 23.1685L30.4627 23.0775C30.3644 22.9193 30.2449 22.7754 30.1076 22.6496L29.7433 22.9228L29.5885 22.8408L29.4519 23.0411L29.4974 23.296C29.4974 23.7057 29.8799 23.2141 29.9072 23.1685H30.1713ZM31.8196 34.2657L32.1656 34.3931L32.2111 34.6571V34.7846L32.1656 34.9302C32.0893 35.072 32.0042 35.2088 31.9106 35.3399C31.8196 35.4582 31.8014 35.613 31.6921 35.7768L31.5282 35.968C31.3946 36.0088 31.2519 36.0088 31.1184 35.968C30.9455 35.9587 30.7722 35.9587 30.5993 35.968H30.1167L29.8708 36.0135L29.6796 36.0864C29.5533 36.0622 29.4255 36.047 29.2971 36.0408C29.1643 35.997 29.0267 35.9695 28.8873 35.9589L28.5413 35.9043C28.5413 35.704 28.2499 35.7951 28.1406 35.8406C28.0313 35.8861 27.8219 35.8406 27.6488 35.8952L27.4758 36.0499L27.7126 36.0044L28.0222 36.405C28.0973 36.4908 28.1616 36.5856 28.2134 36.6872L28.3591 36.8875V36.9694C28.3591 37.0786 28.1952 37.2152 28.2043 37.3062L28.3501 37.4519C28.3928 37.4828 28.427 37.5241 28.4493 37.5719C28.4716 37.6197 28.4813 37.6724 28.4775 37.725C28.5011 37.8421 28.5475 37.9535 28.6141 38.0527C28.6441 38.1563 28.6837 38.2569 28.7325 38.3531C28.821 38.4611 28.8946 38.5805 28.9511 38.7082C29.0602 38.9712 29.2213 39.2096 29.4246 39.4091C29.7069 39.6822 29.9072 40.019 30.1713 40.3195C30.2624 40.4105 30.2624 40.4924 30.1713 40.6745C30.0803 40.8566 30.226 40.4924 30.5629 40.8748L30.7632 41.0659L30.8634 41.157L31.0455 41.2844H31.1366C31.2106 41.3699 31.2776 41.4613 31.3369 41.5575L31.4917 41.7305L31.5646 41.9035C31.6927 42.0155 31.837 42.1075 31.9926 42.1766C32.111 42.2676 32.1656 42.2767 32.2293 42.4133C32.2931 42.5498 32.1383 42.6408 32.0472 42.7592C31.9461 42.9099 31.8302 43.0502 31.7012 43.178C31.4668 43.3985 31.1719 43.5443 30.8543 43.5967C30.7302 43.6159 30.6031 43.5968 30.49 43.5421C30.3816 43.517 30.2833 43.4599 30.2077 43.3782C30.0802 43.2599 29.7069 43.2781 29.5612 43.178L29.3882 42.8958C29.2728 42.7352 29.1723 42.5646 29.0877 42.386C29.039 42.2214 28.9995 42.0542 28.9693 41.8853C28.9256 41.7488 28.8739 41.6151 28.8145 41.4847L28.5686 41.2844L28.4593 41.2116C28.3343 41.0742 28.252 40.9034 28.2226 40.72C28.1601 40.5458 28.0808 40.3781 27.9858 40.2193C27.9311 40.0008 27.9038 39.9462 27.8765 39.8188C27.8305 39.6541 27.794 39.4869 27.7672 39.3181C27.7494 39.1791 27.7494 39.0383 27.7672 38.8993C27.7672 38.7537 27.576 38.6808 27.5123 38.5079C27.4485 38.3349 26.9021 39.0996 26.8566 39.1724C26.5248 39.6411 26.1596 40.0853 25.7639 40.5015C25.6646 40.623 25.5734 40.7507 25.4906 40.8839C25.2994 41.1206 25.2812 41.0933 25.3085 41.2025C25.3359 41.3117 25.0353 41.5302 24.9261 41.7032C24.8332 41.901 24.763 42.1087 24.7166 42.3222L24.6256 42.659C24.5618 42.741 24.498 42.659 24.3706 42.8502C24.2431 43.0414 23.897 43.4875 23.7696 43.6695L23.5328 43.8425L23.3871 43.9791L23.2049 44.0701C23.1321 44.0701 23.1139 43.9062 23.0593 44.0701L22.6495 44.325C22.5215 44.4463 22.3695 44.5394 22.2033 44.5981C22.0576 44.5981 21.9118 44.5162 21.7843 44.4889C21.6569 44.4615 21.5567 44.4889 21.493 44.4889L21.3017 44.234L21.4565 44.0064C21.501 43.9027 21.5527 43.8023 21.6113 43.7059L21.8117 43.3691C21.9668 43.2392 22.1073 43.0926 22.2306 42.9321C22.3399 42.7592 22.4582 42.5498 22.5857 42.3677C22.7898 42.0519 23.0117 41.7479 23.2505 41.4574C23.5665 41.1843 23.8534 40.8792 24.1065 40.547C24.3524 40.2557 24.6164 39.9644 24.8532 39.6367C24.9388 39.5499 25.0123 39.4519 25.0718 39.3454C25.1173 39.2452 25.0718 39.0996 25.181 39.0086L25.3905 38.7719C25.4608 38.6729 25.5246 38.5695 25.5817 38.4624C25.7547 38.162 25.8822 37.9981 26.0735 37.7068C26.2841 37.3702 26.4668 37.0171 26.6198 36.6508C26.6534 36.5293 26.6687 36.4035 26.6654 36.2775L26.6198 36.0682V35.8679L26.4923 35.7677C26.3375 35.7677 26.3558 35.8224 26.1827 35.8133C26.0193 35.7949 25.8544 35.7949 25.691 35.8133C25.5211 35.8224 25.3509 35.8224 25.181 35.8133L24.9261 35.7677L24.6711 35.5584V35.7222L24.4252 35.8041C24.152 35.8041 23.9243 35.704 23.6694 35.8679L23.4781 35.7859C23.3902 35.5935 23.2735 35.4154 23.1321 35.2579L22.9955 35.1487C22.9227 35.1487 22.9409 35.1942 22.8771 35.085V35.0303L22.7952 34.5388L22.9136 34.3294C23.1503 34.3294 23.3507 34.475 23.5874 34.4932C23.8042 34.5288 24.0234 34.547 24.2431 34.5479H24.5436L24.6711 34.6025H24.8259C24.9409 34.5646 25.0465 34.5026 25.1355 34.4204C25.269 34.3776 25.4062 34.3471 25.5453 34.3294C25.8195 34.3255 26.0936 34.3438 26.3648 34.384H26.7655C26.9411 34.4024 27.1181 34.4024 27.2937 34.384C27.4033 34.3486 27.5162 34.3242 27.6306 34.3112C27.8879 34.3386 28.1474 34.3386 28.4047 34.3112C28.5616 34.2686 28.7118 34.2043 28.8509 34.12C28.8509 34.0017 28.8509 33.8742 28.8509 33.7559C28.8871 33.5053 28.8871 33.2509 28.8509 33.0003C28.8509 32.1992 28.8509 32.0899 28.8509 31.9443C28.8392 31.7746 28.8392 31.6042 28.8509 31.4345C28.8345 31.2612 28.8595 31.0865 28.9237 30.9247C28.9237 30.6243 28.9237 30.3056 28.9237 30.0143C28.9582 29.7606 28.9582 29.5034 28.9237 29.2496V28.8764C28.9237 28.7581 29.0057 27.2924 29.0057 27.1467C29.0057 27.0011 29.2243 25.9542 29.0057 25.845C28.7872 25.7357 28.9238 25.3898 28.942 25.2532C28.9756 25.0719 28.9534 24.8846 28.8782 24.7161C28.8373 24.2193 28.8373 23.72 28.8782 23.2232C28.8782 22.9592 29.0057 22.7862 28.8782 22.5495C28.7507 22.3128 28.8782 22.0397 28.8236 21.8849C28.8148 21.7455 28.8148 21.6056 28.8236 21.4662V21.2022V20.8199C28.7234 20.7652 28.7416 20.6378 28.7416 20.5467V20.3101C28.7609 20.1411 28.8038 19.9756 28.8691 19.8185C28.8691 19.6455 28.8236 19.5909 28.7416 19.4361L28.5959 19.2176C28.4866 19.1721 28.4684 19.0993 28.3774 19.072C28.2863 19.0447 28.2226 18.8899 28.1224 18.8171L27.9676 18.6805C27.7989 18.4936 27.6023 18.334 27.3848 18.2072C27.3848 18.0706 27.23 17.8794 27.2846 17.7429H27.3575L27.4212 17.6883L27.5487 17.6063L27.6398 17.5517H27.8401H28.004L28.2499 17.6518L28.3956 17.752L28.5868 17.8157C28.7155 17.8487 28.8464 17.8731 28.9784 17.8885C29.1057 17.8975 29.2335 17.8975 29.3608 17.8885C29.5469 17.883 29.7323 17.9147 29.9059 17.9819C30.0795 18.0492 30.2379 18.1505 30.3717 18.28L30.6084 18.5167C30.6455 18.564 30.6761 18.6161 30.6995 18.6714C30.7632 18.8262 30.8725 18.8717 30.9909 18.9719C31.1093 19.072 31.0728 19.1357 31.1002 19.245V19.4998C31.1002 19.7092 30.8452 19.7639 30.8088 19.9368C30.7723 20.1098 31 20.2099 30.9818 20.392C30.9636 20.5741 30.9818 20.656 30.918 20.7834C30.8769 20.9532 30.8586 21.1277 30.8634 21.3023C30.8362 21.5017 30.8362 21.7038 30.8634 21.9032C30.923 22.0959 30.923 22.3022 30.8634 22.4949C30.8222 22.7022 30.8222 22.9157 30.8634 23.123C30.8953 23.4591 30.8953 23.7974 30.8634 24.1335C30.8634 24.5341 30.8634 24.9437 30.8634 25.3352C30.8864 25.5165 30.8864 25.7 30.8634 25.8814C30.8179 26.0088 30.8634 25.9906 30.7906 26.0817C30.728 26.2565 30.7093 26.4441 30.7359 26.6279C30.7359 26.9829 30.6813 27.3379 30.7359 27.7112C30.7631 28.1902 30.7631 28.6705 30.7359 29.1495C30.7251 29.4091 30.7465 29.669 30.7997 29.9233C30.9181 30.4149 30.6266 31.0157 30.9545 31.4709C30.9545 31.653 30.9545 31.835 30.9545 32.0262C30.9545 32.2174 30.9545 32.2447 30.8179 32.4268C30.7438 32.5282 30.6769 32.6347 30.6175 32.7454L30.8179 32.9456C30.8538 33.0706 30.8538 33.2031 30.8179 33.328C30.7723 33.4555 30.6084 33.501 30.5083 33.592L30.399 33.7832C30.5154 33.8056 30.6285 33.8423 30.7359 33.8924C30.9037 33.9241 31.0662 33.9793 31.2186 34.0563C31.3278 34.1382 31.3551 34.2019 31.4735 34.2202C31.5919 34.2384 31.5919 34.2202 31.7831 34.2202L31.8196 34.2657ZM27.4667 19.2814C27.7308 19.4725 27.5942 19.5271 27.6944 19.7456L27.8219 19.9277C27.8679 20.403 27.8679 20.8817 27.8219 21.357C27.8219 21.5663 28.0131 21.8577 27.8674 22.0124C27.8674 22.0124 27.8128 23.0411 27.8219 23.4052L27.7764 23.5418C27.7451 23.6734 27.7436 23.8103 27.772 23.9426C27.8003 24.0749 27.8578 24.1992 27.9403 24.3065C28.1224 24.5341 28.004 24.9073 28.004 25.2168L27.8128 25.3261L27.7217 25.6993C27.6745 26.0646 27.6502 26.4325 27.6488 26.8008C27.6488 26.9829 27.6488 27.1559 27.6488 27.347V27.6201V28.0389C27.5031 28.4668 27.6944 28.6943 27.6944 29.1222C27.7126 29.2551 27.7126 29.3899 27.6944 29.5228C27.5989 30.0097 27.5989 30.5106 27.6944 30.9975C27.6944 31.216 27.831 31.4254 27.6944 31.6166C27.5578 31.8077 27.5214 31.7349 27.4576 31.8897C27.4299 31.9897 27.3869 32.0849 27.3301 32.1719C27.2794 32.236 27.2247 32.2968 27.1662 32.3539C27.1116 32.3994 26.9841 32.627 26.8657 32.7545C26.7473 32.8819 26.6107 33.1004 26.374 33.1459C26.1372 33.1914 26.201 33.0731 26.0735 33.0094C25.946 32.9457 25.9733 32.4996 25.946 32.2811C25.9322 32.0143 25.9322 31.7469 25.946 31.48C25.946 31.2069 25.8185 31.1523 25.8276 30.8519C25.8367 30.5514 25.8276 30.069 25.8913 29.6684C25.8913 29.4317 26.0188 29.2314 26.0643 29.0039C26.123 28.6299 26.123 28.249 26.0643 27.875C26.0643 27.5382 26.0643 27.2105 26.0643 26.8828V26.6279C26.0324 26.3831 26.0324 26.1352 26.0643 25.8905H26.2738L26.4468 25.5628V25.4717C26.5288 25.3534 26.6563 25.3079 26.6654 25.2805V25.1895C26.6654 25.1349 26.3557 24.9983 26.2283 24.9892C26.1008 24.9801 25.9369 24.9073 25.8003 24.9892L25.9004 25.1076L25.9642 25.4262L25.9004 25.5172L25.3996 25.6174C25.2266 25.6811 25.1355 25.6174 24.9898 25.7357L24.7986 25.8996C24.6255 25.8996 24.489 25.7721 24.3341 25.7448C24.1599 25.7369 23.9853 25.7522 23.8151 25.7903C23.7156 25.807 23.6141 25.807 23.5146 25.7903C23.296 25.7903 23.1503 25.9451 22.9226 25.8905C22.7249 25.8446 22.5401 25.7545 22.3823 25.6267C22.2246 25.499 22.0979 25.337 22.012 25.1531C21.9574 25.0347 21.9392 25.0621 21.8663 24.9619C21.7935 24.8618 21.8663 24.6433 21.8663 24.5067C22.0315 24.515 22.1971 24.4997 22.3581 24.4612C22.522 24.4066 22.5766 24.2883 22.7679 24.2883C22.9591 24.2883 23.378 24.3429 23.6785 24.3611C23.9201 24.3529 24.1607 24.3255 24.3979 24.2792L24.7621 24.2063C24.9676 24.1788 25.1759 24.1788 25.3814 24.2063C25.4724 24.2063 26.0097 24.4521 25.8003 24.1426C25.7365 24.0243 26.0279 23.8149 26.0188 23.6966L25.946 23.5782V23.4599C25.9109 23.0741 25.9262 22.6855 25.9915 22.3037H26.1645C26.0097 22.1854 26.1645 21.9942 26.0006 21.8394C25.8367 21.6847 25.8185 21.7484 25.8003 21.539C25.8096 21.4087 25.8096 21.2779 25.8003 21.1476C25.773 21.0304 25.7517 20.9119 25.7365 20.7925C25.7581 20.5394 25.687 20.287 25.5362 20.0825L25.2357 19.9004C25.0991 19.7912 25.0444 19.5727 24.9261 19.427C24.8077 19.2814 24.753 19.1448 24.4981 19.0265C24.5295 18.9457 24.5758 18.8716 24.6346 18.808L24.7166 18.635C24.7657 18.5618 24.8354 18.5048 24.9169 18.4712C25.0353 18.5622 25.2812 18.5258 25.4269 18.4712C25.5726 18.4165 25.6728 18.717 25.8913 18.8262C26.1099 18.9354 26.2738 18.9081 26.3831 19.1084V18.9627H26.6927C26.9545 19.0085 27.2032 19.1111 27.4212 19.2631L27.4667 19.2814ZM25.7821 16.9509C25.7821 17.2604 25.782 17.5517 25.7365 17.8612C25.5588 17.8674 25.3824 17.8289 25.2233 17.7494C25.0642 17.6699 24.9276 17.5519 24.8259 17.4061C24.9443 17.1239 25.2721 17.1876 25.436 16.9418C25.5422 16.9354 25.6486 16.9354 25.7547 16.9418L25.7821 16.9509ZM29.9346 44.8803L30.0165 44.6254C30.0165 44.6254 30.317 44.5617 30.317 44.416C30.317 44.416 30.6813 44.416 30.7632 44.6618C30.7632 44.6618 30.6722 45.0988 31.0182 44.8985H31.2094L31.2732 45.1261C31.2732 45.1261 31.0091 45.3081 31.0911 45.4629C31.0911 45.4629 30.4172 45.3901 30.2897 45.0624C30.2897 45.0624 30.1531 44.68 29.9346 44.9258V44.8803ZM31.1002 11.3432C31.1002 11.1702 31.1002 10.9972 31.1002 10.8151C31.2488 10.7961 31.3952 10.7626 31.5373 10.715H31.774C31.7194 10.9972 31.774 11.0245 32.0836 11.07C32.3933 11.1156 32.3933 11.416 32.4479 11.5798C32.2757 11.5634 32.1052 11.5329 31.938 11.4888C31.6557 11.4433 31.3187 11.3523 31.1002 11.3158V11.3432ZM12.7509 8.51196C12.7509 8.51196 12.6598 8.5757 12.7053 8.81239V9.0946H12.5141C12.5141 9.0946 12.2773 8.66672 12.0679 8.73955V8.42095L12.3137 8.26618L12.7509 8.51196ZM13.9893 32.5451C14.2671 32.504 14.5494 32.504 14.8271 32.5451L15.1822 32.6999C15.2912 32.7902 15.4186 32.8554 15.5556 32.891C15.7219 32.9312 15.886 32.9798 16.0474 33.0367C16.2022 33.0367 16.1566 33.1277 16.2295 33.237C16.261 33.2875 16.2777 33.3458 16.2777 33.4054C16.2777 33.4649 16.261 33.5233 16.2295 33.5738L16.1111 33.7377L15.9381 33.8742L15.6376 34.0654C15.1465 34.1016 14.6534 34.1016 14.1623 34.0654C13.8527 34.0654 13.5249 34.0108 13.2517 34.0654C12.9785 34.12 12.596 34.1473 12.2409 34.1655H11.3303C10.9931 34.1442 10.6548 34.178 10.3286 34.2657C10.1491 34.3389 9.95778 34.379 9.76397 34.384C9.50585 34.3859 9.24895 34.4196 8.99904 34.4841C8.81108 34.4977 8.62237 34.4977 8.43442 34.4841C8.20676 34.4841 7.98822 34.6116 7.76056 34.6116L7.55113 34.7846C7.14134 34.7846 6.74976 34.8392 6.34908 34.8756C5.9484 34.912 6.03036 34.8756 5.83913 34.6844C5.6479 34.4932 5.58414 34.5934 5.32006 34.4113C5.15951 34.3801 5.0055 34.3216 4.86474 34.2383L4.70992 34.1291L4.6462 33.9743C4.57335 33.8287 4.31836 33.7104 4.26372 33.5829L4.34567 33.2097C4.45323 33.1823 4.56595 33.1823 4.67352 33.2097C4.78065 33.255 4.89444 33.2827 5.01045 33.2916C5.34519 33.259 5.68294 33.2774 6.01215 33.3462C6.18517 33.419 6.17605 33.501 6.3946 33.5101H6.94099C7.12564 33.4975 7.30864 33.4671 7.48738 33.419C7.91538 33.3735 8.33426 33.4737 8.75315 33.419L9.2631 33.3553C9.58182 33.3098 9.89144 33.2825 10.1737 33.2552C10.299 33.2404 10.4182 33.1933 10.5198 33.1186L10.5744 32.8364C10.5016 32.6543 10.365 32.5087 10.283 32.3266C10.2382 32.1321 10.1477 31.9512 10.0189 31.7986C9.44524 31.1978 9.63647 31.6712 9.38149 30.9884C9.24489 30.6698 8.97171 30.7517 8.90797 30.4331C8.98082 30.2875 9.37237 30.2419 9.57271 30.0599C9.66781 30.081 9.75969 30.1147 9.84592 30.16C9.94609 30.16 10.0827 30.16 10.1829 30.2693C10.3023 30.3613 10.4095 30.4684 10.5016 30.5879C10.6092 30.6895 10.7284 30.7781 10.8567 30.8519C11.0231 30.9524 11.1965 31.0407 11.3758 31.1159L11.6399 31.2069C11.812 31.3472 11.9651 31.5094 12.0952 31.6894L12.2227 31.8897V32.1628C12.2723 32.3198 12.2723 32.4882 12.2227 32.6452C12.2227 32.709 12.0041 32.9183 12.2227 32.9183C12.4228 32.932 12.6236 32.932 12.8237 32.9183C12.9602 32.9265 13.097 32.9265 13.2335 32.9183C13.5053 32.9002 13.764 32.7948 13.9711 32.6179L13.9893 32.5451ZM33.2493 26.819C33.1673 26.637 33.5862 26.4549 33.6773 26.3001L33.8139 25.9269L34.0597 25.7995C34.1053 25.7995 34.2692 26.1545 34.2601 26.4094C34.251 26.6643 35.2527 26.7007 35.3802 26.9101C35.5077 27.1195 35.1525 27.3106 35.0159 27.3652C34.6881 27.4836 34.6243 27.3015 34.3329 27.2651C34.0848 27.2378 33.8344 27.2378 33.5862 27.2651C33.4527 27.1336 33.3392 26.9834 33.2493 26.819ZM35.4621 36.3686V36.4596V36.5779C35.362 36.5779 35.1434 36.669 35.1525 36.6326L35.0796 36.3959L34.9339 36.2957C35.0614 36.1592 35.0159 36.1592 35.1161 36.1592H35.1616H35.3984C35.5168 36.1592 35.4439 36.2684 35.4439 36.3412L35.4621 36.3686ZM46.9088 15.5398L46.9634 15.5945C45.2508 11.056 42.2069 7.14052 38.2305 4.36079C38.2305 4.69762 38.2305 5.02535 38.2305 5.33487L38.2851 5.63527C38.2851 5.80823 38.1394 5.84467 38.0847 6.02674C38.2851 6.12688 38.3306 6.16328 38.3215 6.39087C38.2991 6.56616 38.2991 6.74357 38.3215 6.91886C38.3349 7.08549 38.3349 7.25294 38.3215 7.41957C38.2081 7.47942 38.0891 7.5282 37.9663 7.56523C37.7478 7.56523 37.8206 7.56522 37.6841 7.44688C37.5475 7.32853 37.2379 7.61984 37.247 7.58342L37.4018 7.99309C37.4655 7.99309 37.9846 7.92024 38.0938 7.91113H38.2851V8.07502C38.4035 8.32991 38.8861 8.3299 39.1138 8.22976C39.3414 8.12962 39.305 8.04769 39.4325 8.00217H39.7239H39.988H40.0609L40.2339 8.0841C40.3654 8.14796 40.5072 8.18804 40.6527 8.20245H40.844C41.017 8.14783 40.9623 7.99307 41.2173 8.0841L41.4905 8.26618C41.6362 8.38453 41.8548 8.53929 41.9823 8.66674C42.1098 8.79418 42.0551 8.97624 42.1007 9.19472C41.9801 9.27509 41.8673 9.36654 41.7637 9.46784C41.5976 9.60907 41.4139 9.72837 41.2173 9.82287C41.0443 9.9048 40.926 9.82288 40.7438 9.89571C40.5875 9.94981 40.4175 9.94981 40.2612 9.89571C39.9287 9.80829 39.5834 9.78055 39.2413 9.81378C39.0643 9.81257 38.8877 9.79734 38.7131 9.76825C38.5973 9.72095 38.4848 9.66623 38.3761 9.60439H38.2851C38.2851 9.60439 38.1849 9.60439 38.0756 9.65901V9.99583C38.0895 10.1928 38.0895 10.3906 38.0756 10.5876L37.9117 10.9972C37.9663 11.1247 38.0028 11.1429 38.0483 11.243C38.0483 11.4888 37.9663 11.6163 38.1394 11.6891C38.1302 11.8316 38.1302 11.9745 38.1394 12.117C38.126 12.314 38.126 12.5117 38.1394 12.7087C38.1502 12.9572 38.1226 13.206 38.0574 13.4461C38.023 13.6266 37.9987 13.809 37.9846 13.9923C37.9846 14.2199 37.7114 14.2927 37.6021 14.5021C37.5361 14.6567 37.4783 14.8147 37.4291 14.9754C37.5597 14.9036 37.7085 14.8719 37.8571 14.8844C38.0048 14.9041 38.1509 14.9346 38.2942 14.9754C38.54 14.9819 38.7843 15.0155 39.0227 15.0756C39.2413 15.1757 39.4416 15.3669 39.6511 15.4761C39.8781 15.6091 40.089 15.7679 40.2794 15.9495C40.4251 16.077 40.762 16.1953 40.8166 16.3865C40.8713 16.5777 40.8166 16.523 40.8166 16.605C40.7963 16.7398 40.769 16.8735 40.7347 17.0055C40.6437 17.224 40.416 17.1329 40.1883 17.1694C39.9606 17.2058 39.6966 17.4698 39.3414 17.4334C38.7768 17.4334 38.2214 17.1603 37.6568 17.1329C37.3279 17.0508 36.9839 17.0508 36.655 17.1329C36.3636 17.2058 36.1178 17.1329 35.8173 17.224C35.6716 17.2695 35.708 17.1512 35.5714 17.0965C35.6511 17.0027 35.7602 16.9385 35.881 16.9145H36.0631L35.9903 16.7506L35.6898 16.5867C35.5623 16.5867 35.4894 16.6596 35.3619 16.7051L35.2618 16.9873L35.1525 17.0783H34.9339C34.8151 17.1024 34.6991 17.1391 34.5879 17.1876C34.3137 17.1917 34.0396 17.1735 33.7683 17.1329C33.2603 17.133 32.7527 17.1603 32.2476 17.2149C31.6739 17.2149 30.9727 17.3696 30.4263 17.4243C30.0525 17.4622 29.6884 17.567 29.3517 17.7338L28.5868 17.5608C28.4136 17.5394 28.2465 17.4837 28.0951 17.3969C27.9682 17.3252 27.8592 17.2256 27.7764 17.1056C27.707 16.9333 27.707 16.7408 27.7764 16.5685L28.177 16.4411L28.5231 16.168V15.8949L27.9585 16.0314C27.8947 15.9404 27.8674 15.9586 27.8947 15.8585V15.6764C27.8573 15.4868 27.8299 15.2954 27.8128 15.1029C27.8128 14.8571 27.8128 14.5476 27.8674 14.411C27.9221 14.2745 27.8674 14.1288 27.8674 13.9832C27.9494 13.6645 28.004 13.4005 28.086 13.0728C28.1679 12.7451 27.8583 12.4083 27.8492 12.1625C27.8401 11.9167 27.7308 12.0168 27.7672 11.7983C27.8037 11.5798 28.3318 11.5434 28.4866 11.5434C28.6415 11.5434 28.7962 11.5434 28.8691 11.6618C28.9419 11.7801 28.9602 11.8256 29.2151 11.8894C29.2942 11.907 29.3707 11.9345 29.4428 11.9713C29.543 12.0259 29.716 12.0805 29.7797 12.1716L29.8617 12.4174L30.062 12.6996C30.148 12.8313 30.1805 12.9908 30.1531 13.1456C30.1299 13.33 30.1299 13.5166 30.1531 13.7009C30.1721 13.8692 30.1437 14.0395 30.0711 14.1925L29.8981 14.3564V14.6659C29.9278 15.0487 29.9125 15.4337 29.8526 15.813H30.0894C30.5083 15.8858 30.9363 15.813 31.3551 15.8676C31.4553 15.8676 31.4007 15.8676 31.601 15.8038L31.7467 15.7401H32.0836C32.2231 15.7492 32.3631 15.7492 32.5026 15.7401H32.7757L32.8941 15.822H33.2311C33.6135 15.822 33.7683 15.6673 34.1417 15.64C34.4499 15.6276 34.7556 15.5787 35.0523 15.4943C35.371 15.376 35.7171 15.4943 36.0358 15.4943C36.3546 15.4943 36.0358 15.4306 36.391 15.376L36.6915 15.2759L36.5913 15.1393C36.5312 15.0089 36.4883 14.8712 36.4638 14.7296C36.4638 14.5294 36.391 14.3382 36.3636 14.1288C36.3475 13.9759 36.3232 13.8239 36.2908 13.6736C36.2589 13.5433 36.2099 13.4178 36.1451 13.3004L36.2908 12.5812C36.3679 12.3321 36.3679 12.0656 36.2908 11.8165C36.2633 11.6294 36.2633 11.4392 36.2908 11.2521C36.2908 11.0883 36.2908 10.715 36.2908 10.5602C36.2943 10.4288 36.3221 10.2992 36.3728 10.1779C36.4323 10.1069 36.4617 10.0154 36.4547 9.92302C36.4547 9.80467 36.391 9.67722 36.4001 9.54977C36.4001 8.8306 36.4001 8.09321 36.4001 7.37403C36.3773 7.19572 36.3773 7.01524 36.4001 6.83693L36.2908 6.90066L36.1815 6.80051C36.2908 6.72768 36.3272 6.57293 36.391 6.46369C36.4547 6.35444 36.5185 6.31804 36.5093 6.13597L36.4547 5.22563C36.4322 4.99252 36.4322 4.75776 36.4547 4.52464L36.6824 4.41541L36.3636 4.22424C36.324 3.92778 36.2044 3.64772 36.0176 3.41405C35.8446 3.23198 35.5714 3.07722 35.453 2.84053V2.74949C33.3024 1.64955 30.9961 0.885122 28.6141 0.482735V0.55555C28.7025 0.901475 28.7574 1.25511 28.7781 1.61155C28.7781 1.83914 28.687 2.09404 28.6779 2.35804C28.6688 2.62205 28.6779 2.98618 28.6779 3.26839C28.3774 3.39584 28.4229 2.94975 28.3227 2.67664C28.1588 2.23968 28.0131 2.26699 28.1042 1.7663C28.1826 1.50607 28.2465 1.24166 28.2954 0.974301V0.810446C28.2958 0.6365 28.311 0.462899 28.3409 0.291542C27.1542 0.102318 25.9547 0.0049469 24.753 0.000252287C23.5335 -0.00546038 22.3155 0.0858514 21.1105 0.273345C21.2776 0.311054 21.4375 0.375609 21.584 0.46451L21.7206 0.64659C21.7814 0.760472 21.8729 0.855061 21.9847 0.919683L22.2852 1.04714C22.4127 1.1837 22.3763 1.69348 22.3854 1.86645C22.4227 2.10162 22.447 2.33867 22.4582 2.57652C22.455 2.69287 22.4134 2.80489 22.3399 2.89515L22.2579 3.0772L22.1577 3.22286C22.1577 3.32299 22.1577 3.46866 22.1577 3.57791C22.1577 3.89653 22.0849 4.31529 22.0576 4.6066C22.0302 4.89791 22.1122 5.31666 22.0576 5.64438C22.0576 5.79914 22.0029 5.87197 21.9847 6.01763C21.9519 6.16091 21.9366 6.30764 21.9392 6.4546C21.9845 6.71055 21.9845 6.97243 21.9392 7.22837H22.0029C22.0029 7.22837 22.0575 7.67447 22.0666 7.79281C22.0666 8.17516 21.7753 8.42095 21.5203 8.64854C21.2653 8.87613 21.3837 8.90344 21.156 8.87613C20.9283 8.84881 20.8464 8.82148 20.6916 8.79417C20.5368 8.76686 20.0724 8.79419 19.8811 8.58481C19.5533 8.22067 18.8794 8.38453 18.4788 8.38453C18.2602 8.38453 18.1782 8.29349 17.987 8.3208C17.7958 8.34811 17.8504 8.42094 17.6865 8.41184L17.7958 8.36631H17.6228H17.6865C17.5226 8.36631 17.2403 8.43004 17.2585 8.43004C17.131 8.43004 17.0582 8.43004 16.9125 8.43004C16.84 8.42006 16.7664 8.42006 16.6939 8.43004L16.448 8.47557C16.1839 8.47557 16.1384 8.63031 15.9381 8.76686C15.8194 8.86049 15.6699 8.90601 15.5192 8.89432L15.3644 8.8397C15.2445 8.81207 15.12 8.81207 15.0001 8.8397C14.921 8.87351 14.8358 8.89093 14.7497 8.89093C14.6636 8.89093 14.5784 8.87351 14.4993 8.8397C14.308 8.73957 14.1532 8.63032 13.9529 8.54839C13.7526 8.46646 13.6251 8.48466 13.5795 8.3208V8.13872L13.534 7.91113L13.6159 7.75639L13.6888 7.61984C13.7708 7.41046 13.6888 7.35582 13.6888 7.14645C13.6819 7.03124 13.6819 6.91572 13.6888 6.80051C13.6888 6.57292 13.6888 6.50011 13.6888 6.27252V6.12686C13.6703 5.99704 13.6703 5.86524 13.6888 5.73542C13.6888 5.53514 13.8345 5.34396 13.8345 5.15279C13.8345 4.96161 13.6615 4.95251 13.6159 4.84327C13.5975 4.70124 13.5975 4.55744 13.6159 4.41541C13.6159 4.26975 13.6159 4.14231 13.5613 3.99666C13.5613 3.67804 13.5613 3.68715 13.5613 3.37763C13.5564 3.28362 13.5564 3.18943 13.5613 3.09542C13.5663 3.01661 13.5663 2.93754 13.5613 2.85872C13.5613 2.7859 13.6706 2.85874 13.6797 2.73129V2.64933C12.3972 3.31398 11.178 4.09403 10.0371 4.97982L9.48167 5.63527L10.0189 6.09955L9.87324 6.60026C9.53631 6.33626 8.9626 7.62893 8.9626 7.62893L8.37978 7.50149L8.16124 7.03721C8.13194 6.8745 8.15093 6.70677 8.21588 6.55473C4.5781 9.92494 2.07438 14.3393 1.04917 19.1903C1.54092 19.1903 1.95981 19.1175 2.49708 19.1903C2.96111 19.2175 3.42633 19.2175 3.89035 19.1903C4.2728 19.1814 4.65371 19.1387 5.02865 19.0629C5.19256 19.0629 7.14134 19.2267 7.32347 18.9809C7.32347 18.9081 7.5329 18.8899 7.65129 18.8535C7.76586 18.8347 7.88276 18.8347 7.99733 18.8535C8.2341 18.8535 8.50729 18.8535 8.76226 18.8535C9.01724 18.8535 9.25401 18.7625 9.50899 18.7534C9.81534 18.7462 10.1203 18.7096 10.4196 18.6441L10.6291 18.7898C10.8035 18.6017 10.9122 18.3621 10.9387 18.107C10.9387 17.8703 11.0753 17.6245 11.0935 17.3969C11.1113 17.1697 11.1113 16.9414 11.0935 16.7142C11.0935 16.4775 11.0935 16.614 11.0935 16.3136C11.0766 16.1867 11.0766 16.0582 11.0935 15.9313C11.0935 15.7674 11.0935 15.4488 11.0935 15.3032C11.0935 15.1575 10.884 15.203 10.6928 15.1393C10.5403 15.088 10.3801 15.0634 10.2193 15.0665C9.57273 15.0665 9.04457 15.3487 8.39801 15.2394C8.19455 15.1899 7.9875 15.1564 7.77879 15.1393C7.66041 15.1393 7.55112 15.1393 7.43274 15.1393L7.1049 15.2576C6.91366 15.2576 6.87724 15.1393 6.74065 15.0118C6.67698 14.9587 6.60222 14.9205 6.52186 14.9C6.44149 14.8795 6.35756 14.8773 6.27622 14.8935L5.95752 15.3214C5.76267 15.4038 5.55734 15.459 5.34738 15.4852C5.16525 15.4852 5.06508 15.4033 4.86474 15.3942C4.6644 15.3851 4.50048 15.3942 4.34567 15.3396C4.19086 15.2849 4.12713 15.1484 4.01786 15.0756C3.90858 15.0028 3.76288 14.9663 3.64449 14.8844C3.52611 14.8025 3.14365 14.4292 3.22561 14.2199C3.30756 14.0105 3.61717 13.9285 3.72645 13.9285C3.83572 13.9285 4.07249 14.0378 4.2364 14.0469C4.6352 14.1018 5.03965 14.1018 5.43845 14.0469C5.92072 13.9394 6.41112 13.8724 6.90456 13.8466C7.2506 13.8466 7.59665 13.7556 7.93358 13.7283C8.27052 13.7009 8.32516 13.6736 8.5346 13.6281C8.89886 13.5462 9.27221 13.528 9.63647 13.4552C9.96593 13.3586 10.3048 13.2975 10.6473 13.2731C10.7748 13.2731 10.884 13.2731 10.9842 13.2276C11.0844 13.1821 11.0662 13.0273 11.1937 12.9727C11.3925 12.9374 11.5959 12.9374 11.7947 12.9727C12.0081 13.0226 12.218 13.0864 12.423 13.1638C12.6216 13.1865 12.8041 13.2842 12.933 13.4369C13.0652 13.6224 13.1839 13.8171 13.2881 14.0196C13.361 14.1561 13.4976 14.2563 13.5522 14.3928C13.6119 14.57 13.6119 14.7618 13.5522 14.939C13.4976 15.0482 13.4247 15.0756 13.3974 15.1939V15.4943C13.4246 15.7972 13.4246 16.1018 13.3974 16.4047C13.3082 16.9358 13.1679 17.4572 12.9785 17.9614C12.9224 18.087 12.8797 18.2182 12.851 18.3528C12.851 18.5076 12.6325 18.5258 12.5141 18.6441C12.5141 18.7352 13.1971 18.5986 13.3428 18.5986C13.6613 18.6152 13.9804 18.6152 14.2989 18.5986C14.6723 18.544 15.0001 18.4074 15.3735 18.3619L15.9563 18.2891C16.3752 18.2891 16.5664 18.1981 16.785 18.1981C16.9554 18.2212 17.1212 18.2704 17.2767 18.3437C17.1948 18.2163 17.1219 18.1161 17.1128 18.0888C17.0685 18.008 17.0465 17.9169 17.0491 17.8248C17.0491 17.6063 16.9762 17.3969 16.9762 17.1329C17.0102 16.9295 17.0683 16.7309 17.1492 16.5412C17.2039 16.2954 17.1492 16.0314 17.1492 15.7765C17.1492 15.5216 17.2585 15.3487 17.3131 15.1211C17.3368 14.9494 17.3702 14.7792 17.4133 14.6113C17.5136 14.2541 17.5136 13.8761 17.4133 13.5189L17.2403 12.7269C17.2403 12.6176 17.2403 12.7269 17.1856 12.6358L17.0399 12.5084L16.9216 12.2899L16.7759 12.0714L16.9125 11.7346C16.8305 11.6527 16.7121 11.7346 16.5209 11.7346C16.2895 11.7778 16.055 11.8021 15.8197 11.8074C15.6194 11.8074 15.2551 11.8074 15.0548 11.8074L13.0878 11.9258C12.5959 11.9487 12.1077 12.022 11.6308 12.1443C11.4644 12.2038 11.2883 12.2316 11.1117 12.2262C10.9744 12.1899 10.8301 12.1899 10.6928 12.2262C10.1325 12.2415 9.57607 12.324 9.03544 12.472C8.89757 12.5411 8.74095 12.5635 8.58924 12.5357C8.37979 12.5357 8.10659 12.4265 7.89715 12.3992C7.72424 12.4079 7.55102 12.4079 7.37811 12.3992C7.26883 12.3992 7.26883 12.3172 7.17776 12.2262C7.0867 12.1352 6.93189 12.0441 6.83172 11.9167C6.73155 11.7892 6.68602 11.6436 6.57674 11.5343C6.46747 11.4251 6.33998 11.416 6.29445 11.2521L6.21249 10.8698C6.28534 10.7514 6.46745 10.7332 6.62226 10.7059C6.77707 10.6786 6.86815 10.797 7.00474 10.8334C7.14134 10.8698 7.31434 10.7787 7.46915 10.8334C7.58734 10.8428 7.70612 10.8428 7.82431 10.8334C8.08518 10.847 8.34657 10.847 8.60744 10.8334C8.94863 10.8242 9.2891 10.7968 9.62738 10.7514C9.91878 10.7514 10.538 10.7514 10.8112 10.7514H11.6399C12.0041 10.7514 12.3502 10.6604 12.7144 10.6604C13.7584 10.7122 14.8038 10.5953 15.8106 10.3145C15.9878 10.2782 16.1706 10.2782 16.3478 10.3145H16.6119L16.8396 10.2234H17.7502C17.9324 10.2234 18.0599 10.1415 18.2056 10.1415C18.3513 10.1415 18.5425 10.2963 18.7064 10.269L18.8885 10.1142C18.9939 10.0878 19.0973 10.0543 19.1981 10.0141C19.338 9.96154 19.4859 9.93379 19.6353 9.9321C19.9904 9.9321 20.3547 9.9321 20.7189 9.9321C21.0832 9.9321 21.3472 9.84109 21.6751 9.8684C22.0029 9.89571 22.1031 9.75915 22.3672 9.72274C22.6313 9.68633 22.7952 9.51335 23.0137 9.54066C23.2323 9.56797 23.5783 9.6408 23.8151 9.65901C24.0235 9.68922 24.2192 9.77757 24.3797 9.91391C24.5709 10.014 24.5163 10.3236 24.7439 10.3053C24.9716 10.2871 24.917 10.1688 25.0444 10.187H25.1173C25.2545 9.87158 25.4158 9.56723 25.5999 9.27665C25.7854 9.11688 25.9868 8.97657 26.2009 8.8579C26.4293 8.65028 26.623 8.40748 26.7746 8.13872C26.9164 7.85224 27.104 7.59088 27.3301 7.36495C27.434 7.25796 27.5285 7.14222 27.6124 7.01901C27.749 6.82784 27.8401 6.61846 27.9585 6.42729C28.0555 6.33508 28.1195 6.21352 28.1406 6.08136L28.2681 5.79004L28.4775 5.53514C28.9258 4.95989 29.2681 4.30946 29.4884 3.6143C29.5702 3.37532 29.5702 3.1159 29.4884 2.87692C29.4693 2.66239 29.4909 2.44621 29.5521 2.2397C29.6067 2.13045 29.8071 2.08492 29.8981 2.02119L30.4809 2.5037C30.6496 2.69327 30.8538 2.84792 31.082 2.95888C31.082 3.09543 31.2277 3.22286 31.2368 3.36852C31.2459 3.51417 31.1457 3.58699 31.1184 3.73265C31.0911 3.8783 31.2368 4.00576 31.3187 4.11501C31.4077 4.24163 31.4726 4.38359 31.51 4.53376C31.6871 4.89646 31.904 5.2384 32.1565 5.55334C32.3463 5.88821 32.5823 6.19467 32.8577 6.46369L33.058 6.62757V6.81873C33.14 6.95529 33.3039 7.00989 33.4041 7.11914L33.5862 7.34672L33.741 7.547C33.9748 7.79998 34.2308 8.03153 34.5059 8.23887C34.7058 8.39716 34.8703 8.59563 34.9886 8.82148C35.0432 8.99444 35.28 9.01267 35.3437 9.03998C35.4572 9.09439 35.5518 9.18162 35.6151 9.29038C35.6784 9.39913 35.7076 9.52437 35.6989 9.6499C35.4115 10.0329 35.0712 10.3731 34.6881 10.6604C34.4937 10.7476 34.2817 10.7881 34.0689 10.7787C33.8776 10.7787 33.8685 10.5694 33.6773 10.5694C33.4944 10.5807 33.3112 10.5528 33.14 10.4874C33.0516 10.4856 32.9659 10.457 32.8941 10.4055L32.6756 10.1324C32.5754 10.014 32.4752 9.91391 32.366 9.80467C32.2567 9.69543 32.1656 9.63169 32.1838 9.42231C32.2122 9.29337 32.2122 9.15981 32.1838 9.03087C32.1222 8.89413 32.0675 8.75437 32.0199 8.61212C31.9861 8.42532 31.9182 8.24633 31.8196 8.0841C31.7103 7.93845 31.5828 7.96577 31.4462 7.86563C31.3096 7.76549 31.1275 7.33764 31.0364 7.08274C30.9471 6.69342 30.8158 6.31492 30.6448 5.95389C30.5643 5.78685 30.4295 5.65207 30.2624 5.57156C30.0802 5.49874 30.0256 5.57156 29.8799 5.73542C29.7638 5.90185 29.6632 6.07858 29.5794 6.26341C29.4519 6.47279 29.3517 6.70039 29.2151 6.90066C28.9972 7.38311 28.7188 7.83586 28.3865 8.24798L28.1588 8.51196L27.9949 8.73047C27.8718 9.09143 27.7068 9.43667 27.5031 9.75913C27.3697 9.91373 27.2479 10.0781 27.1389 10.2507C27.0479 10.4608 26.9146 10.6498 26.7473 10.8061H26.6381L26.8111 10.9881L27.0478 11.2339L27.1298 11.3522L27.0661 11.6162C26.8202 11.7255 26.6107 11.7255 26.4195 11.9349C26.376 11.9924 26.3213 12.0407 26.2587 12.0766C26.1961 12.1126 26.1269 12.1356 26.0552 12.1443C25.937 12.1537 25.8183 12.1537 25.7001 12.1443C25.3996 12.1443 25.1264 12.1443 24.835 12.1443C24.6418 12.1067 24.4549 12.0423 24.2795 11.9531C23.8287 11.8096 23.3593 11.7329 22.8862 11.7255C22.4099 11.6561 21.9272 11.6408 21.4474 11.68L21.5203 11.7892C21.6354 11.9181 21.7884 12.0074 21.9574 12.0441C21.9574 12.1534 21.9574 12.2808 21.9574 12.3719C21.8362 12.3615 21.7143 12.3615 21.5931 12.3719C21.4201 12.3719 21.3655 12.2717 21.2289 12.2262C21.0923 12.1807 20.9739 12.2262 20.8555 12.2262C20.7371 12.2262 20.6916 11.9531 20.5095 11.8985C20.6825 11.7892 20.9648 11.8985 21.1287 11.771V11.6618H21.0012L20.6916 11.5616C20.4366 11.507 20.1361 11.5616 19.872 11.5616C19.608 11.5616 18.7702 11.4069 18.9614 11.5616C19.0555 11.6165 19.132 11.697 19.1819 11.7937C19.2319 11.8904 19.2533 11.9994 19.2437 12.1078C19.1708 12.4356 19.1253 12.2535 19.1799 12.6085C19.2047 12.7901 19.1627 12.9745 19.0616 13.1274L18.6154 13.0455L18.5516 13.182L18.3057 13.2913V13.5826L18.5152 13.7738L18.7155 13.6099L18.7975 13.5553H18.925V13.8193C18.906 14.0212 18.9246 14.2249 18.9796 14.4201L19.0889 14.675C19.1211 14.9533 19.1211 15.2343 19.0889 15.5125C19.1069 15.6241 19.1069 15.7378 19.0889 15.8494C19.0889 15.9677 18.9978 16.0314 18.9978 16.168C18.9978 16.5503 19.2437 17.0783 18.9523 17.3878C18.8157 17.5426 18.7428 17.7156 18.6062 17.9067C18.4696 18.0979 18.5607 18.016 18.4423 18.1343C18.2819 18.2963 18.1299 18.4665 17.987 18.6441C18.2065 18.7641 18.4429 18.8501 18.6882 18.899C18.9887 18.899 19.0616 18.899 19.271 19.1448C19.3993 19.2593 19.507 19.3947 19.5897 19.5454V19.7821L19.4076 20.0187C19.1799 20.2099 19.2164 20.4193 18.9158 20.4375C18.697 20.4375 18.4804 20.4808 18.2784 20.565C18.0627 20.6409 17.8552 20.7385 17.6592 20.8563C17.5681 20.92 17.3769 20.8563 17.2676 20.8563C17.0575 20.8484 16.8559 20.7717 16.6939 20.6378C16.4662 20.4921 16.275 20.4557 16.0474 20.3283C15.863 20.2246 15.6674 20.1422 15.4645 20.0825C15.0194 19.9837 14.5632 19.9439 14.1077 19.9641C13.593 19.8798 13.072 19.8402 12.5505 19.8458H12.3593C12.2409 19.8913 12.168 19.9368 12.0679 19.9823C11.9406 20.0323 11.8032 20.051 11.6672 20.0369C11.5206 20.0412 11.3744 20.0564 11.2301 20.0825C11.0935 20.0825 11.1208 19.9368 10.8385 19.9277H10.2466C10.2466 20.0643 10.5835 20.1553 10.6017 20.1826V20.4284C10.5881 20.5524 10.5881 20.6776 10.6017 20.8016C10.6017 20.9018 10.6017 20.9928 10.6017 21.184C10.6017 21.3752 10.5471 21.5845 10.6017 21.7848C10.645 21.9604 10.6604 22.1416 10.6473 22.3219C10.6506 22.5426 10.6261 22.7628 10.5744 22.9774C10.5335 23.1439 10.4372 23.2916 10.3012 23.3961L10.2011 23.4781H10.2921C10.5497 23.4578 10.8054 23.4183 11.0571 23.3597L11.4395 23.3051C11.5488 23.3051 11.7036 23.1139 12.0406 23.1321C12.2397 23.1893 12.4441 23.2259 12.6507 23.2414C12.8108 23.2303 12.971 23.2617 13.1151 23.3324C13.7343 23.5873 13.534 23.3324 13.8072 23.6328C14.0804 23.9332 14.4355 24.3338 14.3262 24.6706C14.1943 24.912 14.0846 25.165 13.9984 25.4262C13.9889 25.5884 13.9676 25.7496 13.9347 25.9087C13.8875 26.1522 13.8875 26.4025 13.9347 26.6461C13.9764 26.8095 13.9918 26.9785 13.9802 27.1467C13.9802 27.5564 13.9802 27.6565 13.9802 27.8841C13.9639 28.1284 13.9335 28.3716 13.8891 28.6124C13.8278 28.85 13.8032 29.0956 13.8163 29.3407C13.8163 29.4772 13.9347 29.805 13.8163 29.9415L13.5431 30.1145L13.2426 30.3148C13.0696 30.4604 12.9512 30.6334 12.7691 30.7608C12.5869 30.8883 12.3957 30.9247 12.2227 31.0521C12.0496 31.1796 12.0588 31.2342 11.8129 31.1068C11.6325 30.7296 11.548 30.3137 11.567 29.896C11.5656 29.7593 11.607 29.6256 11.6854 29.5137C11.7792 29.2189 11.8314 28.9125 11.8402 28.6033V28.3393H11.9768C12.0952 28.3393 12.168 28.3393 12.2682 28.3939L12.4686 28.5942L12.5414 28.5123L12.3957 28.2574L12.2955 27.957C12.2409 27.8841 12.0132 27.8932 11.8584 27.8841C11.8584 27.4836 12.0041 27.347 12.0223 26.8645C12.0223 26.7189 12.0223 26.6643 12.0223 26.5186C11.9604 26.1236 11.9209 25.7255 11.904 25.3261H11.7036C11.5012 25.0192 11.213 24.7787 10.8749 24.6342C10.7475 24.9528 10.3012 24.88 9.96431 24.971C9.76251 25.0068 9.55597 25.0068 9.35417 24.971C9.14191 24.9574 8.929 24.9574 8.71674 24.971C8.55665 24.9486 8.3942 24.9486 8.23411 24.971C8.07019 24.971 7.95179 25.1076 7.78788 25.144C7.65259 25.1707 7.51339 25.1707 7.37811 25.144C6.57962 25.1647 5.78298 25.2316 4.99222 25.3443C4.67349 25.3443 4.34567 25.3443 4.02694 25.3443C3.8869 25.3562 3.7491 25.3868 3.61717 25.4353L3.41683 25.5446H3.00704L2.74294 25.4353C2.61631 25.3856 2.4944 25.3247 2.37869 25.2532L2.03265 25.1167H1.98713L1.80499 24.8345L1.70483 24.7525V24.4976V24.2245C1.82322 24.2245 1.79589 24.2246 1.89606 24.179L2.15104 24.0607C2.36048 24.0152 2.58816 24.1153 2.79761 24.0607C3.20084 24.0328 3.60551 24.0328 4.00874 24.0607C4.40942 24.0607 4.8101 24.0607 5.20167 24.0607C5.4695 24.1108 5.74432 24.1108 6.01215 24.0607C6.14875 24.0607 6.22157 23.9059 6.35817 23.8877C6.49477 23.8695 6.70423 23.8877 6.85904 23.8877C7.10015 23.8856 7.34071 23.8642 7.57845 23.824C7.84829 23.8057 8.11905 23.8057 8.3889 23.824C8.47659 23.8349 8.5653 23.8349 8.65299 23.824C8.58925 23.7147 8.65299 23.6419 8.65299 23.5054C8.65299 23.3688 8.65298 23.3051 8.55281 23.1867C8.45264 23.0684 8.32516 22.9865 8.33426 22.7771C8.45296 22.3928 8.52333 21.9953 8.54372 21.5936C8.54372 21.3751 8.54372 21.1294 8.54372 20.9109C8.56639 20.7508 8.56639 20.5884 8.54372 20.4284C8.52315 20.362 8.48669 20.3015 8.4375 20.2524C8.38832 20.2032 8.32788 20.1667 8.26142 20.1462H7.99733C7.75484 20.1644 7.5113 20.1644 7.26881 20.1462C6.9697 20.2159 6.66493 20.2586 6.35817 20.2736C6.31264 20.128 5.97572 20.0825 5.83913 20.0734C5.70253 20.0643 5.61146 20.1826 5.45665 20.301C5.30184 20.4193 5.30184 20.3647 5.17435 20.4102C5.04114 20.4238 4.90689 20.4238 4.77367 20.4102C4.57115 20.4334 4.37037 20.4698 4.17265 20.5194C3.47769 20.634 2.77179 20.6676 2.06908 20.6196H1.85054L1.72304 20.4921C1.61376 20.4921 1.48628 20.6469 1.3679 20.6833C1.24952 20.7197 0.949007 20.7652 0.739561 20.7925C0.593261 21.8273 0.511157 22.8701 0.493699 23.915C0.481605 26.3836 0.847019 28.8396 1.57733 31.1978L2.21479 30.7972L3.48058 31.6166C3.48058 31.6166 3.18005 31.8624 3.31665 32.627L3.41683 33.5374H2.77029C2.59263 33.2042 2.36882 32.8977 2.10551 32.627C3.60507 36.4684 6.06279 39.8624 9.2449 42.4861H9.43612C9.56649 42.4952 9.69735 42.4952 9.82772 42.4861L10.1009 42.3677C10.3195 42.3677 10.8021 42.3678 10.9205 42.1584V41.949V41.5939C10.7566 40.8839 10.5835 40.9203 10.62 40.7473C10.6479 40.5874 10.7358 40.4441 10.8658 40.3468C10.7474 40.3468 10.5835 40.3468 10.4743 40.2831C10.365 40.2193 10.0827 40.283 9.88236 40.2375C9.68202 40.192 9.54542 40.0828 9.39972 40.0555H9.1174C8.98991 40.0555 9.02633 40.1283 8.86242 40.0555L8.62567 39.8734C8.52693 39.814 8.44286 39.7331 8.37978 39.6367L8.21588 39.3636C8.14303 39.2726 8.10662 39.2088 8.03377 39.0996C7.97057 39.004 7.9215 38.8997 7.88806 38.7901C7.88806 38.9175 7.57842 37.989 7.69681 38.1528C7.53289 37.9161 7.47828 37.8524 7.55113 37.5611C7.5924 37.2095 7.69406 36.8677 7.85163 36.5506C8.04286 36.2411 8.20678 35.8679 8.57104 35.7131L8.93529 35.613V35.3763L9.12651 35.2762C9.31775 35.2033 9.46345 35.0759 9.64558 34.9939C10.0179 34.8607 10.4022 34.7632 10.793 34.7026C11.1204 34.5841 11.4648 34.5195 11.8129 34.5114C12.0861 34.5114 12.1134 34.6662 12.3046 34.7936C12.4959 34.9211 12.6689 34.8756 12.8601 34.9211C13.0514 34.9666 13.3883 35.0941 13.6524 35.1851C13.7766 35.2409 13.8955 35.308 14.0075 35.3854C14.1253 35.4519 14.2352 35.5312 14.3354 35.6221C14.4709 35.7184 14.5907 35.8351 14.6905 35.968C14.7925 36.1756 14.8837 36.3883 14.9637 36.6053V36.9057C14.9732 37.0572 14.9732 37.2093 14.9637 37.3608C14.9899 37.5145 14.9899 37.6715 14.9637 37.8251C14.9637 38.0254 14.8635 37.9799 14.736 38.1073C14.6085 38.2348 14.5448 38.5534 14.4173 38.7719C14.2972 39.058 14.106 39.3087 13.8618 39.5001C13.7343 39.5639 13.6159 39.6185 13.4794 39.7004C13.3428 39.7824 13.188 39.8643 13.0423 39.928C12.8664 40.0111 12.6961 40.1054 12.5323 40.2102L12.3593 40.3195L12.2864 40.365L12.0406 40.4833V40.6472L12.2591 40.8657C12.4503 41.2935 12.2591 41.6668 12.3593 41.776C12.4595 41.8853 12.3593 42.3222 12.4776 42.3222C12.596 42.3222 12.3957 42.1675 12.5414 42.1128C12.6871 42.0582 13.452 41.9945 13.707 41.9399C14.2452 41.7819 14.7926 41.6573 15.3462 41.5666C15.516 41.5093 15.6958 41.4876 15.8743 41.5029C16.0838 41.5029 16.2659 41.6759 16.4754 41.7123C16.5964 41.7261 16.7186 41.7261 16.8396 41.7123V41.6577C16.6484 41.3026 16.4754 41.2207 16.3934 40.9385C16.3574 40.6897 16.3856 40.4359 16.4754 40.2011C16.6575 40.1283 16.8396 40.0281 17.0126 39.9462C17.0126 39.7186 17.0126 39.4364 17.0126 39.1997C17.1856 39.1997 17.304 39.1997 17.4861 39.1997C17.4861 39.4182 17.2858 39.6367 17.2494 39.8643C17.2308 40.1674 17.2308 40.4715 17.2494 40.7746C17.1977 41.0235 17.1673 41.2762 17.1583 41.5302V41.6577C17.227 41.6451 17.2975 41.6475 17.3651 41.6648C17.4327 41.6821 17.4957 41.7138 17.5499 41.7578C17.6304 41.8224 17.7065 41.8923 17.7776 41.9672C17.9142 42.0855 18.0143 42.2221 18.16 42.3495C18.3057 42.477 18.2511 42.4132 18.4332 42.395C18.5167 42.3722 18.6047 42.3722 18.6882 42.395C18.5607 42.0673 18.3786 42.1219 18.0234 41.9763C18.0234 41.8124 17.9233 41.6759 17.9233 41.512C17.9233 41.3481 17.9779 41.3572 18.0325 41.2298C18.1582 40.8385 18.1801 40.4214 18.0963 40.0191C18.0292 39.5545 18.0539 39.0813 18.1691 38.6262C18.2394 38.4596 18.2584 38.2757 18.2238 38.0982C18.1642 37.9194 18.1486 37.729 18.1782 37.5429C18.21 37.2038 18.21 36.8624 18.1782 36.5233C18.1782 35.9953 18.1782 35.4491 18.1782 34.9211C18.1782 34.5479 18.1783 34.1564 18.2511 33.7741C18.2782 33.5926 18.2561 33.4071 18.1874 33.237C18.069 32.9092 18.1874 32.9001 18.415 32.709C18.1418 32.5269 18.242 32.3175 18.1236 32.0535C18.0291 31.8382 17.9795 31.6059 17.9779 31.3708C17.9779 31.1068 17.8868 30.8519 17.8868 30.6243C17.8868 30.3967 17.8868 30.5332 17.8413 30.424C17.6495 30.0504 17.36 29.7358 17.0035 29.5137C16.9033 29.5137 16.9398 29.4226 16.9307 29.3316V29.2588L16.7121 29.4955C16.5275 29.6663 16.3681 29.8624 16.2386 30.0781L15.9927 30.3785C15.8485 30.4843 15.6963 30.5787 15.5374 30.6607C15.2263 30.9236 14.8678 31.1245 14.4811 31.2524C14.3445 31.2524 14.1987 31.1432 14.0713 31.125C13.9438 31.1067 13.789 31.2524 13.6979 31.125L13.5886 30.7608C13.5886 30.7608 13.707 30.597 13.8163 30.4786C13.9387 30.3117 14.0726 30.1535 14.217 30.0052C14.3037 29.8296 14.401 29.6594 14.5084 29.4955C14.6406 29.3142 14.7835 29.1409 14.9364 28.9766C15.14 28.732 15.3656 28.5065 15.6102 28.3029C15.7377 28.1755 15.9016 28.0935 15.9563 27.9205C16.0228 27.7513 16.1218 27.5966 16.2477 27.4654C16.6681 27.0116 17.0663 26.5377 17.4406 26.0452C17.5129 25.9241 17.6089 25.8188 17.7229 25.7357L17.9051 25.4899C17.9688 25.3807 18.0507 25.2805 18.1145 25.1804C18.2181 24.9887 18.3501 24.8137 18.5061 24.6615C18.6469 24.5253 18.7666 24.3688 18.8612 24.1972L18.9523 23.9423V23.6601C18.9872 23.5099 19.0145 23.358 19.0342 23.205C19.0745 23.0714 19.0745 22.9289 19.0342 22.7953C19.0179 22.6984 18.9904 22.6037 18.9523 22.5131C18.9523 22.4221 19.0889 22.3947 18.9523 22.3401C18.8157 22.2855 18.7611 22.4403 18.588 22.4312H18.0963C17.9335 22.412 17.7722 22.3816 17.6136 22.3401C17.3619 22.327 17.1096 22.327 16.8578 22.3401C16.5977 22.3025 16.3324 22.3504 16.102 22.4767L15.9198 22.3947C15.8236 22.2126 15.7076 22.0416 15.5738 21.8849L15.4463 21.7575L15.3279 21.7029V21.6483L15.246 21.1294L15.3644 20.92C15.501 20.8472 15.8288 21.0657 15.9745 21.0748C16.2087 21.1185 16.4466 21.1399 16.6848 21.1385C16.7898 21.1137 16.8962 21.0954 17.0035 21.0838L17.131 21.1294L17.2676 21.184C17.4133 21.184 17.468 21.0656 17.5681 21.011C17.6973 20.9687 17.833 20.9502 17.9688 20.9564C18.2359 20.9065 18.5079 20.8882 18.7793 20.9018C18.9067 20.9018 19.0524 20.9655 19.1981 20.9655C19.3438 20.9655 19.3165 20.8745 19.444 20.8381C19.6462 20.8063 19.852 20.8063 20.0541 20.8381C20.3136 20.8791 20.5779 20.8791 20.8373 20.8381C21.1014 20.7743 21.3472 20.6105 21.6113 20.5194C21.8754 20.4284 21.9392 20.31 22.1304 20.3192C22.323 20.311 22.5133 20.2742 22.695 20.2099C22.9409 20.1644 23.0592 20.3192 23.2414 20.3829C23.4235 20.4466 23.9243 20.6196 23.6603 20.5377C23.7695 20.5832 23.7969 20.6924 23.9152 20.6924C24.0336 20.6924 24.0245 20.6924 24.2158 20.6924L24.5527 20.8107L24.5982 21.0383V21.2113C24.5982 21.3205 24.5982 21.2841 24.5527 21.3752C24.4766 21.5032 24.4183 21.641 24.3797 21.7848C24.3226 21.9582 24.2147 22.1104 24.0701 22.2218L23.9152 22.4312C23.8333 22.5131 23.6238 22.4767 23.5055 22.4312C23.1782 22.4038 22.8492 22.4038 22.522 22.4312L22.267 22.4858L22.0758 22.5404C21.9574 22.5404 21.8208 22.5404 21.6933 22.4949C21.5597 22.4545 21.4224 22.4271 21.2835 22.413H20.9375C20.9375 22.2127 20.6552 22.2946 20.5459 22.3401C20.4366 22.3856 20.2272 22.3401 20.0633 22.4039H19.9813L20.1816 22.5313C20.3365 22.6315 20.3638 22.8226 20.4639 22.9592C20.5641 23.0957 20.728 23.205 20.7554 23.4052C20.7827 23.6055 20.5914 23.8877 20.6005 23.9788L20.7462 24.1335C20.8555 24.2336 20.8464 24.2792 20.901 24.4339C20.9557 24.5887 20.9648 24.6069 21.0103 24.7434C21.0427 24.8462 21.0822 24.9466 21.1287 25.0438C21.2133 25.1546 21.2865 25.2735 21.3473 25.3989C21.454 25.6659 21.6152 25.9078 21.8208 26.109C22.094 26.4003 22.185 26.7007 22.4491 27.0193C22.5115 27.0885 22.5545 27.1729 22.5737 27.264C22.5928 27.3552 22.5876 27.4498 22.5584 27.5382C22.5584 27.7385 22.6859 27.429 22.8498 27.5928L23.0501 27.7749L23.2687 27.9205L23.378 28.0207C23.4921 28.0954 23.591 28.1912 23.6694 28.3029C23.7604 28.403 23.8333 28.5214 23.9152 28.6306C23.9972 28.7399 23.979 28.6853 24.0792 28.7308C24.1793 28.7763 24.2613 28.8491 24.3706 28.931C24.4798 29.013 24.5891 29.0403 24.6164 29.2133C24.6438 29.3862 24.6893 29.3498 24.6164 29.4317L24.4525 29.6775C24.3888 29.8141 24.152 29.8687 24.0519 29.9688C23.8241 30.1928 23.5414 30.3529 23.2323 30.4331C23.1114 30.4296 22.9917 30.4081 22.8771 30.3694C22.7505 30.3604 22.6297 30.3127 22.5311 30.2328C22.3945 30.1054 22.2852 30.1418 22.1304 30.0781C21.8117 29.9688 21.7388 29.5774 21.5658 29.3407C21.3928 29.104 21.3655 29.1677 21.3473 29.0494C21.329 28.931 21.4656 28.8309 21.4201 28.6852C21.3576 28.5421 21.2877 28.4023 21.2107 28.2665L20.9739 28.0935L20.8737 28.0207C20.741 27.872 20.6526 27.6891 20.6187 27.4927C20.6187 27.3288 20.4366 27.165 20.382 26.9829C20.3304 26.854 20.2937 26.7196 20.2727 26.5823C20.1928 26.2853 20.15 25.9795 20.1452 25.672C20.1452 25.4899 19.9722 25.5992 19.954 25.4899L19.8538 25.2714C19.6535 25.1258 19.2346 26.0088 19.1617 26.1363C19.0889 26.2637 18.8157 26.4731 18.6882 26.7098C18.5508 26.9688 18.3827 27.2103 18.1874 27.429C18.0781 27.5473 18.0052 27.693 17.9051 27.8113C17.809 27.8945 17.7315 27.9968 17.6774 28.1117C17.5863 28.3029 17.4224 28.3848 17.304 28.5578C17.2251 28.7093 17.1698 28.872 17.1401 29.0403V29.0949C17.2284 29.0211 17.3357 28.9738 17.4497 28.9584C17.6027 28.9393 17.7574 28.9748 17.8868 29.0585C18.0184 29.1225 18.1556 29.1743 18.2966 29.2133C18.6427 29.3043 18.9341 29.5228 19.2892 29.4681C19.3796 29.4465 19.4739 29.4467 19.5642 29.4689C19.6545 29.491 19.7382 29.5345 19.8083 29.5956L19.9904 29.7777C20.2636 30.0235 19.9904 29.9961 20.2545 30.2055C20.2845 30.5104 20.2629 30.8181 20.1907 31.1159C20.1907 31.2706 20.1361 31.2979 20.127 31.4527C20.127 31.8532 20.127 32.2538 20.127 32.6634C20.1107 33.0225 20.1507 33.3819 20.2454 33.7286C20.2849 34.0947 20.2413 34.4649 20.1179 34.8119C20.1087 34.9786 20.1087 35.1458 20.1179 35.3126C20.076 35.5037 20.0607 35.6998 20.0724 35.8952C20.1421 36.084 20.2274 36.2667 20.3274 36.4414C20.4813 36.4643 20.6378 36.4643 20.7918 36.4414L21.065 36.2957C21.3199 36.2047 21.4656 35.9771 21.7297 35.968L22.3581 35.9225C22.6039 35.9225 22.7405 36.0863 22.9591 36.1319C23.1776 36.1774 23.2596 36.0408 23.4963 36.1319C23.7331 36.2229 24.0609 36.2957 24.2886 36.4232C24.5163 36.5506 24.4252 36.7054 24.4343 36.9239C24.4434 37.1424 24.6164 37.3699 24.5527 37.5156C24.4889 37.6613 24.1065 38.1346 23.7878 38.0709L23.5237 37.9981C23.3415 37.9526 23.1412 37.9981 22.9682 37.9162C22.7739 37.8627 22.5761 37.8232 22.3763 37.7978L22.1304 37.8433C22.0302 37.8433 21.8845 37.8433 21.7753 37.8433C21.6297 37.8524 21.4837 37.8524 21.3381 37.8433C21.0309 37.8213 20.7262 37.7726 20.4275 37.6977L20.3638 37.8979L20.1361 37.7978L19.8265 37.7432L20.0086 37.3517H19.5533C19.4896 37.4883 19.444 37.4792 19.3074 37.5156C19.1708 37.552 19.1708 37.6612 19.3074 37.7614V37.9799C19.2536 38.0064 19.1944 38.0202 19.1344 38.0202C19.0744 38.0202 19.0152 38.0064 18.9614 37.9799C18.9622 38.0649 18.9813 38.1487 19.0175 38.2257C19.0536 38.3027 19.1059 38.371 19.1708 38.4259L19.2619 38.3349C19.324 38.2715 19.403 38.2273 19.4896 38.2074L19.3803 37.9799C19.6444 37.9799 19.9904 37.8615 20.2181 37.9799C20.2602 38.1651 20.2816 38.3544 20.2818 38.5443C20.2818 38.7537 20.0177 38.8629 19.9722 39.0632C19.9267 39.2635 19.9176 39.2908 19.9722 39.3545C20.0451 39.7089 20.0451 40.0743 19.9722 40.4287C19.9722 40.6472 20.0359 41.1388 19.8629 41.2935C20.045 41.3664 20.0906 41.339 20.1088 41.5393C20.1208 41.783 20.1056 42.0273 20.0633 42.2676C20.0633 42.65 20.1452 43.0323 20.1361 43.4146C20.127 43.797 20.1361 43.9244 20.1361 44.1793C20.1361 44.4342 20.0632 44.4798 20.045 44.6618C20.042 44.9235 20.0573 45.1851 20.0906 45.4447C20.1284 45.6859 20.1527 45.929 20.1634 46.173C20.1366 46.378 20.0783 46.5776 19.9904 46.7647C19.9449 46.8831 19.8356 46.9377 19.7901 47.0287C19.7445 47.1197 19.7354 47.3382 19.6899 47.493C19.2437 47.402 18.7793 47.2927 18.3786 47.1835V47.1289C18.3692 47.0303 18.3509 46.9328 18.3239 46.8375V46.4461C18.2784 46.3551 18.2329 46.4461 18.1782 46.3095C18.1179 46.1308 18.0901 45.9427 18.0963 45.7542C18.1145 45.451 18.1145 45.1471 18.0963 44.8439V44.6527C18.117 44.5587 18.1475 44.4672 18.1874 44.3796C18.2602 44.2249 18.1874 43.9609 18.1874 43.7788C18.1874 43.5967 18.2511 43.3509 18.1145 43.2963C17.9779 43.2417 17.8504 43.5785 17.7229 43.5967C17.583 43.5785 17.4456 43.545 17.3131 43.4966L17.0217 43.451C16.5271 43.3261 16.0201 43.2559 15.5101 43.2417C15.2824 43.2417 15.0912 43.3327 14.8726 43.36C14.7125 43.3827 14.5501 43.3827 14.39 43.36C14.1992 43.3784 14.0071 43.3784 13.8163 43.36C13.6797 43.36 13.6888 43.1779 13.5977 43.0778C13.4703 43.1506 13.5977 43.2417 13.4794 43.3327L12.8874 43.3418C12.4888 43.4324 12.0749 43.4324 11.6763 43.3418C11.4946 43.2909 11.3025 43.2909 11.1208 43.3418C10.9478 43.3964 10.7565 43.3418 10.5744 43.4146H10.4743C13.8245 45.8545 17.7513 47.3823 21.87 47.8483C25.9887 48.3143 30.1577 47.7025 33.9687 46.0728C33.9604 45.9182 33.9604 45.7632 33.9687 45.6086C33.9687 45.3355 33.9687 45.0624 33.9687 44.7984C33.9687 44.5344 33.9049 44.4615 33.914 44.1611C33.914 43.6695 33.914 43.3418 33.9596 43.0232C34.0051 42.7046 34.0142 42.5316 34.0689 42.3131C34.0963 41.936 34.078 41.557 34.0142 41.1843C34.0142 40.8475 34.0142 40.5106 34.0142 40.1829C33.987 39.798 33.987 39.4117 34.0142 39.0268C34.0142 39.0268 34.4149 38.9266 34.2965 38.8174C33.9935 38.7929 33.6889 38.7929 33.3859 38.8174V38.9722C33.249 38.9695 33.1149 39.011 33.0034 39.0905L32.8213 39.2635C32.6574 39.2635 32.5208 39.1451 32.3751 39.1178C32.2062 39.1089 32.0371 39.1273 31.8742 39.1724C31.7805 39.1846 31.6856 39.1846 31.5919 39.1724C31.4007 39.1724 31.2823 39.3181 31.0911 39.2999C30.9341 39.2746 30.7866 39.2087 30.6631 39.1087L30.3534 38.8993C30.2596 38.8106 30.1932 38.6969 30.1622 38.5716C30.1389 38.4985 30.1018 38.4305 30.0529 38.3713C29.971 38.253 30.1167 38.0436 30.1258 37.907C30.246 37.9155 30.3667 37.9001 30.4809 37.8615C30.6357 37.7978 30.6813 37.6795 30.8634 37.6795C31.0455 37.6795 31.4462 37.6795 31.774 37.7341C32.0011 37.7199 32.2265 37.6864 32.4479 37.6339C32.5672 37.621 32.6838 37.5903 32.7939 37.5429C32.9933 37.5156 33.1956 37.5156 33.395 37.5429C33.486 37.5429 34.0142 37.7614 33.8139 37.4519C33.7501 37.3426 34.0142 37.1242 34.0051 37.0058L33.9322 36.8875V36.7691C33.8823 36.3823 33.8823 35.9907 33.9322 35.6039H34.0871C33.9414 35.4855 34.0871 35.2853 33.9231 35.1305C33.7592 34.9757 33.7501 35.0486 33.7319 34.8483C33.741 34.718 33.741 34.5872 33.7319 34.4568C33.7319 34.3294 33.7319 34.2383 33.7319 34.0927C33.7175 33.9709 33.6786 33.8533 33.6175 33.747C33.5565 33.6406 33.4746 33.5476 33.3768 33.4737L33.1309 33.2188L32.9579 32.9456L32.8304 32.7181L32.7211 32.5633L32.5481 32.4177C32.5614 32.3457 32.5828 32.2754 32.6118 32.2083L32.712 32.0444L32.8577 31.8532C33.0157 31.8909 33.1781 31.9062 33.3403 31.8988C33.5589 31.8988 33.6864 32.1719 33.8867 32.272C34.0871 32.3721 34.2328 32.3994 34.342 32.6088L34.4422 32.4723H34.6516C34.8921 32.5045 35.1258 32.5752 35.3437 32.6817C35.6442 32.8091 35.4712 32.8455 35.5714 33.0731L35.6898 33.2461C35.7808 33.4464 35.6351 33.5192 35.6169 33.7286C35.5297 33.7121 35.4401 33.7121 35.3529 33.7286L35.3073 33.8924L34.9157 33.7194L34.597 33.8924C34.5103 34.0634 34.4431 34.2435 34.3967 34.4295L34.5788 34.6662L34.9249 34.9666C35.0888 35.1123 35.0432 34.739 35.0705 34.6389C35.1523 34.485 35.2602 34.3464 35.3893 34.2292C35.5714 34.0654 35.535 34.1564 35.6351 34.3567C35.7353 34.557 35.7626 34.4842 35.7535 34.648C35.7444 34.8119 35.6078 35.085 35.5805 35.3581H35.2162C35.0887 35.3581 35.0614 35.3581 34.9339 35.4036L34.7973 35.6858C34.7973 35.8315 34.9522 35.9953 34.8611 36.1228C34.77 36.2502 34.7427 36.1228 34.7063 36.0682C34.6699 36.0135 34.7063 35.9134 34.4695 35.8315L34.2601 36.232C34.2601 36.3777 34.4422 36.4505 34.4969 36.5961C34.5529 36.7864 34.6423 36.9652 34.7609 37.1242C34.8394 37.1476 34.9234 37.1452 35.0005 37.1173C35.0775 37.0895 35.1436 37.0376 35.1889 36.9694L35.535 36.8419H35.6533C35.6533 37.1241 35.5532 37.3881 35.7353 37.6157C35.9174 37.8433 35.8173 38.2075 35.8082 38.5261L35.626 38.6444V39.0177C35.626 39.3909 35.453 39.755 35.4894 40.1283C35.5077 40.392 35.5077 40.6566 35.4894 40.9203C35.4894 41.2025 35.4894 41.421 35.4894 41.6941C35.4894 41.9672 35.5441 42.2039 35.5441 42.4588C35.5623 42.5947 35.5623 42.7325 35.5441 42.8684C35.5057 43.0049 35.4843 43.1455 35.4803 43.2872C35.4556 43.5019 35.4556 43.7188 35.4803 43.9335C35.5125 44.0679 35.5308 44.2051 35.535 44.3432C35.6017 44.5285 35.6017 44.7314 35.535 44.9167C35.4803 45.0351 35.4075 45.0897 35.3437 45.2444C35.28 45.3992 35.3437 45.4265 35.2436 45.5084C35.8537 45.208 36.4547 44.8712 37.0648 44.5162C37.0648 44.325 37.0648 44.1429 37.0648 43.9518C37.0994 43.6736 37.0994 43.3923 37.0648 43.1142V42.7228C37.0648 42.5862 37.1104 41.0022 37.0648 40.8475C37.0193 40.6927 37.2652 39.5457 37.0648 39.4273C36.8645 39.309 36.9647 38.9266 36.9829 38.781C37.014 38.5868 36.9887 38.3877 36.91 38.2074C36.8646 37.6713 36.8646 37.1323 36.91 36.5961C36.9783 36.3582 36.9783 36.1058 36.91 35.8679C36.91 35.6949 36.8554 35.3125 36.8372 35.1396C36.8281 34.988 36.8281 34.836 36.8372 34.6844V34.4022V33.9835L36.7461 33.6921L36.6733 33.5192L36.7825 33.2552V33.0276C36.7825 32.8728 36.8736 32.7636 37.0648 32.8455V32.6452L36.9373 32.5724L36.737 32.4085C36.6642 32.3084 36.8554 32.1172 36.737 32.0717C36.6186 32.0262 36.482 32.1263 36.3818 32.0717C36.2817 32.0171 36.218 31.8806 36.1178 31.7986L35.963 31.653C35.7897 31.4657 35.594 31.3006 35.3802 31.1614C35.3802 30.9975 35.2254 30.7972 35.2618 30.6516L35.3346 30.597L35.3984 30.5423L35.5258 30.4422L35.6169 30.3785H35.8082L35.9721 30.4331L36.2179 30.5332L36.3636 30.6243L36.564 30.7153L36.9556 30.7699C37.0829 30.7791 37.2107 30.7791 37.338 30.7699C37.4382 30.7699 37.5566 30.7699 37.6568 30.7699C37.8745 30.8106 38.0764 30.9116 38.2396 31.0613C38.178 30.9455 38.1292 30.8234 38.0938 30.6971V30.4695L38.1849 30.3148L38.2851 29.8778L38.1849 29.7048V29.5956C38.1303 29.5956 38.0666 29.5956 38.0028 29.4499L38.1303 29.2496L37.8662 29.3953C37.8708 29.2919 37.8421 29.1898 37.7843 29.104L37.9208 28.7854C38.0182 28.9025 38.1435 28.9932 38.2851 29.0494V28.931C38.3571 28.5266 38.5258 28.1456 38.7768 27.8204C38.8613 27.617 38.9923 27.4361 39.1593 27.2924C39.3505 27.1559 39.6055 27.1195 39.7876 26.9647C39.9697 26.8099 39.9606 26.6916 40.0699 26.5823C40.134 26.5249 40.2089 26.4808 40.2902 26.4527C40.3715 26.4245 40.4576 26.4129 40.5435 26.4185C40.9168 26.4185 41.2811 26.4185 41.6545 26.3547C42.0243 26.3273 42.3956 26.3273 42.7654 26.3547C43.354 26.4628 43.935 26.6088 44.5047 26.7917C44.6346 26.847 44.7433 26.9428 44.8143 27.0648C44.8785 27.1741 44.9304 27.2901 44.9691 27.4108C44.9691 27.5109 45.215 27.6383 45.2333 27.7567L45.3425 27.6748C45.2679 27.5435 45.204 27.4065 45.1513 27.2651V27.0193C45.1641 26.8983 45.1641 26.7762 45.1513 26.6552C45.1329 26.4158 45.1329 26.1754 45.1513 25.936C45.1513 25.7175 45.297 25.6265 45.2605 25.4353C45.2324 25.2605 45.2142 25.0842 45.2059 24.9073C45.2059 24.5796 45.1422 24.2792 45.1513 23.997C45.1425 23.8222 45.0959 23.6513 45.0147 23.4963C44.951 23.3233 45.0147 23.2323 44.8143 23.205C44.6662 23.1867 44.5163 23.1867 44.3681 23.205C44.2224 23.205 44.0949 23.3415 43.9492 23.387C43.5633 23.5055 43.1711 23.6027 42.7745 23.6783C42.5651 23.6783 42.5469 23.6783 42.3738 23.56C42.2102 23.4693 42.0226 23.4311 41.8365 23.4507C41.6498 23.4705 41.4663 23.5133 41.2902 23.5782C41.22 23.6096 41.144 23.6258 41.0671 23.6258C40.9902 23.6258 40.9142 23.6096 40.844 23.5782C40.6895 23.5326 40.5401 23.4715 40.3978 23.3961L40.2885 23.1958C40.2248 23.0957 40.1974 22.7953 40.0517 22.7953V22.5404L40.5981 22.4858C40.7984 22.4858 40.9988 22.4221 41.19 22.4039C41.3448 22.4135 41.4975 22.3648 41.618 22.2673C41.6522 22.2331 41.6938 22.2071 41.7396 22.1913C41.7853 22.1756 41.8341 22.1704 41.8821 22.1763C42.0142 22.1723 42.1455 22.154 42.2737 22.1216C42.6019 21.9973 42.9521 21.9415 43.3027 21.9578C43.6303 21.9761 43.9586 21.9761 44.2862 21.9578C44.5594 21.9578 44.7233 22.1307 44.96 22.2491L45.1422 22.1216C45.1422 21.9669 45.0693 21.9851 45.0329 21.8941C44.9965 21.803 45.0329 21.7393 45.0329 21.621C45.0329 21.5026 45.1149 21.2659 45.1513 21.0838C45.1719 21.038 45.1826 20.9884 45.1826 20.9382C45.1826 20.888 45.1719 20.8383 45.1513 20.7925L45.0511 20.5377C45.0511 20.3556 45.0511 20.1917 44.9965 20.0187C44.9781 19.8615 44.9781 19.7026 44.9965 19.5454C44.8417 19.5454 44.7688 19.6637 44.6413 19.7274C44.5138 19.7912 44.5958 19.9004 44.359 19.9732C43.9002 20.1691 43.4096 20.2801 42.9111 20.301C42.7353 20.2873 42.5588 20.2873 42.383 20.301C42.2375 20.3117 42.092 20.28 41.9641 20.2099L41.8184 20.128H41.4996C41.2944 20.1599 41.0856 20.1599 40.8804 20.128C40.6436 20.0734 40.0608 19.6728 40.0973 20.2008C40.1835 20.2603 40.2476 20.3468 40.2794 20.4466V20.6378L40.2248 20.8107C40.2248 20.9382 40.2794 21.0474 40.2248 21.1749C40.1337 21.5299 39.8423 21.7757 39.8059 22.1398C39.8059 22.2855 39.7512 22.4858 39.7512 22.6041C39.7512 22.7225 39.815 22.7498 39.7512 22.9136C39.6875 23.0775 39.6328 23.1048 39.5782 23.1958C39.5495 23.2714 39.5056 23.3403 39.4492 23.3982C39.3928 23.4561 39.3251 23.5019 39.2504 23.5327C39.05 23.6328 38.8132 23.6328 38.6038 23.7603C38.3944 23.8877 38.2122 24.0607 38.0301 24.1699C37.9678 24.2093 37.9004 24.24 37.8298 24.261C37.5202 24.4066 37.1377 24.4612 36.8372 24.6251C36.5367 24.789 36.2817 25.0894 35.8628 25.0074C35.5896 24.9437 35.3528 25.0074 35.0796 24.9619C34.8696 24.9198 34.669 24.8395 34.4877 24.7252C34.3602 24.6251 34.1508 24.5887 34.0415 24.4612C33.9323 24.3338 33.8867 24.1972 33.7683 24.0698C33.6499 23.9423 33.3221 23.5873 33.0763 23.3597L32.8577 23.0229C32.7551 22.8766 32.6608 22.7246 32.5754 22.5677C32.479 22.4688 32.3906 22.3622 32.3113 22.2491L32.1929 21.9487C32.0928 21.7302 31.9835 21.8121 32.0472 21.5117C32.1024 21.225 32.1942 20.9466 32.3204 20.6833C32.4297 20.4557 32.3751 20.3101 32.5845 20.1098C32.7248 19.9881 32.8394 19.8395 32.9214 19.6728C32.9409 19.551 32.9745 19.4318 33.0216 19.3178C33.0216 19.2176 33.1309 19.2176 33.1855 19.1539C33.2706 19.0618 33.379 18.9945 33.4993 18.9593C33.6196 18.924 33.7472 18.9221 33.8685 18.9536C34.0506 18.8717 33.7046 18.8717 33.7592 18.7352L33.8685 18.6259L33.9869 18.4803C34.2419 18.4803 34.6334 18.3801 34.8975 18.3619C35.2124 18.3093 35.5187 18.2144 35.8082 18.0797L36.136 17.9522C36.2817 17.9522 36.3545 18.0615 36.482 18.0979C36.6413 18.1298 36.8054 18.1298 36.9647 18.0979C37.3338 18.106 37.6946 18.2096 38.0119 18.3983L38.4399 18.6259L38.6949 18.7989C38.8497 18.8899 39.0409 18.9718 39.1957 19.0629C39.3505 19.1539 39.4871 19.3633 39.6511 19.4816C39.7177 19.521 39.7755 19.5736 39.8209 19.6363C39.8663 19.6989 39.8984 19.7702 39.9151 19.8458C40.0699 19.8913 40.0153 19.1812 40.1428 19.1812C40.26 19.2045 40.3807 19.2045 40.4979 19.1812C40.6852 19.1263 40.8843 19.1263 41.0716 19.1812C41.277 19.1735 41.4798 19.1336 41.6726 19.0629L41.9276 19.0083C42.0521 18.9642 42.18 18.9307 42.3101 18.9081C42.4714 18.8668 42.6359 18.8394 42.8018 18.8262C42.9657 18.8262 43.1297 18.8262 43.2936 18.7625L43.5577 18.6441C43.7625 18.6077 43.9721 18.6077 44.1769 18.6441C44.4163 18.626 44.6569 18.626 44.8963 18.6441C45.0508 18.6531 45.2056 18.6314 45.3516 18.5804C45.5247 18.6987 45.5884 18.8444 45.7432 18.7352C45.898 18.6259 45.9162 18.5804 46.0255 18.5804H46.4444C46.4275 18.4599 46.4001 18.3411 46.3624 18.2254C46.2441 17.9614 46.0619 18.0797 45.6157 18.1525C45.5025 18.2063 45.3981 18.2769 45.3061 18.3619C45.1695 18.28 45.1877 18.3164 45.1786 18.2163V18.0251C45.2016 17.8926 45.2016 17.7571 45.1786 17.6245V17.4061L45.2424 17.1785L45.4973 17.1239C45.4518 16.9236 45.0784 16.6687 44.9236 16.5412C44.748 16.3282 44.6207 16.0798 44.5503 15.813C44.5503 15.7219 44.5503 15.7128 44.4319 15.6127C44.3257 15.5897 44.2261 15.5431 44.1405 15.4761C44.0139 15.3405 43.8735 15.2185 43.7216 15.112C43.6214 14.9208 43.7216 14.8298 43.7944 14.7205C44.0403 14.4838 43.9857 14.6113 44.1769 14.5567C44.3681 14.5021 44.441 14.4656 44.6231 14.5567C44.7634 14.6408 44.9176 14.6993 45.0784 14.7296C45.2619 14.7748 45.4393 14.842 45.6066 14.9299C45.7977 15.0083 45.9833 15.0995 46.1621 15.203C46.2987 15.294 46.4262 15.203 46.5901 15.203C46.754 15.203 46.8633 15.2849 46.9999 15.5216L46.9088 15.5398ZM11.2756 35.4218C11.2756 35.5492 11.4577 35.613 11.4304 35.7495L11.1208 35.8497L10.9478 36.0408H10.7201C10.5316 36.0996 10.3348 36.1272 10.1373 36.1228C9.93699 36.1228 9.87323 36.0317 9.71842 36.1683L9.61826 36.3139L9.40881 36.3777C9.3006 36.4761 9.21115 36.5933 9.14474 36.7236C9.06316 36.8661 9.00185 37.0193 8.9626 37.1788C8.92564 37.3027 8.91024 37.432 8.91708 37.5611C8.92286 37.6728 8.95398 37.7818 9.00813 37.8797L9.2267 38.1346C9.3724 38.2985 9.29043 38.5534 9.47256 38.6808C9.85037 38.9486 10.2684 39.1545 10.711 39.2908C10.9184 39.3324 11.132 39.3324 11.3394 39.2908C11.4589 39.2863 11.5777 39.2711 11.6945 39.2453L11.8675 39.1724C12.057 39.0584 12.2288 38.9173 12.3775 38.7537C12.5269 38.6441 12.6643 38.519 12.7873 38.3804C12.8715 38.2735 12.9306 38.1491 12.9603 38.0163C12.9697 37.9278 12.9944 37.8415 13.0331 37.7614C13.0969 37.6339 13.2062 37.6794 13.1879 37.5247C13.1697 37.3699 13.1879 37.3973 13.1879 37.3153C13.0058 36.9694 13.0878 36.5415 12.8601 36.2229L12.5414 36.0772C12.5414 35.9498 12.3957 35.9862 12.2864 35.9771C12.1915 35.9705 12.0988 35.9457 12.0132 35.9043L11.6763 35.8223L11.5943 35.6949L11.5033 35.4946L11.2756 35.4218ZM39.6237 29.4772L39.7148 29.5228C39.7148 29.6411 39.7148 29.7868 39.7148 29.8414C39.7148 29.896 39.7148 29.987 39.7786 30.0872C39.8423 30.1873 39.8514 30.2601 39.6966 30.3967C39.6966 30.3967 39.6966 30.6971 39.7876 30.597C39.8787 30.4968 39.7876 30.4968 39.8514 30.5242C40.1063 30.688 40.4797 31.1159 40.589 31.0613C40.6983 31.0066 40.8349 31.2069 40.9805 31.2615C41.1263 31.3162 40.9806 31.389 41.0716 31.4982C41.1658 31.6108 41.2934 31.6905 41.4359 31.7258C41.5725 31.7713 41.6909 31.9261 41.791 31.9261C42.0293 31.924 42.2635 31.8647 42.474 31.7531C42.6411 31.5744 42.8384 31.4265 43.0568 31.3161C43.3388 31.267 43.616 31.1939 43.8855 31.0976L44.095 30.8974C44.2518 30.705 44.3582 30.4766 44.4046 30.2328C44.4549 30.0477 44.4914 29.859 44.5138 29.6684V29.4135C44.5138 29.2952 44.5138 29.1768 44.5138 29.0676C44.5138 28.7763 44.0676 28.4941 44.0221 28.1572C43.9766 27.8204 43.9402 27.8295 43.7034 27.8022C43.6214 27.8022 43.4939 28.1663 43.2663 28.1572H42.9931C42.6652 28.1117 42.2646 27.8477 41.9368 27.875C41.8384 27.8601 41.741 27.8388 41.6454 27.8113H41.5178L41.2993 27.9479C41.1365 28.012 40.9642 28.0489 40.7893 28.0571C40.4615 28.0571 40.4979 28.2301 40.334 28.485C40.2183 28.6438 40.1148 28.8112 40.0244 28.9857L39.9151 29.3316H39.6237C39.4664 29.3132 39.3075 29.3132 39.1502 29.3316V29.4499C39.1502 29.4499 39.1502 29.6593 39.3323 29.6229L39.6237 29.4772ZM34.5242 21.011L34.4786 20.92L34.5424 20.6469C34.5879 20.5832 34.3512 20.4739 34.2419 20.4284L34.0689 20.6469C34.0051 20.7015 33.7865 20.8472 33.9049 20.9018L34.1326 21.0474C34.2231 21.0926 34.3176 21.1292 34.4149 21.1567V21.357L34.0689 21.5481L34.0051 21.6301V21.7484L34.0962 21.8941L34.1872 22.0306V22.0852L34.2965 22.2309C34.3583 22.3303 34.4387 22.4168 34.5333 22.4858C34.668 22.5542 34.7987 22.6302 34.9249 22.7134L34.9977 22.7589L35.2071 22.9136L35.3437 23.0229C35.4439 23.1412 35.4166 23.2141 35.5896 23.2687C35.8585 23.3509 36.1372 23.3968 36.4183 23.4052H36.6733L36.8827 23.1321C37.0102 23.0593 37.2105 23.1321 37.3471 23.0411C37.4928 23.0032 37.6312 22.9417 37.7569 22.859C37.9622 22.6455 38.1397 22.4069 38.2851 22.149C38.4491 21.815 38.4816 21.4316 38.3761 21.0748C38.2942 20.7015 38.3215 20.3283 37.9573 20.1644L37.7751 20.0461L37.6841 19.9095C37.4854 19.8725 37.2817 19.8725 37.0831 19.9095C36.6219 19.8151 36.1496 19.7875 35.6807 19.8276C35.535 19.8822 35.4986 19.9823 35.3802 20.0734C35.2618 20.1644 35.2527 20.301 35.1252 20.4193C35.0038 20.5557 34.9081 20.713 34.8429 20.8836C34.7518 21.0474 34.6425 21.0474 34.4604 21.0565L34.5242 21.011ZM48.4933 24.2063C48.5009 21.6974 48.1138 19.2029 47.3459 16.8143C47.2913 17.0783 47.3459 17.0692 47.2093 17.2877C47.0874 17.6081 47.0196 17.9465 47.009 18.2891C46.9984 18.4558 46.9984 18.623 47.009 18.7898C47.0175 18.9383 47.0175 19.0873 47.009 19.2358C47.009 19.427 47.009 19.6273 47.009 19.8094C47.009 20.1735 47.009 20.4466 47.009 20.8107C47.009 21.1749 47.0818 21.357 47.009 21.7211C47.0049 21.9059 46.9774 22.0894 46.927 22.2673C46.8456 22.8013 46.8456 23.3446 46.927 23.8786C46.9835 24.0865 47.014 24.3005 47.0181 24.5159C47.0181 24.7434 46.9634 24.9619 46.9634 25.1804C46.9816 25.517 46.9816 25.8543 46.9634 26.1909C46.9463 26.4941 46.9463 26.798 46.9634 27.1012L46.8997 27.2742C46.8682 27.3874 46.8682 27.507 46.8997 27.6201C46.8997 27.7385 46.8997 27.8659 46.8997 27.9934C46.8997 28.1208 46.7267 28.3029 46.6539 28.5123L46.4535 28.8309C46.3351 28.9492 46.2076 28.8309 46.1074 28.8855C46.0073 28.9401 46.0164 29.2132 46.0346 29.3498C46.1167 29.7032 46.1167 30.0706 46.0346 30.424L45.9709 30.6425L46.0255 30.7517V30.8792V31.0886C45.9464 31.2926 45.852 31.4904 45.7432 31.6803C45.6489 31.7864 45.5453 31.8839 45.4336 31.9716C45.3109 32.0939 45.1504 32.1709 44.9783 32.1901C44.8225 32.2711 44.6759 32.3688 44.5412 32.4814C44.4002 32.5565 44.2688 32.6482 44.1496 32.7545C44.0222 32.8697 43.8738 32.9593 43.7125 33.0185C43.5761 33.0687 43.4361 33.1083 43.2936 33.1368C42.9511 33.2561 42.6013 33.3534 42.2463 33.4281C41.964 33.4281 41.7546 33.3007 41.4541 33.3735C41.1536 33.4463 41.1536 33.2825 40.9441 33.237C40.7787 33.1782 40.6175 33.1083 40.4615 33.0276C40.2794 32.9457 40.0791 32.8091 39.8787 32.6999C39.5289 32.4682 39.221 32.1789 38.9681 31.8441C38.8775 31.7303 38.7663 31.6346 38.6403 31.5619C38.6403 31.7349 38.8132 31.7804 38.9407 31.8806C39.0682 31.9807 39.0227 32.0626 39.05 32.181V32.4541C39.05 32.6817 38.8041 32.7454 38.7677 32.9366C38.7313 33.1277 38.9681 33.2188 38.9498 33.419C38.9222 33.5668 38.8763 33.7105 38.8132 33.8469C38.7861 34.031 38.7861 34.2181 38.8132 34.4022C38.7862 34.6229 38.7862 34.8461 38.8132 35.0668C38.8685 35.2725 38.8685 35.4892 38.8132 35.6949C38.7628 35.9228 38.7628 36.1589 38.8132 36.3868C38.8406 36.7534 38.8406 37.1216 38.8132 37.4883C38.8132 37.9253 38.8132 38.3531 38.8132 38.781C38.8405 38.9773 38.8405 39.1764 38.8132 39.3727C38.8132 39.5093 38.704 39.4911 38.6584 39.6003C38.6129 39.7095 38.6584 40.0191 38.6584 40.192C38.6812 40.6257 38.6812 41.0602 38.6584 41.4938C38.6584 41.9763 38.6584 42.4042 38.6584 42.9139V43.2417C40.9384 41.5351 42.899 39.4395 44.4501 37.0513C44.381 36.9713 44.3229 36.8825 44.2771 36.7873L44.696 36.0772L43.7853 36.6053C43.8225 36.2333 43.7292 35.86 43.5213 35.5493L43.9492 34.4568C43.9492 34.4568 44.7961 35.5037 45.4336 35.4127C47.3034 31.9523 48.2918 28.0847 48.3112 24.1517" fill="#AAAAAA"/>
</svg>
