<svg width="42" height="43" viewBox="0 0 42 43" fill="none" xmlns="http://www.w3.org/2000/svg">
<path d="M32.3343 32.0176C32.2547 32.2325 32.2467 32.2325 32.3343 32.2962C32.5094 32.5032 32.6368 32.4316 32.6129 32.4793C32.7164 32.2883 32.8359 32.137 32.9394 32.1131L33.1145 32.2166C33.1208 32.0325 33.1529 31.8503 33.2101 31.6752C33.2637 31.522 33.2828 31.3589 33.2658 31.1975L33.1464 30.9427C33.0907 30.8471 33.0827 30.8312 33.0031 30.7118C32.8598 30.7118 32.8518 30.879 32.8041 30.9904C32.7505 31.0901 32.7129 31.1976 32.6926 31.3089C32.7312 31.353 32.7592 31.4053 32.7744 31.462C32.7896 31.5186 32.7916 31.5779 32.7801 31.6354V31.8663C32.7801 31.9698 32.6368 31.93 32.5493 31.9538L32.3343 32.0176ZM11.609 2.6693C11.9673 2.48617 12.3415 2.31101 12.7157 2.15177C12.3415 2.31101 11.9752 2.49414 11.6169 2.67727L11.609 2.6693ZM17.3257 4.01489V3.83178L17.2382 3.70438C17.1426 3.56903 17.1585 3.33016 17.1187 3.17888V2.99575C17.1187 2.86039 17.1824 2.74098 17.1187 2.61358C17.055 2.48619 17.0391 2.11195 17.0152 1.96863C17.0129 1.85245 16.9941 1.7372 16.9595 1.62627C16.9166 1.47972 16.882 1.33086 16.856 1.18039L16.6728 0.98931L16.6012 0.909684C15.2715 1.20094 13.973 1.61956 12.7237 2.15974L12.7794 2.23139C12.8627 2.34061 12.9297 2.4613 12.9784 2.5897C12.9944 2.71925 12.9944 2.85027 12.9784 2.97983C12.9438 3.2441 12.9438 3.51176 12.9784 3.77604V4.08655C13.0899 4.19802 13.1775 4.40505 13.3049 4.47671L13.5836 4.30949C13.6958 4.25815 13.8185 4.23362 13.9418 4.23783H14.2603C14.3559 4.23783 14.3718 4.30949 14.4833 4.2856C14.5947 4.26171 14.6664 4.19007 14.7779 4.15026C14.8894 4.11045 15.0167 4.07859 15.1362 4.06266C15.3989 4.06266 15.5024 3.90342 15.7094 3.83973C15.9164 3.77603 16.012 3.7203 16.1155 3.69641C16.1747 3.68695 16.2332 3.67366 16.2907 3.65661C16.3793 3.63221 16.4728 3.63221 16.5614 3.65661C16.6489 3.67694 16.7324 3.71192 16.8082 3.7601L16.9595 3.83973L17.063 3.87955C17.1984 3.87955 17.1983 4.04674 17.3018 4.11043L17.3257 4.01489ZM11.6727 4.58816V4.92258C11.6727 4.98628 11.7921 4.99425 11.9036 5.00221L11.9912 4.82704L12.2857 4.77927L12.1504 4.38911L11.8638 4.47671C11.8001 4.47671 11.7284 4.47669 11.6886 4.58816H11.6727ZM13.281 7.15196V7.04844L13.3845 6.98476C13.6075 7.03325 13.8383 7.03325 14.0613 6.98476C14.2524 6.98476 14.5151 6.98475 14.6823 6.90513C14.8495 6.82551 15.2317 6.86533 15.4785 6.84145V6.97679C15.5738 6.91803 15.6753 6.86997 15.7811 6.83348C15.9722 6.73793 16.02 6.76183 16.2668 6.79368C16.5136 6.82552 16.633 6.93697 16.7127 6.89716C16.7923 6.85735 16.856 6.79368 16.9595 6.81756L17.1347 6.93699C17.3178 6.87329 17.1346 6.68219 17.0789 6.57868V6.43537C17.0789 6.30002 17.0073 6.21242 17.0789 6.07707L17.1347 5.83025V5.70285V5.48788C17.1187 5.36632 17.1187 5.2432 17.1347 5.12163C17.1347 4.98628 17.2302 4.68371 17.2461 4.56428H17.1904L17.0789 4.50059C16.9595 4.46078 16.9595 4.81906 16.8719 4.83499C16.7503 4.88195 16.6191 4.89835 16.4897 4.88276H16.3942L16.2031 4.93053C16.0598 4.93053 15.9403 4.97036 15.797 4.97832L15.4308 5.03404C15.2448 5.08265 15.056 5.11989 14.8655 5.14552C14.7699 5.14552 14.6186 5.14552 14.4833 5.14552C14.3479 5.14552 14.2763 5.04996 14.1887 5.05792C13.7189 5.05792 14.0454 5.16144 13.7508 5.12163C13.6473 5.12163 13.5517 5.01813 13.4402 5.04998C13.3062 5.07688 13.1706 5.09548 13.0342 5.10569C13.0342 5.21716 12.9864 5.2729 12.9784 5.36049C12.9705 5.44807 13.0183 5.5675 12.9784 5.66305C12.9552 5.78407 12.9393 5.90637 12.9307 6.0293C12.9436 6.14572 12.9436 6.26321 12.9307 6.37963L13.0262 6.64239C13.074 6.72998 13.1138 6.6822 13.1695 6.83348V6.99273V7.13604L13.281 7.15196ZM40.6547 14.1267C40.7422 14.3736 40.8457 14.6045 40.9253 14.8513C40.8537 14.6284 40.7821 14.4054 40.7024 14.1904L40.6547 14.1267ZM31.8964 3.5531C32.2785 3.79196 32.6527 4.04675 33.019 4.30154C32.6527 4.04675 32.2785 3.80789 31.8964 3.57699V3.5531ZM0.247077 18.7049C0.310773 18.2431 0.374469 17.7813 0.470014 17.3355C0.366507 17.7813 0.294834 18.2431 0.231137 18.7049H0.247077ZM20.4628 9.43707L20.3513 9.59632L20.4389 9.76352L20.8131 9.71575L21.1157 9.81926V9.69983L20.8848 9.55652L20.4628 9.43707ZM9.68213 16.6826C9.53085 16.6826 9.57066 16.6826 9.58659 16.7941C9.60251 16.9055 9.78564 16.8896 9.8573 16.8737C9.92895 16.8577 10.0245 16.794 10.1599 16.802V16.6189C10.1599 16.5074 10.0802 16.6189 9.98469 16.5472H9.77769L9.68213 16.6826ZM25.9487 20.6636L26.2035 20.584C26.1175 20.4457 26.0131 20.3197 25.8929 20.2098L25.5745 20.4486L25.4391 20.377L25.3197 20.5522L25.3595 20.7751C25.3595 21.1334 25.6939 20.7034 25.7178 20.6636H25.9487ZM27.3898 30.3694L27.6924 30.4809L27.7322 30.7118V30.8232L27.6924 30.9506C27.6257 31.0746 27.5512 31.1943 27.4694 31.3089C27.3898 31.4124 27.3739 31.5478 27.2783 31.6911L27.135 31.8583C27.0183 31.894 26.8935 31.894 26.7767 31.8583C26.6256 31.8502 26.4741 31.8502 26.3229 31.8583H25.9009L25.6859 31.8981L25.5187 31.9618C25.4083 31.9407 25.2966 31.9274 25.1843 31.922C25.0682 31.8837 24.9479 31.8596 24.826 31.8504L24.5235 31.8026C24.5235 31.6274 24.2687 31.707 24.1731 31.7468C24.0776 31.7867 23.8945 31.7468 23.7432 31.7946L23.5919 31.93L23.7989 31.8902L24.0696 32.2405C24.1353 32.3156 24.1915 32.3985 24.2368 32.4873L24.3642 32.6625V32.7341C24.3642 32.8297 24.2209 32.9491 24.2289 33.0287L24.3563 33.1561C24.3937 33.1831 24.4235 33.2193 24.443 33.2611C24.4625 33.3029 24.471 33.349 24.4677 33.395C24.4883 33.4974 24.5289 33.5948 24.5872 33.6816C24.6133 33.7723 24.648 33.8602 24.6907 33.9444C24.7681 34.0388 24.8324 34.1433 24.8818 34.2549C24.9772 34.485 25.118 34.6935 25.2958 34.868C25.5426 35.1068 25.7178 35.4014 25.9487 35.6642C26.0283 35.7438 26.0283 35.8155 25.9487 35.9747C25.8691 36.134 25.9965 35.8155 26.2911 36.1499L26.4662 36.3171L26.5538 36.3967L26.713 36.5082H26.7927C26.8574 36.583 26.9159 36.6629 26.9678 36.747L27.1032 36.8983L27.1669 37.0496C27.2789 37.1476 27.4051 37.2281 27.5411 37.2885C27.6446 37.3681 27.6924 37.376 27.7481 37.4955C27.8038 37.6149 27.6685 37.6945 27.5889 37.798C27.5004 37.9299 27.3991 38.0526 27.2863 38.1643C27.0813 38.3572 26.8236 38.4847 26.5458 38.5305C26.4373 38.5473 26.3262 38.5306 26.2273 38.4828C26.1326 38.4608 26.0466 38.4109 25.9805 38.3395C25.8691 38.2359 25.5426 38.2519 25.4152 38.1643L25.2639 37.9175C25.1631 37.7771 25.0752 37.6278 25.0012 37.4716C24.9587 37.3276 24.9241 37.1814 24.8977 37.0337C24.8595 36.9143 24.8143 36.7973 24.7623 36.6833L24.5474 36.5082L24.4518 36.4445C24.3425 36.3243 24.2706 36.1749 24.2448 36.0145C24.1902 35.8621 24.1209 35.7155 24.0378 35.5766C23.99 35.3855 23.9661 35.3377 23.9422 35.2263C23.902 35.0823 23.8701 34.936 23.8467 34.7883C23.8311 34.6668 23.8311 34.5437 23.8467 34.4221C23.8467 34.2947 23.6795 34.231 23.6237 34.0797C23.568 33.9285 23.0903 34.5973 23.0505 34.661C22.7603 35.0709 22.441 35.4594 22.095 35.8234C22.0083 35.9296 21.9285 36.0413 21.8562 36.1578C21.689 36.3648 21.6731 36.341 21.6969 36.4365C21.7208 36.532 21.4581 36.7232 21.3625 36.8744C21.2814 37.0475 21.2199 37.2291 21.1794 37.4158L21.0998 37.7104C21.044 37.7821 20.9883 37.7104 20.8768 37.8776C20.7654 38.0448 20.4628 38.435 20.3513 38.5942L20.1443 38.7455L20.0169 38.865L19.8577 38.9446C19.794 38.9446 19.7781 38.8012 19.7303 38.9446L19.372 39.1675C19.2601 39.2736 19.1272 39.355 18.9819 39.4064C18.8545 39.4064 18.7271 39.3347 18.6156 39.3108C18.5041 39.2869 18.4166 39.3108 18.3608 39.3108L18.1936 39.0879L18.329 38.8888C18.3679 38.7982 18.4131 38.7104 18.4643 38.6261L18.6395 38.3315C18.7751 38.2178 18.898 38.0897 19.0057 37.9493C19.1013 37.798 19.2048 37.6149 19.3163 37.4557C19.4947 37.1794 19.6887 36.9136 19.8975 36.6594C20.1738 36.4206 20.4246 36.1538 20.6459 35.8632C20.8609 35.6084 21.0918 35.3537 21.2988 35.067C21.3737 34.9911 21.438 34.9054 21.4899 34.8122C21.5297 34.7247 21.4899 34.5973 21.5855 34.5176L21.7686 34.3106C21.83 34.2241 21.8859 34.1336 21.9358 34.0399C22.0871 33.7772 22.1985 33.6339 22.3657 33.3791C22.5499 33.0847 22.7097 32.7758 22.8435 32.4555C22.8728 32.3492 22.8862 32.2392 22.8833 32.129L22.8435 31.9459V31.7707L22.732 31.6831C22.5966 31.6831 22.6126 31.7309 22.4613 31.723C22.3184 31.7069 22.1742 31.7069 22.0313 31.723C21.8828 31.7309 21.734 31.7309 21.5855 31.723L21.3625 31.6831L21.1396 31.5V31.6433L20.9246 31.715C20.6858 31.715 20.4867 31.6274 20.2637 31.7707L20.0965 31.6991C20.0196 31.5307 19.9176 31.375 19.794 31.2373L19.6746 31.1417C19.6109 31.1417 19.6268 31.1815 19.571 31.086V31.0382L19.4994 30.6083L19.6029 30.4251C19.8099 30.4251 19.9851 30.5525 20.1921 30.5685C20.3816 30.5995 20.5733 30.6155 20.7654 30.6162H21.0281L21.1396 30.664H21.2749C21.3755 30.6309 21.4678 30.5766 21.5457 30.5048C21.6624 30.4673 21.7823 30.4406 21.9039 30.4251C22.1437 30.4217 22.3833 30.4377 22.6205 30.4729H22.9709C23.1244 30.489 23.2792 30.489 23.4327 30.4729C23.5285 30.4419 23.6272 30.4206 23.7273 30.4092C23.9522 30.4332 24.1791 30.4332 24.404 30.4092C24.5413 30.372 24.6726 30.3157 24.7942 30.242C24.7942 30.1385 24.7942 30.027 24.7942 29.9235C24.8259 29.7044 24.8259 29.4818 24.7942 29.2627C24.7942 28.562 24.7942 28.4665 24.7942 28.3391C24.784 28.1906 24.784 28.0417 24.7942 27.8932C24.7799 27.7416 24.8017 27.5888 24.8579 27.4473C24.8579 27.1846 24.8579 26.9059 24.8579 26.6511C24.888 26.4292 24.888 26.2042 24.8579 25.9823V25.6558C24.8579 25.5523 24.9295 24.2704 24.9295 24.143C24.9295 24.0156 25.1206 23.1 24.9295 23.0045C24.7385 22.9089 24.8579 22.6064 24.8738 22.4869C24.9032 22.3283 24.8838 22.1645 24.8181 22.0172C24.7823 21.5827 24.7823 21.1459 24.8181 20.7114C24.8181 20.4805 24.9295 20.3292 24.8181 20.1222C24.7066 19.9152 24.8181 19.6763 24.7703 19.541C24.7626 19.419 24.7626 19.2967 24.7703 19.1747V18.9438V18.6094C24.6827 18.5616 24.6986 18.4502 24.6986 18.3705V18.1635C24.7155 18.0157 24.753 17.871 24.8101 17.7336C24.8101 17.5823 24.7703 17.5345 24.6986 17.3992L24.5712 17.2081C24.4757 17.1683 24.4598 17.1046 24.3802 17.0807C24.3005 17.0568 24.2448 16.9214 24.1572 16.8577L24.0219 16.7383C23.8744 16.5748 23.7025 16.4352 23.5123 16.3243C23.5123 16.2049 23.3769 16.0376 23.4247 15.9182H23.4884L23.5441 15.8704L23.6556 15.7988L23.7352 15.751H23.9104H24.0537L24.2687 15.8386L24.3961 15.9262L24.5633 15.9819C24.6758 16.0108 24.7902 16.0321 24.9057 16.0456C25.017 16.0534 25.1287 16.0534 25.2401 16.0456C25.4028 16.0407 25.5648 16.0685 25.7166 16.1273C25.8684 16.1861 26.0069 16.2748 26.1239 16.388L26.3309 16.595C26.3632 16.6364 26.39 16.6819 26.4105 16.7303C26.4662 16.8657 26.5618 16.9055 26.6653 16.9931C26.7688 17.0807 26.7369 17.1364 26.7608 17.232V17.4549C26.7608 17.638 26.5379 17.6858 26.506 17.8371C26.4742 17.9884 26.6732 18.0759 26.6573 18.2352C26.6414 18.3944 26.6573 18.4661 26.6016 18.5776C26.5656 18.7261 26.5496 18.8787 26.5538 19.0314C26.53 19.2058 26.53 19.3825 26.5538 19.5569C26.6059 19.7255 26.6059 19.9059 26.5538 20.0744C26.5178 20.2558 26.5178 20.4425 26.5538 20.6238C26.5817 20.9178 26.5817 21.2137 26.5538 21.5076C26.5538 21.8579 26.5538 22.2162 26.5538 22.5586C26.5739 22.7172 26.5739 22.8777 26.5538 23.0363C26.514 23.1478 26.5538 23.1319 26.4901 23.2115C26.4354 23.3644 26.419 23.5285 26.4423 23.6892C26.4423 23.9997 26.3946 24.3102 26.4423 24.6367C26.4661 25.0557 26.4661 25.4757 26.4423 25.8947C26.4329 26.1217 26.4516 26.3491 26.4981 26.5715C26.6016 27.0014 26.3468 27.5269 26.6334 27.925C26.6334 28.0843 26.6334 28.2435 26.6334 28.4107C26.6334 28.5779 26.6334 28.6018 26.514 28.7611C26.4493 28.8498 26.3907 28.9429 26.3388 29.0397L26.514 29.2149C26.5454 29.3241 26.5454 29.44 26.514 29.5493C26.4742 29.6608 26.3309 29.7006 26.2433 29.7802L26.1477 29.9474C26.2495 29.967 26.3484 29.9991 26.4423 30.043C26.589 30.0707 26.7311 30.1189 26.8643 30.1863C26.9599 30.2579 26.9838 30.3137 27.0873 30.3296C27.1908 30.3455 27.1908 30.3296 27.358 30.3296L27.3898 30.3694ZM23.5839 17.2638C23.8148 17.431 23.6954 17.4788 23.783 17.6699L23.8945 17.8291C23.9347 18.2448 23.9347 18.6635 23.8945 19.0792C23.8945 19.2623 24.0617 19.5171 23.9343 19.6524C23.9343 19.6524 23.8865 20.5522 23.8945 20.8706L23.8547 20.9901C23.8273 21.1052 23.826 21.2249 23.8508 21.3406C23.8756 21.4563 23.9259 21.565 23.998 21.6589C24.1572 21.8579 24.0537 22.1844 24.0537 22.4551L23.8865 22.5506L23.8069 22.8771C23.7656 23.1966 23.7443 23.5183 23.7432 23.8405C23.7432 23.9997 23.7432 24.151 23.7432 24.3182V24.5571V24.9233C23.6158 25.2976 23.783 25.4966 23.783 25.8708C23.7989 25.9871 23.7989 26.1049 23.783 26.2212C23.6995 26.6471 23.6995 27.0851 23.783 27.511C23.783 27.7021 23.9024 27.8852 23.783 28.0524C23.6636 28.2196 23.6317 28.156 23.576 28.2913C23.5517 28.3788 23.5141 28.4621 23.4645 28.5381C23.4202 28.5942 23.3723 28.6474 23.3212 28.6974C23.2734 28.7372 23.162 28.9362 23.0584 29.0477C22.9549 29.1592 22.8355 29.3502 22.6285 29.3901C22.4215 29.4299 22.4772 29.3264 22.3657 29.2706C22.2543 29.2149 22.2782 28.8248 22.2543 28.6337C22.2422 28.4003 22.2422 28.1664 22.2543 27.933C22.2543 27.6941 22.1428 27.6464 22.1508 27.3836C22.1587 27.1209 22.1508 26.6989 22.2065 26.3486C22.2065 26.1415 22.318 25.9664 22.3578 25.7673C22.4091 25.4402 22.4091 25.1071 22.3578 24.78C22.3578 24.4854 22.3578 24.1988 22.3578 23.9122V23.6892C22.3298 23.4752 22.3298 23.2583 22.3578 23.0443H22.5409L22.6922 22.7576V22.678C22.7639 22.5745 22.8753 22.5347 22.8833 22.5108V22.4312C22.8833 22.3834 22.6126 22.264 22.5011 22.256C22.3896 22.2481 22.2463 22.1844 22.1269 22.256L22.2145 22.3595L22.2702 22.6382L22.2145 22.7178L21.7765 22.8054C21.6253 22.8612 21.5457 22.8054 21.4183 22.9089L21.251 23.0522C21.0998 23.0522 20.9803 22.9408 20.845 22.9169C20.6926 22.91 20.54 22.9234 20.3911 22.9567C20.3042 22.9713 20.2154 22.9713 20.1284 22.9567C19.9373 22.9567 19.8099 23.092 19.6108 23.0443C19.4379 23.0042 19.2764 22.9253 19.1384 22.8136C19.0005 22.7018 18.8898 22.5602 18.8146 22.3993C18.7669 22.2958 18.7509 22.3197 18.6872 22.2321C18.6235 22.1446 18.6872 21.9535 18.6872 21.834C18.8317 21.8413 18.9765 21.8279 19.1172 21.7942C19.2605 21.7465 19.3083 21.643 19.4755 21.643C19.6427 21.643 20.009 21.6907 20.2717 21.7066C20.483 21.6995 20.6933 21.6755 20.9007 21.635L21.2192 21.5713C21.3989 21.5472 21.581 21.5472 21.7606 21.5713C21.8402 21.5713 22.31 21.7863 22.1269 21.5156C22.0711 21.4121 22.3259 21.2289 22.318 21.1254L22.2543 21.0219V20.9184C22.2236 20.581 22.237 20.2411 22.2941 19.9072H22.4454C22.31 19.8037 22.4454 19.6365 22.302 19.5012C22.1587 19.3658 22.1428 19.4215 22.1269 19.2384C22.1351 19.1244 22.1351 19.01 22.1269 18.896C22.1031 18.7935 22.0844 18.6899 22.0711 18.5855C22.09 18.3641 22.0278 18.1434 21.896 17.9645L21.6332 17.8052C21.5138 17.7097 21.466 17.5186 21.3625 17.3912C21.259 17.2638 21.2112 17.1444 20.9883 17.0409C21.0158 16.9703 21.0563 16.9054 21.1077 16.8498L21.1794 16.6985C21.2223 16.6345 21.2833 16.5846 21.3545 16.5552C21.4581 16.6348 21.673 16.6029 21.8004 16.5552C21.9278 16.5074 22.0154 16.7702 22.2065 16.8657C22.3976 16.9613 22.5409 16.9374 22.6365 17.1125V16.9851H22.9072C23.1361 17.0252 23.3535 17.1149 23.5441 17.2479L23.5839 17.2638ZM22.111 15.2255C22.111 15.4962 22.1109 15.751 22.0711 16.0217C21.9157 16.0271 21.7615 15.9935 21.6224 15.9239C21.4833 15.8544 21.3639 15.7512 21.2749 15.6236C21.3784 15.3768 21.6651 15.4325 21.8084 15.2176C21.9012 15.212 21.9943 15.212 22.0871 15.2176L22.111 15.2255ZM25.7417 39.6532L25.8133 39.4303C25.8133 39.4303 26.0761 39.3745 26.0761 39.2471C26.0761 39.2471 26.3946 39.2471 26.4662 39.4621C26.4662 39.4621 26.3866 39.8443 26.6892 39.6691H26.8564L26.9121 39.8682C26.9121 39.8682 26.6812 40.0274 26.7528 40.1628C26.7528 40.1628 26.1636 40.0991 26.0522 39.8124C26.0522 39.8124 25.9328 39.478 25.7417 39.693V39.6532ZM26.7608 10.3209C26.7608 10.1696 26.7608 10.0183 26.7608 9.85906C26.8908 9.84241 27.0188 9.81309 27.143 9.77149H27.35C27.3022 10.0183 27.35 10.0422 27.6207 10.082C27.8914 10.1218 27.8914 10.3846 27.9392 10.5279C27.7887 10.5135 27.6396 10.4869 27.4933 10.4483C27.2465 10.4085 26.9519 10.3288 26.7608 10.297V10.3209ZM10.7172 7.84465C10.7172 7.84465 10.6376 7.9004 10.6774 8.10742V8.35424H10.5102C10.5102 8.35424 10.3032 7.98001 10.1201 8.04371V7.76505L10.335 7.62969L10.7172 7.84465ZM11.8 28.8646C12.0429 28.8286 12.2897 28.8286 12.5326 28.8646L12.8431 28.9999C12.9383 29.0789 13.0498 29.136 13.1695 29.1671C13.3149 29.2022 13.4584 29.2448 13.5995 29.2945C13.7348 29.2945 13.695 29.3741 13.7587 29.4697C13.7863 29.5139 13.8008 29.5649 13.8008 29.617C13.8008 29.669 13.7863 29.7201 13.7587 29.7643L13.6552 29.9076L13.5039 30.027L13.2412 30.1942C12.8118 30.2259 12.3807 30.2259 11.9513 30.1942C11.6806 30.1942 11.394 30.1465 11.1551 30.1942C10.9163 30.242 10.5819 30.2659 10.2713 30.2818H9.47513C9.18037 30.2632 8.88453 30.2928 8.5993 30.3694C8.44236 30.4335 8.27511 30.4685 8.10565 30.4729C7.87997 30.4746 7.65535 30.504 7.43684 30.5605C7.2725 30.5724 7.1075 30.5724 6.94317 30.5605C6.74412 30.5605 6.55304 30.672 6.35398 30.672L6.17087 30.8232C5.81258 30.8232 5.4702 30.871 5.11987 30.9029C4.76954 30.9347 4.8412 30.9029 4.67399 30.7356C4.50679 30.5684 4.45105 30.656 4.22015 30.4968C4.07977 30.4695 3.94512 30.4183 3.82205 30.3455L3.68668 30.25L3.63096 30.1146C3.56727 29.9872 3.34432 29.8837 3.29654 29.7722L3.3682 29.4458C3.46225 29.4219 3.5608 29.4219 3.65485 29.4458C3.74852 29.4855 3.84801 29.5097 3.94944 29.5175C4.24212 29.489 4.53743 29.5051 4.82528 29.5652C4.97656 29.6289 4.96858 29.7006 5.15967 29.7086H5.6374C5.79885 29.6976 5.95885 29.6709 6.11513 29.6289C6.48935 29.5891 6.85559 29.6767 7.22185 29.6289L7.66772 29.5732C7.9464 29.5334 8.21711 29.5095 8.46393 29.4856C8.57342 29.4727 8.67768 29.4315 8.76649 29.3662L8.81426 29.1193C8.75057 28.9601 8.63115 28.8327 8.5595 28.6735C8.5203 28.5034 8.44114 28.3451 8.32859 28.2117C7.82698 27.6862 7.99417 28.1002 7.77123 27.503C7.6518 27.2244 7.41295 27.296 7.35721 27.0174C7.42091 26.89 7.76326 26.8502 7.93843 26.6909C8.02157 26.7094 8.10191 26.7389 8.17731 26.7785C8.26489 26.7785 8.38432 26.7785 8.4719 26.8741C8.57637 26.9546 8.67003 27.0482 8.75058 27.1527C8.84466 27.2416 8.94887 27.3191 9.06109 27.3836C9.20652 27.4716 9.35822 27.5487 9.51493 27.6145L9.74584 27.6942C9.89635 27.8169 10.0302 27.9587 10.1439 28.1161L10.2554 28.2913V28.5302C10.2988 28.6675 10.2988 28.8148 10.2554 28.9521C10.2554 29.0079 10.0643 29.191 10.2554 29.191C10.4304 29.2029 10.6059 29.2029 10.7809 29.191C10.9002 29.1982 11.0199 29.1982 11.1392 29.191C11.3769 29.1751 11.603 29.083 11.7841 28.9283L11.8 28.8646ZM28.6399 23.8564C28.5682 23.6972 28.9345 23.5379 29.0141 23.4026L29.1335 23.0761L29.3485 22.9647C29.3883 22.9647 29.5316 23.2752 29.5237 23.4981C29.5157 23.7211 30.3915 23.7529 30.503 23.936C30.6145 24.1192 30.3039 24.2864 30.1845 24.3341C29.8979 24.4377 29.8421 24.2784 29.5873 24.2466C29.3704 24.2227 29.1514 24.2227 28.9345 24.2466C28.8178 24.1316 28.7185 24.0001 28.6399 23.8564ZM30.5747 32.2086V32.2883V32.3918C30.4871 32.3918 30.296 32.4714 30.304 32.4395L30.2402 32.2325L30.1128 32.145C30.2243 32.0255 30.1845 32.0255 30.2721 32.0255H30.3119H30.5189C30.6224 32.0255 30.5587 32.1211 30.5587 32.1848L30.5747 32.2086ZM40.583 13.9914L40.6308 14.0392C39.1333 10.0697 36.4719 6.64515 32.9951 4.21394C32.9951 4.50854 32.9951 4.79518 32.9951 5.06589L33.0429 5.32863C33.0429 5.47991 32.9155 5.51178 32.8677 5.67102C33.0429 5.7586 33.0827 5.79045 33.0747 5.9895C33.0552 6.14281 33.0552 6.29798 33.0747 6.45129C33.0864 6.59703 33.0864 6.74348 33.0747 6.88922C32.9756 6.94157 32.8716 6.98423 32.7642 7.01661C32.5731 7.01661 32.6368 7.01661 32.5174 6.9131C32.398 6.8096 32.1273 7.06438 32.1352 7.03253L32.2706 7.39083C32.3263 7.39083 32.7801 7.32711 32.8757 7.31915H33.0429V7.46249C33.1464 7.68543 33.5684 7.68541 33.7674 7.59783C33.9665 7.51025 33.9347 7.43859 34.0461 7.39878H34.3009H34.5318H34.5955L34.7468 7.47043C34.8618 7.52629 34.9858 7.56134 35.113 7.57395H35.2803C35.4315 7.52617 35.3837 7.39081 35.6067 7.47043L35.8455 7.62969C35.9729 7.73319 36.164 7.86855 36.2755 7.98002C36.387 8.09149 36.3392 8.25072 36.379 8.44181C36.2736 8.5121 36.175 8.59208 36.0844 8.68069C35.9391 8.8042 35.7785 8.90855 35.6067 8.9912C35.4554 9.06285 35.3519 8.99121 35.1927 9.05491C35.056 9.10223 34.9074 9.10223 34.7707 9.05491C34.48 8.97845 34.1781 8.95419 33.8789 8.98325C33.7242 8.9822 33.5697 8.96887 33.4171 8.94343C33.3159 8.90206 33.2175 8.8542 33.1225 8.80011H33.0429C33.0429 8.80011 32.9553 8.80011 32.8597 8.84788V9.14248C32.8719 9.31478 32.8719 9.48771 32.8597 9.66001L32.7164 10.0183C32.7642 10.1298 32.7961 10.1457 32.8359 10.2333C32.8359 10.4483 32.7642 10.5597 32.9155 10.6234C32.9075 10.748 32.9075 10.873 32.9155 10.9977C32.9038 11.17 32.9038 11.3429 32.9155 11.5152C32.925 11.7326 32.9009 11.9501 32.8439 12.1601C32.8138 12.3181 32.7925 12.4775 32.7801 12.6378C32.7801 12.8369 32.5413 12.9006 32.4458 13.0837C32.388 13.2189 32.3375 13.3571 32.2945 13.4977C32.4086 13.4349 32.5388 13.4072 32.6687 13.4181C32.7978 13.4354 32.9256 13.462 33.0509 13.4977C33.2658 13.5034 33.4794 13.5328 33.6878 13.5853C33.8789 13.6729 34.0541 13.8401 34.2372 13.9357C34.4358 14.0519 34.6201 14.1909 34.7866 14.3497C34.914 14.4612 35.2086 14.5647 35.2563 14.7319C35.3041 14.8991 35.2563 14.8513 35.2563 14.923C35.2386 15.0409 35.2147 15.1578 35.1847 15.2733C35.1051 15.4644 34.906 15.3848 34.707 15.4166C34.5079 15.4485 34.277 15.6794 33.9665 15.6475C33.4728 15.6475 32.9872 15.4086 32.4935 15.3847C32.206 15.3129 31.9052 15.3129 31.6177 15.3847C31.3629 15.4484 31.1479 15.3848 30.8852 15.4644C30.7578 15.5042 30.7896 15.4007 30.6702 15.3529C30.7399 15.2708 30.8353 15.2147 30.9409 15.1937H31.1002L31.0364 15.0504L30.7737 14.907C30.6622 14.907 30.5985 14.9707 30.4871 15.0105L30.3995 15.2574L30.304 15.337H30.1128C30.0089 15.3581 29.9075 15.3901 29.8103 15.4325C29.5705 15.4362 29.3309 15.4202 29.0937 15.3847C28.6495 15.3848 28.2057 15.4087 27.764 15.4564C27.2624 15.4564 26.6494 15.5918 26.1716 15.6395C25.8447 15.6727 25.5265 15.7644 25.2321 15.9102L24.5633 15.759C24.4118 15.7403 24.2657 15.6916 24.1333 15.6157C24.0224 15.5529 23.9271 15.4657 23.8547 15.3609C23.794 15.2102 23.794 15.0418 23.8547 14.8911L24.205 14.7796L24.5076 14.5408V14.3019L24.0139 14.4213C23.9581 14.3417 23.9343 14.3576 23.9582 14.2701V14.1108C23.9254 13.945 23.9015 13.7776 23.8865 13.6092C23.8865 13.3942 23.8865 13.1235 23.9343 13.0041C23.9821 12.8847 23.9343 12.7573 23.9343 12.6299C24.0059 12.3512 24.0537 12.1203 24.1254 11.8337C24.197 11.547 23.9263 11.2524 23.9183 11.0375C23.9104 10.8225 23.8148 10.9101 23.8467 10.719C23.8785 10.5279 24.3403 10.496 24.4757 10.496C24.6111 10.496 24.7464 10.496 24.8101 10.5996C24.8738 10.7031 24.8897 10.7429 25.1127 10.7986C25.1817 10.814 25.2486 10.8381 25.3117 10.8703C25.3993 10.918 25.5506 10.9658 25.6063 11.0454L25.678 11.2604L25.8531 11.5072C25.9283 11.6224 25.9567 11.7619 25.9327 11.8974C25.9124 12.0586 25.9124 12.2218 25.9327 12.3831C25.9493 12.5302 25.9245 12.6791 25.8611 12.813L25.7098 12.9563V13.227C25.7358 13.5618 25.7224 13.8986 25.67 14.2303H25.877C26.2433 14.294 26.6175 14.2303 26.9838 14.278C27.0713 14.278 27.0236 14.278 27.1987 14.2223L27.3261 14.1665H27.6207C27.7427 14.1745 27.865 14.1745 27.987 14.1665H28.2258L28.3293 14.2382H28.6239C28.9583 14.2382 29.0937 14.1029 29.4201 14.079C29.6897 14.0682 29.9569 14.0254 30.2164 13.9516C30.495 13.8481 30.7976 13.9516 31.0763 13.9516C31.3549 13.9516 31.0763 13.8958 31.3868 13.8481L31.6495 13.7605L31.562 13.641C31.5094 13.527 31.4719 13.4065 31.4505 13.2828C31.4505 13.1076 31.3868 12.9404 31.3629 12.7573C31.3488 12.6235 31.3276 12.4906 31.2992 12.3592C31.2713 12.2452 31.2285 12.1354 31.1718 12.0327L31.2992 11.4037C31.3667 11.1859 31.3667 10.9527 31.2992 10.7349C31.2751 10.5712 31.2751 10.4049 31.2992 10.2412C31.2992 10.0979 31.2992 9.77148 31.2992 9.63612C31.3023 9.52119 31.3265 9.40782 31.3709 9.30173C31.4229 9.23961 31.4486 9.15961 31.4425 9.07879C31.4425 8.97528 31.3868 8.86381 31.3948 8.75234C31.3948 8.12334 31.3948 7.4784 31.3948 6.84939C31.3748 6.69344 31.3748 6.53559 31.3948 6.37963L31.2992 6.43537L31.2036 6.34778C31.2992 6.28408 31.331 6.14873 31.3868 6.05318C31.4425 5.95764 31.4983 5.9258 31.4903 5.76656L31.4425 4.97035C31.4228 4.76647 31.4228 4.56114 31.4425 4.35726L31.6416 4.26171L31.3629 4.09452C31.3282 3.83523 31.2236 3.59027 31.0603 3.3859C30.9091 3.22666 30.6702 3.0913 30.5667 2.88429V2.80466C28.6863 1.84263 26.6698 1.17405 24.5872 0.822113V0.885799C24.6645 1.18835 24.7125 1.49765 24.7305 1.8094C24.7305 2.00846 24.6509 2.2314 24.6429 2.4623C24.6349 2.6932 24.6429 3.01168 24.6429 3.25851C24.3801 3.36998 24.42 2.97982 24.3324 2.74095C24.1891 2.35877 24.0617 2.38266 24.1413 1.94475C24.2099 1.71715 24.2657 1.48589 24.3085 1.25205V1.10874C24.3088 0.9566 24.3222 0.804764 24.3483 0.654891C23.3107 0.489392 22.2619 0.404229 21.2112 0.400123C20.145 0.395127 19.08 0.47499 18.0264 0.638976C18.1725 0.671957 18.3124 0.728418 18.4404 0.806173L18.5599 0.965424C18.613 1.06503 18.693 1.14776 18.7908 1.20428L19.0535 1.31576C19.165 1.43519 19.1331 1.88106 19.1411 2.03234C19.1737 2.23803 19.195 2.44535 19.2048 2.65338C19.202 2.75514 19.1656 2.85312 19.1013 2.93206L19.0296 3.09129L18.942 3.21868C18.942 3.30627 18.942 3.43367 18.942 3.52922C18.942 3.80789 18.8784 4.17415 18.8545 4.42894C18.8306 4.68372 18.9022 5.04997 18.8545 5.3366C18.8545 5.47196 18.8067 5.53566 18.7908 5.66305C18.7621 5.78837 18.7488 5.91671 18.751 6.04524C18.7906 6.26909 18.7906 6.49814 18.751 6.722H18.8067C18.8067 6.722 18.8544 7.11216 18.8624 7.21567C18.8624 7.55007 18.6076 7.76505 18.3847 7.9641C18.1618 8.16316 18.2653 8.18704 18.0662 8.16316C17.8672 8.13927 17.7955 8.11536 17.6602 8.09148C17.5248 8.06759 17.1187 8.09149 16.9515 7.90836C16.6649 7.58988 16.0757 7.7332 15.7254 7.7332C15.5343 7.7332 15.4626 7.65357 15.2954 7.67746C15.1282 7.70134 15.176 7.76504 15.0327 7.75708L15.1282 7.71726H14.9769H15.0327C14.8893 7.71726 14.6425 7.773 14.6584 7.773C14.547 7.773 14.4833 7.773 14.3559 7.773C14.2925 7.76427 14.2282 7.76427 14.1648 7.773L13.9498 7.81282C13.7189 7.81282 13.6791 7.94816 13.5039 8.06759C13.4002 8.14948 13.2695 8.18929 13.1377 8.17907L13.0023 8.1313C12.8975 8.10714 12.7886 8.10714 12.6839 8.1313C12.6146 8.16087 12.5402 8.17611 12.4649 8.17611C12.3896 8.17611 12.3151 8.16087 12.2459 8.1313C12.0787 8.04372 11.9434 7.94817 11.7682 7.87651C11.5931 7.80485 11.4816 7.82077 11.4418 7.67746V7.51821L11.4019 7.31915L11.4736 7.18381L11.5373 7.06438C11.609 6.88126 11.5373 6.83347 11.5373 6.65034C11.5313 6.54958 11.5313 6.44854 11.5373 6.34778C11.5373 6.14872 11.5373 6.08504 11.5373 5.88599V5.75859C11.5211 5.64504 11.5211 5.52977 11.5373 5.41623C11.5373 5.24106 11.6647 5.07385 11.6647 4.90664C11.6647 4.73944 11.5134 4.73148 11.4736 4.63593C11.4575 4.51171 11.4575 4.38594 11.4736 4.26171C11.4736 4.13432 11.4736 4.02286 11.4258 3.89547C11.4258 3.61679 11.4258 3.62476 11.4258 3.35405C11.4216 3.27183 11.4216 3.18945 11.4258 3.10723C11.4302 3.03829 11.4302 2.96914 11.4258 2.9002C11.4258 2.83651 11.5214 2.90022 11.5293 2.78875V2.71707C10.408 3.29838 9.34202 3.98063 8.3445 4.75536L7.85883 5.32863L8.32859 5.73471L8.20119 6.17263C7.9066 5.94173 7.40498 7.07233 7.40498 7.07233L6.8954 6.96087L6.70432 6.5548C6.6787 6.41249 6.6953 6.26579 6.75209 6.13281C3.57142 9.08048 1.38231 12.9413 0.48593 17.1842C0.915882 17.1842 1.28214 17.1205 1.7519 17.1842C2.15762 17.2079 2.56438 17.2079 2.9701 17.1842C3.30448 17.1764 3.63753 17.1391 3.96536 17.0727C4.10867 17.0727 5.81258 17.216 5.97182 17.0011C5.97182 16.9374 6.15493 16.9214 6.25844 16.8896C6.35862 16.8731 6.46083 16.8731 6.56101 16.8896C6.76802 16.8896 7.00688 16.8896 7.22982 16.8896C7.45276 16.8896 7.65978 16.81 7.88271 16.802C8.15057 16.7957 8.4172 16.7637 8.67892 16.7065L8.86203 16.8339C9.0146 16.6694 9.1096 16.4598 9.13274 16.2367C9.13274 16.0297 9.25219 15.8147 9.26811 15.6157C9.28368 15.4169 9.28368 15.2172 9.26811 15.0185C9.26811 14.8115 9.26811 14.9309 9.26811 14.6682C9.25332 14.5572 9.25332 14.4448 9.26811 14.3338C9.26811 14.1905 9.26811 13.9118 9.26811 13.7844C9.26811 13.657 9.08498 13.6968 8.91778 13.641C8.78444 13.5962 8.6444 13.5747 8.50376 13.5774C7.93845 13.5774 7.47665 13.8242 6.91134 13.7286C6.73344 13.6853 6.55241 13.656 6.36992 13.641C6.26642 13.641 6.17087 13.641 6.06736 13.641L5.78071 13.7446C5.61351 13.7446 5.58166 13.6411 5.46223 13.5296C5.40657 13.4831 5.3412 13.4497 5.27093 13.4318C5.20067 13.4139 5.12728 13.4119 5.05616 13.4261L4.77751 13.8003C4.60714 13.8724 4.42761 13.9207 4.24403 13.9436C4.08479 13.9436 3.99721 13.8719 3.82205 13.864C3.64688 13.856 3.50356 13.864 3.3682 13.8162C3.23285 13.7684 3.17712 13.649 3.08158 13.5853C2.98603 13.5216 2.85864 13.4898 2.75513 13.4181C2.65162 13.3465 2.31722 13.02 2.38888 12.8369C2.46054 12.6538 2.73124 12.5821 2.82678 12.5821C2.92233 12.5821 3.12934 12.6777 3.27266 12.6856C3.62135 12.7336 3.97497 12.7336 4.32366 12.6856C4.74533 12.5916 5.17411 12.533 5.60554 12.5104C5.9081 12.5104 6.21067 12.4308 6.50526 12.4069C6.79986 12.3831 6.84764 12.3592 7.03077 12.3193C7.34925 12.2477 7.67569 12.2318 7.99417 12.1681C8.28224 12.0836 8.57854 12.0302 8.87797 12.0088C8.98944 12.0088 9.08499 12.0088 9.17257 11.969C9.26015 11.9292 9.24424 11.7939 9.35571 11.7461C9.52952 11.7153 9.70737 11.7153 9.88118 11.7461C10.0678 11.7897 10.2513 11.8456 10.4306 11.9133C10.6042 11.9331 10.7638 12.0185 10.8764 12.1521C10.9921 12.3143 11.0959 12.4846 11.187 12.6617C11.2507 12.7812 11.3701 12.8687 11.4179 12.9882C11.4701 13.1431 11.4701 13.3109 11.4179 13.4659C11.3701 13.5614 11.3064 13.5853 11.2825 13.6888V13.9516C11.3063 14.2165 11.3063 14.4829 11.2825 14.7478C11.2045 15.2124 11.0819 15.6683 10.9163 16.1093C10.8672 16.2192 10.8299 16.334 10.8048 16.4517C10.8048 16.587 10.6137 16.603 10.5102 16.7065C10.5102 16.7861 11.1074 16.6667 11.2347 16.6667C11.5132 16.6812 11.7923 16.6812 12.0708 16.6667C12.3972 16.6189 12.6839 16.4994 13.0103 16.4596L13.5199 16.3959C13.8861 16.3959 14.0533 16.3163 14.2444 16.3163C14.3934 16.3366 14.5384 16.3796 14.6744 16.4437C14.6027 16.3323 14.539 16.2447 14.5311 16.2208C14.4923 16.1501 14.4731 16.0704 14.4753 15.9899C14.4753 15.7988 14.4116 15.6156 14.4116 15.3847C14.4414 15.2069 14.4921 15.0331 14.5629 14.8672C14.6107 14.6522 14.5629 14.4213 14.5629 14.1984C14.5629 13.9755 14.6584 13.8242 14.7062 13.6251C14.7269 13.475 14.7561 13.3261 14.7938 13.1793C14.8815 12.8668 14.8815 12.5362 14.7938 12.2238L14.6425 11.5311C14.6425 11.4356 14.6425 11.5311 14.5947 11.4515L14.4674 11.34L14.3638 11.1489L14.2364 10.9578L14.3559 10.6632C14.2842 10.5916 14.1807 10.6632 14.0135 10.6632C13.8112 10.701 13.6062 10.7223 13.4004 10.7269C13.2253 10.7269 12.9068 10.7269 12.7316 10.7269L11.0118 10.8304C10.5818 10.8505 10.1549 10.9146 9.73787 11.0215C9.59241 11.0736 9.43846 11.0979 9.28403 11.0932C9.164 11.0615 9.0378 11.0615 8.91778 11.0932C8.42788 11.1066 7.94136 11.1788 7.46867 11.3082C7.34812 11.3686 7.21119 11.3882 7.07854 11.3639C6.89541 11.3639 6.65654 11.2684 6.47341 11.2445C6.32223 11.2522 6.17077 11.2522 6.01959 11.2445C5.92404 11.2445 5.92404 11.1728 5.84442 11.0932C5.7648 11.0136 5.62944 10.934 5.54186 10.8225C5.45428 10.711 5.41447 10.5836 5.31892 10.4881C5.22338 10.3925 5.11191 10.3846 5.0721 10.2412L5.00044 9.90683C5.06414 9.80332 5.22337 9.7874 5.35872 9.76352C5.49408 9.73963 5.57371 9.84315 5.69314 9.875C5.81257 9.90685 5.96383 9.82723 6.09919 9.875C6.20253 9.88329 6.30638 9.88329 6.40972 9.875C6.63781 9.8869 6.86636 9.8869 7.09445 9.875C7.39276 9.86696 7.69046 9.84304 7.98623 9.80334C8.24101 9.80334 8.78242 9.80334 9.02129 9.80334H9.74584C10.0643 9.80334 10.3669 9.72372 10.6854 9.72372C11.5981 9.76899 12.5122 9.66682 13.3925 9.42115C13.5474 9.38941 13.7072 9.38941 13.8622 9.42115H14.0931L14.2922 9.34153H15.0884C15.2476 9.34153 15.3591 9.26987 15.4865 9.26987C15.6139 9.26987 15.7811 9.40524 15.9244 9.38135L16.0837 9.24599C16.1757 9.22287 16.2662 9.19362 16.3544 9.15842C16.4766 9.11248 16.606 9.08821 16.7365 9.08674C17.0471 9.08674 17.3656 9.08674 17.684 9.08674C18.0025 9.08674 18.2334 9.00713 18.52 9.03102C18.8067 9.05491 18.8943 8.93547 19.1252 8.90362C19.3561 8.87178 19.4994 8.72049 19.6905 8.74437C19.8816 8.76826 20.1841 8.83196 20.3911 8.84788C20.5734 8.87431 20.7445 8.95158 20.8848 9.07082C21.052 9.1584 21.0042 9.42911 21.2033 9.41319C21.4023 9.39726 21.3546 9.29375 21.466 9.30967H21.5297C21.6497 9.03381 21.7908 8.76761 21.9517 8.51347C22.1139 8.37373 22.29 8.251 22.4772 8.14722C22.6769 7.96562 22.8462 7.75327 22.9788 7.51821C23.1027 7.26764 23.2668 7.03905 23.4645 6.84145C23.5553 6.74787 23.6379 6.64664 23.7113 6.53888C23.8308 6.37168 23.9104 6.18856 24.0139 6.02135C24.0987 5.9407 24.1547 5.83438 24.1731 5.71879L24.2846 5.464L24.4677 5.24106C24.8597 4.73793 25.159 4.16905 25.3515 3.56105C25.4231 3.35203 25.4231 3.12514 25.3515 2.91612C25.3349 2.72849 25.3538 2.53941 25.4072 2.35879C25.455 2.26324 25.6302 2.22342 25.7098 2.16768L26.2194 2.5897C26.3668 2.75549 26.5454 2.89075 26.7449 2.9878C26.7449 3.10723 26.8723 3.21869 26.8802 3.34608C26.8882 3.47347 26.8006 3.53717 26.7767 3.66456C26.7528 3.79195 26.8802 3.90343 26.9519 3.99898C27.0297 4.10972 27.0864 4.23388 27.1191 4.36523C27.274 4.68245 27.4636 4.98152 27.6844 5.25698C27.8504 5.54986 28.0567 5.8179 28.2975 6.05318L28.4727 6.19652V6.36372C28.5443 6.48315 28.6876 6.53091 28.7752 6.62645L28.9345 6.82551L29.0698 7.00067C29.2742 7.22193 29.4981 7.42445 29.7386 7.6058C29.9134 7.74424 30.0572 7.91783 30.1606 8.11536C30.2084 8.26664 30.4154 8.28258 30.4711 8.30647C30.5704 8.35405 30.653 8.43035 30.7084 8.52547C30.7638 8.62059 30.7893 8.73012 30.7817 8.83991C30.5304 9.1749 30.2329 9.47248 29.8979 9.72372C29.7279 9.79997 29.5425 9.83542 29.3565 9.82723C29.1893 9.82723 29.1813 9.64409 29.0141 9.64409C28.8542 9.654 28.694 9.62957 28.5443 9.57244C28.4671 9.57083 28.3921 9.54585 28.3293 9.50078L28.1383 9.2619C28.0507 9.1584 27.9631 9.07082 27.8676 8.97528C27.772 8.87973 27.6924 8.82399 27.7083 8.64086C27.7331 8.52809 27.7331 8.41127 27.7083 8.2985C27.6544 8.1789 27.6066 8.05667 27.565 7.93225C27.5354 7.76888 27.476 7.61232 27.3898 7.47043C27.2943 7.34304 27.1828 7.36694 27.0634 7.27935C26.9439 7.19177 26.7847 6.81756 26.7051 6.59462C26.627 6.25412 26.5122 5.92307 26.3627 5.60731C26.2923 5.46121 26.1744 5.34333 26.0283 5.27291C25.869 5.20922 25.8213 5.27291 25.6939 5.41623C25.5924 5.56179 25.5044 5.71636 25.4311 5.87802C25.3197 6.06114 25.2321 6.26021 25.1127 6.43537C24.9221 6.85733 24.6787 7.25332 24.3881 7.61377L24.189 7.84465L24.0457 8.03576C23.9381 8.35146 23.7938 8.65342 23.6158 8.93546C23.4991 9.07067 23.3926 9.21439 23.2973 9.36541C23.2178 9.54911 23.1012 9.71446 22.9549 9.85111H22.8594L23.0107 10.0103L23.2177 10.2253L23.2894 10.3288L23.2336 10.5597C23.0186 10.6553 22.8355 10.6553 22.6683 10.8384C22.6302 10.8888 22.5824 10.9309 22.5277 10.9624C22.473 10.9939 22.4125 11.014 22.3498 11.0215C22.2465 11.0298 22.1426 11.0298 22.0393 11.0215C21.7766 11.0215 21.5377 11.0215 21.2829 11.0215C21.114 10.9887 20.9505 10.9324 20.7972 10.8543C20.403 10.7288 19.9926 10.6618 19.579 10.6553C19.1625 10.5945 18.7405 10.5812 18.321 10.6155L18.3847 10.711C18.4854 10.8238 18.6192 10.9018 18.7669 10.9339C18.7669 11.0295 18.7669 11.141 18.7669 11.2206C18.6609 11.2115 18.5544 11.2115 18.4484 11.2206C18.2971 11.2206 18.2493 11.133 18.1299 11.0932C18.0105 11.0534 17.907 11.0932 17.8035 11.0932C17.7 11.0932 17.6601 10.8543 17.5009 10.8066C17.6522 10.711 17.899 10.8066 18.0423 10.6951V10.5996H17.9309L17.6602 10.512C17.4372 10.4642 17.1745 10.512 16.9436 10.512C16.7127 10.512 15.9802 10.3766 16.1474 10.512C16.2296 10.5599 16.2965 10.6303 16.3402 10.7149C16.3839 10.7995 16.4026 10.8948 16.3942 10.9897C16.3305 11.2763 16.2907 11.1171 16.3384 11.4276C16.3601 11.5864 16.3233 11.7477 16.2349 11.8814L15.8448 11.8098L15.7891 11.9292L15.5741 12.0247V12.2795L15.7572 12.4467L15.9324 12.3034L16.004 12.2557H16.1155V12.4866C16.099 12.6632 16.1151 12.8413 16.1633 13.0121L16.2588 13.235C16.287 13.4784 16.287 13.7241 16.2588 13.9675C16.2746 14.0651 16.2746 14.1645 16.2588 14.2621C16.2588 14.3656 16.1792 14.4213 16.1792 14.5408C16.1792 14.8752 16.3942 15.337 16.1394 15.6077C16.02 15.743 15.9563 15.8943 15.8368 16.0615C15.7174 16.2287 15.797 16.1571 15.6935 16.2606C15.5532 16.4022 15.4203 16.5511 15.2954 16.7065C15.4873 16.8114 15.694 16.8866 15.9085 16.9294C16.1712 16.9294 16.2349 16.9294 16.4181 17.1444C16.5302 17.2445 16.6244 17.3629 16.6967 17.4947V17.7017L16.5375 17.9087C16.3384 18.0759 16.3703 18.2591 16.1075 18.275C15.9162 18.275 15.7268 18.3129 15.5502 18.3865C15.3616 18.4529 15.1802 18.5382 15.0088 18.6412C14.9291 18.697 14.7619 18.6412 14.6664 18.6412C14.4827 18.6344 14.3064 18.5673 14.1648 18.4502C13.9657 18.3228 13.7985 18.2909 13.5995 18.1794C13.4383 18.0888 13.2673 18.0167 13.0899 17.9645C12.7007 17.8781 12.3018 17.8433 11.9036 17.861C11.4536 17.7872 10.998 17.7526 10.542 17.7575H10.3749C10.2713 17.7973 10.2076 17.8371 10.1201 17.8769C10.0088 17.9206 9.88864 17.9369 9.76972 17.9247C9.64151 17.9283 9.51375 17.9417 9.38754 17.9645C9.2681 17.9645 9.292 17.8371 9.04517 17.8291H8.52764C8.52764 17.9485 8.82223 18.0282 8.83815 18.0521V18.267C8.82619 18.3755 8.82619 18.485 8.83815 18.5935C8.83815 18.6811 8.83815 18.7607 8.83815 18.9279C8.83815 19.0951 8.79038 19.2782 8.83815 19.4534C8.87602 19.6069 8.88947 19.7654 8.87797 19.9231C8.88087 20.1162 8.85946 20.3088 8.81426 20.4964C8.77851 20.6421 8.69429 20.7712 8.57541 20.8627L8.48782 20.9343H8.56744C8.79266 20.9166 9.01623 20.882 9.23625 20.8308L9.57067 20.783C9.66622 20.783 9.80158 20.6158 10.0962 20.6318C10.2703 20.6817 10.449 20.7138 10.6296 20.7273C10.7696 20.7176 10.9097 20.7451 11.0357 20.8069C11.5771 21.0299 11.402 20.8069 11.6408 21.0697C11.8797 21.3324 12.1902 21.6828 12.0946 21.9774C11.9793 22.1885 11.8834 22.4097 11.808 22.6382C11.7997 22.78 11.781 22.9211 11.7523 23.0602C11.711 23.2732 11.711 23.4921 11.7523 23.7051C11.7888 23.8481 11.8022 23.9959 11.7921 24.143C11.7921 24.5013 11.7921 24.5889 11.7921 24.788C11.7778 25.0016 11.7512 25.2143 11.7125 25.4249C11.6588 25.6328 11.6374 25.8476 11.6488 26.0619C11.6488 26.1813 11.7523 26.468 11.6488 26.5874L11.4099 26.7387L11.1472 26.9139C10.9959 27.0412 10.8924 27.1925 10.7331 27.304C10.5739 27.4155 10.4067 27.4473 10.2554 27.5588C10.1041 27.6703 10.1121 27.718 9.89712 27.6066C9.73939 27.2766 9.66554 26.9129 9.68213 26.5476C9.68092 26.4281 9.71712 26.3111 9.78564 26.2132C9.8677 25.9554 9.91327 25.6874 9.92101 25.417V25.1861H10.0404C10.1439 25.1861 10.2076 25.1861 10.2952 25.2338L10.4704 25.409L10.5341 25.3374L10.4067 25.1144L10.3191 24.8517C10.2713 24.788 10.0723 24.7959 9.93692 24.788C9.93692 24.4376 10.0643 24.3182 10.0802 23.8962C10.0802 23.7688 10.0802 23.721 10.0802 23.5937C10.026 23.2482 9.99151 22.9 9.97675 22.5506H9.80158C9.62458 22.2823 9.37263 22.0719 9.07703 21.9455C8.96556 22.2242 8.57542 22.1605 8.28082 22.2401C8.10437 22.2714 7.92379 22.2714 7.74735 22.2401C7.56176 22.2282 7.37561 22.2282 7.19002 22.2401C7.05004 22.2205 6.90801 22.2205 6.76803 22.2401C6.62471 22.2401 6.52119 22.3595 6.37787 22.3914C6.25958 22.4148 6.13788 22.4148 6.01959 22.3914C5.32144 22.4095 4.6249 22.468 3.9335 22.5666C3.65483 22.5666 3.3682 22.5666 3.08952 22.5666C2.96707 22.577 2.84659 22.6038 2.73124 22.6462L2.55608 22.7417H2.19777L1.96687 22.6462C1.85614 22.6027 1.74956 22.5495 1.64839 22.4869L1.34582 22.3675H1.30602L1.14677 22.1207L1.0592 22.049V21.8261V21.5872C1.16271 21.5872 1.13881 21.5872 1.2264 21.5474L1.44934 21.4439C1.63246 21.4041 1.83153 21.4917 2.01466 21.4439C2.36723 21.4196 2.72104 21.4196 3.07361 21.4439C3.42394 21.4439 3.77427 21.4439 4.11664 21.4439C4.35082 21.4877 4.5911 21.4877 4.82528 21.4439C4.94471 21.4439 5.00838 21.3085 5.12781 21.2926C5.24725 21.2767 5.43039 21.2926 5.56574 21.2926C5.77656 21.2907 5.98689 21.2721 6.19476 21.2369C6.43069 21.2209 6.66743 21.2209 6.90337 21.2369C6.98004 21.2465 7.05761 21.2465 7.13428 21.2369C7.07854 21.1413 7.13428 21.0776 7.13428 20.9582C7.13428 20.8388 7.13426 20.783 7.04668 20.6795C6.9591 20.576 6.84764 20.5044 6.8556 20.3213C6.95938 19.9852 7.0209 19.6375 7.03873 19.2862C7.03873 19.0951 7.03873 18.8801 7.03873 18.689C7.05856 18.549 7.05856 18.407 7.03873 18.267C7.02075 18.2089 6.98887 18.1561 6.94587 18.1131C6.90286 18.0701 6.85002 18.0382 6.79191 18.0202H6.56101C6.34898 18.0361 6.13605 18.0361 5.92402 18.0202C5.6625 18.0812 5.39602 18.1185 5.12781 18.1317C5.088 18.0043 4.79343 17.9645 4.67399 17.9565C4.55456 17.9485 4.47493 18.0521 4.33958 18.1556C4.20422 18.2591 4.20422 18.2113 4.09275 18.2511C3.97628 18.263 3.8589 18.263 3.74242 18.2511C3.56534 18.2714 3.38979 18.3033 3.21692 18.3466C2.60929 18.4469 1.99208 18.4763 1.37768 18.4342H1.1866L1.07512 18.3228C0.979571 18.3228 0.868115 18.4581 0.764607 18.49C0.6611 18.5218 0.39835 18.5616 0.215222 18.5855C0.0873057 19.4905 0.0155185 20.4026 0.000254094 21.3165C-0.0103197 23.4756 0.309177 25.6236 0.94772 27.6862L1.50508 27.3358L2.61182 28.0524C2.61182 28.0524 2.34905 28.2674 2.46848 28.9362L2.55608 29.7324H1.99078C1.83544 29.441 1.63976 29.173 1.40953 28.9362C2.72066 32.296 4.86955 35.2644 7.65181 37.5592H7.819C7.93299 37.5671 8.04741 37.5671 8.16139 37.5592L8.40024 37.4557C8.59133 37.4557 9.01332 37.4557 9.11683 37.2725V37.0894V36.7789C8.97351 36.1578 8.82224 36.1897 8.85409 36.0384C8.8785 35.8985 8.95538 35.7732 9.06906 35.6881C8.96555 35.6881 8.82224 35.6881 8.72669 35.6324C8.63115 35.5766 8.38433 35.6323 8.20916 35.5925C8.034 35.5527 7.91457 35.4572 7.78717 35.4333H7.54033C7.42886 35.4333 7.46071 35.497 7.31739 35.4333L7.11039 35.274C7.02405 35.2221 6.95055 35.1513 6.8954 35.067L6.75209 34.8282C6.68839 34.7485 6.65656 34.6928 6.59286 34.5973C6.53761 34.5136 6.4947 34.4224 6.46546 34.3266C6.46546 34.438 6.19473 33.6259 6.29824 33.7692C6.15492 33.5622 6.10717 33.5065 6.17087 33.2517C6.20696 32.9442 6.29584 32.6452 6.43361 32.3679C6.60081 32.0972 6.74414 31.7707 7.06262 31.6354L7.3811 31.5478V31.3408L7.5483 31.2532C7.7155 31.1895 7.8429 31.078 8.00214 31.0064C8.32772 30.8898 8.66364 30.8045 9.00537 30.7516C9.29161 30.6479 9.59278 30.5914 9.89712 30.5844C10.136 30.5844 10.1599 30.7197 10.3271 30.8312C10.4943 30.9427 10.6456 30.9029 10.8128 30.9427C10.98 30.9825 11.2746 31.094 11.5055 31.1736C11.6141 31.2224 11.718 31.281 11.816 31.3487C11.9189 31.4069 12.015 31.4763 12.1026 31.5557C12.2211 31.64 12.3259 31.742 12.4131 31.8583C12.5023 32.0398 12.582 32.2259 12.652 32.4157V32.6784C12.6603 32.811 12.6603 32.9439 12.652 33.0765C12.6749 33.2109 12.6749 33.3482 12.652 33.4826C12.652 33.6577 12.5644 33.6179 12.4529 33.7294C12.3415 33.8409 12.2857 34.1196 12.1743 34.3106C12.0693 34.5609 11.9021 34.7801 11.6886 34.9476C11.5771 35.0033 11.4736 35.0511 11.3542 35.1228C11.2347 35.1944 11.0994 35.2661 10.972 35.3218C10.8183 35.3945 10.6693 35.4769 10.5261 35.5686L10.3749 35.6642L10.3111 35.704L10.0962 35.8075V35.9508L10.2873 36.1419C10.4545 36.5161 10.2873 36.8426 10.3749 36.9381C10.4624 37.0337 10.3748 37.4158 10.4783 37.4158C10.5818 37.4158 10.4067 37.2805 10.5341 37.2327C10.6615 37.1849 11.3303 37.1292 11.5532 37.0814C12.0238 36.9433 12.5024 36.8343 12.9864 36.755C13.1349 36.7048 13.2921 36.6859 13.4482 36.6993C13.6313 36.6993 13.7906 36.8505 13.9737 36.8824C14.0795 36.8945 14.1864 36.8945 14.2922 36.8824V36.8346C14.125 36.5241 13.9737 36.4524 13.902 36.2056C13.8706 35.988 13.8953 35.766 13.9737 35.5607C14.1329 35.497 14.2922 35.4094 14.4435 35.3377C14.4435 35.1387 14.4435 34.8919 14.4435 34.6849C14.5947 34.6849 14.6982 34.6849 14.8575 34.6849C14.8575 34.876 14.6823 35.067 14.6505 35.2661C14.6343 35.5312 14.6343 35.7971 14.6505 36.0623C14.6053 36.2799 14.5787 36.501 14.5709 36.7232V36.8346C14.6309 36.8236 14.6926 36.8257 14.7517 36.8408C14.8108 36.8559 14.8659 36.8837 14.9132 36.9222C14.9836 36.9787 15.0501 37.0398 15.1123 37.1053C15.2317 37.2088 15.3193 37.3283 15.4467 37.4397C15.5741 37.5512 15.5263 37.4955 15.6855 37.4795C15.7585 37.4595 15.8355 37.4595 15.9085 37.4795C15.797 37.1929 15.6378 37.2407 15.3273 37.1133C15.3273 36.97 15.2397 36.8505 15.2397 36.7072C15.2397 36.5639 15.2874 36.5719 15.3352 36.4604C15.4451 36.1182 15.4643 35.7533 15.391 35.4014C15.3323 34.9951 15.3539 34.5812 15.4546 34.1832C15.5161 34.0375 15.5327 33.8767 15.5024 33.7214C15.4504 33.5651 15.4367 33.3985 15.4626 33.2358C15.4904 32.9392 15.4904 32.6406 15.4626 32.344C15.4626 31.8822 15.4626 31.4045 15.4626 30.9427C15.4626 30.6162 15.4626 30.2738 15.5263 29.9394C15.55 29.7807 15.5307 29.6185 15.4706 29.4697C15.3671 29.183 15.4706 29.1751 15.6696 29.0079C15.4308 28.8486 15.5183 28.6655 15.4148 28.4346C15.3322 28.2463 15.2889 28.0431 15.2874 27.8375C15.2874 27.6066 15.2078 27.3836 15.2078 27.1846C15.2078 26.9855 15.2078 27.1049 15.168 27.0094C15.0004 26.6826 14.7472 26.4075 14.4355 26.2132C14.3479 26.2132 14.3798 26.1336 14.3718 26.0539V25.9903L14.1807 26.1973C14.0193 26.3467 13.8799 26.5182 13.7667 26.7068L13.5517 26.9696C13.4257 27.0621 13.2926 27.1447 13.1536 27.2164C12.8816 27.4464 12.5681 27.622 12.23 27.734C12.1106 27.734 11.9832 27.6384 11.8717 27.6225C11.7602 27.6065 11.6249 27.7339 11.5453 27.6225L11.4497 27.304C11.4497 27.304 11.5532 27.1607 11.6488 27.0572C11.7558 26.9112 11.8728 26.7728 11.9991 26.6432C12.0749 26.4895 12.16 26.3406 12.2539 26.1973C12.3695 26.0387 12.4945 25.8871 12.6281 25.7434C12.8062 25.5295 13.0034 25.3323 13.2173 25.1542C13.3288 25.0428 13.4721 24.9711 13.5199 24.8198C13.578 24.6718 13.6645 24.5365 13.7747 24.4217C14.1423 24.0249 14.4904 23.6103 14.8177 23.1796C14.8809 23.0737 14.9648 22.9816 15.0645 22.9089L15.2238 22.694C15.2795 22.5984 15.3511 22.5108 15.4069 22.4232C15.4974 22.2555 15.6129 22.1025 15.7493 21.9694C15.8724 21.8503 15.9771 21.7134 16.0598 21.5633L16.1394 21.3404V21.0936C16.1699 20.9622 16.1938 20.8293 16.211 20.6955C16.2462 20.5786 16.2462 20.454 16.211 20.3372C16.1968 20.2524 16.1727 20.1696 16.1394 20.0903C16.1394 20.0107 16.2588 19.9868 16.1394 19.9391C16.02 19.8913 15.9722 20.0267 15.8209 20.0187H15.391C15.2486 20.0019 15.1076 19.9753 14.969 19.9391C14.7488 19.9276 14.5282 19.9276 14.3081 19.9391C14.0807 19.9061 13.8487 19.948 13.6473 20.0585L13.488 19.9868C13.4039 19.8275 13.3024 19.678 13.1855 19.541L13.074 19.4295L12.9705 19.3817V19.334L12.8988 18.8801L13.0023 18.697C13.1218 18.6333 13.4084 18.8244 13.5358 18.8323C13.7406 18.8706 13.9485 18.8893 14.1568 18.8881C14.2487 18.8664 14.3417 18.8504 14.4355 18.8403L14.547 18.8801L14.6664 18.9279C14.7938 18.9279 14.8416 18.8244 14.9292 18.7766C15.0421 18.7396 15.1608 18.7234 15.2795 18.7288C15.513 18.6852 15.7508 18.6692 15.9881 18.6811C16.0996 18.6811 16.227 18.7368 16.3544 18.7368C16.4818 18.7368 16.4579 18.6572 16.5694 18.6253C16.7461 18.5976 16.9261 18.5976 17.1028 18.6253C17.3296 18.6612 17.5607 18.6612 17.7875 18.6253C18.0185 18.5696 18.2334 18.4263 18.4643 18.3466C18.6952 18.267 18.7509 18.1635 18.9182 18.1715C19.0865 18.1643 19.2529 18.1321 19.4118 18.0759C19.6268 18.0361 19.7303 18.1715 19.8895 18.2272C20.0488 18.283 20.4867 18.4342 20.2558 18.3626C20.3513 18.4024 20.3752 18.4979 20.4787 18.4979C20.5822 18.4979 20.5743 18.4979 20.7415 18.4979L21.0361 18.6014L21.0759 18.8005V18.9518C21.0759 19.0473 21.0759 19.0155 21.0361 19.0951C20.9695 19.207 20.9186 19.3276 20.8848 19.4534C20.8349 19.605 20.7406 19.7382 20.6141 19.8356L20.4787 20.0187C20.4071 20.0903 20.2239 20.0585 20.1204 20.0187C19.8343 19.9948 19.5467 19.9948 19.2605 20.0187L19.0376 20.0665L18.8704 20.1142C18.7669 20.1142 18.6475 20.1142 18.536 20.0744C18.4191 20.0391 18.2991 20.0151 18.1777 20.0028H17.8751C17.8751 19.8276 17.6283 19.8993 17.5328 19.9391C17.4372 19.9789 17.2541 19.9391 17.1108 19.9948H17.0391L17.2143 20.1063C17.3496 20.1939 17.3735 20.361 17.4611 20.4805C17.5487 20.5999 17.692 20.6955 17.7159 20.8706C17.7398 21.0458 17.5726 21.2926 17.5805 21.3723L17.7079 21.5076C17.8035 21.5952 17.7955 21.635 17.8433 21.7704C17.891 21.9057 17.899 21.9216 17.9388 22.0411C17.9671 22.131 18.0017 22.2188 18.0423 22.3038C18.1163 22.4006 18.1803 22.5047 18.2334 22.6143C18.3267 22.8479 18.4677 23.0594 18.6474 23.2354C18.8863 23.4902 18.9659 23.7529 19.1968 24.0316C19.2514 24.0921 19.2889 24.1659 19.3057 24.2456C19.3225 24.3253 19.3179 24.4081 19.2924 24.4854C19.2924 24.6606 19.4038 24.3899 19.5472 24.5332L19.7223 24.6924L19.9134 24.8198L20.009 24.9074C20.1088 24.9728 20.1953 25.0565 20.2637 25.1542C20.3434 25.2418 20.4071 25.3453 20.4787 25.4409C20.5504 25.5364 20.5345 25.4887 20.6221 25.5285C20.7096 25.5683 20.7813 25.632 20.8768 25.7036C20.9724 25.7753 21.0679 25.7992 21.0918 25.9505C21.1157 26.1017 21.1555 26.0699 21.0918 26.1415L20.9485 26.3565C20.8928 26.4759 20.6857 26.5237 20.5982 26.6113C20.399 26.8071 20.1519 26.9472 19.8816 27.0174C19.7759 27.0143 19.6712 26.9955 19.571 26.9616C19.4603 26.9538 19.3547 26.9121 19.2685 26.8422C19.1491 26.7307 19.0535 26.7626 18.9182 26.7068C18.6395 26.6113 18.5758 26.2689 18.4245 26.0619C18.2732 25.8549 18.2493 25.9106 18.2334 25.8071C18.2175 25.7036 18.3369 25.616 18.2971 25.4886C18.2425 25.3634 18.1814 25.2412 18.114 25.1224L17.907 24.9711L17.8194 24.9074C17.7033 24.7774 17.6261 24.6174 17.5964 24.4456C17.5964 24.3023 17.4372 24.159 17.3894 23.9997C17.3443 23.887 17.3123 23.7694 17.2939 23.6494C17.2241 23.3896 17.1866 23.1222 17.1824 22.8532C17.1824 22.6939 17.0312 22.7895 17.0152 22.694L16.9276 22.5029C16.7525 22.3755 16.3862 23.1478 16.3225 23.2593C16.2588 23.3707 16.02 23.5539 15.9085 23.7609C15.7884 23.9874 15.6413 24.1986 15.4706 24.3899C15.375 24.4934 15.3113 24.6208 15.2238 24.7243C15.1398 24.797 15.072 24.8865 15.0247 24.987C14.9451 25.1542 14.8018 25.2259 14.6983 25.3772C14.6292 25.5097 14.5809 25.652 14.5549 25.7992V25.8469C14.6321 25.7824 14.726 25.741 14.8257 25.7275C14.9594 25.7109 15.0947 25.7419 15.2078 25.8151C15.3229 25.8711 15.4428 25.9164 15.5661 25.9505C15.8687 26.0301 16.1235 26.2212 16.434 26.1734C16.513 26.1544 16.5955 26.1546 16.6744 26.174C16.7534 26.1934 16.8266 26.2314 16.8878 26.2848L17.0471 26.4441C17.2859 26.6591 17.0471 26.6352 17.278 26.8183C17.3042 27.085 17.2853 27.3541 17.2222 27.6145C17.2222 27.7499 17.1745 27.7738 17.1665 27.9091C17.1665 28.2595 17.1665 28.6098 17.1665 28.9681C17.1523 29.2821 17.1872 29.5964 17.27 29.8996C17.3045 30.2198 17.2665 30.5437 17.1585 30.8471C17.1505 30.993 17.1505 31.1392 17.1585 31.285C17.1219 31.4523 17.1085 31.6237 17.1187 31.7946C17.1797 31.9597 17.2543 32.1195 17.3417 32.2724C17.4763 32.2924 17.6131 32.2924 17.7477 32.2724L17.9866 32.145C18.2095 32.0653 18.3369 31.8663 18.5678 31.8583L19.1172 31.8185C19.3322 31.8185 19.4516 31.9618 19.6427 32.0016C19.8338 32.0414 19.9055 31.922 20.1125 32.0016C20.3195 32.0812 20.6061 32.1449 20.8052 32.2564C21.0042 32.3679 20.9246 32.5032 20.9326 32.6943C20.9405 32.8854 21.0918 33.0845 21.0361 33.2119C20.9803 33.3393 20.6459 33.7533 20.3673 33.6975L20.1364 33.6339C19.9771 33.594 19.802 33.6339 19.6507 33.5622C19.4808 33.5155 19.3079 33.4809 19.1331 33.4587L18.9182 33.4985C18.8306 33.4985 18.7032 33.4985 18.6076 33.4985C18.4804 33.5065 18.3527 33.5065 18.2255 33.4985C17.9569 33.4792 17.6904 33.4366 17.4292 33.3711L17.3735 33.5463L17.1745 33.4587L16.9037 33.4109L17.063 33.0686H16.6649C16.6092 33.188 16.5693 33.18 16.4499 33.2119C16.3305 33.2437 16.3305 33.3393 16.4499 33.4268V33.6179C16.4028 33.6411 16.3511 33.6532 16.2986 33.6532C16.2462 33.6532 16.1944 33.6411 16.1474 33.6179C16.1481 33.6923 16.1648 33.7656 16.1964 33.833C16.228 33.9003 16.2737 33.96 16.3305 34.0081L16.4101 33.9285C16.4644 33.873 16.5335 33.8343 16.6092 33.817L16.5136 33.6179C16.7445 33.6179 17.0471 33.5144 17.2461 33.6179C17.283 33.7799 17.3017 33.9455 17.3018 34.1116C17.3018 34.2947 17.071 34.3902 17.0311 34.5654C16.9913 34.7406 16.9834 34.7645 17.0311 34.8202C17.0949 35.1301 17.0949 35.4498 17.0311 35.7597C17.0311 35.9508 17.0869 36.3808 16.9356 36.5161C17.0948 36.5798 17.1346 36.5559 17.1506 36.7311C17.1611 36.9442 17.1478 37.1579 17.1108 37.3681C17.1108 37.7025 17.1824 38.0369 17.1745 38.3713C17.1665 38.7057 17.1745 38.8172 17.1745 39.0401C17.1745 39.2631 17.1108 39.3029 17.0948 39.4621C17.0922 39.691 17.1055 39.9198 17.1347 40.1468C17.1677 40.3578 17.189 40.5705 17.1983 40.7838C17.1749 40.9631 17.1239 41.1377 17.0471 41.3013C17.0072 41.4049 16.9117 41.4526 16.8719 41.5322C16.8321 41.6119 16.8241 41.803 16.7843 41.9383C16.3942 41.8587 15.9881 41.7631 15.6378 41.6676V41.6198C15.6296 41.5336 15.6136 41.4483 15.59 41.365V41.0227C15.5502 40.9431 15.5104 41.0227 15.4626 40.9032C15.4098 40.7469 15.3856 40.5824 15.391 40.4175C15.4068 40.1524 15.4068 39.8865 15.391 39.6213V39.4541C15.4091 39.372 15.4358 39.2919 15.4706 39.2153C15.5343 39.0799 15.4706 38.849 15.4706 38.6898C15.4706 38.5305 15.5263 38.3156 15.4069 38.2678C15.2874 38.22 15.176 38.5146 15.0645 38.5305C14.9422 38.5146 14.822 38.4853 14.7062 38.443L14.4514 38.4031C14.0189 38.2938 13.5757 38.2324 13.1297 38.22C12.9307 38.22 12.7635 38.2996 12.5724 38.3235C12.4324 38.3433 12.2903 38.3433 12.1504 38.3235C11.9836 38.3396 11.8156 38.3396 11.6488 38.3235C11.5293 38.3235 11.5373 38.1643 11.4577 38.0767C11.3462 38.1404 11.4577 38.22 11.3542 38.2996L10.8366 38.3076C10.4881 38.3868 10.1262 38.3868 9.77769 38.3076C9.61886 38.2631 9.45083 38.2631 9.292 38.3076C9.14072 38.3554 8.97351 38.3076 8.81426 38.3713H8.72669C11.6559 40.5052 15.0894 41.8415 18.6905 42.2491C22.2916 42.6566 25.9368 42.1215 29.2689 40.6962C29.2616 40.561 29.2616 40.4254 29.2689 40.2901C29.2689 40.0513 29.2689 39.8124 29.2689 39.5815C29.2689 39.3506 29.2131 39.2869 29.2211 39.0242C29.2211 38.5942 29.2211 38.3076 29.2609 38.0289C29.3007 37.7503 29.3087 37.599 29.3565 37.4079C29.3805 37.0781 29.3644 36.7466 29.3087 36.4206C29.3087 36.126 29.3087 35.8314 29.3087 35.5448C29.2849 35.2081 29.2849 34.8702 29.3087 34.5336C29.3087 34.5336 29.659 34.446 29.5555 34.3504C29.2905 34.329 29.0243 34.329 28.7593 34.3504V34.4858C28.6396 34.4835 28.5223 34.5198 28.4249 34.5893L28.2657 34.7406C28.1223 34.7406 28.0029 34.6371 27.8755 34.6132C27.7279 34.6054 27.58 34.6215 27.4376 34.661C27.3557 34.6716 27.2727 34.6716 27.1908 34.661C27.0236 34.661 26.92 34.7884 26.7528 34.7724C26.6157 34.7503 26.4866 34.6927 26.3786 34.6052L26.1079 34.4221C26.0259 34.3445 25.9678 34.2451 25.9407 34.1355C25.9204 34.0715 25.8879 34.0121 25.8452 33.9603C25.7735 33.8568 25.9009 33.6737 25.9089 33.5542C26.014 33.5616 26.1195 33.5481 26.2194 33.5144C26.3548 33.4587 26.3945 33.3552 26.5538 33.3552C26.713 33.3552 27.0634 33.3552 27.35 33.403C27.5485 33.3905 27.7457 33.3612 27.9392 33.3154C28.0435 33.3041 28.1454 33.2772 28.2417 33.2358C28.4161 33.2119 28.5929 33.2119 28.7673 33.2358C28.8469 33.2358 29.3087 33.4268 29.1335 33.1561C29.0778 33.0606 29.3087 32.8695 29.3007 32.766L29.237 32.6625V32.559C29.1933 32.2207 29.1933 31.8781 29.237 31.5398H29.3724C29.245 31.4363 29.3724 31.2612 29.2291 31.1258C29.0857 30.9905 29.0778 31.0542 29.0619 30.879C29.0698 30.765 29.0698 30.6506 29.0619 30.5366C29.0619 30.4251 29.0619 30.3455 29.0619 30.2181C29.0492 30.1116 29.0152 30.0088 28.9619 29.9157C28.9085 29.8227 28.8369 29.7414 28.7513 29.6767L28.5364 29.4538L28.3851 29.2149L28.2736 29.0158L28.1781 28.8805L28.0268 28.7531C28.0384 28.6902 28.0571 28.6287 28.0825 28.57L28.1701 28.4266L28.2975 28.2595C28.4356 28.2924 28.5776 28.3057 28.7195 28.2993C28.9106 28.2993 29.022 28.5381 29.1972 28.6257C29.3724 28.7133 29.4998 28.7372 29.5953 28.9203L29.6829 28.8009H29.866C30.0763 28.829 30.2806 28.8909 30.4711 28.984C30.7339 29.0955 30.5826 29.1273 30.6702 29.3264L30.7737 29.4776C30.8533 29.6528 30.7259 29.7165 30.71 29.8996C30.6337 29.8852 30.5554 29.8852 30.4791 29.8996L30.4393 30.043L30.0969 29.8917L29.8183 30.043C29.7424 30.1925 29.6837 30.3501 29.6431 30.5127L29.8023 30.7197L30.1049 30.9825C30.2482 31.1099 30.2084 30.7834 30.2323 30.6958C30.3038 30.5612 30.3981 30.44 30.5109 30.3375C30.6702 30.1942 30.6384 30.2739 30.7259 30.449C30.8135 30.6242 30.8374 30.5605 30.8294 30.7038C30.8215 30.8471 30.7021 31.086 30.6782 31.3249H30.3597C30.2482 31.3249 30.2243 31.3248 30.1128 31.3647L29.9934 31.6115C29.9934 31.7389 30.1288 31.8822 30.0492 31.9937C29.9695 32.1051 29.9456 31.9937 29.9138 31.9459C29.8819 31.8981 29.9138 31.8105 29.7068 31.7389L29.5237 32.0892C29.5237 32.2166 29.6829 32.2803 29.7307 32.4077C29.7797 32.5741 29.8579 32.7305 29.9616 32.8695C30.0302 32.89 30.1036 32.8879 30.171 32.8635C30.2384 32.8392 30.2961 32.7938 30.3358 32.7341L30.6383 32.6227H30.7419C30.7419 32.8695 30.6543 33.1004 30.8135 33.2994C30.9728 33.4985 30.8852 33.817 30.8772 34.0956L30.718 34.1992V34.5256C30.718 34.8521 30.5667 35.1705 30.5985 35.497C30.6145 35.7276 30.6145 35.9591 30.5985 36.1897C30.5985 36.4365 30.5985 36.6276 30.5985 36.8665C30.5985 37.1053 30.6463 37.3123 30.6463 37.5353C30.6623 37.6542 30.6623 37.7747 30.6463 37.8936C30.6128 38.0129 30.5941 38.1359 30.5906 38.2598C30.5689 38.4476 30.5689 38.6373 30.5906 38.8251C30.6187 38.9426 30.6347 39.0627 30.6383 39.1834C30.6967 39.3455 30.6967 39.5229 30.6383 39.685C30.5906 39.7886 30.5269 39.8363 30.4711 39.9717C30.4154 40.107 30.4711 40.1309 30.3836 40.2026C30.917 39.9398 31.4425 39.6452 31.976 39.3347C31.976 39.1675 31.976 39.0083 31.976 38.8411C32.0062 38.5978 32.0062 38.3518 31.976 38.1085V37.7662C31.976 37.6468 32.0158 36.2614 31.976 36.126C31.9362 35.9906 32.1511 34.9874 31.976 34.8839C31.8008 34.7804 31.8884 34.446 31.9043 34.3186C31.9315 34.1487 31.9094 33.9746 31.8406 33.817C31.8009 33.348 31.8009 32.8766 31.8406 32.4077C31.9004 32.1996 31.9004 31.9789 31.8406 31.7707C31.8406 31.6195 31.7928 31.285 31.7769 31.1338C31.769 31.0012 31.769 30.8682 31.7769 30.7356V30.4888V30.1226L31.6973 29.8678L31.6336 29.7165L31.7291 29.4856V29.2866C31.7291 29.1512 31.8088 29.0557 31.976 29.1273V28.9521L31.8645 28.8885L31.6893 28.7451C31.6256 28.6575 31.7929 28.4903 31.6893 28.4505C31.5858 28.4107 31.4664 28.4983 31.3788 28.4505C31.2912 28.4028 31.2355 28.2833 31.1479 28.2117L31.0126 28.0843C30.8611 27.9205 30.6899 27.7761 30.503 27.6543C30.503 27.511 30.3676 27.3358 30.3995 27.2085L30.4632 27.1607L30.5189 27.1129L30.6304 27.0253L30.71 26.9696H30.8772L31.0205 27.0174L31.2355 27.1049L31.3629 27.1846L31.5381 27.2642L31.8804 27.312C31.9918 27.32 32.1035 27.32 32.2148 27.312C32.3024 27.312 32.4059 27.312 32.4935 27.312C32.6839 27.3476 32.8604 27.4358 33.0031 27.5668C32.9493 27.4655 32.9066 27.3587 32.8757 27.2483V27.0492L32.9553 26.9139L33.0429 26.5317L32.9553 26.3804V26.2848C32.9076 26.2848 32.8518 26.2848 32.7961 26.1574L32.9075 25.9823L32.6766 26.1097C32.6807 26.0193 32.6556 25.9299 32.605 25.8549L32.7244 25.5762C32.8096 25.6786 32.9191 25.758 33.0429 25.8071V25.7036C33.1059 25.3499 33.2534 25.0167 33.4728 24.7323C33.5467 24.5543 33.6613 24.3962 33.8072 24.2704C33.9744 24.151 34.1974 24.1192 34.3566 23.9838C34.5159 23.8485 34.5079 23.7449 34.6034 23.6494C34.6594 23.5992 34.7249 23.5606 34.796 23.536C34.8671 23.5114 34.9424 23.5012 35.0175 23.5061C35.3439 23.5061 35.6624 23.5061 35.9889 23.4503C36.3122 23.4264 36.6369 23.4264 36.9602 23.4503C37.4749 23.5448 37.9828 23.6725 38.481 23.8325C38.5946 23.8809 38.6896 23.9647 38.7517 24.0714C38.8078 24.167 38.8532 24.2684 38.8871 24.3739C38.8871 24.4615 39.1021 24.573 39.118 24.6765L39.2135 24.6049C39.1483 24.4901 39.0924 24.3703 39.0463 24.2466V24.0316C39.0575 23.9257 39.0575 23.819 39.0463 23.7131C39.0302 23.5037 39.0302 23.2935 39.0463 23.0841C39.0463 22.893 39.1737 22.8134 39.1418 22.6462C39.1172 22.4933 39.1013 22.3391 39.0941 22.1844C39.0941 21.8977 39.0383 21.635 39.0463 21.3882C39.0386 21.2353 38.9979 21.0859 38.9269 20.9503C38.8712 20.799 38.9269 20.7194 38.7517 20.6955C38.6222 20.6795 38.4911 20.6795 38.3616 20.6955C38.2342 20.6955 38.1227 20.8149 37.9953 20.8547C37.6578 20.9583 37.315 21.0434 36.9682 21.1095C36.7851 21.1095 36.7692 21.1095 36.6179 21.006C36.4748 20.9266 36.3108 20.8933 36.1481 20.9104C35.9849 20.9277 35.8244 20.9651 35.6704 21.0219C35.609 21.0494 35.5426 21.0635 35.4753 21.0635C35.4081 21.0635 35.3416 21.0494 35.2803 21.0219C35.1452 20.982 35.0145 20.9286 34.8901 20.8627L34.7946 20.6875C34.7388 20.5999 34.715 20.3372 34.5876 20.3372V20.1142L35.0653 20.0665C35.2404 20.0665 35.4156 20.0107 35.5828 19.9948C35.7181 20.0032 35.8516 19.9606 35.957 19.8754C35.9869 19.8454 36.0233 19.8227 36.0633 19.8089C36.1033 19.7951 36.1459 19.7906 36.1879 19.7957C36.3035 19.7923 36.4183 19.7763 36.5303 19.748C36.8173 19.6392 37.1235 19.5905 37.43 19.6047C37.7164 19.6207 38.0035 19.6207 38.2899 19.6047C38.5288 19.6047 38.6721 19.7559 38.8791 19.8594L39.0383 19.748C39.0383 19.6126 38.9746 19.6285 38.9428 19.5489C38.9109 19.4693 38.9428 19.4136 38.9428 19.3101C38.9428 19.2066 39.0145 18.9995 39.0463 18.8403C39.0643 18.8002 39.0737 18.7568 39.0737 18.7129C39.0737 18.669 39.0643 18.6256 39.0463 18.5855L38.9587 18.3626C38.9587 18.2033 38.9587 18.06 38.911 17.9087C38.8949 17.7712 38.8949 17.6322 38.911 17.4947C38.7756 17.4947 38.7119 17.5982 38.6004 17.6539C38.489 17.7097 38.5606 17.8052 38.3536 17.8689C37.9524 18.0402 37.5235 18.1374 37.0876 18.1556C36.9339 18.1436 36.7796 18.1436 36.6259 18.1556C36.4986 18.1649 36.3714 18.1373 36.2596 18.0759L36.1322 18.0043H35.8535C35.6741 18.0322 35.4915 18.0322 35.3121 18.0043C35.1051 17.9565 34.5955 17.6062 34.6274 18.068C34.7028 18.12 34.7588 18.1957 34.7866 18.283V18.4502L34.7388 18.6014C34.7388 18.7129 34.7866 18.8084 34.7388 18.9199C34.6592 19.2304 34.4044 19.4454 34.3726 19.7639C34.3726 19.8913 34.3248 20.0665 34.3248 20.17C34.3248 20.2735 34.3805 20.2974 34.3248 20.4407C34.2691 20.584 34.2213 20.6079 34.1735 20.6875C34.1484 20.7536 34.11 20.8138 34.0607 20.8645C34.0114 20.9152 33.9523 20.9552 33.8869 20.9821C33.7117 21.0697 33.5047 21.0697 33.3216 21.1811C33.1384 21.2926 32.9792 21.4439 32.82 21.5394C32.7655 21.5739 32.7066 21.6007 32.6448 21.6191C32.3741 21.7465 32.0397 21.7942 31.7769 21.9376C31.5142 22.0809 31.2912 22.3436 30.925 22.2719C30.6861 22.2162 30.4791 22.272 30.2402 22.2321C30.0566 22.1953 29.8812 22.1251 29.7227 22.0251C29.6112 21.9375 29.4281 21.9057 29.3326 21.7942C29.237 21.6828 29.1972 21.5633 29.0937 21.4519C28.9902 21.3404 28.7036 21.0299 28.4886 20.8308L28.2975 20.5362C28.2078 20.4083 28.1253 20.2754 28.0507 20.1381C27.9664 20.0516 27.8891 19.9584 27.8198 19.8594L27.7163 19.5967C27.6287 19.4056 27.5331 19.4773 27.5889 19.2145C27.6371 18.9638 27.7174 18.7202 27.8277 18.49C27.9233 18.2909 27.8755 18.1635 28.0586 17.9884C28.1813 17.8819 28.2815 17.7519 28.3532 17.6062C28.3702 17.4996 28.3996 17.3954 28.4408 17.2956C28.4408 17.2081 28.5364 17.2081 28.5841 17.1523C28.6585 17.0718 28.7533 17.0129 28.8585 16.9821C28.9636 16.9512 29.0752 16.9495 29.1813 16.9772C29.3405 16.9055 29.038 16.9055 29.0858 16.7861L29.1813 16.6905L29.2848 16.5631C29.5077 16.5631 29.8501 16.4756 30.081 16.4596C30.3563 16.4136 30.6242 16.3306 30.8772 16.2128L31.1638 16.1013C31.2912 16.1013 31.3549 16.1969 31.4664 16.2287C31.6057 16.2566 31.7491 16.2566 31.8884 16.2287C32.2112 16.2358 32.5266 16.3264 32.8041 16.4915L33.1783 16.6905L33.4012 16.8418C33.5366 16.9214 33.7038 16.9931 33.8391 17.0727C33.9745 17.1523 34.0939 17.3355 34.2372 17.439C34.2955 17.4734 34.346 17.5194 34.3857 17.5742C34.4255 17.629 34.4535 17.6914 34.4681 17.7575C34.6035 17.7973 34.5557 17.1762 34.6672 17.1762C34.7697 17.1966 34.8752 17.1966 34.9777 17.1762C35.1415 17.1282 35.3155 17.1282 35.4793 17.1762C35.6588 17.1695 35.8361 17.1346 36.0048 17.0727L36.2277 17.0249C36.3366 16.9864 36.4484 16.9571 36.5621 16.9374C36.7031 16.9012 36.847 16.8773 36.9921 16.8657C37.1354 16.8657 37.2787 16.8657 37.4221 16.81L37.6529 16.7065C37.832 16.6746 38.0153 16.6746 38.1944 16.7065C38.4037 16.6906 38.614 16.6906 38.8234 16.7065C38.9585 16.7143 39.0938 16.6953 39.2215 16.6507C39.3728 16.7542 39.4285 16.8816 39.5639 16.7861C39.6992 16.6905 39.7151 16.6507 39.8107 16.6507H40.1769C40.1622 16.5453 40.1382 16.4414 40.1053 16.3402C40.0018 16.1093 39.8425 16.2128 39.4524 16.2765C39.3534 16.3235 39.2621 16.3852 39.1816 16.4596C39.0622 16.388 39.0782 16.4198 39.0702 16.3322V16.165C39.0903 16.0491 39.0903 15.9306 39.0702 15.8147V15.6236L39.126 15.4246L39.3489 15.3768C39.3091 15.2016 38.9826 14.9787 38.8473 14.8672C38.6937 14.6809 38.5824 14.4637 38.5208 14.2303C38.5208 14.1506 38.5208 14.1427 38.4173 14.0551C38.3245 14.035 38.2373 13.9942 38.1625 13.9357C38.0518 13.8171 37.9291 13.7103 37.7963 13.6172C37.7087 13.45 37.7963 13.3703 37.86 13.2748C38.0749 13.0678 38.0272 13.1793 38.1944 13.1315C38.3616 13.0837 38.4253 13.0519 38.5845 13.1315C38.7072 13.2051 38.842 13.2563 38.9826 13.2828C39.1431 13.3222 39.2981 13.381 39.4444 13.4579C39.6115 13.5264 39.7738 13.6062 39.9301 13.6968C40.0495 13.7764 40.161 13.6968 40.3043 13.6968C40.4476 13.6968 40.5432 13.7685 40.6626 13.9755L40.583 13.9914ZM9.42736 31.3806C9.42736 31.492 9.58659 31.5478 9.5627 31.6672L9.292 31.7548L9.14071 31.922H8.94166C8.77681 31.9734 8.60472 31.9976 8.4321 31.9937C8.25693 31.9937 8.20118 31.914 8.06583 32.0335L7.97826 32.1609L7.79512 32.2166C7.70051 32.3027 7.6223 32.4052 7.56424 32.5192C7.49291 32.6438 7.4393 32.7778 7.40498 32.9173C7.37266 33.0256 7.3592 33.1387 7.36518 33.2517C7.37024 33.3494 7.39745 33.4447 7.44479 33.5303L7.63589 33.7533C7.76328 33.8966 7.69162 34.1195 7.85086 34.231C8.1812 34.4652 8.54671 34.6453 8.93369 34.7645C9.115 34.8009 9.30176 34.8009 9.48308 34.7645C9.58757 34.7606 9.69151 34.7473 9.79361 34.7247L9.94489 34.661C10.1105 34.5612 10.2607 34.4378 10.3908 34.2947C10.5214 34.1988 10.6415 34.0894 10.7491 33.9683C10.8227 33.8747 10.8743 33.7659 10.9003 33.6498C10.9086 33.5723 10.9301 33.4969 10.964 33.4268C11.0198 33.3154 11.1153 33.3552 11.0994 33.2198C11.0835 33.0845 11.0994 33.1084 11.0994 33.0367C10.9401 32.7341 11.0118 32.3599 10.8128 32.0812L10.5341 31.9538C10.5341 31.8424 10.4067 31.8742 10.3111 31.8663C10.2282 31.8604 10.1471 31.8388 10.0723 31.8026L9.77769 31.7309L9.70601 31.6195L9.62641 31.4443L9.42736 31.3806ZM34.2133 26.1813L34.293 26.2212C34.293 26.3247 34.293 26.4521 34.293 26.4998C34.293 26.5476 34.293 26.6272 34.3487 26.7148C34.4044 26.8024 34.4124 26.8661 34.277 26.9855C34.277 26.9855 34.277 27.2483 34.3566 27.1607C34.4362 27.0731 34.3566 27.0731 34.4124 27.097C34.6353 27.2403 34.9617 27.6145 35.0573 27.5668C35.1528 27.519 35.2723 27.6941 35.3997 27.7419C35.5271 27.7897 35.3997 27.8534 35.4793 27.9489C35.5617 28.0474 35.6732 28.1171 35.7978 28.148C35.9172 28.1878 36.0207 28.3231 36.1083 28.3231C36.3166 28.3214 36.5214 28.2695 36.7055 28.1719C36.8516 28.0156 37.0241 27.8862 37.215 27.7897C37.4615 27.7467 37.7039 27.6828 37.9396 27.5986L38.1227 27.4234C38.2599 27.2552 38.3529 27.0554 38.3934 26.8422C38.4375 26.6802 38.4694 26.5152 38.4889 26.3486V26.1256C38.4889 26.0221 38.4889 25.9186 38.4889 25.8231C38.4889 25.5683 38.0988 25.3214 38.059 25.0268C38.0192 24.7322 37.9874 24.7402 37.7804 24.7163C37.7087 24.7163 37.5972 25.0348 37.3981 25.0268H37.1593C36.8727 24.987 36.5223 24.7561 36.2357 24.78C36.1497 24.7669 36.0646 24.7483 35.9809 24.7243H35.8694L35.6784 24.8437C35.536 24.8998 35.3853 24.9321 35.2325 24.9393C34.9458 24.9393 34.9777 25.0905 34.8344 25.3135C34.7332 25.4524 34.6427 25.5988 34.5636 25.7514L34.4681 26.0539H34.2133C34.0758 26.0379 33.9369 26.0379 33.7993 26.0539V26.1574C33.7993 26.1574 33.7993 26.3406 33.9585 26.3087L34.2133 26.1813ZM29.7546 18.7766L29.7147 18.697L29.7705 18.4581C29.8103 18.4024 29.6033 18.3068 29.5077 18.267L29.3565 18.4581C29.3007 18.5059 29.1096 18.6333 29.2131 18.6811L29.4122 18.8085C29.4913 18.8479 29.5739 18.8799 29.659 18.904V19.0792L29.3565 19.2464L29.3007 19.318V19.4215L29.3803 19.5489L29.46 19.6684V19.7161L29.5555 19.8435C29.6095 19.9304 29.6798 20.0061 29.7625 20.0665C29.8803 20.1263 29.9946 20.1928 30.1049 20.2655L30.1686 20.3053L30.3517 20.4407L30.4711 20.5362C30.5587 20.6397 30.5348 20.7034 30.6861 20.7512C30.9212 20.8231 31.1649 20.8632 31.4107 20.8706H31.6336L31.8167 20.6318C31.9282 20.5681 32.1034 20.6318 32.2228 20.5522C32.3501 20.519 32.4712 20.4652 32.5811 20.3929C32.7606 20.2062 32.9158 19.9975 33.0429 19.7719C33.1863 19.4797 33.2147 19.1444 33.1225 18.8323C33.0509 18.5059 33.0748 18.1795 32.7563 18.0361L32.597 17.9326L32.5174 17.8132C32.3437 17.7808 32.1656 17.7808 31.9919 17.8132C31.5887 17.7306 31.1758 17.7065 30.7657 17.7415C30.6383 17.7893 30.6065 17.8769 30.503 17.9565C30.3995 18.0361 30.3915 18.1556 30.2801 18.2591C30.1739 18.3784 30.0903 18.516 30.0332 18.6651C29.9536 18.8084 29.8581 18.8084 29.6988 18.8164L29.7546 18.7766ZM41.9684 21.5713C41.975 19.377 41.6365 17.1952 40.9652 15.1061C40.9174 15.337 40.9652 15.329 40.8457 15.5201C40.7391 15.8003 40.6799 16.0963 40.6706 16.3959C40.6614 16.5418 40.6614 16.688 40.6706 16.8339C40.678 16.9638 40.678 17.094 40.6706 17.224C40.6706 17.3912 40.6706 17.5664 40.6706 17.7256C40.6706 18.0441 40.6706 18.283 40.6706 18.6014C40.6706 18.9199 40.7343 19.0792 40.6706 19.3976C40.667 19.5593 40.6429 19.7198 40.5989 19.8754C40.5277 20.3424 40.5277 20.8176 40.5989 21.2847C40.6483 21.4665 40.675 21.6537 40.6785 21.842C40.6785 22.0411 40.6308 22.2321 40.6308 22.4232C40.6467 22.7176 40.6467 23.0126 40.6308 23.307C40.6157 23.5722 40.6157 23.8381 40.6308 24.1032L40.575 24.2545C40.5475 24.3535 40.5475 24.4581 40.575 24.5571C40.575 24.6606 40.575 24.7721 40.575 24.8835C40.575 24.995 40.4238 25.1542 40.3601 25.3374L40.1849 25.616C40.0814 25.7195 39.9699 25.616 39.8823 25.6638C39.7947 25.7116 39.8027 25.9504 39.8187 26.0699C39.8904 26.3789 39.8904 26.7003 39.8187 27.0094L39.7629 27.2005L39.8107 27.296V27.4075V27.5906C39.7415 27.7691 39.659 27.9421 39.5639 28.1082C39.4814 28.201 39.3908 28.2863 39.2931 28.363C39.1859 28.4699 39.0455 28.5373 38.895 28.554C38.7588 28.6249 38.6307 28.7104 38.5129 28.8088C38.3896 28.8745 38.2747 28.9547 38.1705 29.0477C38.0591 29.1485 37.9293 29.2269 37.7883 29.2786C37.6691 29.3225 37.5466 29.3571 37.4221 29.3821C37.1226 29.4865 36.8167 29.5715 36.5064 29.6369C36.2596 29.6369 36.0765 29.5254 35.8137 29.5891C35.551 29.6528 35.551 29.5095 35.3678 29.4697C35.2232 29.4183 35.0822 29.3572 34.9459 29.2866C34.7866 29.2149 34.6114 29.0955 34.4363 28.9999C34.1304 28.7973 33.8612 28.5442 33.6401 28.2515C33.5609 28.1519 33.4637 28.0682 33.3534 28.0047C33.3534 28.1559 33.5047 28.1958 33.6162 28.2833C33.7276 28.3709 33.6878 28.4426 33.7117 28.5461V28.785C33.7117 28.984 33.4967 29.0397 33.4649 29.2069C33.433 29.3741 33.6401 29.4538 33.6241 29.6289C33.5999 29.7581 33.5598 29.8838 33.5047 30.0032C33.4809 30.1642 33.4809 30.3278 33.5047 30.4888C33.481 30.6818 33.481 30.877 33.5047 31.0701C33.553 31.25 33.553 31.4395 33.5047 31.6195C33.4606 31.8188 33.4606 32.0253 33.5047 32.2246C33.5286 32.5452 33.5286 32.8673 33.5047 33.188C33.5047 33.5702 33.5047 33.9444 33.5047 34.3186C33.5285 34.4903 33.5285 34.6645 33.5047 34.8361C33.5047 34.9556 33.4091 34.9396 33.3693 35.0352C33.3295 35.1307 33.3693 35.4014 33.3693 35.5527C33.3892 35.932 33.3892 36.312 33.3693 36.6913C33.3693 37.1133 33.3693 37.4875 33.3693 37.9334V38.22C35.3628 36.7274 37.0771 34.8945 38.4332 32.8058C38.3728 32.7358 38.322 32.6582 38.2819 32.5749L38.6482 31.9538L37.852 32.4157C37.8845 32.0903 37.8029 31.7638 37.6211 31.4921L37.9953 30.5366C37.9953 30.5366 38.7358 31.4523 39.2931 31.3726C40.928 28.3461 41.7922 24.9634 41.8092 21.5235" fill="white" fill-opacity="0.2"/>
</svg>
