<svg width="1260" height="61" viewBox="0 0 1260 61" fill="none" xmlns="http://www.w3.org/2000/svg">
<g opacity="0.2">
<path d="M0 1.44592H27.1857C38.1895 1.44592 45.6794 5.0369 45.6794 15.8565C45.756 18.4518 45.044 21.0087 43.6392 23.1843C42.2343 25.3599 40.2038 27.0502 37.8195 28.0287C41.0305 28.8418 43.8554 30.7685 45.7996 33.4714C47.7438 36.1743 48.6832 39.4809 48.4534 42.8123C48.4534 54.6579 38.4669 59.6946 28.0642 59.6946H0.0462793L0 1.44592ZM12.7144 24.9972H25.5674C30.1908 24.9972 33.3347 22.9919 33.3347 18.0951C33.3347 13.1983 29.1276 11.3795 24.5966 11.3795H12.7144V24.9972ZM12.7144 49.7612H26.3073C31.3006 49.7612 35.5541 48.1288 35.5541 42.0661C35.5541 36.0034 31.8091 33.7648 26.3073 33.7648H12.437L12.7144 49.7612Z" fill="white"/>
<path d="M105.276 37.6823C105.276 53.4453 96.0294 61.0004 80.5871 61.0004C65.1449 61.0004 55.9905 53.3987 55.9905 37.6823V1.44592H68.7049V37.6823C68.7049 44.0248 70.3231 50.3208 80.5871 50.3208C89.834 50.3208 92.5616 46.31 92.5616 37.6823V1.44592H105.276V37.6823Z" fill="white"/>
<path d="M124.141 40.387C124.141 48.1286 130.105 51.16 136.901 51.16C141.525 51.16 148.136 49.8542 148.136 43.8847C148.136 37.9153 139.49 36.5162 130.983 34.231C122.476 31.9458 113.784 28.6347 113.784 17.6285C113.784 5.68962 124.927 0 135.376 0C147.443 0 158.493 5.31653 158.493 18.6545H146.148C145.778 11.6591 140.831 9.84018 134.775 9.84018C130.706 9.84018 126.037 11.5658 126.037 16.4626C126.037 21.3594 128.764 21.546 143.236 25.2769C147.443 26.3495 160.388 29.0544 160.388 42.2524C160.388 52.9788 152.066 60.9069 136.393 60.9069C123.586 60.9069 111.611 54.5644 111.796 40.2004L124.141 40.387Z" fill="white"/>
<path d="M183.137 1.44592H196.129L217.674 59.6013H204.451L200.105 46.6365H178.514L173.89 59.6013H160.991L183.137 1.44592ZM181.889 37.1693H197.007L189.748 15.8098L181.889 37.1693Z" fill="white"/>
<path d="M221.928 1.44592H234.55L258.685 40.5271V1.44592H270.983V59.6013H258.037L233.996 20.6135V59.6013H222.113L221.928 1.44592Z" fill="white"/>
<path d="M295.983 0H308.651V58.1554H295.983V0Z" fill="white"/>
<path d="M317.896 16.1828H328.807V22.1055H329.039C330.398 19.9252 332.29 18.133 334.532 16.9001C336.774 15.6672 339.292 15.0349 341.846 15.0636C354.051 15.0636 357.149 22.0123 357.149 32.4588V58.1554H345.637V34.3244C345.637 27.4222 343.602 23.9711 338.285 23.9711C332.044 23.9711 329.362 27.4688 329.362 36.0499V58.1554H317.896V16.1828Z" fill="white"/>
<path d="M379.72 16.1831H388.134V23.9714H379.72V44.8643C379.72 48.7818 380.69 49.7612 384.574 49.7612C385.769 49.7686 386.961 49.6593 388.134 49.4347V58.1557C385.914 58.4684 383.672 58.6087 381.43 58.5754C374.356 58.5754 368.207 56.9432 368.207 48.5486V23.6449H361.272V16.1831H368.207V3.54468H379.72V16.1831Z" fill="white"/>
<path d="M402.371 39.967C402.695 47.3355 406.255 50.6933 412.635 50.6933C414.547 50.8267 416.455 50.3722 418.106 49.3897C419.757 48.4073 421.073 46.9431 421.882 45.1902H432.007C430.867 49.4607 428.285 53.1956 424.706 55.75C421.127 58.3044 416.776 59.5179 412.404 59.1811C409.506 59.3225 406.612 58.8398 403.913 57.7651C401.214 56.6905 398.774 55.0485 396.753 52.9485C394.732 50.8485 393.178 48.3386 392.194 45.5856C391.209 42.8327 390.817 39.8998 391.044 36.9822C390.898 34.079 391.345 31.1766 392.357 28.4548C393.369 25.733 394.924 23.25 396.927 21.1598C398.93 19.0696 401.337 17.4168 404 16.3039C406.662 15.191 409.523 14.6416 412.404 14.6901C426.644 14.6901 433.533 26.7688 432.747 39.7337L402.371 39.967ZM420.865 32.6451C419.802 26.7689 417.305 23.6443 411.618 23.6443C409.173 23.5688 406.798 24.4736 405.013 26.1606C403.228 27.8475 402.178 30.1792 402.094 32.6451H420.865Z" fill="white"/>
<path d="M438.614 16.1818H449.525V24.0634C450.648 21.4279 452.502 19.1761 454.865 17.5792C457.227 15.9822 459.997 15.1083 462.84 15.0626C463.703 15.0821 464.559 15.2234 465.383 15.4823V26.2553C464.016 25.9606 462.62 25.8199 461.222 25.8356C452.808 25.8356 449.895 31.945 449.895 39.4068V58.1545H438.429L438.614 16.1818Z" fill="white"/>
<path d="M470.795 16.1822H481.752V22.105C483.101 19.9252 484.984 18.1323 487.219 16.899C489.454 15.6656 491.966 15.0334 494.513 15.063C506.765 15.063 509.816 22.0117 509.816 32.4582V58.1549H498.35V34.3238C498.35 27.4216 496.316 23.9705 490.953 23.9705C484.757 23.9705 482.076 27.4683 482.076 36.0493V58.1549H470.564L470.795 16.1822Z" fill="white"/>
<path d="M517.587 29.0535C518.234 18.1873 527.851 15.0626 537.236 15.0626C545.558 15.0626 555.73 16.928 555.73 27.048V48.8272C555.524 52.0089 556.029 55.1966 557.21 58.1545H545.558C545.118 56.8414 544.838 55.4788 544.726 54.0972C542.874 55.8532 540.693 57.2194 538.312 58.1162C535.931 59.013 533.396 59.4224 530.856 59.3204C522.904 59.3204 516.616 55.3097 516.616 46.682C516.616 37.1216 523.736 34.8364 530.856 33.857C537.976 32.8777 544.449 33.0176 544.449 28.3073C544.449 23.597 541.028 22.571 537.005 22.571C532.983 22.571 529.793 24.3898 529.376 28.9601L517.587 29.0535ZM544.171 37.6346C541.187 39.1161 537.925 39.9426 534.601 40.0596C531.041 40.8058 527.805 42.0184 527.805 46.2623C527.805 50.5062 531.133 51.672 534.878 51.672C536.158 51.7887 537.447 51.6132 538.651 51.1583C539.854 50.7034 540.94 49.9809 541.828 49.0444C542.717 48.108 543.385 46.9816 543.782 45.7491C544.18 44.5166 544.297 43.2095 544.125 41.925L544.171 37.6346Z" fill="white"/>
<path d="M578.335 16.1831H586.75V23.9714H578.335V44.8643C578.335 48.7818 579.306 49.7612 583.19 49.7612C584.384 49.7686 585.576 49.6593 586.75 49.4347V58.1557C584.529 58.4684 582.288 58.6087 580.046 58.5754C573.018 58.5754 566.869 56.9432 566.869 48.5486V23.6449H559.888V16.1831H566.869V3.54468H578.335V16.1831Z" fill="white"/>
<path d="M603.352 9.51378H591.84V0.186523H603.352V9.51378ZM591.84 16.0428H603.352V58.0155H591.84V16.0428Z" fill="white"/>
<path d="M632.021 14.9233C636.399 14.8307 640.706 16.055 644.392 18.4403C648.078 20.8257 650.976 24.2639 652.718 28.317C654.459 32.37 654.965 36.8543 654.171 41.1984C653.377 45.5426 651.318 49.5499 648.258 52.7096C645.197 55.8693 641.274 58.0384 636.987 58.9405C632.7 59.8426 628.243 59.4368 624.186 57.7749C620.128 56.1129 616.653 53.27 614.203 49.6085C611.753 45.9471 610.44 41.6328 610.429 37.2154C610.201 34.2732 610.598 31.3156 611.596 28.5411C612.593 25.7666 614.167 23.2392 616.211 21.1282C618.256 19.0173 620.724 17.3715 623.451 16.3014C626.177 15.2312 629.099 14.7614 632.021 14.9233ZM632.021 50.6932C639.88 50.6932 642.239 43.8844 642.239 37.2154C642.239 30.5464 639.88 23.6442 632.021 23.6442C624.161 23.6442 621.942 30.4065 621.942 37.2154C621.942 44.0243 624.207 50.6932 632.021 50.6932Z" fill="white"/>
<path d="M660.404 16.1825H671.315V22.1052C672.672 19.9217 674.562 18.1271 676.805 16.8938C679.048 15.6605 681.568 15.0301 684.122 15.0633C696.328 15.0633 699.38 22.012 699.38 32.4585V58.1551H687.914V34.324C687.914 27.4219 685.879 23.9708 680.562 23.9708C674.321 23.9708 671.639 27.4685 671.639 36.0496V58.1551H660.173L660.404 16.1825Z" fill="white"/>
<path d="M707.15 29.0535C707.798 18.1873 717.414 15.0626 726.8 15.0626C735.122 15.0626 745.294 16.928 745.294 27.048V48.8272C745.076 52.0052 745.565 55.1921 746.727 58.1545H735.076C734.635 56.8414 734.356 55.4788 734.243 54.0972C732.391 55.8532 730.211 57.2194 727.829 58.1162C725.448 59.013 722.913 59.4224 720.373 59.3204C712.421 59.3204 706.133 55.3097 706.133 46.682C706.133 37.1216 713.253 34.8364 720.373 33.857C727.493 32.8777 733.966 33.0176 733.966 28.3073C733.966 23.597 730.545 22.571 726.522 22.571C722.5 22.571 719.31 24.3898 718.894 28.9601L707.15 29.0535ZM733.735 37.6346C730.751 39.1161 727.489 39.9426 724.164 40.0596C720.604 40.8058 717.368 42.0184 717.368 46.2623C717.368 50.5062 720.697 51.672 724.442 51.672C725.722 51.7887 727.011 51.6132 728.214 51.1583C729.417 50.7034 730.504 49.9809 731.392 49.0444C732.28 48.108 732.948 46.9816 733.346 45.7491C733.743 44.5166 733.861 43.2095 733.689 41.925L733.735 37.6346Z" fill="white"/>
<path d="M753.654 0H765.166V58.1554H753.654V0Z" fill="white"/>
<path d="M796.476 0H837.069V10.773H809.329V24.2042H833.509V34.1843H809.329V58.1554H796.614L796.476 0Z" fill="white"/>
<path d="M854.313 9.51378H842.847V0.186523H854.313V9.51378ZM842.847 16.1827H854.313V58.1554H842.847V16.1827Z" fill="white"/>
<path d="M863.182 0H874.694V58.1554H863.182V0Z" fill="white"/>
<path d="M883.115 16.1821H893.98V21.9185C895.371 19.7819 897.274 18.0335 899.513 16.8353C901.751 15.637 904.253 15.0275 906.787 15.0629C909.289 14.8509 911.796 15.4107 913.976 16.6683C916.156 17.9259 917.906 19.8218 918.993 22.1049C920.352 19.9663 922.217 18.2028 924.421 16.9733C926.624 15.7439 929.097 15.0873 931.615 15.0629C940.492 15.0629 946.918 19.2135 946.918 30.173V58.1548H935.406V34.3703C935.406 28.7273 934.944 24.0637 928.378 24.0637C921.813 24.0637 920.704 29.4735 920.704 34.7434V58.0616H909.423V34.8367C909.423 29.9398 909.746 24.2968 902.487 24.2968C900.222 24.2968 894.72 25.7892 894.72 33.9972V58.1548H883.208L883.115 16.1821Z" fill="white"/>
<path d="M978.353 0H1018.95V10.773H991.206V24.2042H1015.39V34.1843H991.206V58.1554H978.492L978.353 0Z" fill="white"/>
<path d="M1033.84 39.9673C1034.16 47.3358 1037.72 50.6935 1044.15 50.6935C1046.06 50.8205 1047.97 50.3632 1049.62 49.3815C1051.26 48.3998 1052.58 46.9393 1053.4 45.1905H1063.48C1062.35 49.4572 1059.77 53.1909 1056.2 55.7458C1052.63 58.3008 1048.28 59.5161 1043.92 59.1814C1041.02 59.3227 1038.13 58.84 1035.43 57.7654C1032.73 56.6908 1030.29 55.0488 1028.27 52.9488C1026.25 50.8488 1024.69 48.3388 1023.71 45.5859C1022.72 42.8329 1022.33 39.9001 1022.56 36.9825C1022.41 34.0776 1022.85 31.1721 1023.86 28.4473C1024.87 25.7224 1026.42 23.2366 1028.43 21.145C1030.43 19.0533 1032.84 17.4006 1035.51 16.2901C1038.17 15.1796 1041.04 14.635 1043.92 14.6904C1058.16 14.6904 1065.05 26.7691 1064.22 39.734L1033.84 39.9673ZM1052.56 32.6453C1051.5 26.7692 1049 23.6446 1043.32 23.6446C1042.1 23.601 1040.89 23.7992 1039.75 24.2281C1038.62 24.657 1037.57 25.308 1036.68 26.1439C1035.79 26.9798 1035.08 27.9842 1034.57 29.0998C1034.07 30.2154 1033.79 31.4202 1033.75 32.6453H1052.56Z" fill="white"/>
<path d="M1079.01 44.5373C1079.01 49.6206 1083.31 51.6726 1087.84 51.6726C1091.12 51.6726 1095.33 50.3669 1095.33 46.2629C1095.33 42.1589 1090.71 41.5992 1082.34 39.7337C1075.68 38.288 1069.07 35.9097 1069.07 28.4945C1069.07 17.6749 1078.31 14.9233 1087.24 14.9233C1096.16 14.9233 1104.81 18.0013 1105.73 28.4011H1094.82C1094.5 23.7375 1091.12 22.665 1086.96 22.665C1084.37 22.665 1080.58 23.178 1080.58 26.5824C1080.58 30.7797 1087.05 31.2459 1093.62 32.8782C1100.18 34.5105 1106.89 36.889 1106.89 44.7238C1106.89 55.8233 1097.32 59.4142 1087.79 59.4142C1078.27 59.4142 1068.61 55.73 1068.14 44.5373H1079.01Z" fill="white"/>
<path d="M1127.37 16.1831H1135.97V23.9714H1127.56V44.8643C1127.56 48.7818 1128.53 49.7612 1132.41 49.7612C1133.61 49.7704 1134.8 49.661 1135.97 49.4347V58.1557C1133.75 58.4684 1131.51 58.6087 1129.27 58.5754C1122.24 58.5754 1116.09 56.9432 1116.09 48.5486V23.6449H1109.11V16.1831H1116.09V3.54468H1127.56L1127.37 16.1831Z" fill="white"/>
<path d="M1152.38 9.51378H1140.87V0.186523H1152.38V9.51378ZM1140.87 16.0428H1152.38V58.0155H1140.87V16.0428Z" fill="white"/>
<path d="M1183.87 58.1554H1171.07L1156.78 16.1827H1168.8L1177.63 45.0039L1186.83 16.1827H1198.25L1183.87 58.1554Z" fill="white"/>
<path d="M1201.57 29.0535C1202.22 18.1873 1211.84 15.0626 1221.22 15.0626C1229.59 15.0626 1239.72 16.928 1239.72 27.048V48.8272C1239.5 52.0052 1239.99 55.1921 1241.15 58.1545H1229.5C1229.05 56.8454 1228.79 55.4798 1228.71 54.0972C1226.86 55.8446 1224.67 57.2054 1222.29 58.1017C1219.91 58.998 1217.38 59.4121 1214.84 59.3204C1206.89 59.3204 1200.6 55.3097 1200.6 46.682C1200.6 37.1216 1207.72 34.8364 1214.84 33.857C1221.96 32.8777 1228.44 33.0176 1228.44 28.3073C1228.44 23.597 1225.06 22.571 1220.99 22.571C1216.92 22.571 1213.78 24.3898 1213.36 28.9601L1201.57 29.0535ZM1228.11 37.6346C1225.14 39.111 1221.9 39.9374 1218.59 40.0596C1214.98 40.8058 1211.75 42.0184 1211.75 46.2623C1211.75 50.5062 1215.07 51.672 1218.82 51.672C1220.1 51.7887 1221.39 51.6132 1222.59 51.1583C1223.79 50.7034 1224.88 49.9809 1225.77 49.0444C1226.66 48.108 1227.33 46.9816 1227.72 45.7491C1228.12 44.5166 1228.24 43.2095 1228.07 41.925L1228.11 37.6346Z" fill="white"/>
<path d="M1248.08 0H1259.6V58.1554H1248.08V0Z" fill="white"/>
</g>
</svg>
