<svg width="91" height="20" viewBox="0 0 91 20" fill="none" xmlns="http://www.w3.org/2000/svg">
<path fill-rule="evenodd" clip-rule="evenodd" d="M26.3463 8.56821H19.5946V3.34961H16.9724V16.7339H19.5946V10.999H26.3463V16.7339H28.9882V3.34961H26.3463V8.56821Z" fill="white"/>
<path fill-rule="evenodd" clip-rule="evenodd" d="M81.8698 14.2344V3.34961H79.2125V16.7339H88.8512V14.2344H81.8698Z" fill="white"/>
<path fill-rule="evenodd" clip-rule="evenodd" d="M58.3249 11.7417L52.2859 3.34961H48.9227V16.7339H51.4716V6.43011L58.7163 16.7339H60.9159V3.34961H58.3249V11.7417Z" fill="white"/>
<path fill-rule="evenodd" clip-rule="evenodd" d="M68.1818 10.9883H74.2312V8.72499H68.1818V5.61587H75.0136V3.35254H65.5503V16.7339H75.6032V14.4044H68.1818V10.9883Z" fill="white"/>
<path fill-rule="evenodd" clip-rule="evenodd" d="M37.1728 3.34961L31.147 16.7335H34.0751L35.4909 13.6004H42.2594L43.6751 16.7335H46.6028L40.5359 3.34961H37.1728ZM36.5045 11.2527L38.8615 5.73923L41.3263 11.2527H36.5045Z" fill="white"/>
<path fill-rule="evenodd" clip-rule="evenodd" d="M7.95238 14.4691C5.55095 14.4691 3.60426 12.4683 3.60426 10C3.60426 7.53166 5.55095 5.53095 7.95238 5.53095C9.57492 5.53095 10.9878 6.44615 11.7345 7.79964L13.8179 6.38569C12.5921 4.35921 10.3731 3 7.83217 3C3.96526 3 0.831451 6.13417 0.831451 10C0.831451 13.8658 3.96526 17 7.83217 17C10.4511 17 12.7316 15.5585 13.932 13.4279L11.8354 12.0047C11.1195 13.4648 9.6522 14.4687 7.95274 14.4687L7.95238 14.4691Z" fill="white"/>
</svg>
