<svg width="107" height="81" viewBox="0 0 107 81" fill="none" xmlns="http://www.w3.org/2000/svg">
<path d="M81.7399 66.4782C81.5393 67.0159 81.5192 67.0159 81.7399 67.1752C82.1813 67.693 82.5022 67.5137 82.442 67.6332C82.7028 67.1552 83.0038 66.7769 83.2646 66.7172L83.7059 66.976C83.7216 66.5157 83.8027 66.0598 83.9467 65.6219C84.0818 65.2388 84.1298 64.8308 84.0871 64.4271L83.7862 63.7898C83.6458 63.5509 83.6258 63.511 83.4252 63.2123C83.064 63.2123 83.044 63.6305 82.9236 63.9093C82.7886 64.1586 82.6938 64.4274 82.6427 64.7058C82.7401 64.816 82.8107 64.947 82.8489 65.0886C82.8872 65.2302 82.8921 65.3785 82.8634 65.5223V66.0998C82.8634 66.3587 82.5023 66.2591 82.2816 66.3189L81.7399 66.4782ZM29.5192 -6.92416C30.422 -7.38217 31.3648 -7.82027 32.3077 -8.21854C31.3648 -7.82027 30.4421 -7.36224 29.5393 -6.90422L29.5192 -6.92416ZM43.9235 -3.55872V-4.0167L43.7029 -4.33532C43.4621 -4.67386 43.5023 -5.27128 43.4019 -5.64964V-6.10768C43.4019 -6.44622 43.5624 -6.74489 43.4019 -7.06351C43.2415 -7.38213 43.2013 -8.31813 43.1411 -8.67658C43.1352 -8.96715 43.0879 -9.25542 43.0007 -9.53286C42.8926 -9.89939 42.8055 -10.2717 42.7399 -10.648L42.2784 -11.1259L42.0979 -11.3251C38.7476 -10.5966 35.4759 -9.54964 32.3278 -8.19861L32.4683 -8.01939C32.6781 -7.74623 32.847 -7.44438 32.9698 -7.12325C33.0101 -6.79922 33.0101 -6.47152 32.9698 -6.14749C32.8826 -5.48652 32.8826 -4.81708 32.9698 -4.15611V-3.3795C33.2507 -3.10071 33.4714 -2.58291 33.7924 -2.40368L34.4945 -2.82192C34.7774 -2.95032 35.0864 -3.01167 35.3973 -3.00113H36.1997C36.4405 -3.00113 36.4806 -2.82191 36.7615 -2.88166C37.0423 -2.9414 37.2229 -3.12059 37.5038 -3.22016C37.7847 -3.31973 38.1056 -3.39941 38.4065 -3.43924C39.0686 -3.43924 39.3294 -3.83751 39.851 -3.99682C40.3726 -4.15613 40.6133 -4.29552 40.8741 -4.35526C41.0233 -4.37894 41.1707 -4.41217 41.3155 -4.4548C41.5387 -4.51585 41.7744 -4.51585 41.9976 -4.4548C42.2181 -4.40396 42.4284 -4.31648 42.6195 -4.19597L43.0007 -3.99682L43.2615 -3.89722C43.6025 -3.89722 43.6025 -3.47907 43.8633 -3.31976L43.9235 -3.55872ZM29.6797 -2.12492V-1.28851C29.6797 -1.1292 29.9806 -1.10928 30.2615 -1.08936L30.4822 -1.52747L31.2245 -1.64695L30.8834 -2.62277L30.1612 -2.40368C30.0007 -2.40368 29.8201 -2.40371 29.7198 -2.12492H29.6797ZM33.7322 4.28733V4.02844L33.993 3.86916C34.5548 3.99044 35.1363 3.99044 35.6982 3.86916C36.1797 3.86916 36.8417 3.86915 37.263 3.67001C37.6843 3.47087 38.6473 3.57047 39.2692 3.51073V3.84923C39.5092 3.70226 39.7649 3.58206 40.0315 3.49079C40.513 3.25183 40.6334 3.31159 41.2553 3.39125C41.8772 3.4709 42.1782 3.74964 42.3788 3.65008C42.5794 3.55051 42.7399 3.39124 43.0007 3.45099L43.442 3.74968C43.9035 3.59037 43.442 3.11241 43.3016 2.85353V2.4951C43.3016 2.15657 43.121 1.93749 43.3016 1.59895L43.442 0.98163V0.663002V0.125351C43.4019 -0.178695 43.4019 -0.486623 43.442 -0.790668C43.442 -1.1292 43.6828 -1.88595 43.7229 -2.18466H43.5825L43.3016 -2.34394C43.0007 -2.44351 43.0007 -1.54742 42.78 -1.5076C42.4737 -1.39014 42.1431 -1.34912 41.8171 -1.38812H41.5763L41.0948 -1.26864C40.7337 -1.26864 40.4328 -1.16902 40.0717 -1.1491L39.1488 -1.00975C38.6802 -0.888171 38.2045 -0.795038 37.7244 -0.730929C37.4837 -0.730929 37.1025 -0.730929 36.7615 -0.730929C36.4204 -0.730929 36.2399 -0.969926 36.0192 -0.950012C34.8355 -0.950012 35.6581 -0.691099 34.9158 -0.790668C34.655 -0.790668 34.4142 -1.04954 34.1334 -0.969885C33.7955 -0.902597 33.4539 -0.85609 33.1103 -0.830534C33.1103 -0.551741 32.9899 -0.412329 32.9698 -0.193277C32.9498 0.0257747 33.0701 0.324491 32.9698 0.563456C32.9113 0.866138 32.8711 1.17202 32.8494 1.47948C32.8819 1.77066 32.8819 2.06451 32.8494 2.35569L33.0902 3.01288C33.2105 3.23193 33.3108 3.11243 33.4513 3.49079V3.88909V4.24753L33.7322 4.28733ZM102.704 21.7319C102.925 22.3492 103.186 22.9267 103.386 23.544C103.206 22.9864 103.025 22.4288 102.825 21.8911L102.704 21.7319ZM80.6365 -4.71369C81.5995 -4.11628 82.5424 -3.47903 83.4652 -2.84179C82.5424 -3.47903 81.5995 -4.07645 80.6365 -4.65395V-4.71369ZM0.891104 33.1823C1.0516 32.0273 1.21209 30.8723 1.45283 29.7571C1.19203 30.8723 1.01144 32.0273 0.850941 33.1823H0.891104ZM51.8278 10.0026L51.547 10.4009L51.7677 10.8191L52.7106 10.6996L53.4729 10.9585V10.6598L52.8911 10.3013L51.8278 10.0026ZM24.6642 28.1242C24.283 28.1242 24.3834 28.1242 24.4235 28.403C24.4636 28.6818 24.925 28.6419 25.1056 28.6021C25.2861 28.5623 25.5269 28.403 25.8679 28.4229V27.9649C25.8679 27.6861 25.6673 27.9649 25.4266 27.7857H24.905L24.6642 28.1242ZM65.6504 38.0811L66.2923 37.8819C66.0758 37.5359 65.8126 37.221 65.51 36.946L64.7075 37.5434L64.3664 37.3642L64.0655 37.8023L64.1658 38.3599C64.1658 39.256 65.0084 38.1806 65.0686 38.0811H65.6504ZM69.2816 62.356L70.0439 62.6349L70.1442 63.2123V63.4911L70.0439 63.8098C69.8758 64.1199 69.6882 64.4191 69.4822 64.7058C69.2816 64.9647 69.2414 65.3033 69.0007 65.6617L68.6396 66.0799C68.3454 66.1691 68.031 66.1691 67.7368 66.0799C67.3559 66.0597 66.9742 66.0597 66.5933 66.0799H65.5301L64.9883 66.1795L64.5671 66.3388C64.2889 66.286 64.0073 66.2527 63.7244 66.2392C63.432 66.1433 63.1288 66.0831 62.8217 66.06L62.0593 65.9405C62.0593 65.5024 61.4174 65.7016 61.1766 65.8011C60.9359 65.9007 60.4744 65.8011 60.0933 65.9206L59.7121 66.2591L60.2337 66.1596L60.9158 67.0358C61.0813 67.2235 61.2228 67.4309 61.3371 67.6531L61.6581 68.0912V68.2704C61.6581 68.5094 61.297 68.8081 61.3171 69.0072L61.6381 69.3259C61.7323 69.3934 61.8075 69.4838 61.8567 69.5883C61.9059 69.6929 61.9272 69.8082 61.9189 69.9233C61.9708 70.1795 62.0731 70.4231 62.2198 70.6402C62.2858 70.8669 62.3731 71.0869 62.4806 71.2973C62.6757 71.5334 62.8377 71.7947 62.9621 72.074C63.2026 72.6494 63.5574 73.1709 64.0053 73.6073C64.6273 74.2047 65.0686 74.9415 65.6504 75.5987C65.851 75.7978 65.851 75.9771 65.6504 76.3754C65.4498 76.7736 65.7708 75.9771 66.5131 76.8135L66.9544 77.2316L67.1751 77.4308L67.5763 77.7096H67.777C67.9399 77.8967 68.0875 78.0965 68.2183 78.307L68.5593 78.6854L68.7199 79.0637C69.0021 79.3088 69.32 79.5102 69.6628 79.6611C69.9236 79.8603 70.0439 79.8802 70.1843 80.1789C70.3248 80.4776 69.9837 80.6767 69.7831 80.9356C69.5603 81.2653 69.3049 81.5722 69.0208 81.8517C68.5043 82.3341 67.8548 82.653 67.155 82.7677C66.8815 82.8096 66.6016 82.7679 66.3525 82.6482C66.1137 82.5932 65.8971 82.4684 65.7306 82.2898C65.4498 82.0309 64.6272 82.0707 64.3062 81.8517L63.9251 81.2343C63.671 80.8832 63.4494 80.51 63.2631 80.1192C63.1559 79.7591 63.0688 79.3934 63.0022 79.0239C62.906 78.7254 62.7921 78.4328 62.6612 78.1477L62.1195 77.7096L61.8788 77.5503C61.6034 77.2497 61.4221 76.8761 61.3572 76.4749C61.2197 76.0938 61.0449 75.727 60.8355 75.3797C60.7152 74.9018 60.655 74.7823 60.5948 74.5035C60.4934 74.1433 60.413 73.7775 60.3541 73.4082C60.3148 73.1041 60.3148 72.7963 60.3541 72.4921C60.3541 72.1735 59.9328 72.0142 59.7924 71.6359C59.6519 71.2575 58.4482 72.9303 58.3479 73.0896C57.6168 74.1149 56.8123 75.0865 55.9405 75.997C55.722 76.2626 55.5209 76.542 55.3386 76.8333C54.9174 77.3511 54.8773 77.2914 54.9374 77.5303C54.9976 77.7693 54.3356 78.2473 54.0948 78.6256C53.8903 79.0584 53.7355 79.5126 53.6334 79.9798L53.4328 80.7166C53.2924 80.8958 53.1519 80.7166 52.871 81.1347C52.5902 81.5529 51.8279 82.5287 51.547 82.927L51.0254 83.3053L50.7044 83.6041L50.3031 83.8032C50.1426 83.8032 50.1026 83.4447 49.9822 83.8032L49.0794 84.3608C48.7976 84.6262 48.4627 84.8297 48.0964 84.9582C47.7754 84.9582 47.4544 84.779 47.1735 84.7193C46.8926 84.6595 46.672 84.7193 46.5316 84.7193L46.1102 84.1617L46.4513 83.6638C46.5493 83.4371 46.6632 83.2175 46.7923 83.0066L47.2337 82.2698C47.5755 81.9856 47.885 81.665 48.1566 81.314C48.3973 80.9356 48.6581 80.4776 48.9389 80.0793C49.3885 79.3884 49.8775 78.7235 50.4035 78.0879C51.0997 77.4906 51.7317 76.8232 52.2893 76.0965C52.8309 75.4593 53.4128 74.8221 53.9344 74.1052C54.123 73.9152 54.2849 73.7008 54.4158 73.4679C54.5161 73.2489 54.4158 72.9302 54.6566 72.7311L55.118 72.2134C55.2728 71.9968 55.4135 71.7707 55.5393 71.5363C55.9204 70.8792 56.2013 70.5207 56.6226 69.8834C57.0866 69.1473 57.4891 68.3747 57.8263 67.5734C57.9002 67.3077 57.934 67.0325 57.9266 66.757L57.8263 66.299V65.8609L57.5455 65.6418C57.2044 65.6418 57.2445 65.7613 56.8634 65.7414C56.5034 65.7013 56.14 65.7013 55.78 65.7414C55.4058 65.7613 55.0308 65.7613 54.6566 65.7414L54.0948 65.6418L53.5331 65.1838V65.5422L52.9915 65.7215C52.3896 65.7215 51.888 65.5024 51.3263 65.8609L50.905 65.6817C50.7112 65.2606 50.4541 64.8712 50.1427 64.5266L49.8417 64.2877C49.6813 64.2877 49.7214 64.3872 49.5809 64.1483V64.0288L49.4004 62.9534L49.6612 62.4954C50.1828 62.4954 50.6241 62.814 51.1457 62.8539C51.6233 62.9316 52.1063 62.9715 52.5902 62.9734H53.2522L53.5331 63.0928H53.8741C54.1276 63.01 54.3602 62.8742 54.5563 62.6946C54.8504 62.6009 55.1526 62.5342 55.459 62.4954C56.0631 62.4869 56.6669 62.5269 57.2646 62.6149H58.1473C58.5341 62.6552 58.9241 62.6552 59.3109 62.6149C59.5524 62.5374 59.801 62.484 60.0532 62.4556C60.62 62.5157 61.1916 62.5157 61.7584 62.4556C62.1042 62.3625 62.4351 62.2217 62.7414 62.0374C62.7414 61.7785 62.7414 61.4997 62.7414 61.2409C62.8213 60.6928 62.8213 60.1361 62.7414 59.588C62.7414 57.8356 62.7414 57.5966 62.7414 57.278C62.7158 56.9067 62.7158 56.5341 62.7414 56.1629C62.7054 55.7838 62.7604 55.4015 62.9019 55.0476C62.9019 54.3905 62.9019 53.6935 62.9019 53.0562C62.9779 52.5012 62.9779 51.9385 62.9019 51.3835V50.567C62.9019 50.3081 63.0825 47.102 63.0825 46.7834C63.0825 46.4648 63.564 44.1747 63.0825 43.9357C62.601 43.6968 62.9019 42.9401 62.9421 42.6414C63.0163 42.2446 62.9673 41.8349 62.8016 41.4664C62.7115 40.3797 62.7115 39.2873 62.8016 38.2006C62.8016 37.6231 63.0825 37.2447 62.8016 36.727C62.5208 36.2092 62.8016 35.6118 62.6813 35.2732C62.662 34.9682 62.662 34.6622 62.6813 34.3572V33.7797V32.9433C62.4606 32.8239 62.5007 32.545 62.5007 32.3459V31.8282C62.5433 31.4585 62.6378 31.0965 62.7815 30.7528C62.7815 30.3744 62.6813 30.2549 62.5007 29.9164L62.1797 29.4385C61.939 29.3389 61.8989 29.1796 61.6982 29.1199C61.4976 29.0601 61.3572 28.7216 61.1365 28.5623L60.7954 28.2636C60.4238 27.8547 59.9908 27.5054 59.5115 27.2281C59.5115 26.9294 59.1704 26.5112 59.2908 26.2125H59.4513L59.5917 26.093L59.8726 25.9138L60.0733 25.7943H60.5146H60.8757L61.4174 26.0133L61.7383 26.2324L62.1596 26.3717C62.4432 26.444 62.7315 26.4973 63.0223 26.5311C63.3028 26.5506 63.5844 26.5506 63.8649 26.5311C64.2749 26.5189 64.6832 26.5883 65.0657 26.7354C65.4481 26.8825 65.7971 27.1042 66.0918 27.3874L66.6133 27.9051C66.6949 28.0087 66.7624 28.1225 66.814 28.2436C66.9544 28.5822 67.1952 28.6818 67.456 28.9008C67.7168 29.1199 67.6365 29.2593 67.6967 29.4982V30.0558C67.6967 30.5138 67.135 30.6333 67.0547 31.0117C66.9745 31.3901 67.476 31.6091 67.4359 32.0074C67.3958 32.4057 67.4359 32.5849 67.2954 32.8637C67.2049 33.2351 67.1645 33.6168 67.1751 33.9988C67.1151 34.4349 67.1151 34.877 67.1751 35.3131C67.3064 35.7347 67.3064 36.1859 67.1751 36.6075C67.0843 37.0611 67.0843 37.5279 67.1751 37.9815C67.2453 38.7167 67.2453 39.4568 67.1751 40.1919C67.1751 41.0681 67.1751 41.9643 67.1751 42.8206C67.2258 43.2173 67.2258 43.6187 67.1751 44.0154C67.0748 44.2942 67.1751 44.2544 67.0146 44.4535C66.8769 44.8361 66.8355 45.2463 66.8942 45.6484C66.8942 46.425 66.7739 47.2016 66.8942 48.0181C66.9542 49.066 66.9542 50.1165 66.8942 51.1645C66.8703 51.7323 66.9175 52.3009 67.0347 52.8572C67.2955 53.9325 66.6535 55.2468 67.3757 56.2425C67.3757 56.6407 67.3757 57.0391 67.3757 57.4572C67.3757 57.8754 67.3757 57.9352 67.0748 58.3335C66.9117 58.5554 66.7642 58.7883 66.6334 59.0304L67.0748 59.4685C67.1539 59.7418 67.1539 60.0316 67.0748 60.3049C66.9745 60.5837 66.6134 60.6833 66.3927 60.8824L66.152 61.3006C66.4084 61.3496 66.6577 61.4299 66.8942 61.5396C67.2638 61.609 67.6218 61.7296 67.9575 61.898C68.1982 62.0772 68.2584 62.2167 68.5192 62.2565C68.78 62.2963 68.78 62.2565 69.2013 62.2565L69.2816 62.356ZM59.6921 29.5779C60.2739 29.9961 59.9729 30.1155 60.1936 30.5935L60.4745 30.9918C60.5759 32.0315 60.5759 33.0785 60.4745 34.1182C60.4745 34.5763 60.8958 35.2135 60.5748 35.552C60.5748 35.552 60.4544 37.8023 60.4745 38.5989L60.3742 38.8976C60.3054 39.1855 60.3021 39.485 60.3645 39.7744C60.427 40.0637 60.5536 40.3356 60.7353 40.5703C61.1365 41.0681 60.8757 41.8846 60.8757 42.5617L60.4544 42.8006L60.2538 43.6171C60.1498 44.4162 60.0961 45.2209 60.0933 46.0267C60.0933 46.4249 60.0933 46.8033 60.0933 47.2215V47.819V48.735C59.7723 49.6709 60.1936 50.1688 60.1936 51.1047C60.2338 51.3954 60.2338 51.6902 60.1936 51.9809C59.9832 53.0461 59.9832 54.1418 60.1936 55.207C60.1936 55.6849 60.4945 56.1429 60.1936 56.5611C59.8927 56.9793 59.8124 56.82 59.672 57.1586C59.6109 57.3774 59.5161 57.5856 59.3911 57.7759C59.2794 57.9162 59.1588 58.0492 59.03 58.1741C58.9096 58.2737 58.6288 58.7715 58.368 59.0503C58.1072 59.3291 57.8062 59.807 57.2846 59.9066C56.763 60.0062 56.9035 59.7473 56.6226 59.6079C56.3418 59.4685 56.4019 58.4928 56.3417 58.0148C56.3114 57.4311 56.3114 56.8462 56.3417 56.2624C56.3417 55.665 56.0609 55.5455 56.0809 54.8883C56.101 54.2312 56.0809 53.1758 56.2214 52.2996C56.2214 51.7818 56.5022 51.3437 56.6025 50.8458C56.7319 50.0277 56.7319 49.1946 56.6025 48.3765C56.6025 47.6397 56.6025 46.9228 56.6025 46.2059V45.6484C56.5322 45.113 56.5322 44.5707 56.6025 44.0353H57.064L57.4452 43.3184V43.1193C57.6257 42.8604 57.9066 42.7608 57.9266 42.7011V42.5019C57.9266 42.3825 57.2445 42.0838 56.9636 42.0638C56.6828 42.0439 56.3217 41.8846 56.0207 42.0638L56.2415 42.3227L56.3818 43.0197L56.2415 43.2189L55.138 43.4379C54.7568 43.5773 54.5563 43.4379 54.2353 43.6968L53.8139 44.0552C53.4328 44.0552 53.1319 43.7765 52.7908 43.7167C52.4069 43.6994 52.0223 43.7329 51.6473 43.8163C51.4281 43.8527 51.2044 43.8527 50.9853 43.8163C50.5038 43.8163 50.1828 44.1548 49.6812 44.0353C49.2455 43.935 48.8385 43.7378 48.4909 43.4583C48.1433 43.1789 47.8643 42.8246 47.675 42.4223C47.5547 42.1634 47.5145 42.2232 47.354 42.0041C47.1936 41.785 47.354 41.3071 47.354 41.0084C47.7181 41.0265 48.0829 40.993 48.4374 40.9089C48.7985 40.7894 48.9189 40.5305 49.3402 40.5305C49.7615 40.5305 50.6843 40.65 51.3464 40.6898C51.8786 40.6719 52.4086 40.612 52.9313 40.5106L53.7337 40.3513C54.1864 40.2911 54.6452 40.2911 55.0979 40.3513C55.2985 40.3513 56.4822 40.8889 56.0207 40.2119C55.8803 39.953 56.5223 39.495 56.5023 39.2361L56.3417 38.9772V38.7183C56.2644 37.8746 56.2982 37.0244 56.4421 36.1893H56.8232C56.4821 35.9304 56.8232 35.5122 56.4621 35.1737C56.101 34.8351 56.0609 34.9745 56.0207 34.5165C56.0414 34.2314 56.0414 33.9453 56.0207 33.6602C55.9607 33.4039 55.9138 33.1447 55.8803 32.8836C55.9279 32.3298 55.7711 31.7778 55.439 31.3303L54.7769 30.932C54.476 30.6931 54.3556 30.2151 54.0948 29.8965C53.834 29.5779 53.7137 29.2792 53.1519 29.0203C53.2212 28.8437 53.3233 28.6815 53.4528 28.5423L53.6334 28.164C53.7416 28.0038 53.8952 27.8791 54.0747 27.8055C54.3356 28.0047 54.8772 27.925 55.1982 27.8055C55.5192 27.6861 55.7399 28.3432 56.2214 28.5822C56.7028 28.8212 57.064 28.7614 57.3047 29.1995V28.8809H57.9868C58.5637 28.9811 59.1115 29.2053 59.5917 29.538L59.6921 29.5779ZM55.9806 24.48C55.9806 25.157 55.9806 25.7943 55.8803 26.4713C55.4887 26.4848 55.1001 26.4007 54.7497 26.2267C54.3993 26.0528 54.0982 25.7946 53.8741 25.4757C54.1349 24.8583 54.8572 24.9977 55.2183 24.46C55.4521 24.4462 55.6866 24.4462 55.9205 24.46L55.9806 24.48ZM65.1288 85.5755L65.3093 85.018C65.3093 85.018 65.9714 84.8785 65.9714 84.5599C65.9714 84.5599 66.7739 84.56 66.9544 85.0976C66.9544 85.0976 66.7538 86.0535 67.5161 85.6154H67.9374L68.0779 86.1132C68.0779 86.1132 67.4961 86.5115 67.6766 86.85C67.6766 86.85 66.192 86.6907 65.9112 85.9738C65.9112 85.9738 65.6103 85.1374 65.1288 85.6751V85.5755ZM67.6967 12.2131C67.6967 11.8347 67.6967 11.4563 67.6967 11.058C68.0241 11.0164 68.3467 10.943 68.6597 10.839H69.1812C69.0609 11.4563 69.1812 11.516 69.8633 11.6156C70.5454 11.7152 70.5455 12.3723 70.6659 12.7308C70.2865 12.6948 69.9108 12.6282 69.5424 12.5317C68.9205 12.4321 68.1782 12.233 67.6967 12.1533V12.2131ZM27.2723 6.01982C27.2723 6.01982 27.0716 6.15925 27.1719 6.67701V7.29434H26.7507C26.7507 7.29434 26.2291 6.35836 25.7677 6.51767V5.82073L26.3093 5.48217L27.2723 6.01982ZM30.0007 58.5923C30.6125 58.5024 31.2345 58.5024 31.8464 58.5923L32.6287 58.9308C32.8687 59.1284 33.1495 59.2712 33.4513 59.349C33.8176 59.4369 34.1792 59.5432 34.5346 59.6677C34.8757 59.6677 34.7754 59.8668 34.9359 60.1058C35.0052 60.2163 35.042 60.3439 35.042 60.4742C35.042 60.6044 35.0052 60.732 34.9359 60.8426L34.6751 61.2011L34.2939 61.4997L33.6318 61.9179C32.55 61.9972 31.4637 61.9972 30.3818 61.9179C29.6997 61.9179 28.9775 61.7984 28.3757 61.9179C27.7738 62.0374 26.9312 62.0972 26.1488 62.137H24.1427C23.4 62.0904 22.6546 62.1644 21.9359 62.356C21.5404 62.5163 21.119 62.604 20.692 62.6149C20.1234 62.6191 19.5574 62.6927 19.0069 62.8339C18.5928 62.8636 18.177 62.8636 17.763 62.8339C17.2614 62.8339 16.78 63.1128 16.2784 63.1128L15.817 63.4911C14.9143 63.4911 14.0516 63.6106 13.1689 63.6903C12.2862 63.7699 12.4667 63.6902 12.0454 63.272C11.6241 62.8539 11.4837 63.0729 10.9019 62.6747C10.5482 62.6064 10.2089 62.4784 9.89881 62.2963L9.55773 62.0573L9.41735 61.7188C9.25685 61.4001 8.6951 61.1413 8.57473 60.8625L8.75527 60.046C8.99224 59.9862 9.24056 59.9862 9.47753 60.046C9.71355 60.1453 9.96423 60.2058 10.2198 60.2252C10.9573 60.154 11.7013 60.1943 12.4266 60.3447C12.8078 60.504 12.7877 60.6833 13.2692 60.7032H14.4729C14.8797 60.6758 15.2828 60.6091 15.6766 60.5041C16.6195 60.4045 17.5423 60.6235 18.4652 60.5041L19.5886 60.3646C20.2908 60.2651 20.9729 60.2054 21.5948 60.1456C21.8707 60.1132 22.1333 60.0102 22.3571 59.8469L22.4775 59.2295C22.317 58.8313 22.0161 58.5127 21.8356 58.1144C21.7368 57.689 21.5374 57.2931 21.2538 56.9594C19.9899 55.6451 20.4111 56.6806 19.8494 55.187C19.5485 54.4901 18.9467 54.6693 18.8062 53.9723C18.9667 53.6537 19.8293 53.5541 20.2707 53.1559C20.4802 53.2021 20.6826 53.2758 20.8726 53.3749C21.0933 53.3749 21.3942 53.3749 21.6149 53.6139C21.8781 53.8153 22.1141 54.0495 22.317 54.3108C22.5541 54.5332 22.8167 54.727 23.0994 54.8883C23.4659 55.1083 23.8481 55.3013 24.2429 55.4659L24.8248 55.665C25.204 55.972 25.5412 56.3268 25.8278 56.7204L26.1087 57.1586V57.7559C26.2179 58.0994 26.2179 58.4679 26.1087 58.8114C26.1087 58.9508 25.6272 59.4088 26.1087 59.4088C26.5495 59.4385 26.9919 59.4385 27.4328 59.4088C27.7334 59.4267 28.0349 59.4267 28.3356 59.4088C28.9344 59.369 29.5042 59.1385 29.9606 58.7516L30.0007 58.5923ZM72.4312 46.0665C72.2507 45.6683 73.1735 45.27 73.3741 44.9314L73.6751 44.115L74.2168 43.8362C74.3171 43.8362 74.6782 44.6128 74.6581 45.1704C74.6381 45.728 76.8449 45.8077 77.1257 46.2657C77.4066 46.7237 76.6241 47.1419 76.3232 47.2614C75.601 47.5203 75.4606 47.122 74.8186 47.0423C74.2719 46.9826 73.7203 46.9826 73.1736 47.0423C72.8795 46.7547 72.6294 46.426 72.4312 46.0665ZM77.3063 66.9561V67.1553V67.4142C77.0856 67.4142 76.6041 67.6133 76.6242 67.5336L76.4637 67.0159L76.1427 66.7968C76.4235 66.4981 76.3233 66.4981 76.5439 66.4981H76.6442H77.1658C77.4266 66.4981 77.2661 66.7371 77.2661 66.8964L77.3063 66.9561ZM102.524 21.3933L102.644 21.5128C98.8711 11.585 92.1653 3.01978 83.4051 -3.06087C83.4051 -2.32406 83.4051 -1.60715 83.4051 -0.930079L83.5254 -0.272949C83.5254 0.105413 83.2044 0.185113 83.084 0.58339C83.5254 0.802442 83.6257 0.882085 83.6056 1.37993C83.5563 1.76337 83.5563 2.15146 83.6056 2.53491C83.6351 2.89941 83.6351 3.2657 83.6056 3.6302C83.3558 3.76114 83.0937 3.86784 82.8232 3.94883C82.3417 3.94883 82.5022 3.94882 82.2013 3.68994C81.9004 3.43106 81.2183 4.06829 81.2384 3.98864L81.5794 4.88478C81.7198 4.88478 82.8634 4.72542 83.1041 4.7055H83.5254V5.064C83.7862 5.62159 84.8495 5.62155 85.351 5.4025C85.8525 5.18345 85.7724 5.00422 86.0532 4.90465H86.6951H87.277H87.4375L87.8187 5.08387C88.1085 5.22357 88.4208 5.31123 88.7414 5.34276H89.1628C89.544 5.22328 89.4235 4.88473 89.9853 5.08387L90.5871 5.48217C90.9081 5.74105 91.3896 6.07959 91.6705 6.35839C91.9514 6.63718 91.831 7.03543 91.9313 7.51336C91.6657 7.68917 91.4172 7.88921 91.189 8.11081C90.8229 8.41973 90.4183 8.68071 89.9853 8.88742C89.6041 9.06664 89.3434 8.88745 88.9421 9.04676C88.5977 9.16512 88.2232 9.16512 87.8788 9.04676C87.1464 8.85553 86.3857 8.79485 85.6319 8.86755C85.242 8.86491 84.8529 8.83158 84.4683 8.76794C84.2133 8.66449 83.9654 8.54477 83.726 8.40951H83.5254C83.5254 8.40951 83.3047 8.4095 83.0639 8.52899V9.26579C83.0945 9.69672 83.0945 10.1292 83.0639 10.5602L82.7028 11.4563C82.8232 11.7351 82.9035 11.7749 83.0038 11.994C83.0038 12.5316 82.8232 12.8105 83.2044 12.9698C83.1843 13.2815 83.1843 13.5941 83.2044 13.9057C83.1749 14.3367 83.1749 14.7692 83.2044 15.2001C83.2283 15.7438 83.1675 16.2879 83.0239 16.8131C82.9481 17.2082 82.8945 17.6071 82.8634 18.008C82.8634 18.5058 82.2616 18.6651 82.0208 19.1231C81.8753 19.4613 81.748 19.807 81.6396 20.1586C81.9273 20.0014 82.2553 19.9321 82.5825 19.9595C82.9079 20.0027 83.2298 20.0693 83.5455 20.1586C84.087 20.1728 84.6252 20.2463 85.1504 20.3777C85.6319 20.5968 86.0733 21.015 86.5347 21.2539C87.035 21.5447 87.4995 21.8922 87.919 22.2894C88.24 22.5682 88.9822 22.8271 89.1025 23.2453C89.2229 23.6635 89.1025 23.544 89.1025 23.7232C89.0577 24.0182 88.9975 24.3107 88.922 24.5994C88.7214 25.0774 88.2198 24.8782 87.7183 24.9579C87.2167 25.0375 86.635 25.6151 85.8525 25.5354C84.6087 25.5354 83.385 24.938 82.1412 24.8782C81.4167 24.6986 80.6588 24.6986 79.9343 24.8782C79.2923 25.0375 78.7507 24.8782 78.0887 25.0774C77.7677 25.1769 77.8479 24.9181 77.547 24.7986C77.7227 24.5933 77.963 24.453 78.2291 24.4003H78.6304L78.4698 24.0419L77.8078 23.6834C77.527 23.6834 77.3664 23.8427 77.0856 23.9423L76.8649 24.5596L76.6242 24.7587H76.1427C75.8808 24.8115 75.6252 24.8916 75.3803 24.9977C74.7762 25.0068 74.1723 24.9669 73.5748 24.8782C72.4556 24.8783 71.3372 24.9381 70.2245 25.0574C68.9606 25.0574 67.4158 25.396 66.2121 25.5155C65.3885 25.5984 64.5866 25.8277 63.8448 26.1925L62.1596 25.8142C61.7781 25.7674 61.4098 25.6456 61.0763 25.4557C60.7968 25.2987 60.5567 25.0808 60.3742 24.8185C60.2213 24.4415 60.2213 24.0205 60.3742 23.6436L61.2569 23.3648L62.0192 22.7673V22.17L60.7754 22.4687C60.6349 22.2695 60.5748 22.3093 60.635 22.0903V21.692C60.5525 21.2773 60.4922 20.8585 60.4544 20.4375C60.4544 19.8998 60.4544 19.2227 60.5748 18.924C60.6952 18.6253 60.5748 18.3067 60.5748 17.988C60.7553 17.2911 60.8757 16.7136 61.0563 15.9967C61.2368 15.2798 60.5547 14.543 60.5346 14.0053C60.5146 13.4676 60.2738 13.6867 60.3541 13.2087C60.4343 12.7308 61.5979 12.6512 61.939 12.6512C62.28 12.6512 62.621 12.6512 62.7815 12.91C62.942 13.1689 62.9822 13.2685 63.5439 13.4079C63.718 13.4465 63.8865 13.5067 64.0454 13.5871C64.2661 13.7066 64.6473 13.8261 64.7877 14.0252L64.9683 14.5629L65.4096 15.1802C65.5989 15.4683 65.6707 15.8172 65.6103 16.1559C65.5591 16.5593 65.5591 16.9674 65.6103 17.3707C65.652 17.7389 65.5895 18.1113 65.4297 18.4461L65.0485 18.8045V19.4816C65.1139 20.319 65.0803 21.1611 64.9482 21.9907H65.4699C66.3927 22.1501 67.3356 21.9907 68.2584 22.1102C68.4791 22.1102 68.3587 22.1102 68.8001 21.9708L69.1211 21.8314H69.8633C70.1706 21.8513 70.4789 21.8513 70.7862 21.8314H71.388L71.6489 22.0106H72.3911C73.2337 22.0106 73.5748 21.6721 74.3973 21.6124C75.0764 21.5853 75.7498 21.4784 76.4035 21.2937C77.1056 21.0349 77.868 21.2937 78.5702 21.2937C79.2723 21.2937 78.5702 21.1543 79.3526 21.0349L80.0146 20.8158L79.794 20.5171C79.6614 20.2318 79.567 19.9306 79.5131 19.621C79.5131 19.1829 79.3526 18.7647 79.2924 18.3067C79.2569 17.9722 79.2034 17.6398 79.1319 17.311C79.0617 17.026 78.9537 16.7514 78.8109 16.4945L79.1319 14.9213C79.3019 14.3765 79.3019 13.7934 79.1319 13.2485C79.0712 12.8392 79.0712 12.4233 79.1319 12.0139C79.1319 11.6555 79.1319 10.839 79.1319 10.5004C79.1396 10.213 79.2008 9.92943 79.3125 9.66409C79.4436 9.50874 79.5084 9.30863 79.493 9.1065C79.493 8.84762 79.3526 8.56882 79.3726 8.29003C79.3726 6.71684 79.3726 5.10379 79.3726 3.5306C79.3225 3.14054 79.3225 2.74575 79.3726 2.35569L79.1319 2.4951L78.8911 2.27602C79.1319 2.1167 79.2121 1.77818 79.3526 1.53922C79.493 1.30025 79.6334 1.22062 79.6134 0.822347L79.493 -1.16903C79.4433 -1.67897 79.4433 -2.19251 79.493 -2.70244L79.9945 -2.94139L79.2924 -3.35957C79.205 -4.00808 78.9415 -4.62072 78.53 -5.13187C78.1489 -5.53014 77.547 -5.86869 77.2862 -6.38645V-6.5856C72.5483 -8.99171 67.4674 -10.6639 62.2198 -11.5441V-11.3848C62.4146 -10.6281 62.5356 -9.85454 62.581 -9.07482C62.581 -8.57698 62.3803 -8.01938 62.3603 -7.44187C62.3402 -6.86437 62.3603 -6.06782 62.3603 -5.45049C61.6982 -5.1717 61.7986 -6.14753 61.5779 -6.74494C61.2168 -7.7008 60.8957 -7.64106 61.0964 -8.73632C61.2692 -9.30557 61.4099 -9.88396 61.5177 -10.4688V-10.8272C61.5186 -11.2078 61.5521 -11.5875 61.618 -11.9623C59.0036 -12.3763 56.361 -12.5893 53.7136 -12.5995C51.027 -12.612 48.3437 -12.4123 45.689 -12.0022C46.0572 -11.9197 46.4095 -11.7785 46.7321 -11.584L47.0331 -11.1857C47.1671 -10.9366 47.3686 -10.7297 47.6149 -10.5883L48.2769 -10.3095C48.5578 -10.0108 48.4775 -8.8956 48.4976 -8.51724C48.5798 -8.0028 48.6334 -7.48426 48.6581 -6.96396C48.6509 -6.70945 48.5593 -6.46441 48.3973 -6.26697L48.2167 -5.86873L47.996 -5.5501C47.996 -5.33105 47.996 -5.0124 47.996 -4.77343C47.996 -4.07645 47.8356 -3.1604 47.7754 -2.52316C47.7152 -1.88592 47.8958 -0.969914 47.7754 -0.253016C47.7754 0.0855187 47.655 0.244835 47.6149 0.563456C47.5427 0.87689 47.509 1.19787 47.5146 1.51934C47.6143 2.07922 47.6143 2.65209 47.5146 3.21197H47.655C47.655 3.21197 47.7753 4.1878 47.7954 4.44668C47.7954 5.28306 47.1535 5.82073 46.5918 6.31858C46.03 6.81643 46.2908 6.87617 45.7892 6.81642C45.2877 6.75668 45.1072 6.69689 44.7661 6.63715C44.4251 6.57741 43.4019 6.63719 42.9806 6.17917C42.2584 5.38262 40.7739 5.74106 39.8911 5.74106C39.4097 5.74106 39.2291 5.54191 38.8078 5.60165C38.3865 5.66139 38.5068 5.82071 38.1457 5.8008L38.3865 5.7012H38.0053H38.1457C37.7846 5.7012 37.1627 5.84061 37.2028 5.84061C36.9219 5.84061 36.7615 5.84061 36.4405 5.84061C36.2808 5.81878 36.1187 5.81878 35.959 5.84061L35.4173 5.94021C34.8356 5.94021 34.7353 6.2787 34.2939 6.57741C34.0325 6.78222 33.7031 6.88179 33.3711 6.85623L33.03 6.73675C32.766 6.67631 32.4916 6.67631 32.2275 6.73675C32.0532 6.8107 31.8655 6.84882 31.6759 6.84882C31.4862 6.84882 31.2985 6.8107 31.1241 6.73675C30.7028 6.5177 30.3618 6.27872 29.9205 6.0995C29.4791 5.92027 29.1982 5.9601 29.0979 5.60165V5.20335L28.9976 4.7055L29.1781 4.367L29.3386 4.06831C29.5192 3.61029 29.3386 3.49077 29.3386 3.03275C29.3234 2.78073 29.3234 2.52803 29.3386 2.27602C29.3386 1.77817 29.3386 1.61889 29.3386 1.12104V0.802413C29.2978 0.518424 29.2978 0.230123 29.3386 -0.0538662C29.3386 -0.49197 29.6596 -0.91019 29.6596 -1.32838C29.6596 -1.74657 29.2784 -1.76648 29.1781 -2.00544C29.1376 -2.31613 29.1376 -2.63071 29.1781 -2.94139C29.1781 -3.26002 29.1781 -3.53879 29.0578 -3.85741C29.0578 -4.5544 29.0578 -4.53447 29.0578 -5.21154C29.047 -5.41718 29.047 -5.62322 29.0578 -5.82886C29.0687 -6.00127 29.0687 -6.17423 29.0578 -6.34664C29.0578 -6.50595 29.2985 -6.34661 29.3186 -6.6254V-6.80468C26.4933 -5.35077 23.8073 -3.64441 21.2939 -1.70675L20.0701 -0.272949L21.2538 0.742674L20.9328 1.83797C20.1905 1.26047 18.9266 4.08818 18.9266 4.08818L17.6426 3.80942L17.1611 2.79379C17.0966 2.43786 17.1384 2.07096 17.2815 1.73837C9.26732 9.11071 3.75151 18.767 1.49293 29.3787C2.57627 29.3787 3.4991 29.2194 4.68274 29.3787C5.70502 29.4382 6.72991 29.4382 7.75219 29.3787C8.59473 29.3592 9.43389 29.2659 10.2599 29.0999C10.621 29.0999 14.9143 29.4584 15.3155 28.9207C15.3155 28.7614 15.7769 28.7216 16.0377 28.6419C16.2901 28.6007 16.5476 28.6007 16.8001 28.6419C17.3217 28.6419 17.9235 28.6419 18.4852 28.6419C19.047 28.6419 19.5686 28.4428 20.1303 28.4229C20.8052 28.4072 21.477 28.3272 22.1365 28.1839L22.5979 28.5025C22.9823 28.0912 23.2216 27.5671 23.28 27.009C23.28 26.4912 23.5809 25.9536 23.621 25.4557C23.6603 24.9586 23.6603 24.4593 23.621 23.9622C23.621 23.4444 23.621 23.7431 23.621 23.086C23.5838 22.8084 23.5838 22.5272 23.621 22.2496C23.621 21.8912 23.621 21.1942 23.621 20.8756C23.621 20.557 23.1596 20.6565 22.7383 20.5171C22.4024 20.405 22.0495 20.3511 21.6951 20.3578C20.2707 20.3578 19.1072 20.9751 17.6828 20.7362C17.2345 20.6278 16.7784 20.5545 16.3186 20.5171C16.0578 20.5171 15.817 20.5171 15.5562 20.5171L14.834 20.776C14.4127 20.776 14.3324 20.5171 14.0315 20.2383C13.8913 20.1221 13.7266 20.0385 13.5495 19.9937C13.3725 19.9489 13.1875 19.944 13.0084 19.9794L12.3062 20.9154C11.877 21.0958 11.4246 21.2164 10.9621 21.2738C10.5608 21.2738 10.3402 21.0946 9.89881 21.0747C9.45745 21.0547 9.09632 21.0747 8.75527 20.9552C8.41422 20.8357 8.27382 20.537 8.03308 20.3777C7.79234 20.2184 7.47134 20.1387 7.21054 19.9595C6.94974 19.7803 6.10716 18.9638 6.28772 18.5058C6.46827 18.0478 7.15035 17.8686 7.39109 17.8686C7.63183 17.8686 8.15343 18.1075 8.51454 18.1275C9.39312 18.2475 10.2841 18.2475 11.1627 18.1275C12.2252 17.8924 13.3056 17.7458 14.3926 17.6894C15.155 17.6894 15.9173 17.4902 16.6596 17.4305C17.4019 17.3707 17.5223 17.3109 17.9837 17.2114C18.7862 17.0322 19.6087 16.9924 20.4111 16.8331C21.137 16.6218 21.8835 16.4882 22.638 16.4348C22.9189 16.4348 23.1596 16.4348 23.3803 16.3352C23.601 16.2357 23.5609 15.8971 23.8417 15.7776C24.2797 15.7006 24.7278 15.7006 25.1658 15.7776C25.6359 15.8868 26.0983 16.0264 26.55 16.1958C26.9876 16.2453 27.3895 16.459 27.6735 16.7932C27.9648 17.1988 28.2263 17.6248 28.4559 18.0677C28.6164 18.3664 28.9174 18.5855 29.0377 18.8842C29.1692 19.2718 29.1692 19.6914 29.0377 20.079C28.9174 20.3179 28.7568 20.3777 28.6967 20.6366V21.2937C28.7565 21.9562 28.7565 22.6227 28.6967 23.2851C28.5002 24.4471 28.1912 25.5874 27.7738 26.6904C27.6503 26.9653 27.5561 27.2523 27.4929 27.5467C27.4929 27.8852 27.0115 27.925 26.7507 28.1839C26.7507 28.383 28.2553 28.0844 28.5763 28.0844C29.278 28.1207 29.9811 28.1207 30.6827 28.0844C31.5053 27.9649 32.2275 27.6662 33.0501 27.5666L34.334 27.4073C35.2568 27.4073 35.6781 27.2082 36.1596 27.2082C36.535 27.2589 36.9004 27.3663 37.243 27.5268C37.0624 27.248 36.9019 27.0289 36.8819 26.9692C36.7842 26.7925 36.7358 26.5931 36.7414 26.3917C36.7414 25.9137 36.5809 25.4557 36.5809 24.8782C36.6559 24.4333 36.7838 23.9988 36.9621 23.5838C37.0825 23.0461 36.9621 22.4687 36.9621 21.9111C36.9621 21.3535 37.2028 20.9751 37.3232 20.4773C37.3753 20.1017 37.449 19.7294 37.5439 19.3621C37.7649 18.5807 37.7649 17.7539 37.5439 16.9724L37.1627 15.2399C37.1627 15.001 37.1627 15.2399 37.0423 15.0408L36.7214 14.762L36.4605 14.2841L36.1395 13.8061L36.4405 13.0693C36.26 12.8901 35.9991 13.0693 35.5778 13.0693C35.0681 13.1638 34.5515 13.2171 34.0331 13.2286C33.5917 13.2286 32.7893 13.2286 32.3479 13.2286L28.0146 13.4875C26.931 13.5378 25.8554 13.698 24.8047 13.9655C24.4382 14.0957 24.0503 14.1565 23.6611 14.1447C23.3587 14.0653 23.0407 14.0653 22.7383 14.1447C21.5039 14.1782 20.2781 14.3587 19.0871 14.6823C18.7833 14.8335 18.4383 14.8825 18.1041 14.8218C17.6426 14.8218 17.0408 14.5828 16.5793 14.5231C16.1984 14.5423 15.8168 14.5423 15.4359 14.5231C15.1951 14.5231 15.1951 14.3438 14.9945 14.1447C14.7939 13.9456 14.4528 13.7464 14.2322 13.4676C14.0115 13.1888 13.9112 12.8702 13.6704 12.6312C13.4297 12.3923 13.1488 12.3724 13.0485 12.0139L12.868 11.1775C13.0285 10.9186 13.4297 10.8788 13.7707 10.8191C14.1118 10.7593 14.3124 11.0182 14.6133 11.0979C14.9143 11.1775 15.2954 10.9784 15.6364 11.0979C15.8968 11.1186 16.1585 11.1186 16.4189 11.0979C16.9936 11.1277 17.5694 11.1277 18.1442 11.0979C18.8958 11.0778 19.6459 11.0179 20.3911 10.9187C21.0331 10.9187 22.3973 10.9187 22.9991 10.9187H24.8248C25.6272 10.9187 26.3896 10.7195 27.192 10.7195C29.4919 10.8327 31.7951 10.5772 34.013 9.96278C34.4035 9.88338 34.8061 9.88338 35.1966 9.96278H35.7784L36.28 9.76363H38.2862C38.6874 9.76363 38.9683 9.58441 39.2893 9.58441C39.6102 9.58441 40.0316 9.92298 40.3927 9.86324L40.7939 9.52467C41.0259 9.46686 41.2538 9.39371 41.476 9.30565C41.784 9.19077 42.1099 9.13006 42.439 9.12637C43.2214 9.12637 44.0238 9.12637 44.8263 9.12637C45.6288 9.12637 46.2105 8.92728 46.9328 8.98702C47.655 9.04676 47.8757 8.74805 48.4575 8.6684C49.0393 8.58874 49.4004 8.21035 49.8818 8.2701C50.3633 8.32984 51.1257 8.48916 51.6473 8.52899C52.1065 8.59508 52.5376 8.78833 52.8911 9.08657C53.3124 9.30562 53.192 9.98268 53.6936 9.94285C54.1951 9.90302 54.0748 9.64413 54.3556 9.68396H54.5161C54.8184 8.99399 55.1739 8.32822 55.5794 7.69258C55.988 7.34308 56.4317 7.03614 56.9035 6.77656C57.4065 6.32238 57.8332 5.79126 58.1674 5.20335C58.4796 4.57668 58.8929 4.00496 59.3911 3.51073C59.6199 3.27669 59.8281 3.0235 60.0131 2.75399C60.314 2.3358 60.5146 1.87779 60.7754 1.4596C60.9891 1.25789 61.1301 0.991975 61.1766 0.702869L61.4575 0.0656117L61.9189 -0.491973C62.9065 -1.75033 63.6605 -3.17315 64.1458 -4.69382C64.3261 -5.21659 64.3261 -5.78406 64.1458 -6.30683C64.1038 -6.77612 64.1514 -7.24902 64.2862 -7.70076C64.4065 -7.93973 64.8479 -8.03934 65.0485 -8.17874L66.3325 -7.12325C66.704 -6.70857 67.1539 -6.37028 67.6566 -6.12756C67.6566 -5.82885 67.9775 -5.55009 67.9976 -5.23147C68.0177 -4.91285 67.797 -4.75355 67.7368 -4.43493C67.6766 -4.11631 67.9976 -3.83749 68.1782 -3.59852C68.3742 -3.32154 68.5171 -3.011 68.5995 -2.6825C68.9898 -1.8891 69.4675 -1.14109 70.0239 -0.452167C70.442 0.280363 70.962 0.950749 71.5686 1.53922L72.01 1.89771V2.31588C72.1905 2.61459 72.5516 2.73405 72.7723 2.97301L73.1736 3.47086L73.5146 3.90896C74.0297 4.46235 74.5937 4.96887 75.1998 5.42243C75.6402 5.76869 76.0024 6.20285 76.263 6.69689C76.3834 7.07525 76.905 7.11512 77.0455 7.17486C77.2955 7.29388 77.5038 7.4847 77.6433 7.7226C77.7828 7.96049 77.8471 8.23445 77.8278 8.50905C77.1948 9.34687 76.4451 10.0912 75.601 10.7195C75.1728 10.9102 74.7057 10.9989 74.2368 10.9784C73.8155 10.9784 73.7954 10.5204 73.3741 10.5204C72.9712 10.5451 72.5676 10.484 72.1905 10.3411C71.9958 10.3371 71.807 10.2747 71.6489 10.1619L71.1674 9.56448C70.9467 9.3056 70.726 9.08658 70.4853 8.84761C70.2446 8.60865 70.0439 8.46922 70.084 8.0112C70.1466 7.72915 70.1466 7.43698 70.084 7.15493C69.9482 6.8558 69.8277 6.55009 69.7229 6.23891C69.6484 5.8303 69.4988 5.43874 69.2816 5.08387C69.0408 4.76525 68.76 4.82501 68.459 4.60596C68.1581 4.38691 67.7569 3.45099 67.5562 2.8934C67.3594 2.04177 67.0702 1.21378 66.6936 0.424045C66.5162 0.058637 66.2191 -0.236188 65.851 -0.412301C65.4497 -0.571611 65.3294 -0.412315 65.0084 -0.0538662C64.7526 0.310201 64.5309 0.696798 64.3464 1.10111C64.0655 1.55913 63.8448 2.057 63.5439 2.4951C63.0638 3.55045 62.4504 4.54085 61.7183 5.44237L61.2167 6.01982L60.8556 6.4978C60.5845 7.2874 60.2209 8.04261 59.7723 8.74801C59.4783 9.08619 59.2101 9.44565 58.9698 9.82337C58.7694 10.2828 58.4757 10.6964 58.1072 11.0381H57.8664L58.2476 11.4364L58.7692 11.9741L58.9498 12.2329L58.8094 12.8104C58.2677 13.0494 57.8062 13.0494 57.3849 13.5074C57.289 13.6334 57.1686 13.7389 57.0307 13.8176C56.8928 13.8963 56.7404 13.9466 56.5825 13.9655C56.3221 13.9861 56.0605 13.9861 55.8001 13.9655C55.1381 13.9655 54.5362 13.9655 53.8942 13.9655C53.4686 13.8833 53.0568 13.7425 52.6705 13.5472C51.6773 13.2334 50.6432 13.0657 49.601 13.0494C48.5516 12.8975 47.4882 12.8641 46.4312 12.9499L46.5918 13.1888C46.8455 13.4708 47.1825 13.666 47.5547 13.7464C47.5547 13.9854 47.5547 14.2642 47.5547 14.4633C47.2877 14.4407 47.0192 14.4407 46.7522 14.4633C46.3711 14.4633 46.2507 14.2443 45.9498 14.1447C45.6488 14.0451 45.388 14.1447 45.1272 14.1447C44.8664 14.1447 44.7661 13.5472 44.3649 13.4278C44.746 13.1888 45.3679 13.4278 45.7291 13.149V12.91H45.4482L44.7661 12.691C44.2044 12.5715 43.5424 12.691 42.9606 12.691C42.3788 12.691 40.5331 12.3524 40.9544 12.691C41.1616 12.811 41.3302 12.9871 41.4403 13.1987C41.5504 13.4102 41.5976 13.6486 41.5763 13.8858C41.4158 14.6027 41.3155 14.2044 41.4359 14.981C41.4905 15.3783 41.3978 15.7817 41.1751 16.1161L40.1921 15.9369L40.0516 16.2356L39.51 16.4746V17.1118L39.9713 17.53L40.4127 17.1716L40.5933 17.0521H40.8741V17.6296C40.8324 18.0713 40.8732 18.5169 40.9945 18.9439L41.2352 19.5015C41.3062 20.1102 41.3062 20.7249 41.2352 21.3336C41.275 21.5776 41.275 21.8263 41.2352 22.0704C41.2352 22.3292 41.0346 22.4686 41.0346 22.7673C41.0346 23.6037 41.5763 24.7587 40.9343 25.4358C40.6334 25.7743 40.4729 26.1527 40.172 26.5709C39.871 26.9891 40.0717 26.8099 39.8109 27.0687C39.4574 27.423 39.1226 27.7953 38.8078 28.1839C39.2913 28.4464 39.8121 28.6344 40.3525 28.7415C41.0146 28.7415 41.1751 28.7415 41.6365 29.2792C41.919 29.5295 42.1565 29.8258 42.3386 30.1554V30.6731L41.9374 31.1909C41.4359 31.6091 41.5161 32.0671 40.8541 32.1069C40.372 32.1069 39.8948 32.2017 39.4498 32.3858C38.9745 32.5519 38.5174 32.7654 38.0855 33.0229C37.8849 33.1623 37.4636 33.0229 37.2229 33.0229C36.7601 33.0059 36.3159 32.8379 35.959 32.545C35.4574 32.2264 35.0362 32.1468 34.5346 31.868C34.1284 31.6413 33.6977 31.4609 33.2506 31.3303C32.27 31.1143 31.265 31.0273 30.2615 31.0714C29.1276 30.887 27.9798 30.8004 26.8309 30.8125H26.4096C26.1488 30.9121 25.9883 31.0117 25.7677 31.1112C25.4873 31.2205 25.1846 31.2614 24.8849 31.2307C24.5619 31.24 24.24 31.2733 23.9219 31.3303C23.621 31.3303 23.6812 31.0117 23.0593 30.9918H21.7553C21.7553 31.2905 22.4976 31.4896 22.5377 31.5493V32.087C22.5075 32.3583 22.5075 32.6321 22.5377 32.9035C22.5377 33.1225 22.5377 33.3217 22.5377 33.7399C22.5377 34.1581 22.4173 34.6161 22.5377 35.0542C22.6331 35.4382 22.667 35.8347 22.638 36.2291C22.6453 36.7118 22.5914 37.1935 22.4775 37.6629C22.3874 38.0272 22.1752 38.3502 21.8757 38.5789L21.655 38.7581H21.8556C22.4231 38.7139 22.9864 38.6273 23.5408 38.4992L24.3834 38.3798C24.6241 38.3798 24.9652 37.9616 25.7075 38.0014C26.1461 38.1264 26.5965 38.2066 27.0516 38.2404C27.4043 38.2161 27.7573 38.2848 28.0747 38.4395C29.4389 38.9971 28.9976 38.4395 29.5995 39.0967C30.2013 39.7539 30.9837 40.63 30.7429 41.3668C30.4524 41.895 30.2107 42.4482 30.0207 43.0197C29.9997 43.3744 29.9527 43.7272 29.8803 44.0752C29.7763 44.6079 29.7763 45.1554 29.8803 45.6882C29.9723 46.0456 30.0062 46.4153 29.9806 46.7834C29.9806 47.6795 29.9806 47.8986 29.9806 48.3964C29.9447 48.9308 29.8777 49.4628 29.78 49.9896C29.6449 50.5093 29.5907 51.0466 29.6195 51.5826C29.6195 51.8814 29.8803 52.5983 29.6195 52.897L29.0176 53.2753L28.3556 53.7134C27.9745 54.0321 27.7136 54.4104 27.3124 54.6892C26.9112 54.968 26.4898 55.0477 26.1087 55.3265C25.7275 55.6052 25.7476 55.7247 25.2059 55.4459C24.8085 54.6208 24.6224 53.7111 24.6642 52.7974C24.6612 52.4985 24.7524 52.206 24.925 51.961C25.1318 51.3163 25.2466 50.646 25.2661 49.9696V49.3921H25.567C25.8278 49.3921 25.9883 49.3921 26.209 49.5116L26.6504 49.9497L26.8108 49.7705L26.4899 49.2129L26.2692 48.5558C26.1488 48.3965 25.6473 48.4163 25.3062 48.3964C25.3062 47.5202 25.6272 47.2215 25.6673 46.1661C25.6673 45.8475 25.6673 45.728 25.6673 45.4093C25.5308 44.5454 25.4438 43.6744 25.4066 42.8006H24.9652C24.5192 42.1295 23.8844 41.6032 23.1396 41.2872C22.8587 41.9842 21.8757 41.8249 21.1334 42.024C20.6888 42.1022 20.2338 42.1022 19.7892 42.024C19.3216 41.9942 18.8526 41.9942 18.3849 42.024C18.0322 41.975 17.6744 41.975 17.3217 42.024C16.9606 42.024 16.6997 42.3227 16.3386 42.4024C16.0406 42.4609 15.7339 42.4609 15.4359 42.4024C13.6768 42.4478 11.9217 42.5941 10.1796 42.8405C9.47748 42.8405 8.75526 42.8405 8.0531 42.8405C7.74457 42.8666 7.44099 42.9335 7.15036 43.0396L6.709 43.2786H5.80619L5.22439 43.0396C4.9454 42.931 4.67684 42.7977 4.42193 42.6414L3.65957 42.3427H3.55929L3.15803 41.7253L2.93738 41.5461V40.9885V40.3911C3.19818 40.3911 3.13798 40.3911 3.35866 40.2915L3.92039 40.0327C4.38181 39.9331 4.88339 40.1521 5.34481 40.0327C6.23316 39.9717 7.12465 39.9717 8.013 40.0327C8.89572 40.0327 9.77843 40.0327 10.6411 40.0327C11.2311 40.1422 11.8366 40.1422 12.4266 40.0327C12.7275 40.0327 12.888 39.6941 13.1889 39.6543C13.4898 39.6145 13.9513 39.6543 14.2923 39.6543C14.8235 39.6495 15.3535 39.6029 15.8772 39.5149C16.4717 39.4749 17.0682 39.4749 17.6627 39.5149C17.8559 39.5388 18.0513 39.5388 18.2445 39.5149C18.1041 39.2759 18.2445 39.1166 18.2445 38.8179C18.2445 38.5192 18.2445 38.3798 18.0238 38.1209C17.8031 37.862 17.5223 37.6828 17.5423 37.2248C17.8038 36.3842 17.9588 35.5146 18.0038 34.636C18.0038 34.158 18.0038 33.6204 18.0038 33.1424C18.0537 32.7924 18.0537 32.4371 18.0038 32.087C17.9585 31.9417 17.8781 31.8095 17.7698 31.7019C17.6614 31.5944 17.5283 31.5147 17.3819 31.4697H16.8001C16.2658 31.5094 15.7293 31.5094 15.1951 31.4697C14.5361 31.6222 13.8647 31.7155 13.1889 31.7485C13.0886 31.4299 12.3464 31.3303 12.0454 31.3104C11.7445 31.2905 11.5439 31.5494 11.2028 31.8082C10.8618 32.0671 10.8618 31.9476 10.5809 32.0472C10.2874 32.0769 9.99166 32.0769 9.69818 32.0472C9.25201 32.0979 8.80968 32.1777 8.3741 32.2862C6.84307 32.5368 5.28793 32.6104 3.73984 32.5052H3.25838L2.97748 32.2264C2.73674 32.2264 2.45591 32.5649 2.19511 32.6446C1.9343 32.7242 1.27226 32.8239 0.81084 32.8836C0.488535 35.1471 0.307656 37.4283 0.269195 39.714C0.242553 45.1141 1.04758 50.4865 2.65649 55.6451L4.06083 54.7689L6.84945 56.5611C6.84945 56.5611 6.18736 57.0988 6.48829 58.7716L6.709 60.7629H5.28463C4.89323 60.0341 4.40018 59.3637 3.8201 58.7716C7.12369 67.1745 12.5382 74.5988 19.5485 80.3382H19.9698C20.257 80.3581 20.5453 80.3581 20.8325 80.3382L21.4343 80.0793C21.9158 80.0793 22.9791 80.0793 23.2399 79.6213V79.1633V78.3866C22.8787 76.8334 22.4976 76.913 22.5778 76.5347C22.6393 76.1847 22.8331 75.8713 23.1195 75.6584C22.8587 75.6584 22.4976 75.6585 22.2569 75.5191C22.0161 75.3797 21.3942 75.5191 20.9528 75.4195C20.5115 75.3199 20.2106 75.081 19.8896 75.0212H19.2676C18.9867 75.0212 19.067 75.1806 18.7059 75.0212L18.1843 74.6229C17.9668 74.4931 17.7816 74.316 17.6426 74.1052L17.2815 73.5078C17.121 73.3086 17.0408 73.1692 16.8803 72.9303C16.7411 72.721 16.633 72.493 16.5593 72.2532C16.5593 72.532 15.8772 70.5008 16.138 70.8592C15.7769 70.3414 15.6566 70.2021 15.817 69.5648C15.908 68.7957 16.1319 68.0479 16.4791 67.3544C16.9004 66.6773 17.2615 65.8609 18.064 65.5223L18.8664 65.3033V64.7855L19.2877 64.5665C19.709 64.4072 20.03 64.1283 20.4312 63.9491C21.2516 63.6576 22.098 63.4443 22.959 63.3119C23.6802 63.0526 24.4391 62.9114 25.2059 62.8937C25.8078 62.8937 25.8679 63.2322 26.2892 63.511C26.7105 63.7898 27.0917 63.6903 27.513 63.7898C27.9343 63.8894 28.6766 64.1682 29.2584 64.3673C29.5321 64.4895 29.794 64.6361 30.0408 64.8055C30.3002 64.9509 30.5424 65.1245 30.763 65.3232C31.0616 65.5338 31.3255 65.7891 31.5454 66.0799C31.7701 66.5339 31.971 66.9993 32.1473 67.4739V68.131C32.1682 68.4626 32.1682 68.7951 32.1473 69.1267C32.2049 69.4628 32.2049 69.8062 32.1473 70.1423C32.1473 70.5804 31.9266 70.4809 31.6457 70.7597C31.3649 71.0385 31.2244 71.7355 30.9436 72.2134C30.6791 72.8393 30.2578 73.3876 29.7198 73.8065C29.439 73.9459 29.1781 74.0654 28.8772 74.2446C28.5763 74.4238 28.2353 74.603 27.9143 74.7424C27.5269 74.9242 27.1516 75.1304 26.7908 75.3598L26.4096 75.5987L26.2491 75.6983L25.7075 75.9571V76.3156L26.1889 76.7935C26.6102 77.7295 26.189 78.546 26.4096 78.7849C26.6303 79.0239 26.4096 79.9798 26.6704 79.9798C26.9312 79.9798 26.4899 79.6412 26.8108 79.5217C27.1318 79.4022 28.817 79.2628 29.3787 79.1434C30.5644 78.7979 31.7704 78.5252 32.9899 78.3269C33.364 78.2014 33.7601 78.154 34.1535 78.1875C34.6149 78.1875 35.0161 78.5659 35.4775 78.6455C35.7442 78.6758 36.0134 78.6758 36.28 78.6455V78.526C35.8587 77.7494 35.4775 77.5702 35.297 76.9528C35.2177 76.4087 35.2799 75.8534 35.4775 75.3398C35.8788 75.1805 36.28 74.9615 36.6612 74.7822C36.6612 74.2844 36.6612 73.6671 36.6612 73.1493C37.0423 73.1493 37.3031 73.1493 37.7044 73.1493C37.7044 73.6273 37.263 74.1052 37.1828 74.603C37.1419 75.2662 37.1419 75.9312 37.1828 76.5944C37.069 77.1387 37.0019 77.6917 36.9822 78.2473V78.526C37.1334 78.4985 37.2888 78.5038 37.4377 78.5416C37.5867 78.5794 37.7255 78.6489 37.8448 78.7451C38.0222 78.8864 38.1898 79.0394 38.3463 79.2031C38.6473 79.462 38.868 79.7607 39.189 80.0395C39.51 80.3183 39.3896 80.1789 39.7908 80.139C39.9747 80.0891 40.1687 80.0891 40.3525 80.139C40.0717 79.4221 39.6705 79.5416 38.8881 79.223C38.8881 78.8646 38.6673 78.5659 38.6673 78.2074C38.6673 77.849 38.7877 77.8689 38.9081 77.5901C39.1848 76.7341 39.2332 75.8216 39.0485 74.9416C38.9007 73.9253 38.9552 72.8902 39.209 71.8948C39.3638 71.5302 39.4057 71.1281 39.3294 70.7397C39.1982 70.3487 39.1638 69.9321 39.2291 69.525C39.2991 68.7832 39.2991 68.0365 39.2291 67.2947C39.2291 66.1397 39.2291 64.9448 39.2291 63.7898C39.2291 62.9734 39.2291 62.117 39.3896 61.2807C39.4492 60.8836 39.4007 60.478 39.2491 60.1058C38.9883 59.3889 39.2491 59.369 39.7507 58.9508C39.1488 58.5525 39.3695 58.0945 39.1087 57.517C38.9006 57.046 38.7913 56.5378 38.7877 56.0234C38.7877 55.4459 38.5871 54.8883 38.5871 54.3905C38.5871 53.8927 38.5871 54.1914 38.4868 53.9524C38.0643 53.1351 37.4264 52.4469 36.6411 51.961C36.4204 51.961 36.5007 51.7618 36.4806 51.5627V51.4034L35.9992 51.9212C35.5924 52.2949 35.2412 52.724 34.9559 53.1957L34.4143 53.8529C34.0967 54.0843 33.7613 54.2907 33.4112 54.4702C32.7259 55.0453 31.9359 55.4847 31.084 55.7646C30.7831 55.7646 30.4621 55.5256 30.1812 55.4857C29.9003 55.4459 29.5593 55.7645 29.3587 55.4857L29.1179 54.6892C29.1179 54.6892 29.3787 54.3308 29.6195 54.0719C29.8891 53.7068 30.1841 53.3608 30.5022 53.0364C30.6933 52.6521 30.9077 52.2797 31.1442 51.9212C31.4355 51.5246 31.7504 51.1456 32.0871 50.7861C32.5358 50.2511 33.0327 49.7579 33.5716 49.3125C33.8525 49.0337 34.2136 48.8545 34.334 48.4761C34.4804 48.1058 34.6986 47.7675 34.976 47.4804C35.9023 46.4878 36.7793 45.4511 37.6041 44.3739C37.7633 44.1089 37.9748 43.8786 38.226 43.6968L38.6272 43.1591C38.7677 42.9202 38.9482 42.7011 39.0886 42.482C39.3168 42.0626 39.6077 41.6799 39.9513 41.347C40.2616 41.049 40.5253 40.7067 40.7337 40.3313L40.9343 39.7738V39.1564C41.0112 38.8277 41.0715 38.4954 41.1149 38.1607C41.2036 37.8685 41.2036 37.5568 41.1149 37.2646C41.0789 37.0526 41.0183 36.8455 40.9343 36.6473C40.9343 36.4481 41.2353 36.3884 40.9343 36.2689C40.6334 36.1494 40.513 36.488 40.1319 36.4681H39.0485C38.6899 36.4261 38.3346 36.3596 37.9852 36.2689C37.4306 36.2403 36.8748 36.2403 36.3201 36.2689C35.7471 36.1865 35.1627 36.2914 34.655 36.5676L34.2537 36.3884C34.0418 35.9899 33.7862 35.6159 33.4914 35.2732L33.2105 34.9945L32.9497 34.875V34.7555L32.7692 33.6204L33.03 33.1624C33.3309 33.0031 34.0532 33.481 34.3742 33.5009C34.8901 33.5967 35.4141 33.6434 35.939 33.6403C36.1703 33.5861 36.4048 33.5461 36.6411 33.5208L36.922 33.6204L37.2229 33.7399C37.5439 33.7399 37.6643 33.481 37.885 33.3615C38.1695 33.2689 38.4685 33.2284 38.7676 33.242C39.356 33.1329 39.9553 33.0928 40.5531 33.1226C40.834 33.1226 41.155 33.262 41.476 33.262C41.797 33.262 41.7368 33.0628 42.0177 32.9831C42.463 32.9137 42.9165 32.9137 43.3618 32.9831C43.9333 33.073 44.5156 33.073 45.0871 32.9831C45.6689 32.8437 46.2105 32.4853 46.7923 32.2862C47.3741 32.087 47.5146 31.8281 47.9359 31.848C48.3601 31.8302 48.7793 31.7496 49.1797 31.6091C49.7213 31.5095 49.9822 31.8481 50.3834 31.9875C50.7846 32.1269 51.888 32.5052 51.3062 32.326C51.547 32.4256 51.6071 32.6645 51.8679 32.6645C52.1287 32.6645 52.1087 32.6645 52.53 32.6645L53.2723 32.9234L53.3726 33.4213V33.7996C53.3726 34.0386 53.3726 33.9589 53.2723 34.1581C53.1046 34.4381 52.9763 34.7396 52.8911 35.0542C52.7654 35.4335 52.5278 35.7665 52.209 36.01L51.8679 36.4681C51.6874 36.6473 51.226 36.5676 50.9652 36.4681C50.2442 36.4083 49.5195 36.4083 48.7985 36.4681L48.2368 36.5875L47.8155 36.707C47.5547 36.707 47.2538 36.707 46.9729 36.6075C46.6785 36.5191 46.3762 36.4591 46.0701 36.4283H45.3078C45.3078 35.9902 44.6859 36.1693 44.4451 36.2689C44.2044 36.3685 43.743 36.2689 43.3819 36.4083H43.2013L43.6427 36.6871C43.9837 36.9062 44.0439 37.3243 44.2646 37.623C44.4853 37.9217 44.8464 38.1608 44.9066 38.5989C44.9668 39.037 44.5454 39.6543 44.5655 39.8534L44.8865 40.1919C45.1272 40.411 45.1071 40.5106 45.2275 40.8491C45.3479 41.1877 45.368 41.2275 45.4683 41.5262C45.5396 41.751 45.6267 41.9706 45.7291 42.1833C45.9154 42.4255 46.0767 42.6857 46.2106 42.96C46.4457 43.5442 46.8009 44.0732 47.2538 44.5133C47.8556 45.1505 48.0562 45.8077 48.638 46.5046C48.7754 46.656 48.8701 46.8406 48.9124 47.04C48.9547 47.2393 48.943 47.4463 48.8788 47.6397C48.8788 48.0778 49.1596 47.4008 49.5208 47.7592L49.9621 48.1575L50.4436 48.4761L50.6843 48.6952C50.9359 48.8586 51.1537 49.0681 51.3263 49.3125C51.5269 49.5315 51.6874 49.7904 51.8679 50.0294C52.0485 50.2683 52.0084 50.1489 52.2291 50.2485C52.4498 50.348 52.6303 50.5073 52.871 50.6866C53.1118 50.8658 53.3525 50.9255 53.4127 51.3039C53.4729 51.6822 53.5732 51.6026 53.4127 51.7818L53.0516 52.3194C52.9112 52.6182 52.3896 52.7377 52.1689 52.9567C51.6672 53.4466 51.0445 53.7968 50.3633 53.9723C50.097 53.9646 49.8333 53.9176 49.5809 53.8329C49.302 53.8133 49.0358 53.709 48.8186 53.5342C48.5177 53.2554 48.2769 53.3351 47.9359 53.1957C47.2337 52.9567 47.0732 52.1004 46.692 51.5826C46.3109 51.0649 46.2507 51.2043 46.2106 50.9454C46.1705 50.6865 46.4714 50.4675 46.371 50.1488C46.2334 49.8357 46.0794 49.53 45.9097 49.2328L45.388 48.8545L45.1673 48.6952C44.8749 48.3699 44.6803 47.9697 44.6056 47.5401C44.6056 47.1817 44.2044 46.8232 44.084 46.425C43.9704 46.143 43.8896 45.849 43.8432 45.5488C43.6673 44.899 43.573 44.2301 43.5624 43.5574C43.5624 43.1591 43.1813 43.3981 43.1411 43.1591L42.9204 42.6812C42.4791 42.3625 41.5563 44.2942 41.3958 44.573C41.2353 44.8518 40.6334 45.3098 40.3525 45.8276C40.0499 46.3942 39.6794 46.9223 39.2491 47.4007C39.0084 47.6596 38.8479 47.9783 38.6272 48.2371C38.4157 48.4191 38.2449 48.6429 38.1257 48.8943C37.9251 49.3125 37.564 49.4917 37.3032 49.8701C37.1293 50.2016 37.0075 50.5575 36.9421 50.9255V51.045C37.1365 50.8836 37.373 50.78 37.6242 50.7463C37.9611 50.7047 38.302 50.7822 38.5871 50.9653C38.877 51.1053 39.1792 51.2187 39.4899 51.3039C40.2522 51.503 40.8942 51.981 41.6766 51.8615C41.8758 51.814 42.0835 51.8145 42.2825 51.863C42.4814 51.9115 42.6658 52.0066 42.8201 52.1402L43.2213 52.5385C43.8232 53.0762 43.2214 53.0165 43.8031 53.4745C43.8692 54.1414 43.8217 54.8146 43.6627 55.4659C43.6627 55.8044 43.5424 55.8641 43.5223 56.2027C43.5223 57.0789 43.5223 57.9551 43.5223 58.8512C43.4865 59.6366 43.5744 60.4227 43.7831 61.1811C43.8701 61.9819 43.7741 62.792 43.5022 63.5509C43.482 63.9157 43.482 64.2813 43.5022 64.6461C43.41 65.0643 43.3762 65.4932 43.4019 65.9206C43.5556 66.3336 43.7435 66.7333 43.9637 67.1155C44.3028 67.1656 44.6476 67.1656 44.9868 67.1155L45.5887 66.7968C46.1504 66.5977 46.4713 66.0998 47.0531 66.0799L48.4374 65.9804C48.9791 65.9804 49.28 66.3388 49.7615 66.4383C50.243 66.5379 50.4235 66.2392 50.9451 66.4383C51.4667 66.6375 52.1889 66.7968 52.6905 67.0756C53.192 67.3544 52.9914 67.693 53.0115 68.1709C53.0315 68.6488 53.4127 69.1466 53.2723 69.4653C53.1319 69.7839 52.2893 70.8194 51.5871 70.68L51.0053 70.5207C50.6041 70.4211 50.1627 70.5207 49.7816 70.3415C49.3536 70.2246 48.9179 70.1381 48.4776 70.0826L47.9359 70.1821C47.7152 70.1821 47.3942 70.1821 47.1535 70.1821C46.8328 70.2021 46.5112 70.2021 46.1905 70.1821C45.5137 70.134 44.8425 70.0274 44.1843 69.8635L44.0439 70.3016L43.5423 70.0826L42.8602 69.9631L43.2615 69.1068H42.2584C42.118 69.4055 42.0176 69.3856 41.7167 69.4653C41.4158 69.5449 41.4158 69.7839 41.7167 70.0029V70.4808C41.5981 70.5388 41.4677 70.569 41.3355 70.569C41.2033 70.569 41.073 70.5388 40.9544 70.4808C40.9562 70.6668 40.9983 70.8503 41.0779 71.0187C41.1575 71.1871 41.2728 71.3365 41.4158 71.4567L41.6164 71.2575C41.7533 71.1189 41.9274 71.0221 42.118 70.9787L41.8772 70.4808C42.459 70.4808 43.2213 70.222 43.7229 70.4808C43.8157 70.8859 43.8628 71.3001 43.8633 71.7155C43.8633 72.1736 43.2815 72.4125 43.1812 72.8506C43.0809 73.2887 43.0609 73.3484 43.1812 73.4878C43.3418 74.263 43.3418 75.0625 43.1812 75.8377C43.1812 76.3156 43.3217 77.391 42.9405 77.7295C43.3417 77.8888 43.442 77.829 43.4821 78.2671C43.5087 78.8002 43.4751 79.3346 43.3819 79.8603C43.3819 80.6967 43.5624 81.533 43.5423 82.3694C43.5223 83.2058 43.5423 83.4846 43.5423 84.0422C43.5423 84.5998 43.3818 84.6994 43.3417 85.0976C43.3351 85.6701 43.3686 86.2423 43.442 86.8102C43.5253 87.3379 43.5789 87.8697 43.6025 88.4033C43.5435 88.8517 43.4149 89.2884 43.2213 89.6977C43.121 89.9566 42.8803 90.076 42.78 90.2752C42.6797 90.4743 42.6596 90.9523 42.5593 91.2908C41.5763 91.0917 40.5531 90.8527 39.6704 90.6137V90.4943C39.6498 90.2787 39.6095 90.0654 39.5501 89.857V89.0007C39.4498 88.8016 39.3494 89.0007 39.2291 88.702C39.0961 88.3111 39.0349 87.8996 39.0485 87.4872C39.0885 86.8241 39.0885 86.1591 39.0485 85.4959V85.0777C39.0941 84.8721 39.1614 84.6719 39.2491 84.4803C39.4096 84.1418 39.2491 83.5643 39.2491 83.166C39.2491 82.7677 39.3895 82.23 39.0886 82.1106C38.7877 81.9911 38.5068 82.7279 38.226 82.7677C37.9178 82.7279 37.615 82.6545 37.3232 82.5487L36.6812 82.4491C35.5914 82.1756 34.4746 82.0221 33.351 81.9911C32.8494 81.9911 32.4281 82.1902 31.9466 82.2499C31.594 82.2995 31.236 82.2995 30.8834 82.2499C30.463 82.29 30.0398 82.29 29.6195 82.2499C29.3186 82.2499 29.3386 81.8516 29.138 81.6326C28.8571 81.7919 29.138 81.991 28.8772 82.1902L27.5732 82.2101C26.695 82.4083 25.7832 82.4083 24.905 82.2101C24.5048 82.0987 24.0814 82.0987 23.6812 82.2101C23.3 82.3296 22.8787 82.2101 22.4775 82.3694H22.2569C29.6375 87.7066 38.2886 91.0486 47.3622 92.068C56.4358 93.0874 65.6205 91.7491 74.0161 88.1842C73.9978 87.846 73.9978 87.5069 74.0161 87.1686C74.0161 86.5712 74.0161 85.9738 74.0161 85.3963C74.0161 84.8188 73.8757 84.6595 73.8958 84.0023C73.8958 82.927 73.8958 82.2101 73.9961 81.5131C74.0964 80.8161 74.1165 80.4378 74.2368 79.9598C74.2974 79.1349 74.257 78.3058 74.1165 77.4905C74.1165 76.7537 74.1165 76.0169 74.1165 75.3C74.0565 74.458 74.0565 73.6129 74.1165 72.771C74.1165 72.771 74.9992 72.5519 74.7384 72.3129C74.0707 72.2594 73.3998 72.2594 72.7322 72.3129V72.6515C72.4306 72.6457 72.1352 72.7364 71.8896 72.9103L71.4884 73.2887C71.1273 73.2887 70.8263 73.0298 70.5053 72.9701C70.1334 72.9505 69.7608 72.9909 69.402 73.0896C69.1955 73.1163 68.9865 73.1163 68.78 73.0896C68.3587 73.0896 68.0979 73.4082 67.6766 73.3684C67.3309 73.313 67.0059 73.1689 66.7337 72.9502L66.0516 72.4921C65.8449 72.2982 65.6987 72.0494 65.6303 71.7753C65.579 71.6153 65.4973 71.4666 65.3896 71.3372C65.209 71.0783 65.53 70.6203 65.5501 70.3216C65.8149 70.3401 66.0809 70.3063 66.3325 70.222C66.6736 70.0826 66.7738 69.8237 67.1751 69.8237C67.5763 69.8237 68.459 69.8237 69.1812 69.9432C69.6815 69.9121 70.1782 69.8389 70.6659 69.7242C70.9286 69.6959 71.1855 69.6288 71.4281 69.525C71.8675 69.4652 72.3129 69.4652 72.7522 69.525C72.9528 69.525 74.1165 70.0029 73.6751 69.3259C73.5347 69.0869 74.1165 68.609 74.0964 68.3501L73.9359 68.0912V67.8323C73.8259 66.9862 73.8259 66.1295 73.9359 65.2834H74.2769C73.956 65.0245 74.277 64.5864 73.9158 64.2479C73.5547 63.9093 73.5347 64.0686 73.4946 63.6305C73.5146 63.3455 73.5146 63.0593 73.4946 62.7742C73.4946 62.4954 73.4946 62.2963 73.4946 61.9777C73.4628 61.7113 73.377 61.454 73.2426 61.2214C73.1081 60.9887 72.9277 60.7853 72.7121 60.6235L72.1705 60.0659L71.7893 59.4685L71.5084 58.9707L71.2677 58.6322L70.8865 58.3135C70.9158 58.1561 70.963 58.0024 71.0269 57.8555L71.2476 57.4971L71.5686 57.0789C71.9166 57.1612 72.2745 57.1947 72.6319 57.1784C73.1133 57.1784 73.3942 57.7758 73.8356 57.9949C74.2769 58.2139 74.5979 58.2737 74.8387 58.7317L75.0594 58.433H75.5208C76.0505 58.5034 76.5653 58.6581 77.0455 58.891C77.7075 59.1698 77.3263 59.2495 77.547 59.7473L77.8078 60.1257C78.0084 60.5638 77.6874 60.7231 77.6473 61.1811C77.4551 61.145 77.2578 61.145 77.0656 61.1811L76.9652 61.5396L76.1026 61.1612L75.4004 61.5396C75.2094 61.9135 75.0613 62.3076 74.959 62.7145L75.3603 63.2322L76.1226 63.8894C76.4838 64.208 76.3834 63.3916 76.4436 63.1725C76.6238 62.8358 76.8614 62.5326 77.1458 62.2764C77.547 61.9179 77.4668 62.1171 77.6875 62.5552C77.9081 62.9933 77.9683 62.834 77.9482 63.1924C77.9282 63.5509 77.6273 64.1483 77.5671 64.7457H76.7646C76.4837 64.7457 76.4235 64.7457 76.1427 64.8453L75.8418 65.4626C75.8418 65.7812 76.1828 66.1397 75.9822 66.4185C75.7816 66.6973 75.7214 66.4185 75.6411 66.299C75.5609 66.1795 75.6412 65.9604 75.1196 65.7812L74.6581 66.6574C74.6581 66.976 75.0594 67.1353 75.1797 67.454C75.3033 67.8701 75.5002 68.2612 75.7615 68.609C75.9345 68.6603 76.1195 68.655 76.2892 68.594C76.459 68.5331 76.6045 68.4197 76.7044 68.2704L77.4668 67.9916H77.7276C77.7276 68.6089 77.5069 69.1865 77.9081 69.6843C78.3093 70.1821 78.0887 70.9787 78.0686 71.6757L77.6674 71.9346V72.751C77.6674 73.5675 77.2862 74.3641 77.3665 75.1805C77.4067 75.7573 77.4067 76.3362 77.3665 76.913C77.3665 77.5304 77.3665 78.0083 77.3665 78.6057C77.3665 79.2031 77.4868 79.7209 77.4868 80.2785C77.5271 80.5758 77.5271 80.8772 77.4868 81.1746C77.4024 81.4731 77.3552 81.7807 77.3464 82.0906C77.2918 82.5604 77.2918 83.0348 77.3464 83.5045C77.4173 83.7983 77.4576 84.0986 77.4668 84.4006C77.6138 84.8061 77.6138 85.2498 77.4668 85.6552C77.3464 85.9141 77.1859 86.0335 77.0455 86.3721C76.905 86.7106 77.0454 86.7704 76.8248 86.9496C78.1689 86.2924 79.493 85.5556 80.8371 84.779C80.8371 84.3608 80.8371 83.9625 80.8371 83.5444C80.9133 82.936 80.9133 82.3206 80.8371 81.7123V80.856C80.8371 80.5573 80.9374 77.0923 80.8371 76.7537C80.7368 76.4152 81.2785 73.9061 80.8371 73.6472C80.3958 73.3883 80.6165 72.5519 80.6566 72.2333C80.725 71.8084 80.6693 71.373 80.4961 70.9787C80.3961 69.8059 80.3961 68.6268 80.4961 67.454C80.6466 66.9334 80.6466 66.3814 80.4961 65.8609C80.4961 65.4825 80.3757 64.6461 80.3356 64.2677C80.3157 63.9361 80.3157 63.6037 80.3356 63.272V62.6547V61.7387L80.135 61.1014L79.9745 60.7231L80.2152 60.1456V59.6478C80.2152 59.3092 80.4158 59.0703 80.8371 59.2495V58.8114L80.5562 58.6521L80.1149 58.2936C79.9544 58.0745 80.3757 57.6564 80.1149 57.5568C79.8541 57.4572 79.5532 57.6763 79.3325 57.5568C79.1118 57.4373 78.9714 57.1386 78.7507 56.9594L78.4097 56.6408C78.0279 56.2312 77.5967 55.87 77.1257 55.5654C77.1257 55.207 76.7847 54.7689 76.8649 54.4502L77.0254 54.3308L77.1658 54.2113L77.4467 53.9922L77.6473 53.8529H78.0686L78.4297 53.9723L78.9714 54.1914L79.2924 54.3905L79.7337 54.5897L80.5964 54.7091C80.8769 54.7293 81.1584 54.7293 81.4389 54.7091C81.6596 54.7091 81.9205 54.7091 82.1412 54.7091C82.6208 54.7981 83.0656 55.0189 83.4252 55.3464C83.2896 55.0931 83.1819 54.826 83.1041 54.5498V54.0519L83.3048 53.7134L83.5254 52.7576L83.3048 52.3792V52.1402C83.1844 52.1402 83.044 52.1402 82.9035 51.8216L83.1843 51.3835L82.6026 51.7021C82.6128 51.476 82.5495 51.2526 82.4221 51.0649L82.7229 50.3679C82.9375 50.624 83.2135 50.8225 83.5254 50.9454V50.6866C83.6841 49.8019 84.0557 48.9684 84.6087 48.2571C84.7949 47.8121 85.0834 47.4165 85.4513 47.102C85.8726 46.8033 86.4343 46.7237 86.8356 46.3852C87.2368 46.0466 87.2167 45.7877 87.4575 45.5488C87.5986 45.4231 87.7636 45.3267 87.9427 45.2651C88.1219 45.2036 88.3115 45.1782 88.5007 45.1903C89.3232 45.1903 90.1258 45.1903 90.9483 45.0509C91.763 44.991 92.5811 44.991 93.3958 45.0509C94.6925 45.2873 95.9723 45.6066 97.2275 46.0068C97.5138 46.1278 97.7531 46.3373 97.9097 46.6042C98.0509 46.8433 98.1653 47.097 98.2507 47.3609C98.2507 47.58 98.7924 47.8588 98.8326 48.1177L99.0733 47.9384C98.9089 47.6514 98.768 47.3517 98.652 47.0423V46.5046C98.6802 46.2399 98.6802 45.9729 98.652 45.7081C98.6115 45.1845 98.6115 44.6585 98.652 44.1349C98.652 43.657 98.9729 43.4578 98.8927 43.0396C98.8307 42.6572 98.7905 42.2716 98.7723 41.8846C98.7723 41.1677 98.6319 40.5106 98.652 39.8932C98.6326 39.5109 98.53 39.1372 98.3511 38.798C98.2107 38.4196 98.351 38.2205 97.9097 38.1607C97.5832 38.1208 97.2531 38.1208 96.9267 38.1607C96.6057 38.1607 96.3248 38.4594 96.0038 38.559C95.1535 38.8182 94.2896 39.0309 93.4159 39.1962C92.9544 39.1962 92.9143 39.1962 92.5331 38.9374C92.1727 38.7389 91.7594 38.6555 91.3494 38.6984C90.9381 38.7415 90.5338 38.8352 90.1458 38.9772C89.9912 39.0459 89.8237 39.0813 89.6543 39.0813C89.4849 39.0813 89.3174 39.0459 89.1628 38.9772C88.8225 38.8774 88.4932 38.7439 88.1798 38.5789L87.939 38.1408C87.7986 37.9218 87.7384 37.2646 87.4174 37.2646V36.707L88.6211 36.5875C89.0624 36.5875 89.5038 36.4482 89.9251 36.4083C90.266 36.4294 90.6024 36.3229 90.868 36.1096C90.9434 36.0348 91.035 35.9779 91.1358 35.9434C91.2366 35.9089 91.344 35.8976 91.4498 35.9105C91.7409 35.9018 92.0302 35.8618 92.3125 35.791C93.0355 35.519 93.8071 35.397 94.5795 35.4326C95.3011 35.4727 96.0244 35.4727 96.7461 35.4326C97.3479 35.4326 97.709 35.8109 98.2306 36.0698L98.6319 35.791C98.6319 35.4525 98.4714 35.4923 98.3911 35.2932C98.3109 35.094 98.3911 34.9546 98.3911 34.6958C98.3911 34.4369 98.5717 33.9191 98.652 33.5208C98.6974 33.4206 98.7209 33.3121 98.7209 33.2022C98.7209 33.0924 98.6974 32.9838 98.652 32.8836L98.4313 32.326C98.4313 31.9277 98.4313 31.5693 98.3109 31.1909C98.2704 30.8469 98.2704 30.4994 98.3109 30.1554C97.9699 30.1554 97.8094 30.4143 97.5285 30.5537C97.2476 30.6931 97.4282 30.932 96.9066 31.0913C95.8957 31.5198 94.8149 31.7627 93.7167 31.8082C93.3294 31.7784 92.9405 31.7784 92.5532 31.8082C92.2327 31.8317 91.9121 31.7625 91.6303 31.6091L91.3094 31.4299H90.6072C90.1552 31.4997 89.695 31.4997 89.243 31.4299C88.7214 31.3104 87.4375 30.4342 87.5177 31.5892C87.7077 31.7194 87.8488 31.9085 87.919 32.1269V32.545L87.7986 32.9234C87.7986 33.2022 87.919 33.4412 87.7986 33.7199C87.598 34.4966 86.956 35.0343 86.8757 35.8308C86.8757 36.1494 86.7554 36.5876 86.7554 36.8464C86.7554 37.1053 86.8958 37.165 86.7554 37.5235C86.6149 37.8819 86.4945 37.9417 86.3742 38.1408C86.3109 38.3061 86.2142 38.4568 86.09 38.5835C85.9658 38.7102 85.8167 38.8103 85.652 38.8776C85.2106 39.0967 84.689 39.0967 84.2275 39.3755C83.7661 39.6543 83.3649 40.0326 82.9637 40.2716C82.8265 40.3578 82.678 40.4248 82.5224 40.4708C81.8403 40.7894 80.9976 40.9089 80.3356 41.2673C79.6735 41.6258 79.1118 42.2829 78.189 42.1036C77.5872 41.9642 77.0655 42.1037 76.4637 42.0041C76.0008 41.9119 75.5589 41.7364 75.1597 41.4863C74.8788 41.2673 74.4174 41.1877 74.1767 40.9089C73.9359 40.6301 73.8356 40.3313 73.5748 40.0525C73.314 39.7737 72.5918 38.9971 72.0501 38.4992L71.5686 37.7625C71.3425 37.4425 71.1349 37.1101 70.9467 36.7668C70.7342 36.5503 70.5397 36.3172 70.3649 36.0698L70.1041 35.4126C69.8834 34.9347 69.6427 35.1139 69.7831 34.4568C69.9046 33.8296 70.1069 33.2205 70.385 32.6446C70.6257 32.1467 70.5053 31.8282 70.9668 31.3901C71.2759 31.1238 71.5283 30.7987 71.709 30.4342C71.7519 30.1677 71.8259 29.907 71.9297 29.6575C71.9297 29.4385 72.1705 29.4385 72.2908 29.2991C72.4782 29.0976 72.7171 28.9505 72.9821 28.8733C73.2471 28.7961 73.5282 28.7919 73.7955 28.861C74.1967 28.6817 73.4344 28.6818 73.5547 28.3831L73.7955 28.1441L74.0563 27.8255C74.618 27.8255 75.4807 27.6064 76.0625 27.5666C76.7562 27.4515 77.431 27.2438 78.0686 26.9493L78.7908 26.6704C79.1118 26.6704 79.2723 26.9094 79.5532 26.9891C79.9041 27.0588 80.2655 27.0588 80.6165 26.9891C81.4297 27.0069 82.2246 27.2333 82.9236 27.6463L83.8665 28.1441L84.4282 28.5225C84.7693 28.7216 85.1906 28.9008 85.5316 29.0999C85.8727 29.2991 86.1736 29.7571 86.5347 30.016C86.6815 30.1021 86.8088 30.2172 86.9089 30.3543C87.009 30.4913 87.0797 30.6473 87.1164 30.8125C87.4575 30.9121 87.3371 29.3588 87.618 29.3588C87.8763 29.4098 88.1422 29.4098 88.4004 29.3588C88.813 29.2388 89.2517 29.2388 89.6643 29.3588C90.1166 29.342 90.5634 29.2546 90.9884 29.0999L91.5501 28.9804C91.8243 28.8841 92.1061 28.8108 92.3927 28.7614C92.748 28.6711 93.1104 28.6111 93.476 28.5822C93.8371 28.5822 94.1983 28.5822 94.5594 28.4428L95.1411 28.1839C95.5923 28.1042 96.0541 28.1042 96.5053 28.1839C97.0329 28.1442 97.5627 28.1442 98.0903 28.1839C98.4306 28.2035 98.7715 28.1561 99.0934 28.0445C99.4745 28.3034 99.615 28.622 99.956 28.3831C100.297 28.1441 100.337 28.0445 100.578 28.0445H101.501C101.464 27.7809 101.403 27.521 101.32 27.2679C101.059 26.6904 100.658 26.9492 99.6751 27.1085C99.4257 27.2261 99.1957 27.3805 98.993 27.5666C98.692 27.3874 98.7323 27.467 98.7122 27.248V26.8298C98.7627 26.5399 98.7627 26.2435 98.7122 25.9536V25.4757L98.8526 24.9778L99.4143 24.8583C99.314 24.4202 98.4915 23.8626 98.1504 23.5838C97.7636 23.1179 97.483 22.5745 97.3279 21.9907C97.3279 21.7916 97.3279 21.7717 97.0671 21.5526C96.8331 21.5025 96.6136 21.4004 96.4251 21.2539C96.1462 20.9573 95.8369 20.6903 95.5022 20.4573C95.2816 20.0391 95.5023 19.84 95.6628 19.6011C96.2044 19.0833 96.084 19.3621 96.5053 19.2426C96.9266 19.1231 97.0871 19.0435 97.4883 19.2426C97.7975 19.4266 98.1372 19.5547 98.4914 19.621C98.8957 19.7197 99.2865 19.8668 99.655 20.0591C100.076 20.2304 100.485 20.43 100.879 20.6565C101.18 20.8556 101.461 20.6565 101.822 20.6565C102.183 20.6565 102.424 20.8357 102.725 21.3535L102.524 21.3933ZM24.0223 64.8851C24.0223 65.1639 24.4235 65.3033 24.3633 65.602L23.6812 65.821L23.3 66.2392H22.7985C22.3831 66.3677 21.9495 66.4282 21.5146 66.4185C21.0732 66.4185 20.9327 66.2193 20.5917 66.518L20.371 66.8366L19.9096 66.976C19.6712 67.1913 19.4742 67.4477 19.3279 67.7328C19.1481 68.0446 19.0131 68.3797 18.9266 68.7285C18.8451 68.9995 18.8112 69.2824 18.8263 69.5648C18.839 69.8092 18.9076 70.0476 19.0269 70.2618L19.5084 70.8194C19.8294 71.1778 19.6488 71.7354 20.05 72.0142C20.8824 72.5999 21.8034 73.0503 22.7784 73.3484C23.2353 73.4396 23.7058 73.4396 24.1627 73.3484C24.426 73.3387 24.6879 73.3054 24.9451 73.2489L25.3263 73.0896C25.7436 72.84 26.1221 72.5314 26.4497 72.1735C26.7789 71.9338 27.0815 71.6601 27.3526 71.3571C27.538 71.1231 27.6682 70.851 27.7337 70.5605C27.7545 70.3669 27.8088 70.1782 27.8942 70.0029C28.0346 69.7241 28.2753 69.8237 28.2352 69.4851C28.1951 69.1466 28.2352 69.2064 28.2352 69.0272C27.834 68.2704 28.0146 67.3345 27.513 66.6375L26.8108 66.3189C26.8108 66.0401 26.4899 66.1197 26.2491 66.0998C26.0401 66.0853 25.8359 66.0312 25.6473 65.9405L24.905 65.7613L24.7244 65.4825L24.5238 65.0444L24.0223 64.8851ZM86.4745 51.8813L86.6752 51.9809C86.6752 52.2398 86.6752 52.5585 86.6752 52.6779C86.6752 52.7974 86.6752 52.9965 86.8156 53.2156C86.956 53.4346 86.976 53.5939 86.635 53.8927C86.635 53.8927 86.6349 54.5498 86.8356 54.3308C87.0362 54.1117 86.8356 54.1117 86.976 54.1715C87.5377 54.5299 88.3603 55.4659 88.601 55.3464C88.8417 55.2269 89.1427 55.665 89.4636 55.7845C89.7846 55.904 89.4637 56.0632 89.6643 56.3022C89.8718 56.5484 90.1528 56.7228 90.4667 56.8001C90.7676 56.8996 91.0285 57.2382 91.2492 57.2382C91.774 57.2337 92.2901 57.104 92.7538 56.8598C93.122 56.4689 93.5566 56.1453 94.0378 55.904C94.6589 55.7964 95.2696 55.6365 95.8633 55.426L96.3248 54.9879C96.6704 54.5671 96.9048 54.0675 97.0069 53.5342C97.1179 53.1292 97.1983 52.7165 97.2476 52.2996V51.742C97.2476 51.4831 97.2476 51.2242 97.2476 50.9852C97.2476 50.348 96.2646 49.7307 96.1643 48.9939C96.064 48.2571 95.9838 48.2769 95.4622 48.2172C95.2816 48.2172 95.0007 49.0138 94.4992 48.9939H93.8973C93.1751 48.8943 92.2924 48.3168 91.5702 48.3765C91.3534 48.3438 91.139 48.2972 90.9282 48.2371H90.6473L90.1659 48.5358C89.8071 48.6762 89.4276 48.7569 89.0424 48.7748C88.3202 48.7748 88.4004 49.1532 88.0393 49.7107C87.7843 50.0581 87.5563 50.4243 87.3572 50.806L87.1164 51.5627H86.4745C86.1279 51.5225 85.7779 51.5225 85.4313 51.5627V51.8216C85.4313 51.8216 85.4312 52.2796 85.8325 52.2L86.4745 51.8813ZM75.2399 33.3615L75.1396 33.1624L75.28 32.565C75.3803 32.4256 74.8588 32.1866 74.618 32.087L74.2368 32.565C74.0964 32.6845 73.6149 33.0031 73.8757 33.1226L74.3772 33.4412C74.5766 33.5399 74.7848 33.6199 74.9992 33.6801V34.1182L74.2368 34.5364L74.0964 34.7156V34.9745L74.297 35.2932L74.4977 35.5919V35.7113L74.7384 36.03C74.8745 36.2474 75.0516 36.4367 75.2599 36.5875C75.5567 36.7372 75.8448 36.9035 76.1226 37.0854L76.2831 37.185L76.7446 37.5235L77.0455 37.7625C77.2662 38.0213 77.2059 38.1807 77.5871 38.3002C78.1796 38.4799 78.7935 38.5804 79.4127 38.5989H79.9745L80.4359 38.0014C80.7167 37.8421 81.1581 38.0015 81.459 37.8023C81.7799 37.7195 82.0849 37.5849 82.3618 37.404C82.8141 36.937 83.2051 36.4151 83.5254 35.8507C83.8867 35.1201 83.9583 34.2815 83.726 33.5009C83.5455 32.6845 83.6057 31.868 82.8032 31.5095L82.402 31.2507L82.2013 30.952C81.7637 30.871 81.3149 30.871 80.8773 30.952C79.8614 30.7455 78.8209 30.6851 77.7877 30.7727C77.4668 30.8922 77.3865 31.1113 77.1257 31.3104C76.8649 31.5095 76.8449 31.8082 76.564 32.0671C76.2966 32.3656 76.0858 32.7096 75.942 33.0827C75.7414 33.4411 75.5007 33.4411 75.0995 33.4611L75.2399 33.3615ZM106.015 40.3513C106.031 34.8631 105.178 29.4063 103.487 24.1812C103.367 24.7587 103.487 24.7388 103.186 25.2168C102.917 25.9175 102.768 26.6579 102.745 27.4073C102.721 27.772 102.721 28.1378 102.745 28.5025C102.763 28.8275 102.763 29.1533 102.745 29.4783C102.745 29.8965 102.745 30.3346 102.745 30.7329C102.745 31.5294 102.745 32.1269 102.745 32.9234C102.745 33.72 102.905 34.1182 102.745 34.9148C102.735 35.319 102.675 35.7205 102.564 36.1096C102.385 37.2778 102.385 38.4662 102.564 39.6344C102.688 40.0891 102.756 40.5573 102.765 41.0283C102.765 41.5262 102.644 42.0041 102.644 42.482C102.684 43.2183 102.684 43.9562 102.644 44.6925C102.606 45.3557 102.606 46.0206 102.644 46.6839L102.504 47.0622C102.435 47.3098 102.435 47.5714 102.504 47.819C102.504 48.0778 102.504 48.3566 102.504 48.6354C102.504 48.9142 102.123 49.3125 101.962 49.7705L101.521 50.4675C101.26 50.7264 100.979 50.4675 100.758 50.587C100.538 50.7064 100.558 51.3039 100.598 51.6026C100.779 52.3756 100.779 53.1794 100.598 53.9524L100.458 54.4303L100.578 54.6693V54.9481V55.4061C100.404 55.8525 100.196 56.2851 99.956 56.7005C99.7483 56.9327 99.52 57.146 99.2739 57.3378C99.0037 57.6052 98.65 57.7737 98.2708 57.8157C97.9275 57.9929 97.6047 58.2066 97.3078 58.4529C96.9973 58.6172 96.7077 58.8178 96.4452 59.0503C96.1645 59.3024 95.8375 59.4985 95.4822 59.6278C95.1817 59.7377 94.8733 59.8242 94.5594 59.8867C93.8048 60.1477 93.0342 60.3605 92.2522 60.5239C91.6303 60.5239 91.1689 60.2451 90.5069 60.4044C89.8449 60.5638 89.8449 60.2053 89.3834 60.1058C89.0189 59.9773 88.6637 59.8243 88.3202 59.6478C87.919 59.4686 87.4776 59.1698 87.0362 58.9308C86.2656 58.4241 85.5872 57.7911 85.0301 57.0589C84.8306 56.8099 84.5856 56.6005 84.3079 56.4416C84.3079 56.82 84.689 56.9196 84.9698 57.1386C85.2507 57.3577 85.1504 57.5369 85.2106 57.7957V58.3932C85.2106 58.891 84.6689 59.0304 84.5886 59.4486C84.5084 59.8668 85.03 60.066 84.9899 60.5041C84.9289 60.8272 84.8278 61.1416 84.6889 61.44C84.6291 61.8427 84.6291 62.252 84.6889 62.6547C84.6293 63.1375 84.6293 63.6257 84.6889 64.1085C84.8107 64.5585 84.8107 65.0325 84.6889 65.4825C84.5779 65.981 84.5779 66.4975 84.6889 66.9959C84.7493 67.798 84.7493 68.6035 84.6889 69.4055C84.6889 70.3614 84.6889 71.2973 84.6889 72.2333C84.7491 72.6627 84.7491 73.0983 84.6889 73.5277C84.6889 73.8264 84.4482 73.7866 84.3479 74.0256C84.2476 74.2645 84.3479 74.9416 84.3479 75.3199C84.3981 76.2685 84.3981 77.219 84.3479 78.1676C84.3479 79.223 84.3479 80.159 84.3479 81.2742V81.9911C89.3708 78.2579 93.6902 73.6737 97.1072 68.4496C96.9551 68.2746 96.8269 68.0804 96.726 67.8721L97.6489 66.3189L95.6427 67.4739C95.7246 66.6602 95.5189 65.8436 95.0609 65.1639L96.0038 62.7742C96.0038 62.7742 97.8695 65.0643 99.2739 64.8652C103.393 57.2956 105.571 48.8352 105.613 40.2318" fill="black" fill-opacity="0.1"/>
</svg>
